<svg xmlns="http://www.w3.org/2000/svg" xmlns:xlink="http://www.w3.org/1999/xlink" version="1.1" x="0px" y="0px" viewBox="0 0 100 100" enable-background="new 0 0 100 100" xml:space="preserve"><path d="M35.5,68.1v-3.4c0-0.6,0.4-1.2,1.1-1.4c1.1-0.3,2.2-0.7,3.2-1.2c0.6-0.3,1.2-0.2,1.7,0.3l2.4,2.4c0.7,0.7,1.9,0.7,2.6,0  L48,63c0.7-0.7,0.7-1.9,0-2.6l-2.1-2.1c-0.5-0.5-0.6-1.2-0.2-1.8c0.8-1.3,1.5-2.8,1.9-4.3c0.2-0.6,0.7-1.1,1.4-1.1h3.4  c1,0,1.8-0.8,1.8-1.8v-2.3c0-1-0.8-1.8-1.8-1.8H49c-0.6,0-1.2-0.4-1.4-1.1c-0.4-1.6-1.1-3.2-2-4.5c-0.4-0.6-0.3-1.3,0.2-1.8l2.3-2.3  c0.7-0.7,0.7-1.9,0-2.6l-1.6-1.6c-0.7-0.7-1.9-0.7-2.6,0L41.2,34c-0.4,0.4-1.1,0.6-1.7,0.3c-0.9-0.5-1.9-0.9-3-1.1  c-0.6-0.2-1.1-0.7-1.1-1.4v-3.5c0-1-0.8-1.8-1.8-1.8h-2.3c-1,0-1.8,0.8-1.8,1.8v3.5c0,0.6-0.4,1.2-1.1,1.4c-1,0.3-2,0.7-3,1.1  c-0.6,0.3-1.2,0.2-1.7-0.3l-2.7-2.7c-0.7-0.7-1.9-0.7-2.6,0L17,32.9c-0.7,0.7-0.7,1.9,0,2.6l2.3,2.3c0.5,0.5,0.6,1.2,0.2,1.8  c-0.9,1.4-1.6,2.9-2,4.5c-0.2,0.6-0.7,1.1-1.4,1.1h-3.4c-1,0-1.8,0.8-1.8,1.8v2.3c0,1,0.8,1.8,1.8,1.8h3.4c0.7,0,1.2,0.4,1.4,1.1  c0.4,1.5,1,3,1.9,4.3c0.4,0.6,0.3,1.3-0.2,1.8L17,60.4c-0.7,0.7-0.7,1.9,0,2.6l1.6,1.6c0.7,0.7,1.9,0.7,2.6,0l2.4-2.4  c0.4-0.4,1.1-0.6,1.7-0.3c1,0.5,2.1,1,3.2,1.3c0.6,0.2,1.1,0.7,1.1,1.4v3.4c0,1,0.8,1.8,1.8,1.8h2.3C34.7,70,35.5,69.1,35.5,68.1z   M22.3,50c-1.2-7.1,4.9-13.2,12-12c4.3,0.7,7.8,4.2,8.5,8.5c1.2,7.1-4.9,13.2-12,12C26.5,57.8,23,54.3,22.3,50z"></path><path d="M83.5,85l-2.7-2.7c-0.5-0.5-0.6-1.3-0.3-1.9c0.6-1.1,1.1-2.2,1.5-3.4c0.2-0.6,0.8-1.1,1.5-1.1l3.6,0c1.1,0,2-0.9,2-2v-2.5  c0-1.1-0.9-2-2-2l-3.2,0c-0.7,0-1.4-0.5-1.5-1.2c-0.4-1.7-1-3.3-1.9-4.8c-0.4-0.6-0.2-1.4,0.3-1.9l2.7-2.7c0.8-0.8,0.8-2.1,0-2.8  l-1.7-1.7c-0.8-0.8-2.1-0.8-2.8,0L76.2,57c-0.5,0.5-1.3,0.6-1.9,0.3c-1.6-0.9-3.3-1.6-5.1-1.9c-0.7-0.2-1.2-0.8-1.2-1.5l0-3.5  c0-1.1-0.9-2-2-2h-2.5c-1.1,0-2,0.9-2,2l0,4.1c0,0.7-0.4,1.3-1.1,1.5c-1.1,0.4-2.2,0.8-3.2,1.4c-0.6,0.4-1.4,0.2-1.9-0.3l-2.7-2.7  c-0.8-0.8-2.1-0.8-2.8,0L48.2,56c-0.8,0.8-0.8,2.1,0,2.8l2.7,2.7c0.5,0.5,0.6,1.3,0.3,1.9c-0.6,1-1.1,2.1-1.4,3.2  c-0.2,0.6-0.8,1.1-1.5,1.1l-4.1,0c-1.1,0-2,0.9-2,2l0,2.5c0,1.1,0.9,2,2,2h3.5c0.7,0,1.4,0.5,1.5,1.2c0.4,1.8,1,3.5,1.9,5.1  c0.4,0.6,0.2,1.4-0.3,1.9L48.2,85c-0.8,0.8-0.8,2.1,0,2.8l1.7,1.7c0.8,0.8,2.1,0.8,2.8,0l2.7-2.7c0.5-0.5,1.3-0.6,1.9-0.3  c1.5,0.9,3.1,1.5,4.8,1.9c0.7,0.2,1.2,0.8,1.2,1.5l0,3.3c0,1.1,0.9,2,2,2h2.5c1.1,0,2-0.9,2-2v-3.7c0-0.7,0.4-1.3,1.1-1.5  c1.2-0.4,2.4-0.9,3.5-1.5c0.6-0.4,1.4-0.2,1.9,0.3l2.7,2.7c0.8,0.8,2.1,0.8,2.8,0l1.7-1.7C84.3,87.1,84.3,85.8,83.5,85z M59.3,81.2  c-6.4-4.6-6.4-13.9,0-18.5c3.9-2.8,9.2-2.8,13.1,0c6.4,4.6,6.4,13.9,0,18.5C68.5,84,63.2,84,59.3,81.2z"></path><path d="M62.2,27l-1.6-1.6c-0.3-0.3-0.4-0.8-0.2-1.1c0.4-0.7,0.7-1.4,0.9-2.1c0.1-0.4,0.5-0.7,0.9-0.7l2.2,0c0.7,0,1.2-0.5,1.2-1.2  v-1.5c0-0.7-0.5-1.2-1.2-1.2l-2,0c-0.4,0-0.8-0.3-0.9-0.7c-0.2-1-0.6-2-1.1-2.9c-0.2-0.4-0.1-0.8,0.2-1.1l1.6-1.6  c0.5-0.5,0.5-1.2,0-1.7l-1.1-1.1c-0.5-0.5-1.2-0.5-1.7,0L57.8,10c-0.3,0.3-0.8,0.4-1.1,0.2c-1-0.6-2-1-3.1-1.2  c-0.4-0.1-0.8-0.5-0.8-0.9l0-2.2c0-0.7-0.5-1.2-1.2-1.2h-1.5c-0.7,0-1.2,0.5-1.2,1.2l0,2.5c0,0.4-0.3,0.8-0.6,0.9  c-0.7,0.2-1.3,0.5-1.9,0.9c-0.4,0.2-0.8,0.1-1.1-0.2l-1.6-1.6c-0.5-0.5-1.2-0.5-1.7,0l-1.1,1.1c-0.5,0.5-0.5,1.2,0,1.7l1.6,1.6  c0.3,0.3,0.4,0.8,0.2,1.1c-0.4,0.6-0.6,1.3-0.9,1.9c-0.1,0.4-0.5,0.6-0.9,0.6l-2.5,0c-0.7,0-1.2,0.5-1.2,1.2l0,1.5  c0,0.7,0.5,1.2,1.2,1.2h2.2c0.5,0,0.8,0.3,0.9,0.8c0.2,1.1,0.6,2.1,1.2,3.1c0.2,0.4,0.1,0.8-0.2,1.1L40.8,27c-0.5,0.5-0.5,1.2,0,1.7  l1.1,1.1c0.5,0.5,1.2,0.5,1.7,0l1.6-1.6c0.3-0.3,0.8-0.4,1.1-0.2c0.9,0.5,1.9,0.9,2.9,1.1c0.4,0.1,0.7,0.5,0.7,0.9l0,2  c0,0.7,0.5,1.2,1.2,1.2h1.5c0.7,0,1.2-0.5,1.2-1.2v-2.2c0-0.4,0.3-0.8,0.7-0.9c0.7-0.2,1.4-0.5,2.1-0.9c0.4-0.2,0.8-0.1,1.1,0.2  l1.6,1.6c0.5,0.5,1.2,0.5,1.7,0l1.1-1.1C62.6,28.2,62.6,27.4,62.2,27z M47.5,24.7c-3.9-2.8-3.9-8.5,0-11.2c2.3-1.7,5.6-1.7,7.9,0  c3.9,2.8,3.9,8.5,0,11.2C53.1,26.3,49.9,26.3,47.5,24.7z"></path></svg>