<svg xmlns="http://www.w3.org/2000/svg" xmlns:xlink="http://www.w3.org/1999/xlink" version="1.1" x="0px" y="0px" viewBox="0 0 100 100" enable-background="new 0 0 100 100" xml:space="preserve"><g><path d="M28.157,21.837c0.472,0,0.942-0.18,1.303-0.54c0.72-0.719,0.72-1.887,0-2.605l-5.441-5.441c-0.72-0.72-1.886-0.72-2.605,0   c-0.72,0.719-0.72,1.887,0,2.605l5.441,5.441C27.214,21.657,27.686,21.837,28.157,21.837z"></path><path d="M78.428,13.25c-0.72-0.72-1.886-0.72-2.605,0l-5.441,5.441c-0.72,0.719-0.72,1.887,0,2.605   c0.36,0.36,0.832,0.54,1.303,0.54c0.472,0,0.943-0.18,1.303-0.54l5.441-5.441C79.148,15.137,79.148,13.969,78.428,13.25z"></path><path d="M40.01,12.415c0.258,0.772,0.977,1.262,1.749,1.262c0.192,0,0.389-0.031,0.582-0.096c0.965-0.321,1.487-1.364,1.166-2.33   L40.788,3.09c-0.321-0.965-1.361-1.487-2.33-1.166c-0.966,0.322-1.488,1.365-1.166,2.331L40.01,12.415z"></path><path d="M57.5,13.581c0.192,0.064,0.39,0.096,0.583,0.096c0.771,0,1.491-0.488,1.747-1.261l2.722-8.161   c0.321-0.966-0.199-2.009-1.165-2.331c-0.966-0.325-2.011,0.199-2.331,1.165l-2.721,8.161C56.014,12.216,56.534,13.26,57.5,13.581z   "></path><path d="M57.5,84.438l-16.324,5.438c-0.966,0.321-1.487,1.365-1.165,2.332c0.257,0.771,0.976,1.26,1.748,1.26   c0.192,0,0.389-0.031,0.582-0.096l16.325-5.439c0.964-0.321,1.486-1.365,1.164-2.332C59.51,84.637,58.464,84.116,57.5,84.438z"></path><path d="M54.448,90.895l-10.566,3.521c-0.965,0.322-1.487,1.365-1.165,2.332c0.258,0.771,0.976,1.26,1.748,1.26   c0.193,0,0.389-0.031,0.582-0.096l10.567-3.522c0.965-0.321,1.486-1.365,1.164-2.329C56.458,91.096,55.412,90.573,54.448,90.895z"></path><path d="M49.921,19.054c-12.355,0-23.606,11.251-23.606,23.605c0,8.688,3.6,14.449,7.081,20.021   c3.353,5.364,6.521,10.432,6.521,18.066c0,1.017,0.824,1.842,1.843,1.842h4.968l-5.551,1.851c-0.966,0.321-1.487,1.364-1.165,2.329   c0.257,0.772,0.976,1.26,1.748,1.26c0.192,0,0.389-0.029,0.582-0.094l16.325-5.441c0.021-0.007,0.039-0.02,0.061-0.026   c0.062-0.024,0.123-0.053,0.182-0.081c0.052-0.027,0.102-0.054,0.149-0.082c0.051-0.031,0.098-0.067,0.146-0.104   c0.048-0.038,0.095-0.074,0.14-0.115c0.042-0.04,0.08-0.084,0.118-0.127c0.038-0.045,0.077-0.089,0.111-0.137   c0.036-0.05,0.067-0.103,0.098-0.156c0.028-0.048,0.057-0.096,0.08-0.146c0.026-0.056,0.047-0.115,0.067-0.176   c0.018-0.053,0.037-0.107,0.051-0.163c0.014-0.058,0.022-0.115,0.03-0.175c0.01-0.062,0.018-0.125,0.02-0.189   c0.001-0.024,0.008-0.046,0.008-0.069c0-7.635,3.167-12.702,6.521-18.066c3.48-5.571,7.08-11.332,7.08-20.021   C73.526,30.305,62.275,19.054,49.921,19.054z M61.825,53.32c-5.175,7.761-5.234,18.256-5.234,18.361   c0,0.679-0.55,1.229-1.229,1.229c-0.68,0-1.229-0.55-1.229-1.229c0-0.425,0.055-9.784,4.488-17.814h-3.26   c-0.193,0-0.377-0.043-0.539-0.125l-1.083,2.167c-0.255,0.511-0.834,0.772-1.381,0.647c-0.555-0.132-0.946-0.626-0.946-1.197   v-0.237l-0.394,0.787c-0.256,0.511-0.823,0.774-1.382,0.647c-0.554-0.132-0.945-0.626-0.945-1.197v-0.237l-0.394,0.787   c-0.255,0.511-0.823,0.774-1.382,0.647c-0.554-0.132-0.945-0.626-0.945-1.197v-0.235l-0.392,0.785   c-0.254,0.506-0.822,0.774-1.381,0.645c-0.555-0.129-0.946-0.626-0.946-1.194v-1.492h-2.031c4.433,8.03,4.488,17.39,4.488,17.814   c0,0.679-0.55,1.229-1.228,1.229h-0.001c-0.678,0-1.228-0.55-1.229-1.227c0-0.105-0.072-10.619-5.235-18.363   c-0.251-0.377-0.274-0.861-0.061-1.26c0.214-0.4,0.63-0.65,1.083-0.65h5.441c0.192,0,0.376,0.046,0.537,0.125l1.082-2.165   c0.255-0.51,0.824-0.778,1.381-0.647c0.555,0.131,0.946,0.626,0.946,1.196v0.237l0.394-0.787c0.255-0.51,0.824-0.776,1.381-0.646   c0.555,0.131,0.946,0.626,0.946,1.196v0.237l0.394-0.787c0.254-0.51,0.828-0.778,1.381-0.646c0.555,0.131,0.947,0.626,0.947,1.196   v0.237l0.393-0.787c0.255-0.51,0.829-0.778,1.381-0.646c0.555,0.131,0.947,0.626,0.947,1.196v1.491h4.213   c0.453,0,0.869,0.25,1.083,0.65C62.101,52.459,62.076,52.943,61.825,53.32z M49.923,23.617c0,0,16.322,0,19.04,16.321   C68.925,39.945,66.245,29.058,49.923,23.617z"></path></g></svg>