<svg xmlns="http://www.w3.org/2000/svg" xmlns:xlink="http://www.w3.org/1999/xlink" version="1.1" x="0px" y="0px" viewBox="0 0 100 100" enable-background="new 0 0 100 100" xml:space="preserve"><g><circle fill="#000000" cx="86.207" cy="42.983" r="0.719"></circle><path fill="#000000" d="M93.979,57.207c-0.365-0.217-0.777-0.332-1.191-0.332h-2.893l0.91-5.346l-0.752-2.902   c1.688,0.051,3.131-0.864,3.58-2.212c1.004-0.474,1.705-1.488,1.705-2.669c0-1.631-1.326-2.958-2.958-2.958   c-1.002,0-1.886,0.503-2.421,1.268l-0.746-0.128c-0.57-1.032-1.49-1.822-2.592-2.23c-0.264-1.261-1.104-2.141-2.148-2.141   c-0.482,0.005-0.92,0.216-1.277,0.564c-0.198-0.34-0.396-0.713-0.59-1.111c-0.113-0.589-0.502-3.21,1.41-3.801l-0.59-1.911   c-0.933,0.288-1.585,0.813-2.037,1.449c-0.035-0.543-0.039-1.091,0.043-1.643c0.031-0.208,0.082-0.412,0.131-0.615   c0.303-0.34,2.479-2.679,4.838-2.276l0.332-1.973c-0.859-0.144-1.676-0.059-2.43,0.15c0.391-0.321,0.807-0.633,1.271-0.926   l-1.066-1.692c-2.58,1.625-4.203,3.654-4.845,6.04c-0.702-1.325-1.119-2.492-0.952-2.86l-1.82-0.827   c-0.904,1.994,1.659,5.868,2.469,7.007l0.037-0.027c0.131,1.487,0.566,2.888,1.101,4.112c-0.854-0.456-1.729-1.112-2.187-2.021   l-1.785,0.9c0.732,1.456,2.091,2.417,3.315,3.028c-0.084,0.264-0.134,0.548-0.116,0.858c0.031,0.615,0.271,1.275,0.672,1.858   c0.043,0.064,0.09,0.127,0.138,0.189c-0.37,0.702-0.563,1.478-0.563,2.286c0,0.426,0.059,0.854,0.17,1.275   c-0.033,0.185-0.05,0.372-0.05,0.558v3.503H67.818c-0.713,0-1.409,0.126-2.077,0.377c-0.32-0.102-0.653-0.184-0.995-0.247   c-0.492-0.089-0.984-0.135-1.463-0.135c-2.16,0-3.721,0.903-3.977,2.301c-0.24,1.322,0.766,2.631,2.553,3.41   c-0.004,0.086-0.006,0.174-0.006,0.259v2.209c-1.56,0.118-3.153,0.19-4.775,0.212c-1.499-3.518-6.668-6.219-13.375-6.967v2.023   c6.705,0.815,11.831,3.711,11.831,7.055c0,3.238-4.818,6.049-11.217,6.963v-5.094c0-1.797-1.299-2.969-3.432-3.056H33.77v-4.819   l-0.024-0.222c0,0-0.008-0.034-0.008-0.114c0-2.088-1.778-3.037-3.55-3.055h-2.912V42.5h1.442v-7.8h-1.085   c0.224-0.369,0.361-0.772,0.369-1.198c0.022-1.13-0.853-2.45-3.375-2.769c-2.427-0.31-3.849,0.94-4.626,2.378   c-0.781-1.438-2.206-2.688-4.617-2.378c-2.523,0.319-3.398,1.639-3.376,2.769c0.008,0.426,0.146,0.829,0.369,1.199h-1.133v7.803   h1.387v8.252H5.245l2.889,15.486l0.117,0.173c0.076,0.112,1.925,2.761,6.259,2.761h0.365l-3,3.723H8.578v2h37.906v-0.014   c5.566-0.139,10.948-1.703,10.948-4.582h-2c0,0.75-3.102,2.465-9.104,2.584l-3.135-3.711h0.742c0.03-0.003,0.075-0.008,0.12-0.012   c0.002,0,0.006,0,0.008,0c0.07-0.008,0.152-0.016,0.253-0.025v-0.002c0.057-0.006,0.097-0.009,0.161-0.017   c7.593-1.038,13.056-4.599,13.056-8.97c0-0.039-0.01-0.076-0.01-0.115c1.588-0.027,3.142-0.102,4.658-0.217   c0.113,0.332,0.246,0.66,0.42,0.971l-0.566,1.734c-0.148,0.455-0.197,0.93-0.145,1.416c-0.021,0.121-0.039,0.268-0.039,0.426v8.027   c0,1.381,1.049,2.506,2.336,2.506c1.289,0,2.336-1.125,2.336-2.506v-4.929c0.197-0.021,0.392-0.053,0.58-0.099v3.31   c0,1.382,1.047,2.507,2.336,2.507c1.287,0,2.336-1.125,2.336-2.507v-5.012c1.242-0.123,2.315-0.791,2.906-1.806h7.295v6.601   c0,1.502,1.049,2.724,2.336,2.724c1.289,0,2.338-1.222,2.338-2.724v-7.354c0.699-0.392,1.313-0.918,1.806-1.558h1.995v3.999   c0,1.219,1.048,2.208,2.337,2.208c1.287,0,2.335-0.989,2.335-2.208v-6.441C95.124,58.313,94.671,57.579,93.979,57.207z    M23.739,40.503v-2.226c1.053,0.531,1.998,1.16,2.43,1.837l0.549-0.349v0.738H23.739z M25.275,42.503v8.252h-1.536v-8.252H25.275z    M25.047,36.7h1.671v1.108C26.22,37.398,25.646,37.028,25.047,36.7z M23.931,32.688c0.142,0,0.289,0.009,0.445,0.029   c1.237,0.156,1.63,0.569,1.627,0.745c-0.007,0.313-0.606,0.925-1.778,1.026c-1.125,0.097-1.976,0.164-2.608,0.211h-0.139   C21.798,33.789,22.485,32.688,23.931,32.688z M15.635,32.717c0.155-0.02,0.303-0.029,0.444-0.029c1.432,0,2.119,1.101,2.445,2.012   h-0.132c-0.633-0.047-1.483-0.115-2.607-0.211c-1.173-0.102-1.771-0.713-1.778-1.027C14.004,33.286,14.396,32.873,15.635,32.717z    M13.244,36.7h1.374c-0.5,0.272-0.965,0.577-1.374,0.908V36.7z M13.244,40.503v-1.244l0.697,0.47   c0.379-0.562,1.227-1.101,2.226-1.57v2.344H13.244z M14.631,50.755v-8.252h1.536v8.252H14.631z M43.722,72.896H14.443l2.999-3.723   h23.135L43.722,72.896z M92.333,41.75c0.506,0,0.917,0.41,0.917,0.917s-0.411,0.917-0.917,0.917s-0.917-0.41-0.917-0.917   S91.827,41.75,92.333,41.75z M89.68,44.938c0.286,0.649,0.803,1.17,1.441,1.474c-0.387,0.187-0.896,0.269-1.424,0.179l-0.037-0.006   C89.664,45.963,89.67,45.412,89.68,44.938z M88.234,49.585l0.527,2.03l-0.326,1.91L86.057,52.1   C86.957,51.303,87.688,50.462,88.234,49.585z M84.268,51.027l-2.176-1.305v-3.574c0-0.061,0.018-0.122,0.026-0.183   c1.321,0.688,3.155,1.093,5.063,1.209C86.762,48.532,85.76,49.831,84.268,51.027z M84.134,41.794v0.002l0.187-1.553   c0.033-0.269,0.109-0.464,0.178-0.582c0.092,0.152,0.201,0.434,0.21,0.833l0.019,0.794l0.777,0.162   c0.951,0.198,1.739,0.855,2.109,1.756l0.093,0.224c-0.024,0.458-0.036,1.036-0.042,1.756c-3.616-0.134-5.501-1.314-5.501-1.841   h-0.022c0.104-0.294,0.254-0.572,0.451-0.826l0.376-0.483c0,0-1.063-1.241-1.216-1.973c-0.016-0.068-0.025-0.13-0.029-0.181   C81.723,39.883,83.18,40.233,84.134,41.794z M79.325,51.652h2.094l1.043,0.625c-0.937,0.572-1.983,1.113-3.137,1.619V51.652z    M69.775,70.675c0,0.289-0.176,0.507-0.334,0.507c-0.159,0-0.338-0.218-0.338-0.507v-4.538c0.209-0.224,0.441-0.505,0.672-0.839   V70.675z M77.325,61.857h-2.854v-0.016h-5.611l-0.116,0.866c-0.156,1.166-1.089,2.079-1.386,2.347   c-0.418,0.344-1.039,0.502-1.658,0.393l-1.174-0.204v7.147c0,0.289-0.178,0.506-0.336,0.506c-0.157,0-0.336-0.217-0.336-0.506   v-8.027c0-0.036,0.008-0.09,0.025-0.163l0.045-0.193l-0.031-0.194c-0.039-0.234-0.022-0.459,0.045-0.668l0.861-2.638l-0.271-0.403   c-0.103-0.151-0.189-0.31-0.27-0.472c4.893-0.51,9.33-1.472,13.067-2.782V61.857z M77.325,54.697   c-3.777,1.387-8.394,2.423-13.472,2.953v-2.032c0-0.234,0.023-0.483,0.071-0.738l0.162-0.873l-0.849-0.265   c-1.381-0.432-2.014-1.164-1.965-1.434c0.045-0.238,0.752-0.66,2.009-0.66c0.358,0,0.731,0.033,1.104,0.102   c0.361,0.066,0.711,0.162,1.038,0.284l0.386,0.144l0.377-0.17c0.52-0.236,1.067-0.355,1.631-0.355h9.507V54.697z M93.124,65.545   c0,0.085-0.131,0.208-0.335,0.208c-0.206,0-0.337-0.123-0.337-0.208v-5.999h-4.67v-0.015l-4.968,0.005   c-0.012,0-0.34,0.021-0.603-0.228c-0.313-0.293-0.485-0.908-0.485-1.732h-2c0,1.462,0.396,2.555,1.178,3.246   c0.705,0.625,1.502,0.714,1.895,0.714c0.063,0,0.112-0.002,0.152-0.005h2.361c-0.017,0.007-0.029,0.017-0.047,0.023l-0.615,0.256   v8.646c0,0.475-0.25,0.723-0.336,0.723s-0.336-0.248-0.336-0.723v-8.6h-4.653v-5.774c1.921-0.795,3.612-1.688,5.034-2.668   l3.717,2.228l-0.551,3.231h5.262c0.057,0,0.111,0.017,0.206,0.071c0.062,0.033,0.131,0.094,0.131,0.156V65.545z"></path></g></svg>