<svg xmlns="http://www.w3.org/2000/svg" xmlns:xlink="http://www.w3.org/1999/xlink" version="1.1" x="0px" y="0px" viewBox="0 0 100 100" enable-background="new 0 0 100 100" xml:space="preserve"><path d="M93.532,58.947c0,0-2.193,0.031-2.816-1.408c0,0,1.563-1.659,0.908-3.352c-0.658-1.688-1.933-2.729-2.026-3.952  c0,0,1.254-0.408,1.098-1.597c0,0,0.561-0.407,1.063-0.313c0,0,0.563-0.814-0.28-1.66l-0.754-0.124l-3.068,0.781l-0.186-0.469  c0,0-0.351,0.002-0.777,0.143c-0.139-0.463-0.312-0.928-0.406-0.764c-0.193,0.332-0.273,0.746-0.301,1.124  c-0.127,0.097-0.254,0.207-0.363,0.343c-0.693,0.842-0.525,3.092,0.615,5.11c0,0-1.107,0.18-2.646,0.125V37.95  c0.303,0.082,0.621,0.128,0.949,0.128c1.994,0,3.613-1.618,3.613-3.612l-38.225-9.679v-1.466c2.85,1.604,4.008,0.313,6.232-1.751  c1.569-1.46,3.935-4.207,6.252-2.354c-2.466-2.542-3.166-1.978-6.252-1.127c-3.185,0.878-3.859,0.935-6.234-1.722v-0.021h-0.018  c0,0,0,0,0,0.001h-0.574v8.445l-38.203,9.674H11.13h-0.001c0,1.994,1.616,3.612,3.61,3.612c0.546,0,1.061-0.125,1.523-0.342v0.001  c0.478-0.224,0.896-0.547,1.23-0.945c-0.335,0.397-0.753,0.721-1.229,0.945V52.76c-0.605-0.086-1.375-0.208-1.862-0.355  c-1.779-0.536-3.043,0.363-3.713,1.584c-2.516-1.613-4.629,0.469-4.602,2.334c0.026,1.906,2.344,2.97,2.344,3.568  c0,0.601-0.519,0.627-0.519,0.627c1.063,0.408,1.497-0.328,1.497-0.328c0.029,0.19-0.518,0.629-0.518,0.629s1.492-0.084,1.635-1.416  c0.117-1.09-1.798-2.752-1.961-3.215c-0.163-0.465-0.027-1.472,0.709-1.826c0.414-0.199,0.861-0.037,1.174,0.145  c-0.278,0.711-0.375,1.471-0.271,2.096c0.313,1.908,2.065,2.566,2.065,2.566s0.157,1.063-0.532,1.628l0.156,0.438l4.328,1.242  c0,0,0.023,0.053,0.068,0.127v-1.119c-0.563-0.248-1.145-0.598-1.516-1.096c0,0-0.473-2.447,1.283-2.38  c0.029,0.001,0.128,0.021,0.232,0.043v3.433c0,0,0,0,0.001,0v1.119v4.899H16.26h-5.13v1.783v0.915v1.89h-0.001v8.343h0.001h0.045  h76.979v-8.266v-0.001v-0.076v-1.89v-0.915v-1.783h-4.562h-0.002v-3.049c0.359,0.099,0.88,0.137,1.466-0.208l-1.41-2.27  c0,0-0.031-0.009-0.054-0.012h-0.002v-3.499c1.441,0.377,3.343,0.683,4.443-0.479c0,0-0.595,1.125-0.031,2.002l0.649,0.195  c0,0,1.623-0.735,3.063-0.33c0,0-0.063,1-0.813,1.033c-0.752,0.031-0.752,0.531-0.752,0.531l-0.938-0.063  c0,0-0.877,0.688-0.877,1.533l1.813-0.218c0,0,0.752-0.722,1.566-0.627c0,0-0.033-1.032,1.816-1.879  C93.532,60.168,94.063,59.636,93.532,58.947z M11.136,72.167c0-0.022-0.006-0.043-0.006-0.065c0,0.022,0.006,0.043,0.008,0.065  H11.136z M49.909,23.311c0.004,0.002,0.006,0.003,0.009,0.005C49.915,23.314,49.912,23.313,49.909,23.311L49.909,23.311z   M49.335,24.854l0.149-0.068l0.155-0.072l0.139,0.064l0.148,0.068l20.898,9.62h-1.711h-0.877h-5.469h-0.877h-5.47h-0.146  l-6.351-9.329l-0.148-0.22l-0.139-0.203l-0.155,0.229l-0.149,0.221l-6.33,9.303h-0.149h-5.468H36.51h-5.467h-0.878h-1.711  L49.335,24.854z M16.263,37.567L16.263,37.567c0.632-0.312,1.168-0.807,1.519-1.448l0.017-0.032v0.001l-0.017,0.031  C17.433,36.762,16.895,37.257,16.263,37.567z M16.531,58.109c0.334,0.091,0.771,0.227,1.269,0.356v-0.003  c1.44,0.38,3.34,0.686,4.441-0.479c0,0-0.594,1.127-0.03,2.002l0.651,0.195c0,0,1.619-0.734,3.061-0.33c0,0-0.063,1.002-0.814,1.034  c-0.752,0.031-0.752,0.531-0.752,0.531l-0.939-0.062c0,0-0.876,0.688-0.876,1.531l1.815-0.217c0,0,0.752-0.722,1.565-0.627  c0,0-0.032-1.032,1.816-1.879c0,0,0.532-0.533,0-1.223c0,0-2.191,0.033-2.817-1.409c0,0,1.564-1.658,0.908-3.349  c-0.659-1.689-1.932-2.732-2.026-3.953c0,0,1.253-0.409,1.097-1.598c0,0,0.563-0.408,1.064-0.313c0,0,0.563-0.814-0.282-1.66  l-0.751-0.125l-3.068,0.783l-0.188-0.47c0,0-0.348,0.002-0.776,0.142c-0.138-0.461-0.31-0.926-0.407-0.763  c-0.19,0.332-0.271,0.745-0.299,1.124c-0.129,0.096-0.252,0.207-0.364,0.342c-0.692,0.843-0.525,3.093,0.616,5.112  c0,0-1.107,0.18-2.645,0.125V36.371V36.37c0.036-0.059,0.078-0.115,0.111-0.177c0.613,1.123,1.806,1.886,3.176,1.886  c1.368,0,2.559-0.763,3.171-1.887c0.612,1.124,1.804,1.887,3.173,1.887c1.369,0,2.56-0.763,3.173-1.887  c0.612,1.124,1.804,1.887,3.172,1.887c0.782,0,1.5-0.255,2.092-0.677v30.102H17.8v-3.049c0.356,0.1,0.879,0.136,1.463-0.208  l-1.408-2.271c0,0-0.034-0.008-0.055-0.011h-0.001v-3.499c-0.499-0.131-0.937-0.268-1.272-0.357  C16.528,58.109,16.53,58.109,16.531,58.109z M17.912,35.88l0.001-0.002l0.131,0.242c0.608,1.115,1.773,1.808,3.041,1.809  c0,0,0,0-0.001,0c-1.268,0-2.434-0.693-3.041-1.809L17.912,35.88z M24.257,35.88L24.257,35.88l0.133,0.24  c0.607,1.115,1.773,1.808,3.041,1.809c0,0,0,0-0.001,0c-1.269,0-2.433-0.693-3.041-1.809L24.257,35.88z M30.604,35.881l0.001-0.002  l0.133,0.241c0.605,1.115,1.771,1.808,3.039,1.809c0,0,0,0-0.001,0c-1.269,0-2.433-0.693-3.04-1.809L30.604,35.881z M21.399,75.682  v4.436h-5.137v-4.756c0.701-0.326,1.281-0.867,1.649-1.543c0.612,1.123,1.804,1.887,3.173,1.887c0.106,0,0.209-0.014,0.313-0.021  v-0.15c-0.1,0.01-0.198,0.019-0.299,0.02c0.102-0.001,0.201-0.01,0.301-0.021V75.682z M14.739,75.704  c0.546,0,1.061-0.128,1.523-0.345C15.8,75.577,15.286,75.704,14.739,75.704z M17.914,73.504l0.132,0.241  c0.607,1.114,1.773,1.808,3.041,1.808c-1.269,0-2.435-0.691-3.043-1.808L17.914,73.504z M24.39,73.745  c0.461,0.844,1.24,1.446,2.143,1.688C25.63,75.191,24.85,74.589,24.39,73.745z M31.668,80.116h-5.136v-4.531  c0.289,0.073,0.588,0.119,0.898,0.119c1.369,0,2.56-0.763,3.173-1.888c0.259,0.477,0.628,0.883,1.064,1.197L31.668,80.116  L31.668,80.116z M41.938,80.116h-5.135v-6.067v-0.002c0.049-0.076,0.102-0.148,0.145-0.229c0.612,1.123,1.805,1.887,3.174,1.887  c0.662,0,1.282-0.186,1.816-0.494V80.116z M43.295,73.505L43.295,73.505l0.132,0.24L43.295,73.505z M46.467,75.553  c-0.625,0-1.224-0.168-1.743-0.471C45.243,75.385,45.843,75.553,46.467,75.553L46.467,75.553z M52.209,80.116h-5.136v-4.472  c1.109-0.188,2.046-0.873,2.565-1.828c0.521,0.955,1.459,1.645,2.567,1.828c0.001,0,0.002,0,0.003,0L52.209,80.116L52.209,80.116z   M52.813,75.704L52.813,75.704c1.369-0.001,2.561-0.763,3.172-1.886c0,0,0,0,0.002,0C55.372,74.941,54.184,75.704,52.813,75.704z   M57.343,75.209c-0.002-0.001-0.002-0.001-0.002-0.002v-0.172c-0.502-0.313-0.928-0.751-1.225-1.29l-0.132-0.24v-0.001l0.136,0.241  c0.295,0.539,0.719,0.978,1.226,1.29v-0.001c0.534,0.331,1.159,0.519,1.813,0.519c-0.656,0-1.281-0.188-1.816-0.519V75.209z   M62.477,80.116h-5.131v-4.905c0.532,0.309,1.149,0.493,1.813,0.493c1.368,0,2.559-0.763,3.17-1.888  c0.047,0.082,0.098,0.152,0.146,0.229v6.07H62.477z M62.477,73.77c-0.002-0.01-0.011-0.017-0.013-0.023l-0.133-0.24v-0.001  l0.133,0.241c0.004,0.007,0.009,0.013,0.013,0.021V73.77z M72.749,75.585v4.531h-5.138v-5.103v-0.002  c0.437-0.318,0.804-0.722,1.063-1.195c0.613,1.125,1.804,1.888,3.175,1.888c0.309,0,0.608-0.046,0.897-0.119  c0.979-0.253,1.799-0.901,2.271-1.769c0,0.002,0.002,0.002,0.002,0.002C74.546,74.686,73.729,75.332,72.749,75.585z M83.02,75.191  v0.168v0.002v4.755h-5.138v-4.435H77.88v-0.15h0.002v0.15c0.103,0.01,0.207,0.021,0.313,0.021c1.369,0,2.559-0.764,3.172-1.887  c0.369,0.676,0.949,1.217,1.65,1.543v-0.17c-0.631-0.311-1.168-0.805-1.519-1.445l-0.131-0.24v-0.001l0.133,0.241  C81.85,74.387,82.387,74.88,83.02,75.191L83.02,75.191z M84.54,75.404c-0.541,0-1.06-0.139-1.521-0.379  c-0.578-0.301-1.064-0.762-1.39-1.352l-0.262-0.482l-0.265,0.482c-0.582,1.066-1.694,1.729-2.908,1.729  c-0.106,0-0.211-0.012-0.313-0.021v0.002c-1.09-0.105-2.065-0.738-2.598-1.709l-0.263-0.482l-0.264,0.482  c-0.432,0.795-1.164,1.364-2.01,1.604c-0.291,0.082-0.592,0.125-0.898,0.125c-1.215,0-2.33-0.662-2.912-1.729l-0.262-0.482  l-0.264,0.482c-0.205,0.375-0.482,0.698-0.801,0.965c-0.584,0.484-1.324,0.766-2.107,0.766c-1.215,0-2.328-0.663-2.912-1.729  l-0.115-0.211V73.46l-0.146-0.269l-0.265,0.482c-0.58,1.066-1.692,1.729-2.907,1.729c-0.658,0-1.285-0.199-1.813-0.549v-0.002  c-0.451-0.293-0.83-0.691-1.097-1.179l-0.265-0.483l-0.262,0.483c-0.582,1.066-1.697,1.729-2.912,1.729  c-0.205,0-0.406-0.026-0.603-0.063v0.15c0.196,0.037,0.397,0.06,0.603,0.06l0,0c-0.205,0-0.406-0.022-0.604-0.06  c-0.64-0.113-1.22-0.42-1.697-0.85c0.479,0.43,1.06,0.735,1.699,0.85v-0.15c-0.97-0.183-1.822-0.781-2.307-1.668l-0.262-0.482  l-0.263,0.482c-0.483,0.885-1.336,1.486-2.306,1.668c-0.198,0.035-0.399,0.063-0.604,0.063c-1.214,0-2.327-0.663-2.909-1.729  l-0.262-0.483l-0.264,0.483c-0.266,0.486-0.646,0.886-1.093,1.179v0.181c-0.001,0-0.001,0.001-0.001,0.001  c-0.402,0.248-0.855,0.416-1.332,0.484c0.477-0.068,0.93-0.236,1.332-0.485v-0.181c-0.531,0.349-1.158,0.551-1.816,0.551  c-1.213,0-2.328-0.662-2.909-1.729l-0.265-0.482l-0.146,0.27v0.002l-0.115,0.212c-0.581,1.066-1.697,1.729-2.91,1.729  c-0.783,0-1.523-0.28-2.108-0.764c-0.319-0.266-0.596-0.589-0.801-0.967l-0.263-0.482l-0.263,0.482  c-0.583,1.066-1.698,1.729-2.911,1.729c-0.309,0-0.609-0.043-0.898-0.125c-0.847-0.239-1.577-0.81-2.012-1.604l-0.263-0.482  l-0.263,0.482c-0.53,0.975-1.508,1.604-2.596,1.707c-0.105,0.012-0.208,0.021-0.313,0.021c-1.215,0-2.33-0.662-2.911-1.729  l-0.263-0.482l-0.262,0.482c-0.322,0.59-0.812,1.053-1.388,1.352v0.164c-0.001,0.002-0.001,0.002-0.001,0.002v-0.166  c-0.463,0.24-0.981,0.379-1.523,0.379c-1.725,0-3.146-1.327-3.299-3.016h76.398C87.688,74.077,86.268,75.404,84.54,75.404z   M87.854,69.585V69.9H11.429v-0.315H87.854z M36.948,36.192c0.612,1.123,1.805,1.886,3.174,1.886s2.56-0.763,3.172-1.887  c0.612,1.124,1.803,1.887,3.173,1.887c1.073,0,2.032-0.473,2.693-1.215v15.94c-0.604-0.083-1.232-0.209-1.862-0.4  c-1.778-0.535-3.042,0.365-3.711,1.584c-2.516-1.612-4.629,0.47-4.602,2.334c0.027,1.908,2.342,2.971,2.342,3.568  c0,0.602-0.517,0.629-0.517,0.629c1.063,0.407,1.498-0.33,1.498-0.33c0.028,0.191-0.517,0.629-0.517,0.629s1.49-0.082,1.635-1.416  c0.115-1.088-1.798-2.75-1.962-3.215c-0.164-0.463-0.027-1.471,0.709-1.826c0.413-0.198,0.86-0.036,1.175,0.146  c-0.279,0.711-0.376,1.47-0.273,2.097c0.313,1.907,2.066,2.565,2.066,2.565s0.156,1.063-0.531,1.628l0.156,0.438l4.326,1.244  c0,0,0.023,0.051,0.067,0.127l0,0l0.001,0.002v4.861l0,0H36.864V36.326C36.892,36.28,36.925,36.239,36.948,36.192z M36.864,36.035  L36.864,36.035l0.084-0.156l0.133,0.241c0.607,1.116,1.772,1.809,3.041,1.809s2.434-0.693,3.041-1.809l0.131-0.241l0.133,0.241  c0.607,1.116,1.771,1.809,3.04,1.809c1.058,0,2.04-0.488,2.692-1.297v0.001c-0.65,0.808-1.633,1.297-2.692,1.297  c-1.269,0-2.433-0.694-3.04-1.81l-0.133-0.241l-0.131,0.241c-0.607,1.116-1.772,1.81-3.041,1.81s-2.434-0.694-3.041-1.81  l-0.133-0.241L36.864,36.035z M50.695,61.966v-3.499v-0.003c1.438,0.38,3.342,0.685,4.441-0.478c0,0-0.594,1.125-0.027,2.002  l0.65,0.195c0,0,1.617-0.735,3.061-0.33c0,0-0.063,1-0.813,1.033c-0.752,0.031-0.752,0.531-0.752,0.531l-0.938-0.063  c0,0-0.877,0.688-0.877,1.533l1.815-0.218c0,0,0.752-0.722,1.565-0.627c0,0-0.03-1.032,1.814-1.879c0,0,0.531-0.533,0-1.224  c0,0-2.191,0.033-2.816-1.408c0,0,1.564-1.658,0.908-3.35c-0.658-1.688-1.93-2.731-2.026-3.952c0,0,1.254-0.409,1.098-1.598  c0,0,0.563-0.408,1.063-0.313c0,0,0.563-0.814-0.282-1.66l-0.75-0.125l-3.067,0.783l-0.189-0.47c0,0-0.346,0.002-0.774,0.142  c-0.139-0.461-0.313-0.926-0.409-0.763c-0.189,0.332-0.271,0.745-0.299,1.124c-0.13,0.096-0.253,0.207-0.363,0.342  c-0.692,0.843-0.526,3.093,0.615,5.113c0,0-1.107,0.178-2.645,0.125V37.384c0.596,0.432,1.324,0.694,2.111,0.694  c1.373,0,2.563-0.763,3.174-1.887c0.615,1.124,1.805,1.887,3.176,1.887c1.369,0,2.561-0.763,3.17-1.887  c0.025,0.047,0.059,0.089,0.088,0.134v-0.292l-0.084-0.149l0.002-0.005l0.084,0.151v0.003v0.292v31.143H50.695v-3.013  c-0.219-0.063-0.378-0.148-0.442-0.188c0.064,0.039,0.223,0.123,0.44,0.188c0.359,0.1,0.88,0.136,1.468-0.208l-1.411-2.271  C50.75,61.977,50.717,61.969,50.695,61.966c-0.152-0.028-0.815-0.167-1.535-0.481c-0.564-0.248-1.147-0.598-1.517-1.096  c0,0-0.474-2.447,1.283-2.38c0.061,0.002,0.143,0.017,0.233,0.035v3.438C49.88,61.799,50.543,61.936,50.695,61.966z M49.161,36.862  v-0.003c0.182-0.205,0.346-0.426,0.478-0.669c0,0,0.001,0,0.001,0.001C49.507,36.435,49.343,36.656,49.161,36.862z M49.771,36.12  l-0.131-0.24v-0.001L49.771,36.12c0.234,0.429,0.553,0.793,0.926,1.083c0.596,0.461,1.337,0.725,2.113,0.726c0,0,0,0-0.002,0  c-0.777,0-1.519-0.264-2.113-0.725v-0.001C50.323,36.914,50.005,36.548,49.771,36.12z M55.984,35.881v-0.002l0.136,0.241  c0.606,1.115,1.771,1.808,3.039,1.809c-1.271,0-2.435-0.693-3.043-1.809L55.984,35.881z M50.094,63.213v0.002  c-0.434,0.034-0.728-0.303-0.88-0.533C49.367,62.911,49.661,63.25,50.094,63.213z M62.464,36.12c0.127,0.231,0.281,0.44,0.451,0.633  l0,0C62.745,36.56,62.589,36.351,62.464,36.12z M65.501,38.079c1.371,0,2.562-0.763,3.172-1.887  c0.613,1.124,1.804,1.887,3.175,1.887c1.368,0,2.559-0.763,3.17-1.887c0.614,1.124,1.805,1.887,3.176,1.887  c1.367,0,2.559-0.763,3.17-1.887c0.18,0.332,0.418,0.626,0.688,0.886v-0.201c-0.215-0.223-0.405-0.477-0.557-0.756l-0.125-0.239  l0.002-0.004l0.131,0.241c0.151,0.277,0.34,0.529,0.556,0.75v0.008v0.201v15.727v0.002c-0.604-0.084-1.23-0.211-1.861-0.4  c-1.781-0.538-3.043,0.361-3.715,1.583c-2.515-1.613-4.627,0.469-4.601,2.335c0.027,1.906,2.343,2.969,2.343,3.566  c0,0.602-0.519,0.627-0.519,0.627c1.063,0.408,1.5-0.326,1.5-0.326c0.026,0.189-0.521,0.627-0.521,0.627s1.49-0.082,1.633-1.416  c0.119-1.088-1.797-2.752-1.959-3.215c-0.164-0.463-0.026-1.47,0.709-1.826c0.412-0.198,0.861-0.035,1.175,0.146  c-0.277,0.711-0.375,1.471-0.272,2.096c0.313,1.907,2.065,2.565,2.065,2.565s0.155,1.063-0.531,1.628l0.158,0.438l4.328,1.244  c0,0,0.021,0.053,0.065,0.129v4.896H63.415V37.405C64.003,37.825,64.723,38.079,65.501,38.079z M63.415,37.224V37.22  c0.592,0.449,1.319,0.708,2.09,0.708c0.315,0,0.627-0.043,0.925-0.125c-0.3,0.083-0.609,0.127-0.929,0.127  C64.732,37.93,64.007,37.672,63.415,37.224z M68.675,35.883l0.002-0.004l0.136,0.241c0.606,1.116,1.771,1.809,3.041,1.809  c0.315,0,0.625-0.043,0.922-0.125c-0.297,0.083-0.609,0.127-0.926,0.127c-1.269,0-2.435-0.694-3.043-1.81L68.675,35.883z   M75.021,35.884l0.002-0.005l0.134,0.241c0.606,1.116,1.772,1.809,3.043,1.809c0.313,0,0.625-0.043,0.92-0.125  c-0.297,0.083-0.608,0.126-0.927,0.126c-1.268,0-2.434-0.694-3.041-1.81L75.021,35.884z M82.059,61.482v0.002  c-0.563-0.25-1.146-0.598-1.517-1.096c0,0-0.476-2.447,1.281-2.38c0.063,0.003,0.143,0.019,0.233,0.034v3.439  c0.672,0.295,1.275,0.43,1.48,0.472C83.333,61.913,82.729,61.777,82.059,61.482z M83.116,64.246l-0.128-1.031  c-0.479,0.039-0.801-0.389-0.932-0.609l0,0c0.131,0.22,0.453,0.648,0.932,0.607L83.116,64.246z M82.063,36.652v-0.005  c-0.166-0.182-0.312-0.379-0.433-0.598l-0.262-0.482l-0.265,0.482c-0.582,1.066-1.694,1.73-2.908,1.73  c-1.215,0-2.327-0.664-2.911-1.73l-0.263-0.482l-0.264,0.482c-0.58,1.066-1.697,1.73-2.908,1.73c-1.215,0-2.328-0.664-2.912-1.73  l-0.262-0.482l-0.264,0.482c-0.58,1.066-1.695,1.73-2.908,1.73c-0.773,0-1.51-0.272-2.09-0.747c-0.184-0.15-0.352-0.322-0.5-0.51  v-0.001c-0.119-0.147-0.227-0.302-0.322-0.472l-0.262-0.482l-0.123,0.225l-0.141,0.258c-0.58,1.066-1.693,1.73-2.908,1.73  c-1.213,0-2.328-0.664-2.91-1.73l-0.141-0.258l-0.123-0.224l-0.121,0.224l-0.141,0.258c-0.582,1.066-1.699,1.73-2.912,1.73  c-0.787,0-1.529-0.283-2.115-0.771c-0.316-0.265-0.59-0.585-0.795-0.96l-0.141-0.258l-0.121-0.225l-0.121,0.225h-0.002l-0.14,0.258  c-0.065,0.119-0.14,0.232-0.218,0.341v0.001c-0.617,0.863-1.615,1.388-2.692,1.388c-1.214,0-2.327-0.664-2.909-1.73l-0.141-0.257  h-0.244L43.03,36.05c-0.581,1.066-1.697,1.73-2.909,1.73c-1.213,0-2.328-0.664-2.909-1.73l-0.141-0.258h-0.002l-0.123-0.225  l-0.262,0.482c-0.093,0.17-0.202,0.325-0.32,0.473c-0.15,0.188-0.314,0.359-0.499,0.509v0.001c-0.581,0.474-1.314,0.747-2.09,0.747  c-1.213,0-2.328-0.664-2.908-1.73l-0.263-0.482l-0.264,0.482c-0.582,1.066-1.697,1.73-2.91,1.73c-1.213,0-2.328-0.664-2.91-1.73  l-0.263-0.482l-0.263,0.482c-0.582,1.066-1.696,1.73-2.908,1.73c-1.215,0-2.33-0.664-2.911-1.73l-0.263-0.482L17.8,35.774  l-0.15,0.274c-0.322,0.59-0.811,1.052-1.387,1.351c-0.463,0.242-0.981,0.379-1.523,0.379c-1.725,0-3.146-1.326-3.299-3.013h44.107  h0.875h5.47h0.877h5.469h0.877H87.84c-0.152,1.687-1.572,3.013-3.299,3.013c-0.328,0-0.645-0.051-0.949-0.142  C83.001,37.459,82.473,37.117,82.063,36.652z"></path></svg>