<svg xmlns="http://www.w3.org/2000/svg" xmlns:xlink="http://www.w3.org/1999/xlink" version="1.1" x="0px" y="0px" viewBox="0 0 100 100" style="enable-background:new 0 0 100 100;" xml:space="preserve"><path d="M95.912,23.946c-0.011,0.003-0.018,0.009-0.031,0.011c-0.236,0.033-0.469,0.074-0.701,0.121  c0.24,0.329,0.475,0.661,0.697,1.001c0.094,0.143,0.185,0.29,0.273,0.437c-1.339-0.295-2.561,0.221-3.665,1.066  c-0.591,0.452-1.181,0.964-1.597,1.587c-0.298,0.446-0.48,0.943-0.674,1.435c-0.033-0.72-0.119-1.435-0.365-2.109  c-0.358-0.983-1.119-1.88-2.136-2.123c-0.356-0.085-0.728-0.087-1.091-0.04c-1.579,0.206-2.979,1.422-3.403,2.956  c-0.424,1.534,0.152,3.297,1.401,4.284c-0.033,0.441-0.624,0.653-1.03,0.476s-0.65-0.589-0.855-0.981  c-1.177-2.257-1.941-4.728-2.241-7.256c-0.104-0.872-0.15-1.77,0.089-2.615c0.215-0.76,0.65-1.437,0.978-2.156  c0.328-0.719,0.549-1.544,0.307-2.296c-0.069-0.216-0.19-0.417-0.343-0.589c-0.02-0.039-0.039-0.078-0.062-0.115  c-0.21-0.337-0.651-0.532-0.76-0.925c-0.011-0.039-0.028-0.071-0.05-0.097c-0.028-0.352-0.077-0.705-0.14-1.057  c-0.015-0.189-0.05-0.375-0.106-0.556c-0.013-0.062-0.025-0.124-0.038-0.185c0.177,0.079,0.354,0.161,0.533,0.236  c-0.008,0.032-0.011,0.065-0.005,0.102c0.071,0.493,0.099,0.989,0.093,1.487c-0.004,0.322,0.497,0.322,0.501,0  c0.006-0.466-0.029-0.926-0.086-1.387c0.291,0.115,0.58,0.229,0.871,0.338c-0.29,0.304-0.495,0.68-0.578,1.095  c-0.063,0.315,0.419,0.449,0.483,0.133c0.081-0.405,0.277-0.745,0.588-1.017c0.008-0.007,0.01-0.014,0.016-0.021  c0.062,0.023,0.125,0.047,0.187,0.07c0.167,0.062,0.338,0.127,0.507,0.19c-0.727,0.294-1.301,0.866-1.605,1.63  c-0.119,0.299,0.365,0.429,0.483,0.133c0.317-0.796,1.061-1.365,1.912-1.462c0.294,0.114,0.588,0.229,0.875,0.351  c0.004,0.002,0.008,0.004,0.012,0.005c-1.302,0.149-2.452,1.103-2.738,2.444c-0.067,0.314,0.415,0.448,0.483,0.133  c0.295-1.385,1.683-2.336,3.084-2.056c0.083,0.017,0.152-0.006,0.205-0.047c0.665,0.322,1.316,0.675,1.949,1.058  c0.16-0.16,0.322-0.327,0.494-0.483c-1.034-0.636-2.114-1.195-3.227-1.668c-0.726-0.309-1.477-0.586-2.202-0.854  c-1.294-0.478-2.632-0.973-3.843-1.652c-0.463-0.26-0.911-0.554-1.351-0.861c-0.016,0.027-0.032,0.054-0.048,0.081  c-0.08,0.14-0.157,0.282-0.233,0.424c-0.015,0.027-0.029,0.054-0.043,0.081c0.179,0.123,0.357,0.247,0.539,0.365  c1.105,1.123,1.812,2.791,1.151,4.148c-0.063,0.078-0.122,0.158-0.178,0.24c-0.256,0.287-0.537,0.556-0.774,0.85  c-0.041,0.031-0.066,0.07-0.082,0.11c-0.094,0.126-0.181,0.256-0.25,0.397c-0.017,0.035-0.03,0.078-0.033,0.12  c-0.618,1.092-0.618,2.411-0.275,3.67c0.036,0.746,0.167,1.487,0.402,2.196c0.235,0.711,0.568,1.398,0.664,2.141  c0.096,0.743-0.103,1.587-0.725,2.005c-0.76,0.512-1.848,0.167-2.473-0.502c-0.271-0.291-0.477-0.627-0.65-0.985  c-0.538-1.543-0.966-3.121-1.266-4.736c-0.308-1.655-0.584-3.467-0.573-5.238c-0.169-0.109-0.333-0.224-0.491-0.348  c-0.041,1.72,0.199,3.472,0.476,5.125c0.068,0.404,0.145,0.806,0.228,1.207c-0.222-0.47-0.458-0.934-0.706-1.391  c-0.216-0.829-0.378-1.678-0.499-2.543c-0.131-0.934-0.355-2.122-0.42-3.298c-0.178-0.213-0.342-0.438-0.492-0.675  c0.009,1.066,0.189,2.159,0.303,3.146c0.075,0.654,0.168,1.303,0.286,1.944c-0.018-0.03-0.038-0.059-0.057-0.089  c-1.376-3.569-2.765-9.76,2.231-10.522c0.024-0.004,0.041-0.014,0.06-0.022c0.007,0.005,0.013,0.009,0.02,0.013  c0.123,0.087,0.244,0.179,0.366,0.269c0.144-0.171,0.287-0.341,0.437-0.507c-0.139-0.102-0.277-0.207-0.417-0.306  c-1.911-1.354-4.015-2.435-6.224-3.222c-0.988-1.233-2.523-1.419-4.019-1.232c-0.812-0.167-3.794-0.83-4.366-0.445  c-0.211,0.076-0.408,0.182-0.59,0.309c-0.1,0.02-0.201,0.036-0.303,0.052c-2.834,0.101-5.672,0.258-8.51,0.464  c-0.09,0.226-0.17,0.454-0.241,0.685c0.966-0.072,1.932-0.142,2.898-0.201c-0.358,0.271-0.715,0.542-1.073,0.813  c-0.253,0.192-0.004,0.627,0.253,0.432c0.569-0.431,1.138-0.862,1.707-1.294c0.398-0.023,0.796-0.042,1.194-0.063  c-0.681,0.714-1.421,1.362-2.23,1.933c-0.261,0.184-0.011,0.618,0.253,0.432c0.989-0.698,1.891-1.496,2.697-2.399  c0.001-0.001,0.001-0.003,0.002-0.004c0.385-0.019,0.769-0.043,1.154-0.06c-0.66,0.883-1.439,1.66-2.339,2.303  c-0.26,0.186-0.01,0.62,0.253,0.432c1.067-0.762,1.978-1.683,2.728-2.758c0.277-0.011,0.554-0.02,0.832-0.03  c-0.283,0.409-0.48,0.891-0.568,1.4c-0.029,0.166-0.041,0.327-0.045,0.485c-0.048,0.323-0.06,0.657-0.023,0.998  c0.126,1.157,0.819,2.605,2.035,2.916c0.005,0.001,0.009,0,0.014,0.001c0.207,0.14,0.487-0.172,0.299-0.398  c-0.199-0.239-0.406-0.476-0.607-0.718c-0.006-0.014-0.006-0.028-0.015-0.043c-0.524-0.875-0.56-1.857-0.479-2.846  c0.014-0.174,0.046-0.392,0.097-0.629c0.062-0.147,0.134-0.29,0.218-0.426c0.135-0.217,0.304-0.411,0.495-0.576  c0.753-0.429,2.143-0.248,2.785-0.166c-0.022,0.025-0.044,0.049-0.066,0.074c-0.705,0.101-1.347,0.6-1.628,1.323  c-0.172,0.443-0.217,0.889-0.174,1.329c-0.082,0.353-0.074,0.707,0.062,1.041c0.002,0.024,0.001,0.049,0.003,0.074  c0.084,1.109,0.517,2.076,1.165,2.892c0.328,0.594,0.744,1.166,1.193,1.714c1.212,2.168,2.24,4.437,3.109,6.764  c0.75,2.006,1.382,4.057,1.896,6.136c0.321,3.188,0.513,6.388,0.56,9.594c0.038,2.652-0.132,5.335-0.144,8.008  c-0.759,2.882-0.179,6.693,0.964,9.38c0.461,1.083,1.142,2.059,1.998,2.806c0.156-0.1,0.324-0.18,0.502-0.233  c-0.94-0.775-1.654-1.855-2.133-3.033c0.654,1.352,1.632,2.511,3.068,3.165c1.456,0.663,3.102,0.512,4.315-0.319  c0.615-0.235,1.139-0.65,1.592-1.167c0.571-0.488,0.995-1.327,1.386-1.836c0.438-0.571,0.876-1.142,1.313-1.713  c0.303,0.937,0.546,1.885,0.73,2.841c0.147-0.133,0.291-0.269,0.435-0.406c-0.203-0.982-0.467-1.957-0.794-2.918  c0.245-0.319,0.489-0.638,0.734-0.957c0.201-0.18,0.404-0.358,0.608-0.535c0.25,1.052,0.471,2.12,0.638,3.193  c0.143-0.159,0.287-0.317,0.427-0.481l0,0c-0.173-1.036-0.393-2.067-0.639-3.083c0.25-0.219,0.498-0.44,0.742-0.664  c0.396,1.178,0.676,2.376,0.842,3.584c0.135-0.231,0.27-0.463,0.404-0.694c-0.187-1.103-0.467-2.195-0.844-3.268  c0.207-0.2,0.41-0.403,0.605-0.614c0.039-0.043,0.076-0.087,0.115-0.13c0.844,2.252,1.201,4.606,1.063,7.051  c-0.223,0.984-0.504,1.961-0.843,2.923c0.234-1.72,0.241-3.454,0.02-5.168c-0.142,0.244-0.284,0.488-0.426,0.732  c0.215,2.315,0.012,4.655-0.619,6.945c-0.196,0.42-0.404,0.837-0.621,1.249c0.585-2.08,0.689-4.252,0.509-6.432  c-0.156,0.148-0.311,0.298-0.466,0.446c0.182,2.759-0.123,5.497-1.35,8.031c0.308-1.701,0.435-3.417,0.378-5.126  c-0.163,0.179-0.325,0.357-0.488,0.536c0.022,1.979-0.204,3.964-0.683,5.925c-1.245,1.726-2.691,3.332-4.317,4.765  c-0.337,0.297-0.681,0.586-1.032,0.868c0.207,0.114,0.408,0.234,0.606,0.362c0.293-0.239,0.584-0.48,0.867-0.73  c0.169-0.149,0.336-0.301,0.501-0.453c1.894-0.513,2.839,2.211,2.462,3.634c-0.007,0.026-0.005,0.049-0.004,0.072  c-1.279,1.943-2.662,3.837-4.167,5.617c1.022-2.37,0.918-5.334-1.285-6.898c0.027-0.019,0.055-0.038,0.082-0.057  c-0.206-0.13-0.415-0.256-0.628-0.375c-0.247,0.174-0.493,0.351-0.746,0.518c0.16,0.159,0.318,0.321,0.473,0.486  c0.128-0.086,0.251-0.176,0.378-0.264c2.492,1.609,2.193,5.115,0.742,7.394c0.072,0.191,0.145,0.381,0.213,0.573  c0.023,0.064,0.044,0.129,0.066,0.194c3.875-4.151,7.055-9.037,9.369-14.041c0.96-2.077,1.714-4.237,2.198-6.445  c0.073-0.051,0.112-0.139,0.069-0.251c-0.003-0.007-0.006-0.013-0.009-0.02c0.513-2.455,0.682-4.967,0.422-7.49  c0-0.005,0.003-0.009,0.003-0.014c-0.015-0.951-0.094-1.893-0.284-2.825c-0.04-0.196-0.097-0.397-0.16-0.602  c-0.065-0.376-0.178-0.784-0.301-1.211c-0.124-0.43-0.255-0.889-0.322-1.304c0.002-0.192,0.186-1.222,0.257-1.353  c0.232-0.321,0.563-0.63,0.888-0.932c0.373-0.346,0.759-0.704,1.018-1.1c1.033-1.583,1.601-3.297,2.15-4.956  c0.659-1.989,1.282-3.868,2.641-5.515c0.302-0.365,0.659-0.727,1.004-1.077c1.015-1.027,2.065-2.089,2.114-3.569  c0.036-1.07-0.487-2.025-1.058-2.897C96.267,24.455,96.092,24.199,95.912,23.946z M73.515,9.634c-3.73,0.81-3.862,4.676-3.089,8.116  c-0.177-0.36-0.377-0.701-0.584-1.037c-0.634-2.778-1.115-7.747,2.657-7.72C72.843,9.197,73.181,9.412,73.515,9.634z M71.36,8.354  c0.123,0.065,0.246,0.129,0.368,0.196c-2.389,0.424-2.894,3.06-2.752,5.567c-0.064-0.233-0.125-0.467-0.185-0.7  c-0.417-2.247-0.257-4.805,2.51-5.046C71.324,8.369,71.341,8.36,71.36,8.354z M70.623,7.981c-1.301,0.319-1.98,1.192-2.273,2.288  v-0.001c0.047-1.211,0.42-2.364,1.575-2.614C70.159,7.76,70.392,7.869,70.623,7.981z M68.755,7.194  c0.013-0.004,0.021-0.013,0.032-0.019c0.154,0.06,0.307,0.122,0.459,0.185c-0.644,0.325-1.021,0.937-1.213,1.668  C67.963,8.175,68.091,7.418,68.755,7.194z M76.508,55.698c-0.021,0.015-0.044,0.026-0.066,0.04  c-2.618,0.532-5.252-0.697-6.103-3.545c-0.533-1.783-0.765-3.755-0.815-5.682c-0.007-0.798,0.008-1.586,0.023-2.344  c0.112-2.438,0.448-4.844,0.432-7.291c-0.009-1.383-0.089-2.762-0.216-4.137c0.031-2.14-0.029-4.277-0.18-6.412  c-0.068-2.944-0.539-5.881-1.87-8.486c-0.709-1.388-1.677-2.858-1.82-4.332c0.13-1.088,0.505-2.165,0.58-3.282  c0.014-0.209,0.011-0.408-0.003-0.6c0.127-0.132,0.282-0.234,0.453-0.3c0.03,0.124,0.901,2.154,1.011,2.653  c0.03,0.414,0.041,0.83,0.078,1.241c-0.029,0.351-0.057,0.7,0.012,1.056c0.091,0.478,0.3,0.914,0.548,1.335  c0.356,0.994,0.834,1.977,1.331,2.937c0.465,1.418,0.86,2.858,1.223,4.306c0.465,3.611,0.905,7.236,0.853,10.875  c-0.08,5.538-1.296,11.131-0.234,16.567c0.265,1.359,0.692,2.729,1.57,3.8c0.79,0.963,2.009,1.64,3.236,1.583  C76.537,55.686,76.523,55.688,76.508,55.698z M76.713,55.672c-0.001,0-0.001-0.001-0.001-0.001c0.004-0.001,0.009-0.002,0.014-0.002  C76.721,55.67,76.717,55.671,76.713,55.672z M83.162,70.176c-0.412,0.688-0.835,1.373-1.27,2.055  c-0.057-1.508-0.968-3.271-2.444-3.373c0.464-0.453,0.911-0.922,1.342-1.403c0.05,0.03,0.112,0.043,0.185,0.023  c1.299-0.356,2.461,0.637,2.357,1.967c-0.009,0.115,0.051,0.187,0.13,0.219C83.364,69.835,83.263,70.006,83.162,70.176z   M84.449,67.876c-0.202,0.387-0.41,0.771-0.623,1.152c-0.12-1.302-1.273-2.234-2.57-2.106c0.311-0.364,0.613-0.735,0.905-1.112  c0.014,0.006,0.024,0.015,0.041,0.018c1.006,0.225,2.379,0.7,2.24,1.981C84.44,67.835,84.446,67.855,84.449,67.876z M84.869,67.047  c-0.307-0.923-1.382-1.41-2.329-1.652c0.012-0.043,0.022-0.086,0.034-0.129c0.109-0.147,0.217-0.294,0.323-0.443  c0.053,0.041,0.122,0.06,0.207,0.035c0.917-0.278,1.878,0.37,2.006,1.309c0.011,0.082,0.052,0.133,0.106,0.159  C85.103,66.568,84.987,66.808,84.869,67.047z M85.508,65.688c-0.311-0.917-1.301-1.512-2.26-1.372  c0.183-0.269,0.361-0.54,0.534-0.814c0.931,0.107,1.698,0.774,1.948,1.678C85.656,65.35,85.583,65.519,85.508,65.688z M86.01,64.505  c-0.386-0.754-1.104-1.298-1.94-1.47c0.136-0.225,0.27-0.451,0.4-0.68c0.01,0,0.017,0.004,0.027,0.003  c0.895-0.099,1.737,0.6,1.751,1.514c0,0.006,0.003,0.01,0.003,0.016C86.173,64.095,86.092,64.3,86.01,64.505z M86.555,63.053  c-0.326-0.689-1.025-1.185-1.805-1.204c0.065-0.12,0.13-0.24,0.193-0.361c0.732-0.214,1.551,0.144,1.85,0.858  C86.717,62.582,86.638,62.818,86.555,63.053z M86.99,61.715c-0.418-0.532-1.078-0.838-1.758-0.788  c0.115-0.232,0.227-0.464,0.336-0.698c0.647-0.119,1.293,0.171,1.638,0.733C87.138,61.213,87.066,61.464,86.99,61.715z   M87.364,60.353c-0.405-0.426-0.97-0.66-1.558-0.648c0.103-0.232,0.202-0.466,0.298-0.701c0.544-0.167,1.173,0.102,1.434,0.606  C87.484,59.858,87.425,60.106,87.364,60.353z M87.671,58.964c-0.356-0.352-0.85-0.534-1.354-0.498  c0.072-0.188,0.142-0.377,0.21-0.566c0.5,0.069,0.932,0.358,1.19,0.81C87.701,58.795,87.687,58.879,87.671,58.964z M87.832,58.025  c-0.305-0.315-0.704-0.527-1.136-0.607c0.086-0.254,0.169-0.509,0.247-0.765c0.406,0.038,0.728,0.31,0.886,0.676  c0.021,0.05,0.053,0.079,0.088,0.1C87.891,57.628,87.863,57.827,87.832,58.025z M88.003,56.677c-0.236-0.264-0.56-0.438-0.916-0.502  c0.068-0.235,0.132-0.471,0.193-0.708C87.47,55.5,88.027,56.435,88.003,56.677z M87.957,51.758c0.01,0.084,0.022,0.169,0.031,0.253  c0,0.015,0.001,0.029,0.001,0.044c0,0.011,0.005,0.019,0.006,0.029c0.016,0.154,0.03,0.309,0.043,0.463  c-0.065,0.001-0.13,0.021-0.186,0.056C87.893,52.322,87.927,52.04,87.957,51.758z M87.785,53.045  c0.071,0.054,0.324,0.664,0.329,0.969c-0.133-0.1-0.297-0.157-0.471-0.161C87.695,53.583,87.742,53.314,87.785,53.045z M87.61,54.35  c0.158-0.003,0.491,0.912,0.478,1.162c-0.132-0.274-0.39-0.474-0.687-0.537c0.051-0.212,0.098-0.425,0.143-0.638  C87.566,54.343,87.585,54.351,87.61,54.35z M87.433,49.156c0,0.923-0.055,1.848-0.164,2.77c-0.148-1.665-0.532-3.286-1.146-4.856  c0.224-0.271,0.438-0.55,0.641-0.838c0.073,0.443,0.206,0.909,0.338,1.369C87.273,48.191,87.433,48.748,87.433,49.156z   M94.906,30.711c-0.356,0.36-0.724,0.733-1.044,1.121c-1.439,1.743-2.111,3.77-2.76,5.73c-0.536,1.618-1.09,3.291-2.076,4.801  c-0.125,0.192-0.297,0.38-0.488,0.571c0.434-1.08,0.767-2.205,1.012-3.341c0.201-0.932,0.34-1.874,0.443-2.82  c0.195-0.559,0.39-1.118,0.584-1.677c0.431-1.238,0.782-2.557,1.392-3.72c0.364-0.694,0.826-1.377,1.49-1.819  c0.563-0.375,1.783-0.852,2.14-0.198c0.034,0.149,0.068,0.297,0.103,0.446c0.002,0.022,0.01,0.038,0.015,0.057  C95.465,30.145,95.188,30.426,94.906,30.711z M91.12,32.053c0.01-0.02,0.022-0.039,0.033-0.059  c-0.009,0.021-0.016,0.042-0.025,0.063C91.126,32.056,91.123,32.055,91.12,32.053z M96.778,27.02  c-1.018-0.896-2.188-0.485-3.108,0.286c-1.699,0.852-2.819,2.81-3.432,4.697c0.003-0.413,0.003-0.825,0.001-1.237  c0.567-0.983,0.776-2.097,1.6-2.956c1.186-1.237,2.822-2.299,4.584-1.7c0.018,0.006,0.034,0.004,0.05,0.006  C96.611,26.411,96.719,26.713,96.778,27.02z"></path><path d="M67.418,75.513c-0.303,0.11-0.608,0.217-0.916,0.319c0.102,0.2,0.204,0.401,0.307,0.601c0.38-0.128,0.757-0.263,1.131-0.403  c-0.056-0.054-0.114-0.106-0.17-0.161C67.65,75.753,67.535,75.632,67.418,75.513z"></path><path d="M70.148,75.125c0.182-0.082,0.362-0.169,0.542-0.254c-0.294-0.108-0.589-0.215-0.883-0.323  c-0.111,0.05-0.222,0.099-0.334,0.148C69.694,74.844,69.918,74.989,70.148,75.125z"></path><path d="M73.058,73.638c0.234-0.134,0.47-0.264,0.7-0.403c-0.198-0.143-0.395-0.286-0.593-0.428  c-0.373,0.221-0.749,0.436-1.132,0.642C72.368,73.536,72.71,73.599,73.058,73.638z"></path><path d="M71.699,73.976c-0.039,0.143-0.077,0.286-0.11,0.431c-0.003,0.013-0.009,0.033-0.013,0.05c0.329,0.073,0.66,0.139,0.992,0.2  c0.039-0.164,0.091-0.323,0.162-0.475c-0.161-0.029-0.799-0.24-1.007-0.299C71.714,73.913,71.707,73.945,71.699,73.976z"></path><path d="M73.629,72.527c0.194,0.14,0.388,0.28,0.582,0.421c0.134-0.084,0.269-0.169,0.402-0.255  c-0.156-0.165-0.317-0.327-0.479-0.486C73.966,72.314,73.799,72.423,73.629,72.527z"></path><path d="M30.553,8.404c-0.059-0.197-0.117-0.393-0.176-0.59c-0.005-0.018-0.013-0.037-0.018-0.055  c-0.463,0.075-0.91,0.152-1.345,0.239c0.13,0.2,0.261,0.4,0.388,0.602c0.372-0.07,0.734-0.129,1.073-0.184  C30.501,8.412,30.527,8.408,30.553,8.404z"></path><path d="M30.813,7.689c0.09,0.253,0.183,0.488,0.236,0.639c0.401-0.064,0.804-0.123,1.206-0.185  c-0.012-0.224-0.017-0.448-0.016-0.673C31.764,7.543,31.288,7.613,30.813,7.689z"></path><path d="M47.582,5.643c-0.585,0.05-1.171,0.101-1.756,0.156c-0.054,0.225-0.099,0.451-0.139,0.679  c0.575-0.054,1.15-0.099,1.725-0.148C47.465,6.099,47.521,5.87,47.582,5.643z"></path><path d="M32.775,8.064c0.61-0.092,1.219-0.186,1.83-0.274c0.071-0.233,0.142-0.466,0.207-0.701c-0.694,0.098-1.388,0.201-2.08,0.306  C32.742,7.595,32.757,7.827,32.775,8.064z"></path><path d="M75.708,10.604c0.021-0.046,0.042-0.1,0.063-0.158c-0.153-0.118-0.305-0.234-0.46-0.352  c-0.15,0.165-0.295,0.335-0.439,0.505c0.211,0.159,0.418,0.317,0.624,0.476C75.567,10.918,75.637,10.761,75.708,10.604z"></path><path d="M76.482,10.991c-0.1-0.077-0.2-0.153-0.299-0.23c-0.066,0.147-0.132,0.294-0.198,0.441  c-0.028,0.062-0.055,0.123-0.083,0.185c0.097,0.075,0.195,0.149,0.292,0.224c0.037-0.086,0.068-0.175,0.106-0.261  C76.357,11.223,76.417,11.103,76.482,10.991z"></path><path d="M43.033,6.077c-0.409,0.043-0.819,0.083-1.228,0.129c-0.12,0.208-0.233,0.419-0.333,0.639  c-0.008,0.018-0.02,0.044-0.033,0.073c0.488-0.055,0.976-0.104,1.464-0.156C42.944,6.533,42.987,6.305,43.033,6.077z"></path><path d="M41.206,6.27c-0.381,0.043-0.761,0.093-1.142,0.138c-0.121,0.235-0.234,0.474-0.343,0.714  c0.385-0.046,0.77-0.094,1.156-0.138C40.976,6.741,41.085,6.502,41.206,6.27z"></path><path d="M35.348,7.015c-0.063,0.235-0.131,0.468-0.2,0.701c0.332-0.047,0.664-0.09,0.997-0.136c0.102-0.239,0.204-0.477,0.306-0.716  C36.083,6.914,35.715,6.964,35.348,7.015z"></path><path d="M39.474,6.479c-0.279,0.034-0.557,0.066-0.836,0.101c-0.094,0.154-0.188,0.309-0.275,0.468  c-0.016,0.029-0.07,0.126-0.139,0.253c0.307-0.039,0.614-0.072,0.921-0.11C39.249,6.951,39.36,6.714,39.474,6.479z"></path><path d="M38.014,6.656c-0.345,0.044-0.689,0.09-1.033,0.136c-0.115,0.272-0.204,0.571-0.256,0.693  c-0.003,0.006-0.005,0.012-0.008,0.018c0.306-0.041,0.61-0.085,0.916-0.125C37.754,7.133,37.88,6.892,38.014,6.656z"></path><path d="M45.302,5.845c-0.567,0.054-1.133,0.115-1.699,0.173c-0.05,0.245-0.121,0.491-0.174,0.69c0.58-0.06,1.16-0.123,1.741-0.179  C45.207,6.299,45.252,6.071,45.302,5.845z"></path><path d="M48.078,5.599c-0.065,0.275-0.117,0.535-0.148,0.686c0.592-0.05,1.184-0.102,1.776-0.148  c0.066-0.23,0.141-0.457,0.223-0.682C49.312,5.501,48.695,5.547,48.078,5.599z"></path><path d="M90.2,19.033c0.298,0.225,0.592,0.455,0.879,0.693c0.19-0.132,0.383-0.261,0.579-0.386c-0.296-0.249-0.597-0.49-0.904-0.725  C90.568,18.752,90.384,18.892,90.2,19.033z"></path><path d="M71.037,74.467c0.01-0.043,0.02-0.087,0.03-0.13c0.04-0.161,0.084-0.321,0.131-0.48c-0.465-0.113-0.926-0.235-1.383-0.373  c-0.127,0.127-0.24,0.266-0.341,0.416C69.827,74.009,70.84,74.394,71.037,74.467z"></path><path d="M92.873,20.431c-0.205,0.108-0.405,0.226-0.6,0.352c0.381,0.36,0.75,0.732,1.107,1.116c0.216-0.104,0.438-0.192,0.665-0.263  C93.667,21.222,93.277,20.82,92.873,20.431z"></path><path d="M65.111,76.266c0.082,0.208,0.165,0.416,0.248,0.623c0.325-0.095,0.648-0.195,0.969-0.298  c-0.102-0.201-0.205-0.401-0.307-0.602C65.719,76.085,65.416,76.177,65.111,76.266z"></path><path d="M77.071,70.938c-0.205-0.127-0.415-0.246-0.63-0.358c-0.225,0.174-0.448,0.351-0.678,0.52  c0.206,0.12,0.409,0.244,0.608,0.375C76.606,71.298,76.84,71.12,77.071,70.938z"></path><path d="M67.929,75.323c0.174,0.174,0.35,0.345,0.528,0.515c0.383-0.15,0.76-0.308,1.135-0.47c-0.227-0.142-0.452-0.287-0.671-0.442  C68.593,75.063,68.263,75.196,67.929,75.323z"></path><path d="M63.659,76.654c0.011,0.227,0.02,0.454,0.024,0.68c0.402-0.097,0.801-0.201,1.197-0.311  c-0.083-0.208-0.167-0.415-0.249-0.623C64.308,76.49,63.985,76.574,63.659,76.654z"></path><path d="M91.474,20.063c0.143,0.124,0.286,0.247,0.427,0.374c0.072-0.049,0.141-0.103,0.216-0.15  c0.122-0.077,0.25-0.142,0.375-0.211c-0.145-0.134-0.293-0.266-0.441-0.396C91.855,19.802,91.665,19.933,91.474,20.063z"></path><path d="M88.556,17.894c0.418,0.264,0.829,0.539,1.23,0.828c0.183-0.141,0.365-0.284,0.55-0.421  c-0.417-0.306-0.843-0.598-1.278-0.877C88.882,17.565,88.715,17.729,88.556,17.894z"></path><path d="M62.456,77.612c0.073-0.015,0.148-0.028,0.221-0.044c0.003,0.054,0.002,0.107,0.003,0.161  c0.165,0.027,0.329,0.057,0.491,0.095c-0.003-0.12-0.008-0.241-0.016-0.362c0.009-0.002,0.017-0.004,0.026-0.006  c-0.002-0.227-0.008-0.455-0.018-0.682c-0.028,0.006-0.055,0.014-0.083,0.02c-0.036-0.241-0.083-0.48-0.136-0.718  c-0.156,0.023-0.311,0.056-0.466,0.098c0.053,0.242,0.096,0.485,0.13,0.728c-0.067,0.014-0.134,0.026-0.201,0.04  C62.43,77.165,62.446,77.388,62.456,77.612z"></path><path d="M76.871,11.289c-0.115,0.2-0.204,0.425-0.279,0.626c0.224,0.169,0.45,0.337,0.679,0.502  c0.106-0.197,0.215-0.393,0.327-0.588C77.354,11.652,77.111,11.472,76.871,11.289z"></path><path d="M95.585,23.503c-0.372-0.499-0.763-0.983-1.172-1.453c-0.232,0.06-0.455,0.143-0.673,0.24  c0.389,0.437,0.763,0.888,1.119,1.352C95.098,23.587,95.34,23.541,95.585,23.503z"></path><path d="M12.508,25.761c0.463-0.38,0.934-0.752,1.409-1.118c0.05-0.267,0.1-0.533,0.151-0.799c-0.532,0.384-1.062,0.778-1.586,1.183  C12.488,25.272,12.495,25.516,12.508,25.761z"></path><path d="M10.041,27.91c-0.077-0.225-0.146-0.451-0.206-0.679c-0.736,0.667-1.438,1.361-2.093,2.081  c0.106,0.239,0.213,0.452,0.275,0.584C8.674,29.216,9.348,28.552,10.041,27.91z"></path><path d="M11.994,25.409c-0.592,0.469-1.174,0.952-1.74,1.45c0.053,0.232,0.113,0.462,0.186,0.69  c0.522-0.475,1.053-0.941,1.593-1.395C12.017,25.906,12.003,25.658,11.994,25.409z"></path><path d="M14.511,24.189c0.15-0.112,0.302-0.223,0.453-0.334c0.233-0.377,0.465-0.753,0.698-1.13c-0.335,0.229-0.67,0.462-1.006,0.7  C14.606,23.679,14.559,23.934,14.511,24.189z"></path><path d="M63.359,48.085c0,0.002,0,0.003,0.001,0.005c0.023,0.059,0.047,0.119,0.07,0.178L63.359,48.085z"></path><path d="M12.552,70.228c0.002-0.002,0.004-0.003,0.006-0.005c0.006-0.004,0.008-0.01,0.013-0.014  c-0.002-0.005-0.004-0.009-0.006-0.014C12.56,70.206,12.556,70.217,12.552,70.228z"></path><path d="M24.759,46.837c5.095,3.072,9.639,6.898,13.538,11.391c0.211,0.244,0.564-0.112,0.354-0.354  c-3.926-4.525-8.509-8.376-13.639-11.469C24.735,46.238,24.483,46.671,24.759,46.837z"></path><path d="M27.899,46.686c4.099,2.651,7.813,5.79,11.115,9.384c0.058,0.063,0.162,0.091,0.243,0.064  c0.031-0.01,0.063-0.021,0.094-0.031c0.305-0.1,0.174-0.583-0.133-0.483c-0.07,0.023-2.298-2.431-2.509-2.633  c-0.917-0.879-1.863-1.727-2.838-2.541c-1.819-1.517-3.732-2.907-5.72-4.193C27.88,46.078,27.629,46.511,27.899,46.686z"></path><path d="M31.32,46.403c2.966,2.322,5.739,4.854,8.32,7.596c0.221,0.235,0.575-0.119,0.354-0.354  c-2.581-2.742-5.355-5.275-8.32-7.596C31.424,45.853,31.067,46.204,31.32,46.403z"></path><path d="M16.434,15.776c-0.041,0.158-0.082,0.325-0.117,0.48c0.206,0.048,0.408,0.116,0.605,0.199  c0.045-0.159,0.09-0.318,0.135-0.477C16.854,15.894,16.646,15.827,16.434,15.776z"></path><path d="M18.25,16.67c-0.236-0.179-0.481-0.338-0.734-0.475c-0.046,0.161-0.091,0.323-0.137,0.484  c0.222,0.126,0.436,0.272,0.644,0.434C18.094,16.963,18.169,16.815,18.25,16.67z"></path><path d="M15.821,16.175c0.031-0.162,0.069-0.326,0.112-0.487c-0.059-0.006-0.117-0.019-0.177-0.022  c-0.322-0.019-0.321,0.481,0,0.501C15.778,16.168,15.799,16.174,15.821,16.175z"></path><path d="M16.232,18.601c0.253,0.065,0.503,0.136,0.746,0.22c0.061-0.156,0.144-0.301,0.238-0.439  c-0.294-0.104-0.595-0.192-0.9-0.269C16.294,18.225,16.244,18.44,16.232,18.601z"></path><path d="M14.237,18.266c-0.01-0.167-0.014-0.334-0.012-0.501c-0.088-0.008-0.175-0.018-0.263-0.025c-0.321-0.025-0.32,0.476,0,0.5  C14.054,18.247,14.146,18.257,14.237,18.266z"></path><path d="M14.742,18.322c0.341,0.043,0.681,0.099,1.015,0.169c0.02-0.146,0.05-0.294,0.067-0.429c0.002-0.02,0.005-0.04,0.007-0.061  c-0.365-0.076-0.735-0.137-1.107-0.183C14.724,17.986,14.731,18.154,14.742,18.322z"></path><path d="M15.979,20.168c0.197,0.049,0.392,0.104,0.583,0.169c0.05-0.156,0.111-0.308,0.18-0.459  c-0.233-0.08-0.472-0.149-0.715-0.207C16.004,19.837,15.987,20.002,15.979,20.168z"></path><path d="M14.977,19.991c0.171,0.018,0.34,0.043,0.507,0.072c0.011-0.165,0.03-0.329,0.054-0.493c-0.185-0.032-0.371-0.06-0.56-0.08  C14.657,19.457,14.66,19.958,14.977,19.991z"></path><path d="M44.935,13.564c-0.018-0.164-0.042-0.33-0.077-0.499c-0.065-0.315-0.548-0.182-0.483,0.133  c0.03,0.146,0.049,0.29,0.065,0.432C44.606,13.604,44.77,13.581,44.935,13.564z"></path><path d="M43.622,16.876c0.125,0.103,0.253,0.203,0.384,0.298c0.291-0.461,0.533-0.943,0.7-1.452  c-0.149-0.072-0.298-0.143-0.445-0.219C44.112,15.985,43.894,16.442,43.622,16.876z"></path><path d="M44.965,14.063c-0.165,0.018-0.33,0.04-0.494,0.068c0.001,0.3-0.03,0.59-0.085,0.872c0.151,0.079,0.303,0.156,0.456,0.231  C44.927,14.858,44.97,14.468,44.965,14.063z"></path><path d="M62.146,80.242c0.105,0.046,0.21,0.093,0.314,0.139c0.026,0.012,0.074,0.036,0.135,0.068  c0.156-0.288,0.273-0.588,0.363-0.894c-0.158-0.047-0.315-0.098-0.472-0.149c-0.082,0.279-0.191,0.55-0.332,0.809  C62.15,80.225,62.15,80.233,62.146,80.242z"></path><path d="M62.603,78.919c0.157,0.051,0.314,0.102,0.472,0.149c0.045-0.241,0.075-0.484,0.089-0.731  c-0.161-0.041-0.324-0.075-0.488-0.104C62.664,78.465,62.643,78.695,62.603,78.919z"></path><path d="M74.834,74.471c-0.026,0.164-0.046,0.329-0.061,0.495c0.153,0.015,0.305,0.032,0.458,0.044  c-0.031-0.166-0.054-0.335-0.067-0.505C75.055,74.496,74.945,74.481,74.834,74.471z"></path><path d="M76.04,74.561c-0.124-0.006-0.247-0.016-0.37-0.023c0.015,0.171,0.04,0.339,0.076,0.505  c0.152,0.009,0.303,0.022,0.456,0.029C76.148,74.901,76.094,74.731,76.04,74.561z"></path><path d="M74.337,74.418c-0.365-0.042-0.729-0.093-1.091-0.15c-0.084,0.152-0.143,0.311-0.185,0.476  c0.403,0.066,0.808,0.122,1.216,0.169C74.292,74.747,74.312,74.582,74.337,74.418z"></path><path d="M65.918,72.068c-0.108,0.089-0.227,0.176-0.345,0.266c0.597,0.296,1.203,0.572,1.819,0.822  c0.121-0.13,0.242-0.261,0.363-0.391c-0.593-0.235-1.176-0.495-1.75-0.773C65.977,72.017,65.948,72.043,65.918,72.068z"></path><path d="M68.986,73.738c0.092-0.149,0.194-0.29,0.307-0.421c-0.347-0.113-0.691-0.233-1.032-0.36  c-0.121,0.131-0.243,0.262-0.364,0.392C68.257,73.487,68.62,73.616,68.986,73.738z"></path><path d="M59.73,68.396c1.646,1.46,3.448,2.694,5.363,3.693c0.035-0.03,0.07-0.059,0.106-0.088c0.098-0.078,0.211-0.159,0.323-0.245  c-1.945-0.994-3.773-2.237-5.438-3.714C59.843,67.829,59.488,68.182,59.73,68.396z"></path><path d="M70.587,57.103c-0.229-0.102-0.455-0.208-0.677-0.32c-0.043,0.086-0.114,0.181-0.142,0.236  c-0.035,0.067-0.068,0.134-0.102,0.202c0.246,0.123,0.496,0.241,0.75,0.352C70.47,57.415,70.527,57.259,70.587,57.103z"></path><path d="M68.141,56.346c0.352,0.228,0.714,0.444,1.087,0.646c0.048-0.096,0.091-0.193,0.141-0.288  c0.026-0.05,0.056-0.103,0.086-0.157c-0.371-0.201-0.73-0.418-1.08-0.647C68.298,56.05,68.222,56.199,68.141,56.346z"></path><path d="M65.143,53.069c-0.145,0.083-0.282,0.177-0.411,0.282c0.407,0.479,0.838,0.936,1.299,1.362  c0.116-0.12,0.235-0.238,0.354-0.355C65.945,53.955,65.532,53.523,65.143,53.069z"></path><path d="M66.406,55.044c0.419,0.363,0.857,0.706,1.316,1.024c0.081-0.149,0.159-0.299,0.236-0.45  c-0.415-0.29-0.814-0.601-1.196-0.929C66.642,54.807,66.522,54.924,66.406,55.044z"></path><path d="M19.448,75.137c-0.08,0.029-0.164,0.061-0.249,0.094c0.016,0.183,0.031,0.367,0.047,0.55  c0.412-0.164,0.803-0.33,1.153-0.471c0.222-0.09,0.438-0.191,0.657-0.287c-0.05-0.158-0.093-0.318-0.134-0.479  C20.439,74.758,19.948,74.957,19.448,75.137z"></path><path d="M14.988,76.239c0.091,0.049,0.189,0.087,0.287,0.125c0.077-0.232,0.187-0.45,0.331-0.648  c-0.093-0.029-0.184-0.061-0.273-0.098C15.276,75.717,15.099,76.03,14.988,76.239z"></path><path d="M14.298,74.744c-0.061-0.11-0.114-0.225-0.164-0.341c-0.154,0.087-0.302,0.184-0.447,0.287  c0.205,0.502,0.503,0.945,0.899,1.272c0.018-0.035,0.035-0.07,0.052-0.105c0.08-0.162,0.173-0.317,0.264-0.473  C14.657,75.22,14.446,75.013,14.298,74.744z"></path><path d="M16.44,75.872c-0.104,0.21-0.174,0.428-0.2,0.659c0.25,0.001,0.509-0.023,0.772-0.067c0.016-0.196,0.037-0.391,0.061-0.587  c-0.046,0.004-0.093,0.011-0.137,0.012C16.774,75.893,16.607,75.885,16.44,75.872z"></path><path d="M17.584,75.795c-0.026,0.188-0.049,0.376-0.066,0.565c0.416-0.102,0.836-0.241,1.244-0.392  c-0.016-0.183-0.031-0.366-0.047-0.549C18.345,75.562,17.958,75.705,17.584,75.795z"></path><path d="M41.92,92.86c0.035,0.362,0.112,0.863,0.159,1.35c0.166,0,0.333,0,0.499,0c-0.055-0.476-0.125-0.941-0.158-1.331  C42.254,92.868,42.087,92.862,41.92,92.86z"></path><path d="M41.815,90.289c0.026,0.691,0.052,1.382,0.078,2.073c0.167,0.002,0.334,0.008,0.501,0.018  c-0.025-0.659-0.049-1.318-0.074-1.977C42.152,90.365,41.983,90.327,41.815,90.289z"></path><path d="M42.627,94.71c-0.171,0-0.342,0-0.512,0c0.007,0.2,0.003,0.385-0.017,0.543c0.038,0.029,0.078,0.056,0.117,0.084  c0.074,0.018,0.148,0.037,0.221,0.055c0.075,0.019,0.151,0.037,0.226,0.056c0.011-0.075,0.023-0.15,0.035-0.225  c-0.015,0.009-0.031,0.018-0.046,0.027C42.65,95.075,42.641,94.893,42.627,94.71z"></path><path d="M39.712,93.777c-0.141,0.09-0.28,0.185-0.413,0.288c0.015,0.024,0.029,0.049,0.044,0.074  c0.089,0.144,0.213,0.386,0.364,0.666c0.144-0.112,0.287-0.225,0.431-0.337c-0.01-0.016-0.02-0.034-0.029-0.049  C39.974,94.207,39.844,93.992,39.712,93.777z"></path><path d="M38.47,92.462c-0.035,0.024-0.07,0.036-0.103,0.04c0.22,0.382,0.449,0.76,0.678,1.137c0.133-0.099,0.269-0.193,0.408-0.281  c-0.218-0.36-0.431-0.723-0.642-1.088C38.694,92.326,38.58,92.388,38.47,92.462z"></path><path d="M38.286,94.861c0.188,0.08,0.375,0.165,0.56,0.256c0.008-0.027,0.018-0.053,0.033-0.079  c0.035-0.061,0.098-0.098,0.165-0.111c-0.069-0.119-0.14-0.236-0.213-0.353c-0.17-0.078-0.341-0.151-0.513-0.221  C38.304,94.522,38.294,94.691,38.286,94.861z"></path><path d="M34.885,93.414c-0.037,0.161-0.074,0.322-0.111,0.483c0.297,0.049,0.592,0.104,0.885,0.165  c0.014-0.164,0.029-0.328,0.043-0.492C35.432,93.513,35.159,93.462,34.885,93.414z"></path><path d="M37.833,94.167c-0.236-0.085-0.474-0.164-0.714-0.236c-0.016,0.166-0.022,0.331-0.027,0.497  c0.236,0.073,0.471,0.152,0.703,0.238C37.805,94.5,37.818,94.333,37.833,94.167z"></path><path d="M69.799,85.546c-0.285,0.201-0.572,0.398-0.861,0.591c0.095,0.134,0.192,0.266,0.291,0.397  c0.28-0.189,0.554-0.386,0.829-0.583C69.969,85.818,69.887,85.68,69.799,85.546z"></path><path d="M70.208,85.256c0.087,0.134,0.169,0.271,0.258,0.403c0.388-0.285,0.77-0.579,1.148-0.878  c-0.07-0.144-0.139-0.288-0.209-0.432C71.011,84.659,70.613,84.962,70.208,85.256z"></path><path d="M67.712,86.923c0.098,0.135,0.195,0.271,0.297,0.403c0.27-0.167,0.534-0.345,0.8-0.52c-0.098-0.13-0.194-0.261-0.289-0.394  C68.253,86.586,67.984,86.756,67.712,86.923z"></path><path d="M66.609,88.155c0.329-0.186,0.653-0.382,0.977-0.577c-0.1-0.132-0.206-0.26-0.303-0.393c-0.334,0.2-0.671,0.395-1.011,0.587  C66.382,87.901,66.493,88.03,66.609,88.155z"></path><path d="M71.806,84.033c0.07,0.144,0.139,0.288,0.209,0.432c0.465-0.378,0.923-0.766,1.373-1.165  c-0.076-0.142-0.153-0.285-0.229-0.427c-0.44,0.395-0.887,0.782-1.346,1.154C71.811,84.029,71.808,84.031,71.806,84.033z"></path><path d="M64.814,89.07c0.006,0.007,0.018,0.019,0.029,0.03c0.441-0.225,0.878-0.458,1.311-0.697  c-0.113-0.125-0.219-0.256-0.328-0.385c-0.438,0.24-0.881,0.474-1.327,0.699C64.605,88.835,64.706,88.955,64.814,89.07z"></path><path d="M73.542,82.529c0.076,0.142,0.152,0.283,0.228,0.425c0.323-0.294,0.645-0.589,0.96-0.893  c-0.064-0.163-0.128-0.325-0.192-0.488C74.211,81.897,73.88,82.218,73.542,82.529z"></path><path d="M43.251,94.924c-0.034,0.202-0.067,0.405-0.096,0.607c0.25-0.139,0.51-0.26,0.778-0.364  c-0.057-0.155-0.109-0.312-0.153-0.471C43.6,94.765,43.424,94.842,43.251,94.924z"></path><path d="M44.256,94.536c0.03,0.111,0.059,0.221,0.095,0.33c0.016,0.046,0.036,0.09,0.053,0.136c0.304-0.096,0.616-0.176,0.933-0.244  c-0.187-0.12-0.375-0.241-0.56-0.365C44.602,94.436,44.428,94.483,44.256,94.536z"></path><path d="M62.941,90.012c0.482-0.219,0.961-0.446,1.435-0.681c-0.117-0.125-0.232-0.252-0.347-0.381  c-0.495,0.243-0.993,0.478-1.496,0.703C62.67,89.773,62.802,89.897,62.941,90.012z"></path><path d="M48.631,94.27c-0.184-0.138-0.369-0.276-0.553-0.414c-0.236,0.034-0.472,0.066-0.711,0.098  c0.199,0.147,0.407,0.281,0.622,0.404C48.206,94.33,48.42,94.301,48.631,94.27z"></path><path d="M59.953,90.724c0.071,0.072,0.139,0.147,0.211,0.217c0.048,0.046,0.105,0.104,0.168,0.17c0.71-0.275,1.413-0.565,2.11-0.872  c-0.14-0.118-0.276-0.241-0.413-0.363C61.343,90.174,60.651,90.457,59.953,90.724z"></path><path d="M4.068,55.302c-0.019,5.824,2.266,11.59,6.269,15.82l0.186,0.195c0.582,0.609,1.184,1.239,1.398,2.005  c0.089,0.32,0.112,0.662,0.135,1.023c0.03,0.456,0.06,0.927,0.233,1.383c0.122,0.323,0.303,0.605,0.479,0.878  c0.192,0.298,0.373,0.58,0.459,0.886c0.128,0.455,0.047,0.953-0.04,1.48c-0.017,0.107-0.035,0.212-0.051,0.318  c-0.162,1.099-0.016,2.178,0.422,3.211c0.361,1.741,1.604,3.307,3.13,4.286c0.065,0.042,0.135,0.076,0.201,0.116  c-0.144,0.196-0.275,0.4-0.392,0.608c0.155,0.057,0.309,0.115,0.464,0.172c0.107-0.182,0.225-0.36,0.356-0.532  c0.266,0.143,0.536,0.276,0.813,0.396c-0.27,0.492-0.438,1.03-0.487,1.593c0.166,0.021,0.332,0.042,0.498,0.063  c0.044-0.523,0.2-1.018,0.458-1.469c0.338,0.13,0.68,0.248,1.029,0.351c0.644,0.777,1.354,1.475,2.124,2.088  c0.026,0.104,0.111,0.186,0.231,0.18c0.183,0.14,0.37,0.275,0.56,0.405c0.028,0.088,0.101,0.155,0.222,0.15  c1.476,0.974,3.135,1.669,4.937,2.048c0.124,0.026,0.248,0.051,0.373,0.074c0.037,0.023,0.08,0.04,0.137,0.037  c0.014-0.001,0.028-0.003,0.042-0.004c1.978,0.361,4.035,0.463,6.028,0.757c0.037-0.163,0.075-0.325,0.112-0.488  c-0.439-0.068-0.88-0.127-1.323-0.181c1.739-1.599,1.91-4.151,0.376-5.922c0.074-0.004,0.15-0.007,0.223-0.015  c0.135,0.014,0.263,0.031,0.387,0.049c0.042,0.014,0.084,0.02,0.128,0.02c0.081,0.013,0.162,0.026,0.24,0.04  c0.272,0.116,0.551,0.21,0.833,0.284c0.268,0.715,0.581,1.414,0.757,2.165c0.217,0.929,0.29,1.86,0.252,2.797  c0.014,0.032,0.022,0.069,0.018,0.113c-0.031,0.353-0.062,0.706-0.093,1.059c-0.013,0.143-0.025,0.287-0.038,0.43  c0.152,0.036,0.303,0.075,0.454,0.115c0.007-0.164,0.015-0.328,0.032-0.493c-0.013-0.003-0.025-0.007-0.038-0.01  c0.018-0.018,0.035-0.037,0.048-0.061c0.02-0.178,0.04-0.355,0.071-0.534c0.002-0.01,0.007-0.015,0.009-0.024  c0.092-1.018,0.065-2.032-0.128-3.043c-0.161-0.839-0.485-1.612-0.778-2.398c0.026,0.004,0.051,0.009,0.077,0.012  c0.696,1.484,1.442,2.941,2.247,4.367c0.018-0.027,0.041-0.052,0.073-0.073c0.111-0.074,0.225-0.14,0.342-0.197  c-0.748-1.323-1.44-2.675-2.091-4.047c0.437,0.015,0.876-0.025,1.309-0.124c0.342,0.794,0.728,1.567,1.164,2.317  c0.162,0.278,0.594,0.027,0.432-0.253c-0.414-0.714-0.786-1.446-1.114-2.2c0.093-0.032,0.186-0.065,0.279-0.103  c0.17,0.374,0.341,0.747,0.511,1.121c0.133,0.293,0.565,0.039,0.432-0.253c-0.132-0.289-0.264-0.579-0.396-0.868  c-0.026-0.056-0.065-0.128-0.108-0.207c0.13-0.069,0.256-0.143,0.378-0.222c0.094,0.302,0.213,0.597,0.361,0.885  c0.147,0.287,0.579,0.034,0.432-0.253c-0.154-0.3-0.274-0.613-0.363-0.936c0.526-0.406,1.002-0.878,1.524-1.301  c0.102-0.083,0.207-0.159,0.312-0.236c0.057,1.51,0.113,3.019,0.17,4.529c0.001,0.03,0.002,0.06,0.003,0.089  c0.168,0.038,0.337,0.076,0.505,0.114c-0.063-1.689-0.127-3.378-0.19-5.067c0.178-0.113,0.359-0.22,0.543-0.319  c0.017,0.124,0.034,0.249,0.052,0.373c-0.098,0.087-0.165,0.195-0.164,0.34c0.001,0.196,0.107,0.325,0.272,0.408  c0.265,1.777,0.593,3.553,1.068,5.279c0.383,1.392,0.967,2.622,2.225,3.232c-0.215,0.034-0.43,0.071-0.642,0.112  c0.198,0.128,0.397,0.255,0.597,0.379c0.383-0.063,0.77-0.116,1.154-0.165c-0.08-0.056-0.16-0.111-0.238-0.17  c-0.263-0.201-0.513-0.421-0.748-0.66c-1.573-0.845-1.896-2.881-2.256-4.529c-0.243-1.111-0.447-2.228-0.626-3.35  c0.555,0.041,1.234-0.082,1.478-0.127c0.01-0.002,0.023-0.004,0.034-0.006c0.536,3.265,2.259,6.959,5.381,7.857  c-0.488,0.095-0.975,0.192-1.465,0.276c-0.002,0-0.005,0.001-0.007,0.001c0.145,0.108,0.289,0.216,0.434,0.325  c0.026,0.019,0.062,0.051,0.102,0.085c2.277-0.407,4.535-0.93,6.753-1.587c0.385-0.114,0.768-0.236,1.15-0.358  c0.042-0.063,0.107-0.11,0.195-0.113c0.031-0.001,0.061-0.006,0.091-0.011c0.053-0.008,0.105-0.021,0.156-0.044  c0.092-0.042,0.177-0.025,0.246,0.018c-0.187-0.183-0.382-0.369-0.563-0.563c-4.147-1.51-8.546-3.684-9.694-8.288  c0.489-0.082,0.97-0.196,1.426-0.395c0.893-0.391,1.537-1.081,2.251-1.716c1.883-1.677,4.027-2.353,6.382-2.803  c1.402-0.115,4.211-0.628,4.266-0.639c-0.009-0.207-0.022-0.413-0.041-0.619c-0.109,0.021-0.217,0.044-0.325,0.065  c0.098-0.244,0.182-0.492,0.252-0.745c-0.002-0.057,0.012-0.106,0.038-0.148c0.026-0.103,0.052-0.205,0.074-0.31  c0.064-0.314-0.418-0.449-0.483-0.133c-0.102,0.499-0.257,0.979-0.469,1.442c-0.28,0.048-0.562,0.092-0.844,0.134  c0.462-0.997,0.816-2.031,1.046-3.111c0.067-0.314-0.416-0.448-0.483-0.133c-0.247,1.161-0.632,2.266-1.155,3.329  c-0.175,0.023-0.352,0.042-0.527,0.063c0.712-1.566,1.178-3.201,1.401-4.915c0.041-0.318-0.459-0.315-0.501,0  c-0.227,1.743-0.724,3.402-1.482,4.984c-0.272,0.028-0.546,0.049-0.82,0.071c0.501-0.741,0.821-1.861,1.068-2.581  c0.453-1.32,0.712-2.678,0.84-4.065c0.03-0.321-0.471-0.319-0.501,0c-0.109,1.184-0.319,2.337-0.672,3.474  c-0.164,0.528-0.357,1.041-0.575,1.549c-0.116,0.288-0.245,0.57-0.387,0.846c-0.193,0.237-0.509,0.713-0.602,0.842l-0.342,0.02  c-0.24,0.014-0.481,0.029-0.722,0.046c1.371-2.395,2.299-4.962,2.761-7.696c0.053-0.315-0.429-0.45-0.483-0.133  c-0.476,2.814-1.437,5.432-2.888,7.883c-0.294,0.03-0.586,0.069-0.874,0.123c1.384-2.499,2.386-5.147,2.996-7.952  c0.068-0.314-0.414-0.448-0.483-0.133c-0.635,2.92-1.694,5.66-3.179,8.245c-0.343,0.098-0.676,0.227-0.997,0.393  c2.039-3.293,3.259-7.056,3.577-10.907c-0.003,0.2,0.032,0.4,0.114,0.584c0.232,0.518,0.852,0.854,1.397,0.695  c0.172-0.05,0.325-0.145,0.462-0.262c1.327,1.283,2.427,2.764,3.219,4.445c0.368,0.782,0.737,1.692,0.991,2.638  c0.154-0.042,0.309-0.076,0.465-0.1c-0.164-0.614-0.37-1.211-0.586-1.77c-0.826-2.134-2.12-4.005-3.756-5.582  c0.294-0.424,0.444-0.962,0.31-1.458c-0.123-0.458-0.522-0.845-0.982-0.918c-0.487,0.099-0.951,0.331-1.263,0.715  c-0.181,0.222-0.303,0.495-0.35,0.777c0.031-0.429,0.05-0.86,0.059-1.29c0.21-0.394,0.622-0.671,1.099-0.659  c0.322,0.008,0.322-0.492,0-0.501c-0.407-0.01-0.79,0.138-1.095,0.383c-0.019-1.718-0.218-3.438-0.606-5.127  c-0.879-3.825-2.715-7.605-5.743-10.176c-3.563-3.025-9.106-5.108-9.774-10.358c-0.06-0.473-0.812-0.479-0.751,0  c0.462,3.628,3.157,6.046,6.012,8.031c1.94,1.349,3.982,2.592,5.55,4.391c1.485,1.704,2.555,3.811,3.296,5.934  c2.595,7.433,1.134,15.989-3.702,22.161c-0.882,0.805-1.826,1.491-2.948,1.974c-0.318,0.099-0.646,0.183-0.981,0.259  c-0.039,0.006-0.078,0.01-0.109,0.025c-0.39,0.086-0.789,0.162-1.195,0.239c-0.134,0.025-0.271,0.053-0.406,0.079  c2.21-1.949,4.396-3.954,6.142-6.34c1.975-2.698,2.753-5.527,2.571-8.861c-0.16-2.924-1.093-4.999-3.787-6.343  c-2.225-1.11-4.93-1.433-6.756,0.54c-0.219,0.236,0.135,0.591,0.354,0.354c2.151-2.324,6.006-1.169,8.049,0.786  c2.062,1.973,1.98,6.07,1.4,8.674c-1.06,4.762-5.468,8.331-8.97,11.403c-0.178,0.041-0.357,0.078-0.532,0.125  c-0.097,0.026-0.186,0.058-0.278,0.089c0.459-0.362,0.867-0.796,1.266-1.227c1.172-1.265,2.344-2.53,3.517-3.794  c1.186-1.28,2.383-2.573,3.264-4.079c1.16-1.981,1.73-4.384,1.217-6.613c0.017-1.596-0.438-3.207-1.575-4.279  c-1.622-1.528-3.894-2.266-6.051-1.594c-0.307,0.095-0.176,0.579,0.133,0.483c1.927-0.6,4.137,0.029,5.564,1.466  c0.559,0.563,0.933,1.259,1.158,2.013c-0.957-1.59-2.577-2.785-4.415-2.938c-4.114-0.342-7.528,4.197-11.618,3.636  c-0.324-0.044-0.674-0.142-0.853-0.416c-0.183-0.279-0.127-0.642-0.121-0.975c0.029-1.762-1.473-3.101-2.624-4.435  c-0.623-0.722-1.163-1.502-1.656-2.313c1.186,1.085,2.34,2.203,3.454,3.365c0.223,0.233,0.577-0.121,0.354-0.354  c-1.465-1.528-2.997-2.985-4.587-4.38c-0.263-0.493-0.516-0.994-0.764-1.498c2.286,1.584,4.18,3.698,6.391,5.399  c0.255,0.196,0.505-0.238,0.253-0.432c-2.433-1.872-4.468-4.233-7.074-5.85c-0.344-0.711-0.686-1.422-1.045-2.123  c2.97,2.237,5.753,4.692,8.351,7.36c0.225,0.231,0.579-0.123,0.354-0.354c-2.857-2.933-5.944-5.605-9.246-8.022  c-0.38-0.691-0.786-1.364-1.235-2.01c4.124,2.914,7.966,6.182,11.5,9.793c0.226,0.231,0.579-0.123,0.354-0.354  c-3.826-3.909-8.008-7.421-12.516-10.516c-0.064-0.044-0.127-0.051-0.183-0.036c-3.615-4.321-9.633-6.511-15.178-5.499  c0.138-0.142,4.517-3.336,6.407-4.696c0.086-0.013,0.233-0.168,0.25-0.18c0.294-0.212,2.835-2.072,3.553-2.844  c0.003-0.003,0.005-0.006,0.008-0.009c0.275-0.297,0.536-0.608,0.767-0.948c0.853-1.255,2.351-4.97,2.445-5.204  c0.896-2.238,1.689-4.513,2.401-6.816c0.095-0.308-0.388-0.44-0.483-0.133c-0.532,1.721-1.075,3.529-1.704,5.308  c-0.597-0.501-1.288-0.838-2.053-0.983c0.022-0.285,0.04-0.566,0.051-0.839c0.315-0.671,0.435-1.434,0.328-2.167  c-0.056-0.388-0.171-0.792-0.04-1.161c0.181-0.509,0.792-1.039,0.44-1.448c-0.181-0.211-0.489-0.177-0.753-0.048  c-0.356-0.757-0.826-1.55-1.393-2.268c0.056-0.092,1.456-2.124,1.526-2.278c0.084-0.154,0.165-0.31,0.245-0.466  c0.082,0.103,0.164,0.205,0.246,0.308c0.085,0.106,0.265,0.087,0.354,0c0.105-0.103,0.084-0.249,0-0.354  c-0.111-0.139-0.222-0.278-0.333-0.417c-0.007-0.009-0.018-0.012-0.026-0.019c0.026-0.053,0.052-0.106,0.078-0.16  c0.045-0.072,0.09-0.145,0.135-0.217c0.016-0.025,0.032-0.051,0.048-0.077c0.222,0.272,0.462,0.53,0.725,0.766  c0.239,0.215,0.594-0.138,0.354-0.354c-0.293-0.263-0.559-0.549-0.799-0.858c0.052-0.082,0.103-0.164,0.156-0.246  c0.406,0.426,0.812,0.852,1.218,1.278c0.223,0.234,0.576-0.121,0.354-0.354c-0.431-0.452-0.862-0.904-1.293-1.356  c0.068-0.104,0.138-0.208,0.208-0.312c0.471,0.634,0.99,1.228,1.567,1.77c0.234,0.221,0.589-0.133,0.354-0.354  c-0.6-0.565-1.14-1.182-1.621-1.85c0.075-0.105,0.15-0.208,0.227-0.312c0.618,0.677,1.236,1.355,1.853,2.032  c0.218,0.238,0.571-0.116,0.354-0.354c-0.633-0.694-1.265-1.387-1.898-2.081c0.133-0.167,0.27-0.33,0.411-0.49  c0.528,0.759,1.105,1.479,1.737,2.155c0.22,0.236,0.574-0.119,0.354-0.354c-0.637-0.681-1.218-1.405-1.744-2.175  c0.157-0.161,0.318-0.317,0.486-0.466c0.512,0.723,1.035,1.437,1.571,2.143c0.192,0.253,0.627,0.004,0.432-0.253  c-0.552-0.727-1.092-1.464-1.619-2.209c0.2-0.156,0.641-0.371,0.663-0.336c0.371,0.568,0.742,1.136,1.112,1.705  c0.175,0.269,0.609,0.018,0.432-0.253c-0.371-0.568-0.742-1.136-1.112-1.705c-0.021-0.033,0.291-0.257,0.48-0.336  c0.214,0.315,0.428,0.629,0.642,0.944c0.18,0.265,0.614,0.015,0.432-0.253c-0.199-0.292-0.397-0.584-0.596-0.876  c0.478-0.168,0.968-0.297,1.45-0.401c-0.126-0.2-0.254-0.398-0.384-0.596c-0.901,0.207-1.742,0.479-2.527,0.913  c-0.12,0.066-0.237,0.137-0.352,0.209c-0.148,0.067-3.43,2.304-4.056,4.065c-0.046,0.129-1.321,2.702-1.62,3.186  c-0.069,0.083-0.654,1.07-0.677,1.108c-0.195-0.212-0.4-0.41-0.613-0.597c-0.081,0.149-0.157,0.301-0.227,0.456  c0.199,0.182,0.39,0.376,0.572,0.581c-0.181,0.299-0.36,0.601-0.54,0.903c-0.244-0.134-0.495-0.257-0.754-0.365  c-0.104,0.131-0.188,0.274-0.251,0.43c0.259,0.107,0.509,0.228,0.751,0.362c-0.177,0.301-0.353,0.604-0.529,0.908  c-0.151-0.075-0.304-0.146-0.46-0.211c-0.071,0.149-0.134,0.301-0.184,0.457c0.134,0.057,0.266,0.117,0.397,0.182  c-0.123,0.215-0.992,1.957-1.143,2.223c0.041-0.029-0.187,0.414-0.332,0.669c-0.039,0.088-0.079,0.175-0.114,0.265  c-0.022,0.056-1.429,3.038-1.895,4.581c-3.291,1.911-6.389,3.551-7.941,7.126c-0.348-1.078-0.514-2.13,0.064-3.24  c0.399-0.766,0.997-1.419,1.589-2.042C7.565,30.09,7.48,29.899,7.4,29.705c-0.426,0.487-0.831,0.986-1.206,1.498  c-1.132,1.546-1.23,2.88-0.622,4.667c0.634,1.866,1.389,4.137,2.742,5.613c0.277,0.302,0.544,0.465,0.799,0.519  c-0.406,0.434-0.866,0.83-1.349,1.237c-0.197,0.166-0.394,0.332-0.587,0.501c-0.254,0.223-0.499,0.454-0.741,0.689  c-2.386,1.67-4.838,3.895-3.603,6.831c0.312,0.742,0.711,1.435,1.173,2.08c0.08,0.525,0.076,1.081,0.071,1.626L4.068,55.302z   M45.871,83.449c0.419-0.063,0.844-0.108,1.267-0.163c1.124,4.67,5.437,6.969,9.639,8.542c-0.025,0.008-0.05,0.017-0.076,0.024  c-1.773,0.553-3.573,1.012-5.389,1.399c-0.04-0.054-0.1-0.096-0.183-0.104c-3.394-0.359-5.233-4.297-5.78-7.635  c0.209-0.064,0.398-0.169,0.447-0.365c0.078-0.314-0.243-0.501-0.477-0.6c-0.032-0.013-0.065-0.02-0.098-0.032  c-0.028-0.313-0.044-0.615-0.048-0.904C45.407,83.56,45.64,83.505,45.871,83.449z M44.463,83.765  c0.071-0.015,0.142-0.03,0.213-0.045c0.004,0.189,0.012,0.381,0.025,0.577c-0.497,0.026-0.983,0.113-1.45,0.295  c-0.024,0.009-0.051,0.02-0.077,0.03c-0.017-0.119-0.034-0.238-0.05-0.357C43.556,84.065,44.003,83.9,44.463,83.765z M10.644,68.828  c-0.087,0.095-0.244,0.142-0.374,0.04c-4.215-3.274-5.189-8.6-5.318-13.65c-0.008-0.323,0.492-0.322,0.501,0  c0.125,4.905,1.047,10.044,5.112,13.246c0.02,0.016,0.038,0.034,0.059,0.05C10.746,68.61,10.725,68.74,10.644,68.828z M9.455,56.712  c-0.011-0.003-0.023-0.006-0.034-0.009c-0.151-0.064-0.3-0.13-0.448-0.2c-0.333-2.098-0.739-4.18-1.226-6.249  c0.191-0.015,0.381-0.031,0.572-0.046C8.581,52.4,8.961,54.565,9.455,56.712z M9.117,52.354L9.117,52.354  c0.001,0.004,0.001,0.007,0.002,0.011C9.118,52.361,9.118,52.357,9.117,52.354z M10.772,66.759  c-0.108-0.044-0.215-0.091-0.323-0.136c0.005-0.144,0.023-0.287,0.057-0.429c0.078,0.05,0.155,0.102,0.234,0.151  C10.715,66.495,10.723,66.637,10.772,66.759z M10.868,67.877c-0.097-0.131-0.185-0.267-0.253-0.416  c-0.041-0.09-0.073-0.18-0.099-0.27c0.108,0.045,0.215,0.094,0.324,0.137c0.032,0.129,0.074,0.255,0.126,0.379  C10.932,67.763,10.9,67.82,10.868,67.877z M11.119,65.518c-0.074,0.102-0.145,0.22-0.207,0.342c-0.079-0.05-0.157-0.102-0.236-0.153  c0.131-0.294,0.31-0.58,0.518-0.855c0.067,0.099,0.134,0.197,0.202,0.295C11.301,65.271,11.208,65.395,11.119,65.518z M11.523,64.45  c0.259-0.292,0.54-0.566,0.815-0.812c0.241-0.216,0.495-0.437,0.767-0.614c0.063,0.113,0.128,0.224,0.192,0.336  c-0.6,0.311-1.118,0.821-1.578,1.378C11.653,64.642,11.587,64.547,11.523,64.45z M12.308,72.502  c-0.126-0.242-0.472-1.137-0.413-1.356c-0.003-0.278,0.029-0.556,0.109-0.822c0.021-0.071,0.048-0.154,0.078-0.238  c0.031-0.087,0.068-0.174,0.114-0.251c0.035-0.059,0.244-0.425,0.389-0.422c0.028,0.001,0.054,0.007,0.08,0.017  c0.038,0.015,0.072,0.04,0.101,0.079c0.005,0.007,0.012,0.01,0.017,0.018c0.115,0.187,0.23,0.375,0.345,0.562  c0.075,0.121,0.149,0.243,0.224,0.364c0.034,0.055,0.139,0.304,0.199,0.372c-0.322,0-0.625,0.176-0.908,0.689  C12.485,71.802,12.376,72.139,12.308,72.502z M16.371,78.838c-0.303-0.013-1.223,0.071-1.483-0.123  c-0.253-0.602-0.315-0.932-0.185-0.99c0.104,0.033,0.565,0.182,0.696,0.205c0.498,0.122,2.289-0.02,2.641-0.077  c0.328-0.053,0.664-0.133,1.004-0.231c0.253-0.016,0.736,0.191,0.729,0.247C19.655,78.878,16.395,78.84,16.371,78.838z   M19.553,79.099c-0.005,0.001-0.011,0.002-0.016,0.003c0.003-0.003,0.004-0.007,0.006-0.01  C19.547,79.094,19.55,79.097,19.553,79.099z M15.777,79.365c-0.066,0.069-0.123,0.153-0.175,0.244  c-0.37,0.085-0.74,0.151-1.097,0.124c-0.224-0.101-0.684-0.389-0.7-0.406c0.013-0.083,0.026-0.165,0.039-0.249  c0.014-0.085,0.028-0.171,0.041-0.257C14.351,79.196,15.075,79.327,15.777,79.365z M21.247,89.073  c-0.258-0.236-0.507-0.49-0.751-0.754c0.435,0.105,0.873,0.196,1.314,0.277c-0.184,0.155-0.368,0.309-0.552,0.464  C21.252,89.064,21.251,89.069,21.247,89.073z M22.104,89.79c-0.162-0.124-0.321-0.255-0.478-0.388  c0.271-0.228,0.542-0.456,0.814-0.683c0.05,0.01,0.1,0.025,0.15,0.035c0.147,0.029,0.314,0.044,0.489,0.053  c0.053,0.008,0.106,0.017,0.159,0.025c0.02,0.003,0.041,0.006,0.061,0.009C23.001,89.264,22.593,89.592,22.104,89.79z   M22.561,90.127c0.533-0.276,0.981-0.69,1.286-1.212c0.457,0.059,0.917,0.103,1.375,0.114c-0.527,0.746-1.35,1.242-2.272,1.353  C22.82,90.299,22.689,90.216,22.561,90.127z M24.543,91.263c-0.326-0.152-0.645-0.318-0.958-0.495  c0.944-0.269,1.737-0.889,2.233-1.746c0.473-0.024,0.939-0.096,1.393-0.237c-0.452,1.162-1.391,2.071-2.616,2.45  C24.574,91.241,24.56,91.253,24.543,91.263z M25.188,91.545c1.284-0.549,2.258-1.642,2.637-2.992  c0.539-0.239,1.057-0.543,1.582-0.812c0.045-0.011,0.09-0.021,0.133-0.032c-0.081,0.8-0.305,1.566-0.702,2.286  c-0.337,0.612-1.229,1.973-2.08,2.103C26.223,91.939,25.699,91.755,25.188,91.545z M27.531,92.311  c0.621-0.413,1.165-1.156,1.488-1.648c0.612-0.93,0.948-1.98,1.034-3.075c0.271-0.063,0.52-0.12,0.744-0.168  c0.205,2.025,0.083,4.767-2.291,5.114C28.176,92.468,27.852,92.393,27.531,92.311z M32.436,93.035  c-0.016,0.012-0.024,0.026-0.036,0.04c-0.372-0.041-0.745-0.08-1.117-0.119c-0.591-0.062-1.173-0.137-1.744-0.229  c1.765-0.906,1.931-3.405,1.742-5.399c0.44-0.077,0.828-0.119,1.179-0.138c0.091,0.01,0.183,0.021,0.274,0.029  C34.501,88.869,34.424,91.549,32.436,93.035z M35.248,80.919c-0.536,0.932-1.387,1.596-2.438,1.852  c-1.241,0.302-2.275-0.118-3.338-0.738c-0.278-0.162-0.026-0.595,0.253-0.432c0.921,0.537,1.926,0.804,2.843,0.672  c0.107-0.015,0.212-0.035,0.316-0.062c0.158-0.04,0.311-0.096,0.461-0.163c0.152-0.068,0.302-0.145,0.444-0.241  c0.078-0.053,0.154-0.114,0.229-0.176c0.069-0.058,0.136-0.121,0.202-0.187c0.217-0.216,0.419-0.47,0.595-0.777  C34.976,80.387,35.408,80.639,35.248,80.919z M39.288,85.434c-1.155,0.632-2.434,1.266-3.746,1.165  c1.261-0.641,2.449-1.595,3.793-2.065c0.513-0.18,1.052-0.289,1.582-0.418c-0.002,0.021-0.001,0.042,0,0.063  C40.384,84.601,39.904,85.097,39.288,85.434z M41.217,80.863c-0.672,0.055-1.331-0.067-1.982-0.281  c1.143,0.119,2.273-0.126,3.343-0.589c0.043,0.152,0.094,0.301,0.149,0.449C42.252,80.667,41.751,80.82,41.217,80.863z   M44.196,79.487c-0.048-0.094-0.095-0.189-0.143-0.283c0.401-0.254,0.788-0.531,1.158-0.823c0.026,0.036,0.051,0.073,0.076,0.11  C44.939,78.835,44.576,79.176,44.196,79.487z M48.678,66.864c0.151,0.2,0.281,0.389,0.367,0.52c0.017,0.053,0.034,0.105,0.05,0.158  c-0.19-0.066-0.382-0.128-0.575-0.185c-0.12-0.224-0.248-0.444-0.38-0.661C48.323,66.743,48.503,66.798,48.678,66.864z   M48.343,69.98c0.003,0.02,0.004,0.038,0.006,0.058c0.128,0.956-0.788,1.439-1.342,2.036c-0.849,0.915-0.591,1.781-1.215,2.663  c-0.615,0.869-1.834,1.157-2.575,1.977c-0.599,0.663-1.087,1.101-2.009,1.189c-0.841,0.081-1.517-0.078-2.366,0.208  c-0.181,0.061-0.292,0.148-0.412,0.221c-0.105,0.064-0.22,0.116-0.393,0.132c-0.013,0.001-0.024,0.004-0.038,0.005  c-0.453,0.025-0.428-0.125-0.839-0.239c-0.813-0.227-1.542-0.334-2.383-0.321c-0.715,0.011-1.082,0.015-1.519-0.574  c-0.192-0.259,0.242-0.508,0.432-0.253c0.058,0.078,0.122,0.137,0.188,0.187c0.155,0.117,0.329,0.167,0.516,0.173  c0.587,0.017,1.294-0.37,1.855-0.256c0.458,0.093,0.739,0.493,1.163,0.612c0.11,0.031,0.22,0.04,0.33,0.039  c0.175-0.001,0.349-0.032,0.522-0.084c0.434-0.129,0.864-0.361,1.28-0.428c1.117-0.18,2.125,0.27,3.033-0.636  c0.426-0.425,0.733-0.952,1.226-1.313c0.257-0.188,0.509-0.353,0.746-0.525c0.137-0.099,0.267-0.203,0.391-0.313  c0.286-0.254,0.535-0.553,0.718-0.977c0.234-0.542,0.21-0.962,0.587-1.438c0.17-0.216,0.401-0.382,0.604-0.565  c0.201-0.16,0.509-0.368,0.577-0.509c0.922-1.238-0.328-1.656-0.331-1.753c-0.001-0.044,0.01-0.086,0.029-0.126  c0.004-0.009,0.007-0.018,0.012-0.026c0.028-0.047,0.07-0.081,0.122-0.1c0.043-0.016,0.09-0.024,0.146-0.009  c0.088,0.024,0.169,0.053,0.247,0.085C48.019,69.27,48.263,69.524,48.343,69.98z M31.773,73.631  c-0.225-0.356-0.488-0.683-0.781-0.984c0.323-0.025,0.581-0.044,0.72-0.072c0.031-0.006,0.062-0.015,0.094-0.021  c0.424,0.296,0.773,0.756,1.057,1.255c-0.077,0.012-0.152,0.027-0.229,0.038c-0.033,0.005-0.061,0.015-0.084,0.03  c-0.106,0.005-0.213,0.009-0.321,0.01C32.092,73.775,31.941,73.688,31.773,73.631z M28.021,76.578  c0.421,0.425,0.856,0.834,1.306,1.228c-0.063,0.02-0.129,0.038-0.198,0.054c-0.394-0.384-0.777-0.78-1.148-1.187  C27.995,76.641,28.008,76.61,28.021,76.578z M27.845,74.244c-0.075-0.097-0.156-0.188-0.229-0.286  c-0.014-0.019-0.032-0.03-0.048-0.044c0-0.003,0-0.006,0-0.009c0.002-0.157,0.056-0.295,0.155-0.414  c0.127,0.209,0.258,0.414,0.394,0.616C28.028,74.158,27.938,74.204,27.845,74.244z M29.312,73.415  c-0.123-0.168-0.246-0.336-0.365-0.507c0.114-0.026,0.23-0.05,0.349-0.071c0.118,0.164,0.236,0.328,0.355,0.491  C29.532,73.345,29.42,73.376,29.312,73.415z M30.014,75.095c0.196,0.226,0.399,0.447,0.605,0.665  c0.044,0.137,0.062,0.285,0.062,0.436c-0.01,0.039-0.021,0.077-0.032,0.116c-0.438-0.412-0.851-0.847-1.234-1.307  c0.057-0.008,0.113-0.012,0.168-0.01C29.746,75.001,29.886,75.041,30.014,75.095z M30.464,76.824  c-0.015,0.034-0.032,0.067-0.048,0.1c-0.608-0.511-1.175-1.065-1.708-1.652c0.065-0.035,0.13-0.069,0.198-0.1  C29.381,75.76,29.901,76.311,30.464,76.824z M28.54,73.839c-0.144-0.212-0.281-0.43-0.415-0.65c0.097-0.05,0.203-0.095,0.318-0.136  c0.134,0.197,0.271,0.392,0.411,0.585C28.748,73.702,28.644,73.77,28.54,73.839z M28.176,76.017  c0.009-0.051,0.016-0.102,0.022-0.153c0.052-0.084,0.105-0.166,0.161-0.242c0.559,0.614,1.154,1.192,1.793,1.726  c-0.012,0.016-0.025,0.031-0.037,0.047c-0.086,0.069-0.179,0.133-0.281,0.192C29.257,77.089,28.706,76.565,28.176,76.017z   M30.275,73.343c-0.141-0.196-0.283-0.392-0.424-0.588c0.16-0.02,0.318-0.037,0.472-0.051c0.322,0.284,0.605,0.602,0.851,0.949  C30.886,73.508,30.586,73.395,30.275,73.343z M32.408,72.404c0.134-0.037,0.267-0.076,0.4-0.118c0.37,0.424,0.696,0.877,0.976,1.359  c-0.134,0.027-0.268,0.052-0.403,0.077C33.117,73.231,32.796,72.765,32.408,72.404z M42.132,71.097  c0.123,0.274,0.236,0.553,0.329,0.841c-0.031,0.03-0.062,0.059-0.093,0.089c-0.128,0.12-0.257,0.233-0.387,0.343  c-0.108-0.354-0.238-0.701-0.389-1.04C41.771,71.249,41.951,71.172,42.132,71.097z M42.835,73.868  c0.257-0.093,0.527,0.085,0.799-0.01c0.122,0.132,0.244,0.264,0.365,0.395c-0.395,0.23-0.866,0.396-1.216,0.692  c-0.522,0.442-0.806,1.208-1.465,1.393c-0.826,0.231-1.744-0.62-2.504-0.221c-0.272,0.143-0.472,0.428-0.739,0.555  c-0.039-0.307-0.068-0.614-0.085-0.924c0.624-0.125,1.233-0.422,1.917-0.343c0.644,0.074,0.795,0.35,1.392-0.009  C41.837,75.073,42.112,74.131,42.835,73.868z M42.601,70.909c0.16-0.061,0.32-0.121,0.482-0.178  c0.064,0.145,0.124,0.292,0.177,0.443c-0.134,0.127-0.268,0.255-0.402,0.384C42.78,71.339,42.696,71.122,42.601,70.909z   M34.024,75.199c-0.077-0.214-0.165-0.443-0.264-0.678c0.158,0.008,0.314,0.007,0.469-0.001c0.116,0.263,0.223,0.53,0.314,0.807  c0,0.001,0.001,0.002,0.002,0.003c-0.182,0.027-0.359,0.04-0.525,0.03C34.04,75.314,34.047,75.262,34.024,75.199z M34.35,76.108  c0.062-0.003,0.124-0.001,0.188-0.012c0.347-0.058,0.499-0.294,0.775-0.394c0.627-0.227,1.439-0.217,2.056-0.079  c0.019,0.004,0.07,0.089,0.123,0.141c0.017,0.309,0.045,0.616,0.083,0.923c-0.366-0.143-0.66-0.571-1.064-0.682  c-0.597-0.163-1.148,0.419-1.765,0.459c-0.155,0.01-0.292-0.015-0.421-0.06C34.329,76.305,34.337,76.207,34.35,76.108z   M34.751,74.471c0.157-0.023,0.313-0.056,0.467-0.092c0.074,0.174,0.151,0.341,0.234,0.501c-0.12,0.094-0.23,0.199-0.328,0.318  c-0.033,0.01-0.063,0.016-0.095,0.026c-0.002-0.01,0-0.018-0.003-0.029C34.945,74.947,34.851,74.708,34.751,74.471z M35.696,74.249  c0.185-0.058,0.368-0.125,0.55-0.198c0.073,0.158,0.164,0.358,0.21,0.533c-0.105-0.01-0.216-0.007-0.343,0.016  c-0.088,0.016-0.153,0.037-0.211,0.06C35.83,74.526,35.761,74.389,35.696,74.249z M36.74,73.841  c0.105-0.048,0.209-0.098,0.313-0.149c0.108,0.297,0.205,0.598,0.286,0.908c-0.119,0.032-0.238,0.064-0.359,0.095  C36.964,74.43,36.867,74.132,36.74,73.841z M37.502,73.461c0.159-0.084,0.318-0.171,0.476-0.259  c0.061-0.034,0.122-0.068,0.183-0.102c0.129,0.376,0.225,0.766,0.293,1.167c-0.208,0.069-0.42,0.134-0.634,0.197  C37.732,74.121,37.623,73.788,37.502,73.461z M38.596,72.857c0.162-0.09,0.323-0.178,0.485-0.267  c0.173,0.413,0.317,0.839,0.435,1.276c-0.193,0.082-0.39,0.159-0.589,0.233C38.849,73.673,38.738,73.258,38.596,72.857z   M41.554,72.708c-0.181,0.135-0.365,0.262-0.552,0.381c-0.029-0.123-0.06-0.241-0.098-0.341c-0.115-0.309-0.248-0.611-0.39-0.909  c0.206-0.103,0.412-0.203,0.62-0.3C41.304,71.919,41.443,72.309,41.554,72.708z M40.575,73.346  c-0.196,0.111-0.395,0.214-0.597,0.311c-0.125-0.447-0.275-0.883-0.454-1.305c0.182-0.097,0.365-0.193,0.548-0.288  C40.268,72.479,40.435,72.908,40.575,73.346z M39.86,70.659c-0.229-0.353-0.484-0.688-0.752-1.013c0.22-0.1,0.439-0.2,0.659-0.301  c0.279,0.281,0.524,0.63,0.735,0.981C40.288,70.435,40.074,70.546,39.86,70.659z M39.411,70.902  c-0.031,0.017-0.062,0.033-0.093,0.05c-0.096,0.053-0.226,0.13-0.38,0.225c-0.224-0.386-0.476-0.756-0.748-1.115  c0.15-0.067,0.3-0.134,0.449-0.201C38.918,70.191,39.173,70.54,39.411,70.902z M38.513,71.438c-0.133,0.082-0.276,0.171-0.428,0.265  c-0.236-0.431-0.514-0.839-0.831-1.222c0.157-0.07,0.314-0.141,0.471-0.211C38.016,70.644,38.28,71.033,38.513,71.438z   M37.663,71.961c-0.207,0.126-0.423,0.256-0.647,0.388c-0.25-0.484-0.542-0.946-0.869-1.388c0.209-0.09,0.418-0.178,0.626-0.269  C37.114,71.087,37.415,71.509,37.663,71.961z M36.583,72.601c-0.123,0.071-0.247,0.141-0.373,0.211  c-0.283-0.52-0.623-0.999-1.002-1.448c0.034-0.014,0.068-0.028,0.101-0.042c0.123-0.051,0.244-0.106,0.366-0.158  C36.02,71.62,36.326,72.098,36.583,72.601z M35.613,72.769c0.055,0.092,0.104,0.188,0.155,0.283c-0.128,0.068-0.256,0.135-0.383,0.2  c-0.036,0.01-0.072,0.019-0.107,0.029c-0.247-0.573-0.517-1.127-0.927-1.562c0.125-0.051,0.249-0.102,0.373-0.154  C35.054,71.94,35.355,72.337,35.613,72.769z M34.82,73.405c-0.174,0.045-0.348,0.088-0.524,0.128  c-0.28-0.502-0.605-0.976-0.975-1.42c0.179-0.064,0.357-0.129,0.534-0.198C34.296,72.296,34.578,72.837,34.82,73.405z M33.27,74.638  c0.093,0.218,0.175,0.428,0.246,0.622c-0.136-0.045-0.267-0.103-0.39-0.179c-0.075-0.127-0.151-0.255-0.229-0.38  C33.018,74.688,33.142,74.667,33.27,74.638z M47.32,66.525c0.045,0.007,0.091,0.016,0.137,0.024  c0.135,0.204,0.264,0.411,0.387,0.622c-0.395-0.096-0.794-0.175-1.196-0.237c-0.107-0.176-0.215-0.352-0.322-0.528  C46.658,66.436,46.989,66.473,47.32,66.525z M45.712,66.361c0.1,0.163,0.199,0.327,0.299,0.49c-0.543-0.059-1.089-0.089-1.634-0.087  c-0.087-0.134-0.171-0.27-0.257-0.404C44.651,66.335,45.182,66.334,45.712,66.361z M45.822,70.163  c0.104-0.011,0.205-0.028,0.302-0.051c0.104,0.118,0.19,0.251,0.267,0.391c-0.476,0.557-1.278,1.023-1.507,1.737  c-0.144,0.448-0.041,0.958-0.242,1.384c-0.06,0.128-0.146,0.232-0.242,0.327c-0.133-0.144-0.266-0.288-0.4-0.432  c0.152-0.34-0.147-0.695-0.117-1.092C43.995,70.992,45.146,70.897,45.822,70.163z M43.883,70.604  c-0.077,0.068-0.153,0.136-0.229,0.205c-0.031-0.079-0.062-0.159-0.095-0.237c0.092-0.029,0.184-0.06,0.277-0.087  C43.851,70.526,43.866,70.566,43.883,70.604z M43.55,66.394c0.081,0.129,0.162,0.257,0.244,0.384  c-0.908,0.041-1.811,0.171-2.694,0.385c-0.099-0.119-0.198-0.237-0.297-0.356C41.712,66.61,42.629,66.466,43.55,66.394z   M41.407,69.805c-0.012,0.011-0.024,0.022-0.035,0.033c-0.082,0.065-0.165,0.127-0.25,0.187c-0.063,0.03-0.125,0.058-0.188,0.088  c-0.207-0.332-0.443-0.674-0.713-0.975c0.067-0.031,0.134-0.061,0.201-0.092c0.125-0.008,0.251-0.016,0.376-0.024  C41.018,69.273,41.221,69.534,41.407,69.805z M27.528,71.027c0.038-0.012,0.08-0.014,0.129,0.001c0.006,0.002,0.01,0,0.016,0.003  c0.06,0.023,0.12,0.035,0.18,0.053c0.961,0.286,1.925-0.073,2.869-0.33c0.307-0.083,0.613-0.167,0.92-0.25  c0.055-0.015,1.489-0.746,1.64-0.828c0.616-0.33,1.233-0.658,1.855-0.976c0.042-0.018,0.084-0.037,0.126-0.055  c1.608-0.697,3.284-1.298,4.993-1.713c0.104,0.124,0.207,0.248,0.311,0.372c-0.061,0.017-0.123,0.033-0.184,0.051  c0.063-0.017,0.128-0.027,0.192-0.041c0.017,0.02,0.033,0.04,0.05,0.06c-1.167,0.29-2.3,0.807-3.38,1.409  c-0.397,0.221-0.789,0.45-1.181,0.679c-0.032,0.01-0.061,0.025-0.088,0.045c-2.266,1.13-4.513,2.286-7.03,2.295  c-0.103,0.011-0.205,0.022-0.308,0.025c-0.374,0.01-0.748-0.029-1.121-0.124C27.327,71.655,27.412,71.064,27.528,71.027z   M27.762,78.792c0.076,0.032,0.147,0.073,0.221,0.109c0.121,0.059,0.241,0.118,0.357,0.186c0.004,0.003,0.009,0.005,0.013,0.008  c0.168,0.099,0.332,0.203,0.494,0.312c0.272,0.183,0.539,0.373,0.812,0.551c0.3,0.195,1.27,0.671,1.427,0.718  c0.06,0.018,0.12,0.035,0.18,0.053c0.154,0.046,1.491,0.349,2.385-0.627c0.018-0.025,0.04-0.041,0.062-0.057  c0.02-0.014,0.041-0.024,0.063-0.032c0.204-0.071,0.463,0.13,0.307,0.342c-0.044,0.06-0.093,0.112-0.14,0.167  c-0.104,0.123-0.214,0.235-0.331,0.333c-0.236,0.197-0.495,0.343-0.776,0.438c-0.185,0.062-0.378,0.103-0.579,0.121  c-0.007,0.001-0.014,0.002-0.021,0.003c-0.169,0.013-0.344,0.007-0.524-0.011c-0.019-0.002-0.039-0.005-0.058-0.008  c-0.078-0.01-0.156-0.016-0.236-0.032c-0.115-0.023-0.226-0.051-0.336-0.083c-0.067-0.019-0.132-0.04-0.197-0.062  c-0.154-0.053-0.303-0.113-0.448-0.18c-0.793-0.366-1.472-0.917-2.189-1.353c-0.099-0.06-0.199-0.118-0.301-0.173  c-0.796-0.433-1.663-0.679-2.8-0.344c-2.018,0.595-3.643,1.897-5.761,2.324c-1.795,0.362-3.606,0.312-5.397-0.026  c-0.317-0.06-0.182-0.542,0.133-0.483c2.096,0.396,4.218,0.356,6.274-0.256c1.478-0.439,2.711-1.279,4.121-1.853  c0.318-0.13,0.63-0.226,0.94-0.292c0.282-0.06,0.562-0.091,0.842-0.091c0.137,0,0.275,0.008,0.413,0.024  c0.144,0.017,0.289,0.043,0.435,0.078C27.35,78.644,27.554,78.705,27.762,78.792z M21.554,78.378  c0.371-0.19,0.597-0.538,0.679-0.924c0.29,0.316,0.705,0.514,1.122,0.492c-0.022,0.053-0.855,0.48-1.231,0.573  c-0.899,0.243-1.761,0.374-2.244,0.172c0.132-0.128,0.234-0.284,0.305-0.468C20.563,78.528,21.114,78.604,21.554,78.378z   M20.283,77.188c0.074-0.23,0.389-0.476,0.927-0.413c0.538,0.064,0.438,0.157,0.498,0.254s-0.164,1.473-1.277,0.748  C20.276,77.618,20.209,77.418,20.283,77.188z M23.932,76.462c0.061,0.498-0.015,0.747-0.317,0.906  c-0.449,0.237-0.961-0.071-1.176-0.481c-0.117-0.222-0.152-0.49-0.082-0.703C22.726,75.509,23.871,75.964,23.932,76.462z   M23.551,75.481c0.003-0.002,0.006-0.004,0.009-0.006c-0.002,0.003-0.004,0.005-0.006,0.007  C23.553,75.482,23.552,75.482,23.551,75.481z M24.486,76.189c0.019-0.01,0.036-0.022,0.052-0.037  c0.064-0.059,0.127-0.119,0.191-0.178c0.102,0.15,0.232,0.288,0.397,0.41c0.624,0.459,1.08,0.511,1.411,0.301  c0.011,0.005,0.021,0.012,0.032,0.015c-0.546,0.725-1.58,0.584-1.973-0.236C24.582,76.434,24.511,76.257,24.486,76.189z   M26.246,68.264c-0.013,0.057-0.026,0.114-0.038,0.171c-0.193-0.056-0.386-0.113-0.578-0.172c-0.03-0.115-0.061-0.229-0.091-0.344  C25.775,68.035,26.011,68.15,26.246,68.264z M25.337,72.323c0.004-0.02,0.008-0.04,0.012-0.06c0.056-0.299,0.124-0.594,0.203-0.887  c0.001-0.007,0.002-0.014,0.003-0.021c0.019-0.19,0.354-1.108,0.376-1.164c0.004-0.011,0.011-0.019,0.016-0.03  c0.014-0.027,0.03-0.05,0.049-0.07c0.096-0.098,0.242-0.1,0.341-0.009c0.031,0.028,0.058,0.062,0.076,0.108  c0.003,0.009,0.005,0.017,0.008,0.026c0.033,0.086,0.057,0.172,0.083,0.258c0.089,0.109,0.147,0.465,0.149,0.494  c0.059,0.272,0.207,1.347,0.244,1.524c0.022,0.231,0.038,0.463,0.045,0.696c0.012,0.387-0.016,0.936-0.021,1.162  c-0.004,0.226-0.031,0.69-0.306,0.862s-1.647-0.313-1.733-0.818c0.061-0.526,0.252-1.086,0.329-1.503  C25.233,72.769,25.332,72.325,25.337,72.323z M24.944,67.631c0.041,0.152,0.081,0.305,0.122,0.457  c-0.241-0.078-0.481-0.159-0.72-0.241c-0.06-0.195-0.115-0.393-0.17-0.59C24.431,67.382,24.688,67.506,24.944,67.631z   M23.967,71.086c0.668,0.149,0.392,1.528,0.4,1.577c-0.96,0.622-1.952,1.181-2.982,1.667c0.04,0.165,0.08,0.33,0.13,0.491  c0.939-0.438,1.844-0.939,2.723-1.488c0.118,0.608-0.181,1.212-0.72,1.508c-0.065,0.036-0.461,0.358-0.638,0.464  c-0.159,0.002-0.323,0.034-0.489,0.112c-0.2,0.094-0.337,0.239-0.43,0.407c-0.272,0.146-0.548,0.286-0.827,0.42  c-0.359-0.078-0.72-0.035-1.022,0.268c-0.073,0.074-0.131,0.158-0.182,0.246c-0.395,0.149-0.795,0.277-1.197,0.382  c-0.329,0.03-0.659,0.083-0.999,0.147c-0.22,0.041-0.443,0.09-0.667,0.132c-0.585,0.037-1.167,0.008-1.739-0.107  c-0.048-0.01-0.09-0.023-0.137-0.034c-0.149-0.054-0.304-0.111-0.478-0.164c-0.062-0.019-0.123-0.032-0.184-0.043  c-0.803-0.338-1.269-0.922-1.546-1.913c-0.178-0.635-0.455-2.461-0.015-3.066c0.205-0.283,0.387-0.433,0.555-0.497  c-0.236,0.779-0.24,1.738-0.002,2.604c0.144-0.097,0.291-0.189,0.443-0.27c-0.121-0.425-0.171-0.871-0.143-1.311  c0.087,0.135,0.24,0.241,0.485,0.294c0.497,0.108,1.658-0.388,1.728-0.437c0.029-0.02,2.587-1.24,3.591-1.037  c-0.099,0.528-0.294,1.022-0.572,1.462c0.188,0.002,0.376,0.008,0.564,0.017c0.161-0.296,0.291-0.609,0.387-0.936  C21.152,71.202,22.596,70.868,23.967,71.086z M14.746,70.407c-0.005-0.037-0.011-0.075-0.019-0.112  c0.121-0.075,0.24-0.156,0.358-0.238c0.322,0.556,0.687,1.084,1.089,1.587c-0.029,0.023-0.056,0.047-0.086,0.07  c-0.003,0-0.004-0.001-0.007-0.001c-0.229,0.021-0.453-0.024-0.673-0.102c-0.009-0.037-0.025-0.074-0.054-0.109  C15.075,71.174,14.879,70.804,14.746,70.407z M15.501,69.778c0.164-0.108,0.329-0.216,0.5-0.313  c0.266,0.412,0.551,0.809,0.861,1.188c-0.157,0.169-0.295,0.35-0.41,0.543C16.102,70.744,15.785,70.272,15.501,69.778z   M16.448,69.236c0.15-0.074,0.302-0.145,0.456-0.211c0.195,0.349,0.414,0.682,0.655,1c-0.115,0.09-0.228,0.183-0.336,0.278  C16.945,69.962,16.688,69.606,16.448,69.236z M17.369,68.837c0.189-0.068,0.382-0.126,0.576-0.181  c0.167,0.241,0.333,0.483,0.5,0.724c-0.016,0.012-0.031,0.025-0.047,0.036c-0.144,0.101-0.291,0.205-0.438,0.31  C17.745,69.442,17.546,69.148,17.369,68.837z M18.125,64.847c-0.173-0.115-2.017-1.372-3.753-1.794  c-0.012,0.001-0.023,0.003-0.035,0.004c-0.089-0.131-0.177-0.262-0.269-0.391c0.559-0.042,1.097,0.208,1.602,0.454  c0.835,0.406,1.67,0.812,2.504,1.218C18.158,64.508,18.142,64.678,18.125,64.847z M23.576,66.966  c0.058,0.227,0.122,0.452,0.187,0.676c-0.325-0.118-0.649-0.242-0.969-0.371c-0.074-0.264-0.147-0.529-0.221-0.793  C22.907,66.64,23.241,66.803,23.576,66.966z M20.9,65.664c0.357,0.174,0.714,0.347,1.072,0.521c0.078,0.281,0.157,0.562,0.235,0.844  c-0.444-0.189-0.882-0.39-1.314-0.601C20.891,66.173,20.893,65.919,20.9,65.664z M20.39,66.177c-0.611-0.315-1.21-0.655-1.794-1.022  c0.019-0.194,0.038-0.389,0.057-0.583c0.584,0.284,1.169,0.568,1.753,0.853C20.396,65.675,20.391,65.926,20.39,66.177z   M13.067,39.29c-0.508,0.366-1.016,0.731-1.524,1.097c1.204-1.585,1.506-3.531,1.767-5.491  C13.287,36.223,12.973,39.242,13.067,39.29z M13.269,33.048c0.003-0.011,0.005-0.023,0.008-0.034  c0.001,0.012,0.002,0.023,0.003,0.035C13.277,33.049,13.273,33.048,13.269,33.048z M15.354,37.644  c-0.174,0.125-0.347,0.25-0.521,0.375c-0.029-0.557-0.059-1.114-0.088-1.671c0.189,0.02,0.372,0.021,0.552,0.011  c-0.002,0.027-0.003,0.055,0.005,0.086c0.091,0.348,0.181,0.696,0.272,1.044C15.5,37.54,15.427,37.591,15.354,37.644z M16.01,37.178  c-0.075-0.289-0.151-0.578-0.226-0.867c-0.001-0.005-0.004-0.007-0.006-0.012c0.207-0.043,0.408-0.107,0.602-0.188  c0.064,0.216,0.158,0.419,0.285,0.604C16.447,36.87,16.228,37.024,16.01,37.178z M17.068,36.423  c-0.109-0.164-0.184-0.344-0.233-0.539c0.157-0.092,0.308-0.195,0.455-0.309c0.009,0.015,0.014,0.031,0.027,0.045  c0.111,0.121,0.223,0.242,0.334,0.364C17.459,36.132,17.265,36.279,17.068,36.423z M18.047,35.675  c-0.125-0.136-0.251-0.273-0.376-0.409c-0.004-0.005-0.009-0.006-0.013-0.01c0.109-0.104,0.215-0.215,0.318-0.33  c0.144,0.146,0.289,0.292,0.433,0.438C18.289,35.469,18.171,35.575,18.047,35.675z M18.783,35.032  c-0.162-0.164-0.324-0.328-0.486-0.492c0.063-0.082,0.124-0.167,0.184-0.253c0.218,0.133,0.436,0.266,0.653,0.399  C19.019,34.803,18.903,34.919,18.783,35.032z M18.34,30.199c-0.497-0.053-1.002,0.028-1.461,0.253  c-0.029,0.014-0.059,0.029-0.089,0.046c0.07-0.249,0.257-0.466,0.486-0.606c0.039-0.024,0.079-0.046,0.12-0.065  c0.214-0.101,0.445-0.146,0.681-0.173c0.057,0.037,0.114,0.074,0.171,0.111C18.248,29.764,18.34,30.091,18.34,30.199z M18.26,27.468  c-0.681,0.436-1.559,0.449-2.266,0.841c-0.095,0.053-0.184,0.112-0.268,0.176c-0.248,0.042-0.495,0.083-0.743,0.125  c0.245-0.245,0.526-0.46,0.847-0.629c0.83-0.437,1.781-0.477,2.677-0.704C18.428,27.344,18.348,27.411,18.26,27.468z M19.479,34.31  c-0.241-0.147-0.482-0.294-0.724-0.442c0.063-0.103,0.124-0.209,0.184-0.316c0.337,0.029,0.673,0.089,1.008,0.18  C19.799,33.933,19.643,34.125,19.479,34.31z M20.319,33.198c-0.025,0.04-0.054,0.074-0.079,0.113  c-0.023-0.017-0.047-0.032-0.079-0.041c-0.323-0.092-0.648-0.155-0.973-0.194c0.077-0.158,0.15-0.319,0.22-0.481  c0.361,0.074,0.706,0.205,1.036,0.392C20.403,33.057,20.362,33.129,20.319,33.198z M20.7,32.557  c-0.348-0.199-0.717-0.343-1.101-0.431c0.072-0.188,0.138-0.378,0.2-0.567c0.427,0.061,0.824,0.218,1.197,0.46  C20.9,32.198,20.802,32.379,20.7,32.557z M21.23,31.569c-0.395-0.253-0.828-0.419-1.284-0.494c0.07-0.248,0.132-0.494,0.186-0.738  c0.5,0.124,0.966,0.351,1.377,0.671C21.419,31.197,21.325,31.384,21.23,31.569z M21.728,30.55c-0.439-0.318-0.915-0.545-1.43-0.68  c0.086-0.221,0.162-0.446,0.232-0.676c0.565,0.025,1.098,0.174,1.6,0.446C22,29.945,21.866,30.249,21.728,30.55z M21.035,26.558  c0.686,0.145,1.306,0.447,1.84,0.919c0.027,0.024,0.055,0.038,0.084,0.049c-0.078,0.214-0.158,0.427-0.238,0.64  c-0.539-0.395-1.149-0.642-1.801-0.714C20.966,27.153,21.004,26.854,21.035,26.558z M22.535,28.646  c-0.069,0.177-0.139,0.353-0.211,0.529c-0.518-0.273-1.076-0.432-1.656-0.473c0.063-0.249,0.118-0.501,0.166-0.754  C21.453,28.008,22.034,28.238,22.535,28.646z M19.439,18.581c0.518,0.684,0.945,1.428,1.261,2.12  c-0.043,0.041-0.083,0.085-0.123,0.129c-0.43-0.627-0.957-1.139-1.555-1.549C19.16,19.046,19.3,18.813,19.439,18.581z   M18.764,19.713c0.575,0.403,1.079,0.909,1.484,1.535c-0.145,0.214-0.273,0.441-0.393,0.673c-0.477-0.521-1.015-0.966-1.604-1.329  C18.422,20.298,18.593,20.004,18.764,19.713z M16.952,22.916C16.952,22.916,16.952,22.915,16.952,22.916  c0.059-0.089,0.769-1.399,1.053-1.895c0.599,0.373,1.142,0.837,1.613,1.381c-0.302,0.626-0.586,1.366-0.249,1.967  c0.115,0.206,0.297,0.375,0.379,0.596c0.165,0.447-0.122,0.924-0.396,1.314c-0.063,0.089-0.126,0.178-0.191,0.266  c-0.712,0.303-1.602,0.398-2.2,0.539c-0.764,0.181-1.427,0.403-2.043,0.91c-0.13,0.107-0.251,0.221-0.364,0.34  C15.142,26.461,16.126,24.664,16.952,22.916z M14.371,29.43c0.017,0.01,0.034,0.021,0.051,0.031c0.134,0.098,0.27,0.189,0.415,0.273  c-0.31,0.851-0.299,1.878-0.052,2.766c0.06,0.215,0.148,0.436,0.259,0.645c-0.618-0.441-1.019-1.198-1.075-1.887  S14.302,29.555,14.371,29.43z M13.915,32.658c0.348,0.571,0.882,1.024,1.551,1.28C14.711,33.987,13.71,33.524,13.915,32.658z   M13.997,34.943c1.348,0.38,2.759-0.156,3.561-1.228c0.082-0.037,0.163-0.085,0.244-0.143c0.197-0.024,0.394-0.039,0.589-0.042  c-1.018,1.706-2.55,2.852-4.577,2.061c-0.001-0.163-0.003-0.325-0.006-0.488c0.002-0.074,0.007-0.149,0.008-0.223  C13.818,34.762,13.812,34.891,13.997,34.943z M13.805,36.481c0.002,0.002,0.003,0.003,0.005,0.005c-0.002,0-0.003-0.001-0.005-0.001  C13.805,36.484,13.805,36.482,13.805,36.481z M6.24,36.26c-0.003-0.007-0.005-0.014-0.008-0.021c0.02-0.023,0.038-0.048,0.05-0.08  c1.353-3.578,4.338-5.235,7.452-7.03c-0.08,0.284-0.158,0.568-0.233,0.854c-0.008,0.004-0.016,0.008-0.024,0.012  c-0.016,0.007-0.033,0.013-0.048,0.025c-1.157,0.59-3.822,2.467-3.898,2.563c-1.538,1.139-2.567,2.781-2.922,4.655  C6.483,36.913,6.359,36.587,6.24,36.26z M6.99,38.171C7.111,36.4,7.868,34.796,9.101,33.6c-0.09,0.357-0.159,0.719-0.209,1.083  c-0.941,1.208-1.494,2.603-1.617,4.117C7.177,38.592,7.081,38.383,6.99,38.171z M8,40.175c-0.128-0.174-0.241-0.375-0.345-0.583  c0.053-0.04,0.461-2.8,1.151-3.919c-0.023,0.643,0.019,1.289,0.121,1.924C8.403,38.377,8.088,39.241,8,40.175z M8.987,40.965  c-0.184-0.087-0.361-0.199-0.516-0.318c0.001-0.007,0.004-0.012,0.004-0.02c0.013-0.824,0.212-1.606,0.592-2.313  c0.085,0.338,0.197,0.668,0.351,0.977C9.214,39.836,9.068,40.392,8.987,40.965z M8.748,43.408c0.021-0.068,0.071-0.125,0.167-0.14  c2.786-0.451,5.535-0.151,8.089,0.875c0.306,0.123,0.61,0.254,0.91,0.398c0.416,0.199,0.825,0.418,1.228,0.657  c0.277,0.164,0.025,0.597-0.253,0.432h-0.001c-0.396-0.235-0.799-0.449-1.208-0.645c-0.073-0.035-0.148-0.068-0.221-0.101  c-2.63-1.207-5.501-1.604-8.412-1.132c-0.128,0.021-0.224-0.047-0.274-0.138C8.738,43.547,8.728,43.473,8.748,43.408z M4.062,49.032  c-0.001,0-0.001,0.001-0.002,0.001c-0.014,0.007-0.029,0.013-0.042,0.021c-0.073,0.033-0.144,0.079-0.209,0.152  c-0.235,0.261-0.362,0.639-0.409,1.017C3.388,50.26,3.379,50.3,3.371,50.341c-0.153-0.752-0.065-1.474,0.334-2.194  c0.031-0.055,0.063-0.109,0.096-0.163c0.169-0.273,0.38-0.546,0.644-0.821c0.609-0.634,1.284-1.214,1.988-1.756  c0.777-0.468,1.63-0.817,2.51-1.027c2.267-0.54,4.681-0.23,6.868,0.576c1.108,0.409,2.235,1.025,2.965,1.916  c0.013,0.03,0.029,0.059,0.041,0.089c0.065,0.553-0.026,1.136-0.251,1.709c-0.266-0.895-0.804-1.662-1.587-2.229  c-0.261-0.189-0.511,0.245-0.253,0.432c0.824,0.596,1.359,1.494,1.491,2.502c-0.092,0.153-0.189,0.305-0.3,0.453  c-0.083,0.111-0.171,0.232-0.261,0.354c-0.043-1.553-0.867-2.964-2.212-3.775c-0.276-0.167-0.528,0.266-0.253,0.432  c1.301,0.785,2.034,2.179,1.962,3.692c-0.004,0.085-0.325,0.613-0.553,0.764c0.909-1.712-1.283-4.068-2.89-4.354  c-0.315-0.056-0.45,0.426-0.133,0.483c1.371,0.244,3.534,2.417,2.426,3.881c-0.065,0.086-0.282,0.251-0.418,0.242  c-0.675-0.042-1.377-0.435-1.564-1.085c-0.008-0.029-0.012-0.06-0.018-0.09c0.029-0.029,0.053-0.065,0.062-0.118  c0.081-0.451,0.163-0.955-0.074-1.375c-0.135-0.239-0.673-0.605-0.673-0.605c-0.904-0.219-1.875,0.508-2.054,1.421  s0.339,1.878,1.129,2.369c0.79,0.492,1.794,0.556,2.697,0.331c0.593-0.148,1.148-0.411,1.671-0.731  c0.755-0.368,1.37-0.979,1.864-1.793c0.012,0.028,0.03,0.056,0.055,0.081c0.11,0.11,0.187,0.232,0.249,0.357  c0.005,0.032,0.009,0.064,0.014,0.096c0.016,0.201,0.007,0.402-0.03,0.606c-0.028,0.132-0.06,0.264-0.102,0.397v0.001  c-0.05,0.078-0.102,0.155-0.156,0.231c-0.052,0.046-0.56,0.686-0.71,0.835c-0.003-0.004-0.005-0.009-0.008-0.014  c-0.116-0.144-0.233-0.288-0.349-0.433c-0.086-0.106-0.265-0.087-0.354,0c-0.105,0.103-0.084,0.249,0,0.354  c0.115,0.143,0.23,0.285,0.345,0.428c-0.139,0.119-0.282,0.232-0.428,0.342c-0.132-0.177-0.264-0.354-0.397-0.531  c-0.19-0.255-0.625-0.006-0.432,0.253c0.141,0.189,0.282,0.378,0.423,0.567c-0.177,0.122-0.357,0.24-0.54,0.354  c-0.175-0.288-0.35-0.575-0.525-0.863c-0.167-0.275-0.6-0.024-0.432,0.253c0.176,0.29,0.353,0.58,0.529,0.87  c-0.145,0.086-0.291,0.171-0.437,0.255c-0.126-0.314-0.233-0.635-0.317-0.967c-0.079-0.312-0.562-0.18-0.483,0.133  c0.094,0.371,0.217,0.731,0.362,1.082c-0.109,0.061-0.217,0.123-0.326,0.185c-0.227-0.45-0.429-0.91-0.602-1.385  c-0.11-0.3-0.594-0.17-0.483,0.133c0.188,0.514,0.405,1.014,0.651,1.501c-0.118,0.068-0.235,0.136-0.352,0.206  c-0.342-0.697-0.619-1.419-0.828-2.173c-0.086-0.31-0.569-0.178-0.483,0.133c0.222,0.8,0.516,1.568,0.883,2.307  c-0.063,0.04-0.127,0.078-0.19,0.119c-0.062,0.041-0.125,0.083-0.188,0.125c-0.442-1.057-0.82-2.136-1.134-3.241  c-0.088-0.309-0.571-0.178-0.483,0.133c0.328,1.157,0.73,2.284,1.196,3.389c-0.179,0.118-0.36,0.232-0.544,0.338  c-0.539-1.47-0.932-2.976-1.179-4.531c-0.05-0.317-0.533-0.183-0.483,0.133c0.252,1.591,0.657,3.13,1.216,4.632  c-0.051,0.023-0.103,0.043-0.155,0.064c-0.249-0.554-0.512-1.1-0.789-1.64c-0.425-1.598-0.643-3.233-0.652-4.915  c0.111-0.009,0.222-0.018,0.333-0.027c0.319-0.026,0.322-0.526,0-0.501c-0.277,0.022-1.232,0.084-1.247,0.1  c-0.44,0.035-0.881,0.071-1.321,0.106c-0.318,0.021-0.613,0.211-0.482,0.622c0.457,1.936,0.841,3.885,1.162,5.848  c-0.14-0.075-0.278-0.152-0.415-0.233c-0.199-0.989-0.398-1.979-0.598-2.968c-0.064-0.316-0.546-0.182-0.483,0.133  c0.165,0.821,0.33,1.642,0.496,2.462c-0.164-0.111-0.324-0.226-0.482-0.345c-0.14-0.572-0.242-1.152-0.299-1.742  c-0.031-0.318-0.532-0.321-0.501,0c0.041,0.418,0.1,0.83,0.179,1.24c-0.185-0.162-0.364-0.331-0.538-0.505  c-0.018-0.261-0.001-0.524,0.061-0.79c0.073-0.313-0.41-0.447-0.483-0.133c-0.031,0.134-0.053,0.267-0.067,0.401  c-0.257-0.293-0.5-0.6-0.726-0.922c0.356,0.185,0.76,0.269,1.173,0.22c0.101-0.012,0.558-0.046,0.663-0.098  c0.168-0.083,0.239-0.284,0.278-0.467c0.222-1.042-0.077-2.182-0.782-2.981c0,0-0.732-0.641-1.692-0.522  C4.156,48.989,4.108,49.009,4.062,49.032z"></path><path d="M58.018,91.422c0.111,0.127,0.228,0.263,0.349,0.405c0.487-0.167,0.971-0.341,1.453-0.522  c-0.13-0.126-0.257-0.256-0.384-0.386C58.966,91.093,58.493,91.261,58.018,91.422z"></path><path d="M16.729,88.129c-0.152-0.056-0.305-0.113-0.457-0.169c-0.112,0.255-0.198,0.516-0.254,0.782  c0.163,0.02,0.326,0.04,0.488,0.06C16.555,88.573,16.632,88.348,16.729,88.129z"></path><path d="M16.09,90.344c0.146-0.085,0.303-0.151,0.465-0.206c-0.085-0.284-0.117-0.565-0.106-0.843  c-0.166-0.02-0.333-0.041-0.499-0.061C15.928,89.6,15.971,89.972,16.09,90.344z"></path><path d="M16.738,90.604c-0.162,0.053-0.315,0.123-0.456,0.213c0.066,0.13,0.141,0.261,0.229,0.39  c0.179,0.266,0.613,0.016,0.432-0.253C16.864,90.838,16.797,90.721,16.738,90.604z"></path><path d="M17.63,89.638c0.004,0.122,0.009,0.245,0.024,0.368c0.039,0.316,0.54,0.32,0.501,0c-0.013-0.102-0.016-0.203-0.021-0.304  C17.965,89.68,17.798,89.659,17.63,89.638z"></path><path d="M55.822,30.014c-0.088,0.042-0.173,0.088-0.256,0.139c-0.014,0.009-0.028,0.019-0.042,0.028  c0.095,0.15,0.192,0.299,0.278,0.458c0.15-0.08,0.308-0.13,0.471-0.159c-0.096-0.179-0.195-0.355-0.302-0.524  C55.921,29.975,55.87,29.991,55.822,30.014z"></path><path d="M56.645,31.262c-0.044-0.108-0.093-0.212-0.141-0.317c-0.172,0.004-0.34,0.054-0.488,0.14  c0.048,0.104,0.103,0.203,0.147,0.311C56.283,31.689,56.767,31.56,56.645,31.262z"></path><path d="M54.717,29.12c0.186,0.206,0.361,0.422,0.527,0.648c0.138-0.093,0.283-0.175,0.438-0.241  c-0.179-0.249-0.369-0.487-0.571-0.713C54.982,28.919,54.85,29.02,54.717,29.12z"></path><path d="M18.291,25.921c0.002-0.007,0.006-0.012,0.008-0.019c0.084-0.297-0.099-0.597-0.372-0.661  c-0.154-0.088-0.335-0.132-0.512-0.118c-0.393,0.032-0.694,0.33-0.901,0.642c-0.179,0.27-0.357,0.662-0.165,0.972  C16.539,27.043,18.23,26.421,18.291,25.921z"></path><path d="M10.527,48.853c-1.121-0.13-2.216-0.03-3.297,0.295c-0.308,0.093-0.177,0.576,0.133,0.483  c1.039-0.313,2.087-0.402,3.164-0.277C10.847,49.391,10.844,48.89,10.527,48.853z"></path><path d="M6.492,48.789c1.589-0.631,3.229-0.869,4.932-0.713c0.321,0.029,0.319-0.471,0-0.501c-1.75-0.16-3.431,0.082-5.065,0.731  C6.063,48.424,6.192,48.909,6.492,48.789z"></path><path d="M18.683,73.398c-0.252,0.293-0.545,0.551-0.872,0.77c0.194,0.071,0.391,0.133,0.588,0.196  c0.352-0.277,0.661-0.6,0.917-0.961C19.105,73.396,18.894,73.394,18.683,73.398z"></path><path d="M17.254,74.482c-0.058,0.027-0.115,0.056-0.174,0.081c-0.296,0.125-0.041,0.557,0.253,0.432  c0.189-0.08,0.37-0.173,0.544-0.275C17.667,74.646,17.461,74.564,17.254,74.482z"></path><path d="M75.114,81.679c0.316-0.312,0.631-0.624,0.939-0.946c-0.016-0.047-0.032-0.094-0.048-0.141  c-0.063-0.184-0.126-0.369-0.192-0.553c-0.075,0.096-0.151,0.19-0.23,0.28c-0.065,0.074-0.457,0.659-0.663,0.869  C74.986,81.352,75.05,81.515,75.114,81.679z"></path><path d="M60.361,47.801c-0.149,0.922,0.135,1.871,0.835,2.51c0.378,0.345,0.956,0.619,1.423,0.52  c0.048,0.021,0.098,0.037,0.152,0.043c0.081,0.008,0.152-0.01,0.218-0.037c0.421,0.751,0.895,1.463,1.424,2.128  c0.128-0.105,0.261-0.203,0.403-0.289c-0.555-0.693-1.051-1.436-1.481-2.227c0.08-0.183,0.125-0.397,0.134-0.588  c0.027-0.592-0.009-1.187-0.109-1.771c-0.021-0.054-0.042-0.108-0.063-0.162c-0.077-0.195-0.156-0.395-0.3-0.548  c-0.381-0.405-1.114-0.298-1.471,0.129s-0.382,1.057-0.2,1.583c0.151,0.438,0.425,0.817,0.718,1.178  c-0.134-0.057-0.258-0.129-0.342-0.191c-0.218-0.162-0.401-0.363-0.545-0.594c-0.289-0.462-0.399-1.014-0.312-1.551  C60.895,47.619,60.412,47.483,60.361,47.801z"></path><path d="M39.755,38.188c0-0.012-0.06-0.551-0.134-0.771c-0.075-0.22-0.372-0.116-0.436,0.089c-0.071,0.227-0.103,0.463-0.097,0.701  C39.085,38.635,39.775,38.667,39.755,38.188z"></path><path d="M39.421,36.372c0-0.083,0-0.167,0-0.25c0-0.322-0.501-0.323-0.501,0c0,0.083,0,0.167,0,0.25  C38.921,36.694,39.421,36.695,39.421,36.372z"></path><path d="M73.835,57.459c-0.001,0.055-0.019,0.112-0.068,0.163c-0.08,0.082-0.149,0.171-0.213,0.263  c0.278,0.104,0.567,0.184,0.865,0.243c0.071-0.158,0.142-0.315,0.218-0.471C74.36,57.61,74.091,57.547,73.835,57.459z"></path><path d="M72.707,56.9c-0.028,0.029-0.062,0.052-0.103,0.058c-0.169,0.026-0.328,0.075-0.476,0.146  c0.302,0.222,0.622,0.418,0.96,0.58c0.09-0.141,0.191-0.275,0.309-0.398C73.155,57.177,72.927,57.044,72.707,56.9z"></path><path d="M75.471,57.733c-0.109,0-0.213-0.011-0.319-0.018c-0.004,0.013-0.004,0.026-0.011,0.039c-0.074,0.148-0.14,0.3-0.209,0.45  c0.177,0.018,0.356,0.029,0.539,0.03C75.793,58.235,75.793,57.735,75.471,57.733z"></path><path d="M84.628,53.007c-0.144,0.163-0.287,0.326-0.435,0.484c0.049,0.37,0.091,0.739,0.126,1.109  c0.153-0.145,0.304-0.292,0.457-0.437C84.734,53.778,84.684,53.392,84.628,53.007z"></path><path d="M83.364,57.445c-0.024-0.382-0.057-0.763-0.099-1.143c-0.153,0.148-0.305,0.298-0.457,0.446  c0.038,0.405,0.066,0.81,0.083,1.216C83.049,57.791,83.206,57.618,83.364,57.445z"></path><path d="M82.588,55.045c0.06,0.355,0.109,0.711,0.152,1.068c0.149-0.145,0.3-0.288,0.45-0.432c-0.047-0.343-0.102-0.686-0.164-1.028  C82.882,54.786,82.735,54.916,82.588,55.045z"></path><path d="M71.299,14.66c0.028,0.02,0.053,0.048,0.072,0.087c0.109,0.22,0.234,0.427,0.366,0.629c0.014-0.507,0.073-0.998,0.196-1.452  c-0.114-0.199-0.218-0.406-0.315-0.617C71.449,13.736,71.349,14.191,71.299,14.66z"></path><path d="M72.467,12.773c-0.077-0.123-0.16-0.241-0.234-0.366c-0.02-0.034-0.031-0.068-0.035-0.1  c-0.007,0.007-0.014,0.009-0.021,0.017c-0.101,0.128-0.189,0.26-0.27,0.396c0.076,0.196,0.162,0.386,0.254,0.573  C72.247,13.109,72.349,12.935,72.467,12.773z"></path><path d="M72.702,16.502c0.151,0.136,0.31,0.264,0.475,0.384c0.019-0.417,0.058-0.831,0.116-1.238  c-0.153-0.145-0.298-0.296-0.437-0.452C72.78,15.626,72.732,16.063,72.702,16.502z"></path><path d="M73.558,14.345c-0.086-0.111-0.165-0.226-0.249-0.338c-0.098,0.001-0.192,0.053-0.226,0.175  c-0.037,0.133-0.07,0.268-0.101,0.403c0.13,0.162,0.269,0.316,0.413,0.465C73.442,14.812,73.494,14.577,73.558,14.345z"></path><path d="M34.082,13.766c0-0.322-0.501-0.323-0.501,0c0,0.361,0,0.723,0,1.084c0,0.322,0.501,0.323,0.501,0  C34.082,14.489,34.082,14.127,34.082,13.766z"></path><path d="M34.327,12.098c0.04,0.807,0.081,1.614,0.121,2.421c0.016,0.321,0.517,0.323,0.501,0c-0.04-0.807-0.081-1.614-0.121-2.421  C34.811,11.777,34.31,11.775,34.327,12.098z"></path><path d="M35.174,10.68c-0.028,0.808-0.02,1.615,0.025,2.422c0.018,0.32,0.518,0.322,0.501,0c-0.045-0.807-0.053-1.614-0.025-2.422  C35.685,10.357,35.185,10.358,35.174,10.68z"></path><path d="M35.917,9.678c0,0.501,0,1.001,0,1.502c0,0.322,0.501,0.323,0.501,0c0-0.5,0-1.001,0-1.502  C36.418,9.356,35.917,9.356,35.917,9.678z"></path><path d="M25.328,19.689c-0.035,0.333-0.069,0.666-0.104,0.999c-0.033,0.32,0.467,0.318,0.501,0c0.035-0.333,0.069-0.666,0.104-0.999  C25.862,19.369,25.361,19.371,25.328,19.689z"></path><path d="M25.991,18.354c0-0.139,0-0.278,0-0.417c0-0.322-0.5-0.323-0.5,0c0,0.139,0,0.278,0,0.417  C25.49,18.676,25.991,18.676,25.991,18.354z"></path><path d="M34.304,24.193c0.045,1.422,0.813,2.598,1.977,3.206c-0.118,0.191-0.22,0.392-0.311,0.597  c-0.717-0.283-1.363-0.712-1.508-1.541c-0.055-0.317-0.538-0.182-0.483,0.133c0.174,0.994,0.954,1.526,1.816,1.871  c-0.146,0.469-0.211,0.957-0.158,1.447c0.077,0.708,0.439,1.394,0.97,1.859c-0.149-0.011-0.297-0.035-0.443-0.085  c-0.985-0.34-1.405-1.453-1.365-2.41c0.013-0.322-0.487-0.321-0.501,0c-0.049,1.191,0.533,2.486,1.733,2.892  c0.422,0.143,0.871,0.148,1.288,0.04c0.173,0.068,0.353,0.116,0.541,0.137c0.608,0.068,1.201-0.116,1.799-0.271  c1.657,2.376,4.418,2.382,7.075,1.587c0.308-0.092,0.177-0.575-0.133-0.483c-2.382,0.712-4.865,0.801-6.411-1.226  c0.126-0.024,0.253-0.043,0.38-0.054c0.027-0.002,0.054-0.002,0.081-0.003c2.146,1.821,4.981,1.247,7.492,0.41  c0.901-0.281,1.782-0.659,2.635-1.11c1.052-0.382,1.469-0.125,1.887,0.195c0.254,0.377,0.509,0.755,0.842,1.055  c0.426,0.384,1.481,0.774,1.796,0.293c0.307,0.363,0.649,0.688,1.061,0.926c0.812,0.468,1.72,0.577,2.632,0.41  c0.316-0.058,0.182-0.54-0.133-0.483c-1.595,0.292-2.576-0.493-3.42-1.546c-0.461-1.285-1.549-2.261-2.666-3.063  c-2.745-1.97-5.917-3.342-9.233-3.991c-0.645-0.126-1.325-0.238-1.846-0.64c-0.255-0.196-0.451-0.489-0.54-0.798  c1.045,1.081,3.281,1.239,4.676,1.509c3.007,0.581,6.34,1.531,8.54,3.696c0.132-0.099,0.264-0.198,0.392-0.302  c-0.99-0.996-2.207-1.768-3.552-2.349c-1.412-0.61-2.912-1.026-4.411-1.356c-1.365-0.301-4.852-0.333-5.585-2.003  c0.022-0.043,0.041-0.087,0.071-0.128c0.396-0.531,1.239-0.529,1.673-1.03c0.395-0.455,0.281-1.134-0.049-1.661  c1.599-1.07,2.954-2.435,4.017-4.062c0.177-0.27-0.256-0.521-0.432-0.253c-1.031,1.578-2.346,2.892-3.899,3.923  c-0.102-0.099-0.211-0.187-0.326-0.267c0.528-0.528,1.028-1.085,1.452-1.679c-0.131-0.096-0.259-0.195-0.384-0.296  c-0.439,0.613-0.967,1.182-1.515,1.719c-1.329-0.59-3.127-0.161-3.891,1.113c-0.938,1.563-0.022,3.902,1.728,4.412  c-0.38,0.221-0.761,0.449-1.129,0.693c-0.483-0.331-0.912-0.844-1.145-1.214c-0.446-0.709-0.621-1.504-0.545-2.334  c0.029-0.321-0.472-0.319-0.501,0c-0.094,1.039,0.197,2.055,0.822,2.891c0.226,0.302,0.561,0.661,0.943,0.952  c-0.231,0.168-0.456,0.343-0.67,0.531c-1.077-0.641-1.731-1.832-1.687-3.113c0.011-0.322-0.49-0.322-0.5,0  c-0.048,1.422,0.664,2.717,1.817,3.464c-0.083,0.083-0.165,0.167-0.243,0.255c-0.094,0.106-0.185,0.218-0.271,0.332  c-1.035-0.519-1.716-1.566-1.755-2.8C34.794,23.872,34.294,23.87,34.304,24.193z M51.205,30.042  c0.135,0.008,0.257,0.044,0.376,0.091c0.007,0.005,0.016,0.009,0.024,0.014c-1.003,0.615-2.061,1.146-3.152,1.532  c-0.016,0.002-0.03,0-0.047,0.006c-0.232,0.08-0.468,0.159-0.707,0.237c-1.463,0.419-2.974,0.554-4.484,0.269  c2.393,0.246,4.728-0.776,6.897-1.83C50.457,30.194,50.821,30.02,51.205,30.042z M44.534,27.353c0.645-0.068,0.576,0.71,0.35,0.905  c-0.227,0.197-0.614,0.283-0.905,0.217C42.898,28.229,44.184,27.368,44.534,27.353z M42.201,28.394  c0.084-0.012,0.168-0.014,0.253-0.008c0.059,0.014,0.119,0.023,0.179,0.026c0.016,0.004,0.032,0.009,0.047,0.014  c0.054,0.022,0.106,0.048,0.158,0.074c0.042,0.12,0.099,0.237,0.187,0.345c0.645,0.796,2.101,0.887,3.023,0.726  c0.59-0.103,1.335-0.528,1.224-1.186c0.352,0.188,0.704,0.375,1.056,0.563c0.04,0.021,0.084,0.047,0.099,0.09  c0.021,0.059-0.02,0.121-0.06,0.169c-0.789,0.958-2.03,1.527-3.271,1.499s-2.455-0.652-3.2-1.645l-1.057,0.236  C41.353,29.141,41.781,28.778,42.201,28.394z"></path></svg>