<svg xmlns="http://www.w3.org/2000/svg" xmlns:xlink="http://www.w3.org/1999/xlink" version="1.1" x="0px" y="0px" viewBox="0 0 100 100" style="enable-background:new 0 0 100 100;" xml:space="preserve"><path d="M42.32,87.034c0.117,0.183,0.237,0.363,0.36,0.542c0.402,0.032,0.817,0.048,1.247,0.047  c-0.021-0.025-0.042-0.05-0.063-0.075c-0.121-0.145-0.242-0.29-0.363-0.434C43.093,87.103,42.7,87.077,42.32,87.034z"></path><path d="M86.58,70.592c0.168-0.013,0.336-0.027,0.504-0.04c-0.047-0.481-0.073-0.967-0.082-1.456  c-0.163-0.066-0.333-0.106-0.509-0.116C86.5,69.52,86.529,70.058,86.58,70.592z"></path><path d="M33.149,79.592c0.175,0.22,0.341,0.448,0.501,0.683c-0.004-0.284-0.002-0.568,0.005-0.853  c-0.189-0.246-0.389-0.483-0.602-0.708C33.055,79.009,33.088,79.302,33.149,79.592z"></path><path d="M65.678,86.894c-0.008,0.001-0.015,0.002-0.023,0.003c-0.026,0.171-0.051,0.343-0.075,0.514c0,0.003-0.001,0.006-0.001,0.01  c0.116-0.012,0.24-0.036,0.369-0.07c0.147-0.032,0.29-0.073,0.427-0.122c-0.013-0.159-0.025-0.318-0.038-0.477  c-0.002-0.026-0.004-0.053-0.006-0.079C66.088,86.782,65.868,86.857,65.678,86.894z"></path><path d="M58.11,87.616c0.036-0.176,0.073-0.352,0.109-0.528c-0.369,0.056-0.738,0.115-1.11,0.176c0,0.171,0,0.344-0.002,0.512  C57.443,87.721,57.777,87.667,58.11,87.616z"></path><path d="M54.507,88.181c0.281-0.04,0.56-0.08,0.835-0.123c-0.021-0.167-0.044-0.334-0.059-0.502  c-0.289,0.045-0.582,0.087-0.879,0.129C54.438,87.851,54.471,88.016,54.507,88.181z"></path><path d="M56.572,87.863c0.002-0.171,0.004-0.342,0.005-0.512c-0.263,0.043-0.528,0.086-0.796,0.129  c0.015,0.168,0.037,0.335,0.058,0.502C56.086,87.942,56.329,87.903,56.572,87.863z"></path><path d="M58.641,87.536c0.551-0.08,1.103-0.151,1.66-0.206c0.087-0.166,0.154-0.341,0.201-0.526  c-0.589,0.052-1.171,0.123-1.752,0.205C58.714,87.185,58.678,87.361,58.641,87.536z"></path><path d="M46.203,87.001c0.139,0.172,0.283,0.34,0.432,0.503c0.469,0.013,0.904,0.067,1.323,0.146  c-0.181-0.194-0.359-0.391-0.534-0.592c-0.317-0.038-0.646-0.063-0.996-0.063C46.356,86.996,46.279,86.999,46.203,87.001z"></path><path d="M48.213,87.186c0.207,0.224,0.419,0.445,0.635,0.66c0.136,0.034,0.273,0.068,0.41,0.103  c0.187,0.047,0.376,0.095,0.567,0.141c-0.138-0.208-0.276-0.415-0.414-0.623c-0.01-0.002-0.019-0.005-0.029-0.007  C49.002,87.364,48.615,87.267,48.213,87.186z"></path><path d="M53.38,88.325c0.21-0.024,0.421-0.047,0.626-0.074c-0.035-0.165-0.069-0.331-0.103-0.496  c-0.227,0.029-0.457,0.056-0.689,0.082C53.27,87.999,53.325,88.162,53.38,88.325z"></path><path d="M62.244,87.22c0.077-0.171,0.16-0.339,0.241-0.508c-0.494,0-0.978,0.019-1.456,0.052c-0.001,0.009,0.002,0.017,0.001,0.026  c-0.03,0.174-0.086,0.336-0.158,0.491C61.324,87.246,61.781,87.226,62.244,87.22z"></path><path d="M44.571,87.61c0.368-0.014,0.743-0.037,1.129-0.074c0.097-0.009,0.188-0.012,0.281-0.018  c-0.133-0.157-0.261-0.317-0.384-0.481c-0.496,0.046-0.975,0.071-1.438,0.078C44.296,87.281,44.434,87.445,44.571,87.61z"></path><path d="M8.984,29.3c0.305-0.282,0.618-0.56,0.938-0.833c-0.108-0.13-0.212-0.264-0.306-0.405c-0.36,0.307-0.711,0.62-1.053,0.938  c0.139,0.098,0.277,0.197,0.416,0.295C8.981,29.296,8.981,29.299,8.984,29.3z"></path><path d="M50.533,88.244c0.315,0.06,0.642,0.108,0.986,0.137c-0.093-0.179-0.185-0.357-0.278-0.536  c-0.381-0.047-0.746-0.117-1.106-0.2C50.267,87.844,50.4,88.044,50.533,88.244z"></path><path d="M51.835,87.896c0.059,0.113,0.117,0.226,0.176,0.34c0.029,0.057,0.066,0.115,0.103,0.174c0.024,0,0.048,0.002,0.072,0.002  c0.218,0,0.446-0.012,0.68-0.032c-0.056-0.165-0.112-0.33-0.168-0.495C52.397,87.905,52.109,87.908,51.835,87.896z"></path><path d="M38.724,85.931c0.085,0.248,0.182,0.491,0.296,0.725c0.338,0.162,0.693,0.303,1.067,0.425  c-0.082-0.152-0.165-0.302-0.243-0.456c-0.031-0.061-0.031-0.118-0.019-0.171C39.435,86.304,39.067,86.13,38.724,85.931z"></path><path d="M62.8,87.221c0.294,0.005,0.592,0.016,0.894,0.036c0.07-0.164,0.141-0.328,0.213-0.491  c-0.292-0.022-0.582-0.038-0.866-0.046C62.957,86.886,62.878,87.053,62.8,87.221z"></path><path d="M40.774,87.279c0.399,0.098,0.818,0.173,1.253,0.229c-0.124-0.186-0.246-0.374-0.363-0.565  c-0.429-0.072-0.84-0.163-1.228-0.28C40.545,86.871,40.657,87.076,40.774,87.279z"></path><path d="M7.212,31.094c-0.138-0.1-0.277-0.199-0.415-0.299c-0.278,0.312-0.546,0.629-0.804,0.953  c0.131,0.107,0.263,0.214,0.394,0.321C6.651,31.738,6.926,31.413,7.212,31.094z"></path><path d="M64.227,87.299c0.279,0.026,0.561,0.059,0.848,0.1c0.023-0.167,0.045-0.333,0.07-0.5c-0.24-0.034-0.477-0.062-0.711-0.087  C64.363,86.973,64.297,87.137,64.227,87.299z"></path><path d="M69.856,83.481c0.092,0.15,0.177,0.303,0.247,0.463c0.005,0.012,0.009,0.025,0.014,0.037c0.332-0.485,0.609-1,0.815-1.529  c-0.127-0.143-0.254-0.286-0.381-0.429C70.383,82.535,70.144,83.023,69.856,83.481z"></path><path d="M52.104,23.639c-0.298-0.028-0.595-0.056-0.891-0.085c0.012,0.17,0.024,0.341,0.036,0.511  c0.246,0.024,0.492,0.047,0.74,0.071C52.027,23.97,52.062,23.804,52.104,23.639z"></path><path d="M55.805,23.936c-0.504-0.03-1.007-0.065-1.51-0.105c-0.085,0.162-0.168,0.324-0.251,0.487  c0.501,0.041,1.004,0.079,1.508,0.11c0.026-0.05,0.053-0.099,0.079-0.149C55.69,24.167,55.748,24.052,55.805,23.936z"></path><path d="M36.826,84.308c0.098,0.374,0.213,0.741,0.344,1.104c0.011,0.01,0.02,0.021,0.031,0.031c0.338,0.31,0.708,0.585,1.106,0.829  c-0.093-0.251-0.173-0.507-0.236-0.771c-0.183-0.136-0.361-0.278-0.529-0.431C37.286,84.835,37.049,84.579,36.826,84.308z"></path><path d="M50.114,23.45c-0.001,0.169-0.005,0.338,0,0.507c0.209,0.02,0.419,0.039,0.626,0.059c-0.012-0.17-0.024-0.34-0.036-0.511  C50.509,23.487,50.311,23.469,50.114,23.45z"></path><path d="M48.471,23.589c-0.043-0.099-0.088-0.197-0.134-0.296c-0.406-0.034-0.811-0.07-1.215-0.099  c-0.072-0.005-0.143-0.007-0.215-0.011c0.113,0.175,0.222,0.353,0.336,0.528c0.442,0.032,0.885,0.07,1.329,0.109  C48.538,23.742,48.504,23.665,48.471,23.589z"></path><path d="M49.612,23.403c-0.243-0.023-0.483-0.044-0.728-0.066c0.088,0.18,0.173,0.356,0.252,0.528  c0.159,0.014,0.315,0.03,0.473,0.045C49.606,23.741,49.611,23.572,49.612,23.403z"></path><path d="M34.175,81.094c0.187,0.308,0.368,0.618,0.548,0.926c0.086,0.148,0.173,0.297,0.26,0.446  c-0.023-0.362-0.04-0.725-0.051-1.089c-0.249-0.426-0.506-0.852-0.782-1.265C34.152,80.44,34.159,80.767,34.175,81.094z"></path><path d="M36.366,84.541c-0.1-0.37-0.186-0.746-0.254-1.127c-0.005-0.028-0.001-0.053,0.002-0.078  c-0.222-0.335-0.433-0.68-0.638-1.026c0.022,0.37,0.051,0.739,0.086,1.108C35.812,83.805,36.077,84.182,36.366,84.541z"></path><path d="M86.534,67.223c-0.023,0.417-0.037,0.834-0.04,1.251c0.172,0.007,0.341,0.039,0.505,0.088  c0.002-0.366,0.011-0.733,0.029-1.1C86.87,67.362,86.706,67.283,86.534,67.223z"></path><path d="M8.611,29.65c-0.14-0.1-0.281-0.2-0.421-0.299c-0.363,0.349-0.712,0.707-1.051,1.071c0.138,0.1,0.277,0.199,0.415,0.298  C7.893,30.356,8.246,30,8.611,29.65z"></path><path d="M53.75,23.787c-0.381-0.032-0.76-0.066-1.138-0.101c-0.043,0.165-0.078,0.331-0.117,0.496  c0.334,0.031,0.669,0.061,1.005,0.09C53.581,24.11,53.666,23.949,53.75,23.787z"></path><path d="M68.413,84.042c-0.066-0.788-0.387-1.527-0.526-2.301c-0.006-0.033-0.01-0.066-0.015-0.099  c-0.159,0.062-0.319,0.12-0.482,0.17c0.004,0.021,0.006,0.042,0.01,0.063c0.19,1.03,0.5,2.272,0.326,3.268  c0.149,0.155,0.289,0.317,0.423,0.482c0.077,0.095,0.153,0.191,0.226,0.29c0.487-0.42,0.961-0.906,1.381-1.441  c-0.06-0.179-0.133-0.354-0.217-0.526c-0.388,0.53-0.83,1.007-1.287,1.417C68.392,84.961,68.453,84.516,68.413,84.042z"></path><path d="M75.086,73.225c-0.093-0.167-0.189-0.331-0.28-0.499c-0.258,0.403-0.514,0.811-0.766,1.224  c0.097,0.162,0.197,0.322,0.299,0.48C74.584,74.023,74.834,73.622,75.086,73.225z"></path><path d="M72.952,76.934c-0.11-0.113-0.224-0.22-0.332-0.335c-0.017-0.018-0.025-0.038-0.035-0.057  c-0.275,0.544-0.536,1.103-0.779,1.682c0.009,0.004,0.018,0.004,0.027,0.009c0.139,0.08,0.276,0.164,0.415,0.244  C72.469,77.948,72.703,77.433,72.952,76.934z"></path><path d="M14.182,71.006c0.109,0.184,0.223,0.365,0.346,0.538c0.121-0.361,0.253-0.718,0.391-1.072  c-0.121-0.159-0.239-0.32-0.354-0.483C14.429,70.324,14.303,70.664,14.182,71.006z"></path><path d="M73.194,76.461c0.274-0.526,0.559-1.039,0.854-1.542c-0.105-0.158-0.201-0.323-0.301-0.484  c-0.335,0.564-0.661,1.14-0.972,1.735c0.068-0.011,0.14,0.006,0.202,0.072C73.047,76.317,73.123,76.387,73.194,76.461z"></path><path d="M72.055,78.948c-0.148-0.086-0.293-0.175-0.442-0.26c-0.109,0.274-0.212,0.554-0.312,0.838  c0.151,0.104,0.295,0.225,0.422,0.329C71.828,79.548,71.938,79.245,72.055,78.948z"></path><path d="M71.163,81.742c0.12-0.488,0.255-0.961,0.403-1.422c-0.157-0.12-0.302-0.222-0.431-0.306  c-0.152,0.465-0.292,0.945-0.417,1.437c0.133,0.149,0.265,0.298,0.398,0.448C71.13,81.846,71.15,81.794,71.163,81.742z"></path><path d="M67.207,83.36c0.014-0.079-0.005-0.164-0.05-0.229c0.004-0.011,0.008-0.023,0.012-0.034l-0.065-0.022  c-0.044-0.035-0.1-0.055-0.151-0.052l-0.102-0.035c-0.011,0.032-0.024,0.062-0.038,0.091c-0.001,0.001-0.002,0.004-0.003,0.005  c-0.039-0.011-0.082-0.016-0.132-0.004c-1.121,0.286-2.239,0.353-3.368,0.203c-0.406-0.148-0.796-0.354-1.172-0.596  c-0.088-0.065-0.175-0.133-0.266-0.196c-0.061-0.042-0.125-0.081-0.188-0.12c-0.865-0.648-1.642-1.478-2.327-2.284  c-0.493-1.482-0.874-3.006-1.133-4.55c0.989-0.517,2.041-0.983,3.003-1.549c-0.091-0.162-0.181-0.325-0.272-0.487  c-0.51,0.341-1.04,0.652-1.573,0.956c-0.713,0.406-2.163,0.931-2.882,1.738c-0.256,0.288-0.828,0.206-0.711-0.028  c0.301-0.604,0.883-0.923,1.547-1.231c0.571-0.369,1.189-0.674,1.793-0.967c0.207-0.1,0.417-0.203,0.627-0.309  c1.15-0.689,2.231-1.477,3.042-2.499c0.083-0.142,0.16-0.287,0.223-0.436c0.457-1.065,0.463-2.397,0.017-4.071  c-0.413-1.551-1.273-3.59-3.03-4.491c-0.713-0.366-1.512-0.51-2.269-0.611c-1.99-0.266-4.011-0.299-6.005-0.097  c-0.777,0.078-1.668,0.203-2.41,0.693c-0.781,0.516-1.361,1.41-1.723,2.659c-0.154,0.531-0.26,1.081-0.363,1.613  c-0.093,0.483-0.189,0.983-0.321,1.461l-0.057,0.202c-0.108,0.379-0.22,0.77-0.206,1.182c0.017,0.496,0.217,0.952,0.39,1.295  c0.355,0.704,0.822,1.345,1.365,1.906c0.549,0.497,1.142,0.947,1.78,1.344c0.15,0.093,0.299,0.187,0.454,0.275  c0.009,0.005,0.018,0.01,0.027,0.015c-0.001-0.003-0.002-0.006-0.003-0.01c0.187,0.088,0.376,0.171,0.57,0.243  c0.203,0.075,0.41,0.141,0.617,0.207c0.433,0.138,0.841,0.269,1.222,0.478c0.461,0.254,0.853,0.626,1.154,1.065  c0.098,0.073,0.432,0.659,0.433,0.76c0,0.025-0.033,0.871-0.053,1.081c-0.011,0.113-0.019,0.227-0.034,0.34  c-0.024,0.184-0.057,0.367-0.09,0.549c-0.007,0.038-0.012,0.077-0.02,0.115c-0.039,0.199-0.087,0.396-0.138,0.593  c-0.023,0.089-0.041,0.178-0.067,0.267c-0.007,0.026-0.021,0.044-0.033,0.063c-0.065,0.106-1.529,0.504-1.025,0.203  c0.048-0.029,0.097-0.06,0.146-0.091c0.144-0.092,0.416-0.275,0.426-0.309c0.025-0.086,0.042-0.172,0.065-0.258  c0.086-0.33,0.156-0.661,0.206-0.995c0.023-0.154,0.041-0.31,0.057-0.465c0.016-0.155,0.031-0.31,0.04-0.465  c0.011-0.208,0.018-0.417,0.016-0.628c0-0.033-0.234-0.339-0.365-0.458c-0.99-0.719-3.508-1.816-3.508-1.816  c-0.747-0.339-1.418-0.799-2-1.358c-0.091,0.154-0.173,0.312-0.246,0.473c0.685,0.632,1.482,1.138,2.365,1.491  c0.012,1.687-0.221,3.389-0.683,5.006c-0.728,0.835-1.578,1.548-2.564,2.102c-0.146,0.073-0.292,0.144-0.437,0.221  c-0.982,0.461-2.018,0.661-3.042,0.932c-0.474,0.285-0.985,0.475-1.503,0.565c-1.5,0.259-3.067-0.33-4.017-1.954  c-0.165-0.281,0.272-0.535,0.436-0.255c0.598,1.023,1.468,1.571,2.393,1.72c0.149,0.024,0.299,0.038,0.449,0.041  c0.314,0.007,0.629-0.031,0.94-0.11c0.177-0.045,0.352-0.103,0.524-0.175c-0.836-0.326-1.522-0.91-1.99-1.677  c-0.218-0.069-0.434-0.145-0.648-0.227c0.293,0.637,0.697,1.188,1.205,1.623c-0.491-0.302-0.939-0.674-1.34-1.112  c-0.011-0.012-0.023-0.016-0.034-0.024c-0.001-0.002-0.001-0.003-0.002-0.005c-0.844-1.455-1.644-2.948-2.547-4.367  c-0.065-0.103-0.133-0.206-0.202-0.309c-0.097,0.127-0.21,0.274-0.325,0.425c0.072,0.112,0.142,0.223,0.209,0.333  c0.617,1.004,1.201,2.031,1.787,3.055c-0.357-0.345-0.756-0.63-1.247-0.76c-0.331-0.089-0.599-0.044-0.774,0.128  c-0.25,0.245-0.2,0.631-0.14,0.899c0.234,1.048,0.759,2.452,1.927,3.186c0.612,0.385,1.375,0.575,2.334,0.583  c0.021,0,0.041,0,0.062,0c1.822,0,3.599-0.635,5.033-1.787c0.394-0.135,0.783-0.295,1.164-0.496l0.02,0.037  c0.228-0.122,0.467-0.208,0.711-0.276c2.112,0.764,4.307,1.159,6.559,1.064c2.62-0.111,4.969-1.072,7.285,0.146  c0.527,0.579,1.167,1.17,1.842,1.444c0.095,0.058,0.206,0.107,0.336,0.147c0.223,0.069,0.455,0.102,0.688,0.102  c0.447,0,0.894-0.124,1.274-0.364C66.666,84.672,67.083,84.046,67.207,83.36z M58.326,80.232c0.338,0.166,0.668,0.354,0.988,0.569  c0.011,0.007,0.023,0.014,0.034,0.021c0.048,0.032,0.074,0.074,0.091,0.117c0.002,0.005,0.004,0.01,0.006,0.016l0.013,0.005  c0.013,0.014,0.026,0.029,0.039,0.043c-0.01,0.016-0.021,0.032-0.026,0.05c-0.004-0.002-0.009-0.004-0.013-0.006  c-0.009,0.155-0.147,0.294-0.308,0.234c-0.019-0.007-0.037-0.01-0.056-0.023c-0.002-0.001-0.004-0.002-0.005-0.003  c-0.511-0.346-1.047-0.625-1.606-0.84c-0.038-0.007-0.076-0.016-0.114-0.022c0.033,0.004,0.066,0.011,0.099,0.016  c-0.531-0.203-1.082-0.349-1.655-0.428c-0.163-0.022-0.327-0.04-0.493-0.052c-0.323-0.024-0.324-0.529,0-0.505  C56.383,79.502,57.389,79.774,58.326,80.232z M55.347,77.74c0.001-0.003,0.001-0.007,0.002-0.01  C55.348,77.733,55.348,77.736,55.347,77.74C55.347,77.739,55.347,77.74,55.347,77.74z M61.436,69.669  c0.055-0.32,0.541-0.184,0.487,0.134c-0.004,0.024-0.015,0.044-0.02,0.067c-0.156,0.634-0.893,0.96-1.453,1.185  c-0.739,0.296-1.555,0.378-2.302,0.06c-0.116-0.049-0.222-0.111-0.325-0.178c-0.774-0.505-1.157-1.469-0.862-2.295  c0.071-0.198,0.179-0.389,0.332-0.562c0.051-0.058,0.105-0.114,0.165-0.168c0.243-0.215,0.601,0.141,0.357,0.357  c-0.132,0.117-0.23,0.243-0.303,0.374c-0.126,0.227-0.17,0.468-0.146,0.705c0.065,0.635,0.606,1.233,1.295,1.405  C59.351,70.927,61.275,70.61,61.436,69.669z M51.365,64.203c1.544-0.117,3.147-0.345,4.696-0.264  c1.129,0.059,2.168,0.483,3.217,0.871c0.084,0.031,0.168,0.063,0.252,0.093c0.21,0.076,0.209,0.329,0.089,0.444  c-0.054,0.051-0.128,0.077-0.223,0.043c-0.074-0.027-0.146-0.053-0.219-0.08c-0.332-0.121-0.657-0.24-0.981-0.351  c-0.862-0.295-1.717-0.524-2.687-0.521c-1.378,0.005-2.77,0.165-4.144,0.27C51.04,64.732,51.043,64.227,51.365,64.203z   M48.907,69.536c0.52,0.965,1.588,1.24,2.584,0.873c0.08-0.03,0.168-0.067,0.258-0.108c0.268-0.122,0.56-0.294,0.782-0.507  c0.146-0.14,0.263-0.295,0.316-0.466c0.182-0.587-0.252-1.152-0.688-1.473c-0.259-0.191-0.007-0.629,0.255-0.436  c0.628,0.462,0.945,1.064,0.919,1.651c-0.019,0.428-0.22,0.847-0.62,1.199c-0.087,0.076-0.179,0.151-0.284,0.22  c-0.368,0.242-0.776,0.409-1.19,0.495c-0.953,0.198-1.939-0.046-2.555-0.865c-0.076-0.101-0.149-0.208-0.213-0.328  C48.317,69.504,48.753,69.25,48.907,69.536z M54.271,75.082c-0.567-1.22-2.194-1.497-3.322-2.028  c-0.797-0.376-1.639-0.78-2.321-1.348c-1.14-0.949-1.725-2.403-0.941-3.767c0.162-0.282,0.598-0.027,0.436,0.255  c-0.22,0.382-0.32,0.742-0.328,1.079s0.077,0.652,0.229,0.946c0.646,1.247,2.509,2.109,3.66,2.618  c1.124,0.498,2.461,0.783,3.022,1.99C54.843,75.12,54.408,75.376,54.271,75.082z M52.913,65.611  c-0.343,0.035-0.683,0.085-1.019,0.148c-0.204,0.038-0.407,0.08-0.608,0.129c-0.175,0.042-0.29-0.087-0.308-0.225  c-0.015-0.111,0.033-0.228,0.174-0.262c0.262-0.063,0.528-0.115,0.796-0.162c1.79-0.311,3.7-0.25,5.523,0.122  c0.231,0.047,0.461,0.099,0.69,0.156c0.749,0.188,1.477,0.427,2.17,0.714c0.296,0.123,0.166,0.611-0.134,0.487  c-0.816-0.339-1.68-0.609-2.568-0.807c-0.185-0.041-0.371-0.079-0.558-0.114C55.697,65.544,54.281,65.47,52.913,65.611z   M57.632,82.662c-2.927,0.487-5.631,0.486-8.426-0.338c0.586-0.031,1.19,0.009,1.785,0.049c0.214,0.015,0.427,0.029,0.639,0.04  c1.527,0.082,3.063-0.03,4.563-0.331c0.187-0.038,0.373-0.078,0.56-0.118c0.622-0.135,1.265-0.274,1.902-0.292  c0.066-0.002,0.129,0,0.194,0.001c0.687,0.242,1.361,0.632,1.989,1.056C59.842,82.471,58.785,82.471,57.632,82.662z"></path><path d="M62.231,52.055c-0.002,0.007-0.005,0.014-0.007,0.02c-0.097-0.126-0.194-0.252-0.298-0.374  c-0.057,0.02-0.121,0.015-0.184-0.026c-0.002-0.002-0.005-0.002-0.007-0.004c-0.144-0.098-0.295-0.172-0.449-0.23  c-0.022-0.008-0.044-0.02-0.066-0.027c-0.063-0.021-0.128-0.035-0.192-0.049L60.95,51.41l0,0l-0.029-0.069  c-0.025-0.004-0.051-0.004-0.076-0.007c-0.178-0.021-0.357-0.017-0.535,0.015c-0.143,0.025-0.285,0.067-0.424,0.127  c-0.004,0.004-0.008,0.008-0.012,0.012c-0.126,0.16-0.131,0.366-0.118,0.547c0.139,2.091,1.655,4.03,3.607,4.614  c0.005,0.011,0.004,0.022,0.011,0.034c0.02,0.036,0.039,0.073,0.06,0.109c0.161-0.056,0.322-0.112,0.483-0.167  c-0.008-0.015-0.016-0.029-0.024-0.044c0.165-0.15,0.218-0.435,0.131-0.785c-0.07-0.284-0.157-0.562-0.251-0.838  c-0.032-0.021-0.059-0.05-0.08-0.088c-0.008-0.014-0.019-0.025-0.025-0.042c-0.108-0.312-0.225-0.619-0.348-0.925  c-0.042-0.096-0.086-0.19-0.131-0.284c-0.074-0.155-0.152-0.308-0.234-0.458c-0.114-0.197-0.235-0.39-0.363-0.579  c0.001-0.005,0.002-0.011,0.004-0.016C62.481,52.394,62.359,52.223,62.231,52.055z"></path><path d="M58.273,45.221c-0.138,0.09-0.255,0.214-0.345,0.369c-0.004,0.007-0.009,0.013-0.013,0.02  c-0.026,1.027,0.458,2.064,1.254,2.685c-0.01,0.038-0.013,0.079,0,0.127c0.04,0.147,0.088,0.291,0.132,0.437  c0.184,0.035,0.369,0.064,0.554,0.088c-0.036-0.113-0.069-0.228-0.103-0.342c0.05,0.01,0.099,0.015,0.146,0.015  c0.112,0,0.215-0.028,0.307-0.084c0.176-0.108,0.37-0.359,0.3-0.944c-0.088-0.736-0.328-1.461-0.691-2.103  c-0.135-0.053-0.268-0.159-0.4-0.243C59.017,44.992,58.595,45.012,58.273,45.221z"></path><path d="M61.511,37.763c0,0-1.456,0.408-1.902,1.036c-0.111,0.156-0.258,0.397-0.253,0.675c0.004,0.278,0.201,0.591,0.513,0.61  c0.01,0,0.02,0.001,0.029,0.001c0.167,0,0.307-0.084,0.411-0.147c0.669-0.402,1.339-0.858,1.525-1.616  c0.04-0.161-0.011-0.398-0.16-0.502c-0.05-0.034-0.106-0.051-0.161-0.047L61.511,37.763L61.511,37.763L61.511,37.763z M61.47,37.961  L61.47,37.961L61.47,37.961L61.47,37.961z"></path><path d="M31.875,37.293c-0.472,0.446-0.302,1.007-0.116,1.098c0.201,0.098,0.424,0.147,0.646,0.147c0.248,0,0.496-0.061,0.714-0.181  c0.331-0.183,0.538-0.48,0.555-0.794c0.011-0.21-0.085-0.427-0.25-0.567c-0.138-0.117-0.227-0.154-0.463-0.128  C32.725,36.893,32.078,37.082,31.875,37.293z"></path><path d="M38.412,27.495c-0.157-0.359-0.518-0.59-0.865-0.579c0,0-2.919,1.099-3.581,2.437c-0.08,0.162-0.167,0.377-0.127,0.606  c0.048,0.276,0.286,0.515,0.592,0.594c0.095,0.024,0.19,0.034,0.284,0.034c0.16,0,0.318-0.028,0.469-0.061  c0.81-0.178,1.571-0.506,2.263-0.974c0.275-0.186,0.619-0.447,0.842-0.821C38.525,28.335,38.572,27.862,38.412,27.495z"></path><path d="M75.514,64.614c0.077-0.114,0.086-0.245,0.085-0.358c-0.005-0.389-0.383-1.075-0.383-1.075  c-0.346-0.296-0.762-0.492-1.205-0.568c-0.384-0.066-0.867,0.001-1.069,0.389c-0.241,0.462,0.106,1.006,0.574,1.304  c0.422,0.27,0.906,0.444,1.398,0.503c0.05,0.006,0.097,0.009,0.142,0.009C75.268,64.819,75.422,64.75,75.514,64.614z"></path><path d="M77.9,62.153c-0.137-0.12-0.289-0.225-0.467-0.28c-0.308-0.096-0.636-0.001-0.799,0.23c-0.129,0.183-0.156,0.434-0.08,0.745  c0.105,0.434,0.337,0.844,0.653,1.152c0.18,0.175,0.357,0.264,0.528,0.264c0.039,0,0.078-0.005,0.116-0.014  c0.395-0.095,0.474-0.572,0.422-0.951c-0.046-0.332-0.128-0.657-0.243-0.97L77.9,62.153z"></path><path d="M64.267,58.375c0.102,0.206,0.199,0.414,0.297,0.621c0.144-0.088,0.288-0.176,0.432-0.264  c-0.097-0.206-0.197-0.411-0.298-0.615C64.557,58.207,64.413,58.293,64.267,58.375z"></path><path d="M63.678,57.242c0.123,0.227,0.243,0.455,0.36,0.685c0.147-0.083,0.292-0.169,0.434-0.26  c-0.102-0.198-0.206-0.395-0.312-0.592C64,57.131,63.839,57.186,63.678,57.242z"></path><path d="M67.462,77.715c0.182-0.095,0.364-0.191,0.545-0.286c0.056-0.502,0.106-1.004,0.152-1.507  c-0.184,0.087-0.368,0.174-0.553,0.257C67.562,76.69,67.512,77.202,67.462,77.715z"></path><path d="M64.778,59.457c0.1,0.222,0.198,0.444,0.294,0.668c0.071-0.031,0.134-0.059,0.18-0.077c0.095-0.037,0.187-0.078,0.281-0.117  c-0.105-0.247-0.213-0.493-0.323-0.738C65.065,59.282,64.922,59.37,64.778,59.457z"></path><path d="M67.319,81.306c0.164-0.054,0.326-0.114,0.486-0.181c-0.048-0.525-0.042-1.051-0.008-1.577  c-0.169,0.096-0.342,0.186-0.517,0.27C67.259,80.315,67.267,80.811,67.319,81.306z"></path><path d="M67.341,67.912c0.084,0.51,0.155,1.023,0.215,1.537c0.162-0.067,0.321-0.14,0.481-0.212  c-0.064-0.522-0.142-1.042-0.23-1.561C67.654,67.76,67.497,67.836,67.341,67.912z"></path><path d="M65.318,60.561c-0.018,0.007-0.038,0.015-0.057,0.023c0.162,0.395,0.316,0.793,0.463,1.193  c0.041-0.019,0.081-0.039,0.122-0.058c0.112-0.053,0.223-0.106,0.335-0.159c-0.144-0.392-0.296-0.781-0.454-1.168  C65.591,60.451,65.456,60.509,65.318,60.561z"></path><path d="M67.745,71.759c0.024,0.54,0.029,1.076,0.019,1.609c0.173-0.073,0.346-0.146,0.519-0.218  c-0.003-0.564-0.019-1.126-0.05-1.688C68.07,71.561,67.907,71.66,67.745,71.759z"></path><path d="M67.612,69.968c0.041,0.406,0.074,0.812,0.099,1.22c0.161-0.098,0.323-0.196,0.484-0.295  c-0.027-0.378-0.061-0.755-0.101-1.131C67.935,69.832,67.774,69.902,67.612,69.968z"></path><path d="M66.973,66.022c0.102,0.457,0.194,0.916,0.277,1.377c0.158-0.08,0.313-0.165,0.466-0.252  c-0.087-0.468-0.187-0.934-0.294-1.399C67.273,65.839,67.123,65.931,66.973,66.022z"></path><path d="M66.42,63.879c0.158,0.538,0.301,1.08,0.432,1.626c0.149-0.091,0.299-0.182,0.448-0.272  c-0.133-0.54-0.277-1.076-0.436-1.609C66.719,63.712,66.571,63.798,66.42,63.879z"></path><path d="M68.28,73.979c0.002-0.095,0-0.191,0.001-0.286c-0.178,0.075-0.356,0.15-0.533,0.224c-0.02,0.566-0.053,1.13-0.097,1.693  c0.188-0.087,0.374-0.178,0.56-0.269C68.245,74.89,68.271,74.436,68.28,73.979z"></path><path d="M66.335,62.046c-0.146,0.069-0.293,0.139-0.439,0.208c0.131,0.375,0.255,0.752,0.372,1.131  c0.15-0.083,0.298-0.167,0.443-0.257c-0.115-0.365-0.235-0.727-0.362-1.088C66.345,62.041,66.339,62.044,66.335,62.046z"></path><path d="M67.345,78.902c-0.011,0.113-0.021,0.226-0.03,0.339c0.181-0.095,0.358-0.197,0.532-0.306  c0.001-0.011,0.002-0.022,0.003-0.033c0.029-0.291,0.061-0.58,0.092-0.869c-0.18,0.094-0.36,0.189-0.54,0.283  C67.383,78.511,67.364,78.706,67.345,78.902z"></path><path d="M66.863,87.008c0.153-0.085,0.299-0.181,0.434-0.289c0.228-0.144,0.458-0.303,0.689-0.483  c-0.034-0.047-0.068-0.094-0.104-0.14c-0.103-0.133-0.212-0.261-0.324-0.387c-0.064,0.143-0.145,0.277-0.244,0.4  c-0.17,0.117-0.336,0.22-0.498,0.313c0.003,0.036,0.006,0.072,0.009,0.109C66.837,86.69,66.85,86.849,66.863,87.008z"></path><path d="M40.121,80.77c0.156,0.064,0.315,0.121,0.473,0.178c-0.066-0.162-0.126-0.328-0.174-0.501  c-0.024-0.087-0.045-0.173-0.064-0.261c-0.173-0.058-0.346-0.116-0.519-0.174c0.049,0.255,0.113,0.502,0.19,0.74  C40.055,80.752,40.087,80.756,40.121,80.77z"></path><path d="M40.195,56.849c-0.026,0.02-0.048,0.048-0.066,0.085c-0.066,0.134-0.136,0.267-0.202,0.402  c0.109,0.107,0.259,0.211,0.411,0.305c0.039,0.024,0.077,0.047,0.116,0.069c0.116-0.38,0.291-0.761,0.525-1.154  c-0.12-0.134-0.239-0.267-0.359-0.401C40.468,56.381,40.324,56.611,40.195,56.849z"></path><path d="M42.19,54.058c0.113,0.126,0.226,0.252,0.339,0.378c0.173-0.22,0.344-0.44,0.519-0.659c-0.126-0.11-0.251-0.22-0.377-0.33  C42.51,53.65,42.35,53.854,42.19,54.058z"></path><path d="M41,55.612c-0.029,0.039-0.056,0.079-0.085,0.119c0.115,0.129,0.23,0.257,0.345,0.386c0.057-0.083,0.114-0.165,0.176-0.25  c0.048-0.066,0.099-0.13,0.147-0.195c-0.114-0.127-0.228-0.254-0.337-0.386C41.165,55.395,41.081,55.502,41,55.612z"></path><path d="M39.51,77c-0.074-0.202-0.144-0.406-0.196-0.617c-0.061-0.242-0.105-0.487-0.142-0.733  c-0.174-0.081-0.347-0.161-0.521-0.242c0.05,0.395,0.129,0.783,0.227,1.166C39.086,76.72,39.297,76.862,39.51,77z"></path><path d="M40.066,78.523c-0.009-0.035-0.017-0.07-0.027-0.105c-0.065-0.216-0.143-0.426-0.225-0.635  c-0.245-0.147-0.487-0.301-0.726-0.458c0.086,0.282,0.174,0.564,0.262,0.847C39.587,78.294,39.825,78.412,40.066,78.523z"></path><path d="M41.561,54.871c0.107,0.133,0.219,0.263,0.332,0.391c0.107-0.141,0.211-0.284,0.32-0.424  c-0.113-0.126-0.226-0.252-0.339-0.378C41.768,54.596,41.665,54.734,41.561,54.871z"></path><path d="M38.599,74.83c0.168,0.078,0.336,0.156,0.504,0.234c-0.032-0.395-0.039-0.792-0.025-1.192  c-0.154-0.093-0.308-0.185-0.46-0.279C38.589,74.004,38.581,74.417,38.599,74.83z"></path><path d="M43.856,52.766c-0.018-0.005-0.036-0.007-0.054-0.017c-0.132-0.073-0.256-0.158-0.382-0.24  c-0.145,0.181-0.289,0.362-0.434,0.543c0.126,0.11,0.251,0.22,0.377,0.33C43.527,53.178,43.691,52.972,43.856,52.766z"></path><path d="M40.26,79.622c-0.023-0.164-0.045-0.328-0.07-0.492c-0.214-0.093-0.428-0.185-0.639-0.286  c0.057,0.197,0.11,0.395,0.158,0.594C39.893,79.499,40.077,79.561,40.26,79.622z"></path><path d="M39.206,72.461c-0.138-0.107-0.274-0.217-0.41-0.328c-0.05,0.299-0.095,0.598-0.128,0.899  c0.147,0.092,0.296,0.179,0.443,0.27C39.134,73.022,39.167,72.742,39.206,72.461z"></path><path d="M40.302,34.183c-0.114-0.133-0.227-0.265-0.341-0.398c-0.299,0.175-0.581,0.395-0.836,0.673  c0.137,0.104,0.274,0.206,0.407,0.315C39.769,34.526,40.027,34.332,40.302,34.183z"></path><path d="M41.869,33.296c0.135,0.18,0.271,0.359,0.41,0.536c0.288,0.031,0.577,0.091,0.865,0.178  c-0.133-0.205-0.261-0.413-0.389-0.621C42.457,33.33,42.161,33.298,41.869,33.296z"></path><path d="M45.459,34.675c0.084,0.216,0.168,0.431,0.251,0.647c0.049,0.126,0.098,0.252,0.147,0.378  c0.965,0.986,1.601,2.218,1.954,3.538c0.203,0.083,0.404,0.172,0.608,0.252c-0.069-0.284-0.154-0.564-0.246-0.84  c0.009-0.004,0.018-0.009,0.027-0.015c-0.132-0.271-0.264-0.543-0.396-0.814c-0.184-0.378-0.367-0.755-0.551-1.133  C46.773,35.922,46.175,35.237,45.459,34.675z"></path><path d="M43.462,33.573c0.164,0.257,0.334,0.511,0.508,0.763c0.372,0.18,0.733,0.399,1.07,0.65  c-0.106-0.274-0.213-0.548-0.319-0.822C44.313,33.92,43.891,33.718,43.462,33.573z"></path><path d="M40.429,33.558c0.119,0.139,0.238,0.278,0.357,0.417c0.272-0.091,0.555-0.143,0.845-0.16  c-0.121-0.159-0.241-0.319-0.361-0.479C40.981,33.376,40.7,33.45,40.429,33.558z"></path><path d="M38.517,36.603c-0.146-0.093-0.295-0.183-0.437-0.282c-0.079,0.256-0.129,0.501-0.155,0.738  c0.16,0.061,0.32,0.123,0.48,0.184C38.42,37.039,38.456,36.826,38.517,36.603z"></path><path d="M38.909,35.644c0.094-0.175,0.195-0.335,0.301-0.483c-0.131-0.107-0.267-0.208-0.402-0.31  c-0.119,0.166-0.232,0.343-0.335,0.538c-0.079,0.15-0.146,0.295-0.208,0.439c0.138,0.099,0.281,0.191,0.423,0.284  C38.751,35.96,38.822,35.804,38.909,35.644z"></path><path d="M62.628,37.574c-1.951,2-2.709,5.41-2.209,7.909c0.013,0.067,0.429-0.553,0.416-0.555c-0.334-2.265,0.266-4.627,1.737-6.381  C62.587,38.222,62.606,37.898,62.628,37.574z"></path><path d="M65.158,36.08c-0.237,0.06-0.465,0.136-0.684,0.226c-0.029,0.244-0.061,0.487-0.086,0.731  c0.231-0.123,0.47-0.23,0.715-0.316C65.124,36.508,65.139,36.294,65.158,36.08z"></path><path d="M69.135,40.738c0.199-0.311,0.348-0.646,0.424-1.007c-0.178-0.107-0.361-0.205-0.549-0.294  c-0.037,0.325-0.146,0.631-0.308,0.92C68.847,40.483,68.991,40.61,69.135,40.738z"></path><path d="M69.55,38.567c-0.082-0.371-0.25-0.715-0.475-1.028c-0.158,0.092-0.316,0.184-0.474,0.276  c0.224,0.373,0.353,0.728,0.401,1.066c0.209,0.091,0.412,0.193,0.611,0.305C69.613,38.986,69.597,38.781,69.55,38.567z"></path><path d="M63.855,37.359c0.026-0.264,0.053-0.529,0.083-0.792c-0.271,0.15-0.528,0.322-0.769,0.516  c-0.024,0.299-0.046,0.599-0.063,0.899c0.064-0.062,0.126-0.126,0.192-0.185C63.468,37.643,63.656,37.496,63.855,37.359z"></path><path d="M48.272,35.995c-0.018-0.415-0.044-0.828-0.075-1.241c-0.176-0.093-0.352-0.186-0.528-0.279  c0.027,0.319,0.047,0.639,0.066,0.959C47.913,35.621,48.092,35.808,48.272,35.995z"></path><path d="M48.309,37.709c-0.001-0.32-0.005-0.64-0.013-0.959c-0.174-0.182-0.348-0.363-0.522-0.545  c0.006,0.144,0.009,0.288,0.014,0.432C47.961,36.994,48.135,37.351,48.309,37.709z"></path><path d="M47.424,32.282c0.074,0.529,0.135,1.06,0.187,1.592c0.178,0.094,0.356,0.188,0.534,0.282  c-0.053-0.585-0.118-1.169-0.197-1.752C47.773,32.362,47.599,32.322,47.424,32.282z"></path><path d="M47.343,31.748c0.176,0.039,0.354,0.074,0.529,0.116c-0.069-0.464-0.148-0.927-0.233-1.39  c-0.168,0.014-0.335,0.031-0.503,0.056C47.212,30.936,47.281,31.342,47.343,31.748z"></path><path d="M57.311,44.396c0.093,0.223,0.195,0.445,0.307,0.665c0.102-0.161,0.209-0.319,0.323-0.472  c-0.071-0.15-0.134-0.301-0.196-0.452C57.602,44.224,57.457,44.311,57.311,44.396z"></path><path d="M56.849,43.008c0.079,0.307,0.169,0.611,0.276,0.913c0.149-0.087,0.295-0.177,0.441-0.268  c-0.095-0.277-0.18-0.557-0.25-0.839C57.16,42.878,57.005,42.943,56.849,43.008z"></path><path d="M56.561,41.52c0.046,0.334,0.1,0.666,0.17,0.995c0.158-0.066,0.317-0.132,0.475-0.198c-0.06-0.298-0.113-0.598-0.153-0.901  C56.891,41.458,56.726,41.491,56.561,41.52z"></path><path d="M56.433,39.347c-0.018-0.002-0.036-0.003-0.054-0.005c0.023,0.563,0.058,1.124,0.118,1.679  c0.168-0.03,0.335-0.063,0.499-0.107c-0.051-0.501-0.083-1.005-0.101-1.513C56.741,39.383,56.587,39.365,56.433,39.347z"></path><path d="M56.313,36.756c0.018,0.694,0.027,1.388,0.048,2.08c0.034,0.002,0.061,0.005,0.073,0.006  c0.147,0.017,0.293,0.034,0.44,0.051c0.002,0,0.005,0.001,0.007,0.001c-0.018-0.704-0.023-1.41-0.039-2.116  C56.666,36.766,56.489,36.759,56.313,36.756z"></path><path d="M59.478,49.403c0.058,0.167,0.117,0.333,0.181,0.498c0.179-0.005,0.357-0.01,0.536-0.015  c-0.054-0.134-0.103-0.27-0.152-0.406C59.854,49.46,59.666,49.433,59.478,49.403z"></path><path d="M60.609,50.816c-0.069-0.143-0.138-0.286-0.202-0.431c-0.18,0.005-0.361,0.01-0.541,0.015  c0.069,0.162,0.139,0.324,0.215,0.484C60.255,50.842,60.431,50.818,60.609,50.816z"></path><path d="M24.503,59.247c-0.157-0.081-0.312-0.167-0.464-0.258c-0.071,0.398-0.124,0.801-0.165,1.207  c0.045-0.019,0.095-0.029,0.155-0.014c0.114,0.028,0.228,0.056,0.342,0.085C24.405,59.925,24.447,59.584,24.503,59.247z"></path><path d="M24.96,57.383c-0.144-0.11-0.281-0.23-0.415-0.355c-0.166,0.479-0.303,0.971-0.41,1.472c0.04,0,0.082,0.008,0.125,0.034  c0.113,0.068,0.227,0.133,0.341,0.195C24.697,58.272,24.816,57.823,24.96,57.383z"></path><path d="M23.833,60.639c-0.03,0.396-0.045,0.793-0.051,1.191c0.024-0.006,0.049-0.013,0.079-0.012  c0.141,0.008,0.282,0.015,0.423,0.023c0.005-0.356,0.018-0.712,0.043-1.066c-0.144-0.036-0.288-0.071-0.432-0.107  C23.87,60.663,23.852,60.65,23.833,60.639z"></path><path d="M37.755,47.345c0.735-0.022,1.364-0.652,1.238-1.411c-0.23-1.468-2.397-0.914-2.551,0.04  C36.218,46.782,37.016,47.367,37.755,47.345z M38.049,45.379c0.145,0.13,0.214,0.329,0.212,0.521c0.005,0.061,0,0.123-0.018,0.186  c-0.008,0.029-0.021,0.054-0.036,0.076c-0.071,0.152-0.208,0.265-0.418,0.277c-0.319,0.018-0.602-0.123-0.581-0.613  C37.229,45.337,37.909,45.253,38.049,45.379z"></path><path d="M37.044,76.743c-0.238-0.318-0.5-0.619-0.795-0.879c-0.052,0.183-0.102,0.366-0.145,0.551  c0.229,0.228,0.436,0.482,0.626,0.747C36.834,77.022,36.939,76.883,37.044,76.743z"></path><path d="M35.675,76.045c0.043-0.17,0.092-0.339,0.143-0.507c-0.171-0.113-0.349-0.216-0.541-0.296  c-0.126-0.052-0.253-0.092-0.381-0.125c0.002,0.181,0.005,0.362,0.007,0.542c0.176,0.05,0.346,0.12,0.503,0.21  C35.499,75.922,35.588,75.981,35.675,76.045z"></path><path d="M93.462,34.909c-0.367-0.7-0.75-1.346-1.146-1.944c0.424,0.013,0.847,0.034,1.27,0.071c0.324,0.028,0.322-0.477,0-0.505  c-0.54-0.047-1.08-0.068-1.621-0.077c-0.154-0.216-0.311-0.426-0.469-0.628c0.252-0.006,0.513,0.027,0.747,0.034  c0.446,0.014,0.892,0.028,1.337,0.041c0.325,0.01,0.325-0.495,0-0.505c-0.594-0.018-1.189-0.039-1.783-0.055  c-0.239-0.007-0.463-0.013-0.68,0.022c-0.09-0.105-0.18-0.207-0.271-0.307l2.686-0.315c0.09-0.011,0.167-0.068,0.203-0.151  c0.035-0.083,0.024-0.179-0.03-0.251c-2.766-3.682-6.985-6.037-11.428-6.5c0.102-0.424,0.237-0.836,0.413-1.23  c-0.13-0.116-0.255-0.236-0.377-0.36c-0.233,0.491-0.411,1.007-0.535,1.545c-0.243-0.017-0.486-0.034-0.729-0.04  c0.223-0.68,0.507-1.331,0.854-1.95c-0.116-0.136-0.229-0.275-0.338-0.418c-0.435,0.742-0.781,1.53-1.042,2.358  c-0.154-0.011-0.308-0.021-0.459-0.021l1.938-3.817c0.031-0.061,0.034-0.131,0.013-0.194c-0.002-0.006-0.003-0.012-0.005-0.017  c-0.009-0.021-0.02-0.041-0.034-0.059c-0.06-0.077-0.16-0.114-0.256-0.09l-1.573,0.362c0.278-0.541,0.503-1.095,0.676-1.66  c-0.149-0.105-0.289-0.222-0.419-0.349c-0.191,0.672-0.452,1.331-0.797,1.966c-0.033,0.061-0.035,0.119-0.023,0.172l-0.691,0.159  c0.027-0.08,0.055-0.161,0.082-0.242c0.126-0.351,0.241-0.704,0.342-1.06c0.66-2.156,1.139-4.545,0.581-6.644  c-0.216-0.25-0.456-0.474-0.722-0.662c-0.012,0.008-0.025,0.016-0.037,0.024c-0.049,0.032-0.098,0.063-0.146,0.097  c-0.051,0.036-0.099,0.075-0.149,0.113c-0.002,0.011-0.005,0.021-0.008,0.031c0.021,0.158,0.028,0.315,0.017,0.469  c0.048,0.169,0.072,0.342,0.041,0.526c-0.048,0.284-0.191,0.514-0.417,0.639c-0.006,0.027-0.012,0.054-0.018,0.08l-4.516,3.084  c-0.539-1.268-1.585-2.286-2.851-2.758c-0.13-0.048-1.036,3.845-2.177,5.109c-0.321,0.356-0.971,0.581-1.312,0.454  c-0.118-0.044-0.17-0.124-0.173-0.268c-0.003-0.132-0.107-0.24-0.239-0.247c-0.13-0.01-0.247,0.089-0.264,0.22  c-0.215,1.665-1.463,3.206-3.256,4.022c-0.115,0.052-0.234,0.094-0.351,0.14c1.761-1.141,3.237-3.076,2.236-4.993  c-0.15-0.288-0.586-0.033-0.436,0.255c0.663,1.269-0.297,2.769-1.191,3.657c-0.668,0.664-1.468,1.12-2.351,1.395  c1.293-0.952,2.239-2.36,2.627-3.978c0.076-0.316-0.411-0.451-0.487-0.134c-0.494,2.056-1.921,3.721-3.834,4.471  c-0.534,0.028-1.06,0.035-1.561,0.03c-0.662-0.007-1.327-0.03-1.993-0.064c-0.079,0.166-0.157,0.331-0.235,0.493  c0.193,0.01,0.385,0.02,0.578,0.029c0.023,0.021,0.132,0.217,0.221,0.24c0.343,0.455,0.44,1.066,0.192,1.605  c0,0.001,0,0.002-0.001,0.002c-0.454,0.546-0.843,1.142-1.104,1.81c-0.675,1.73-0.233,3.483,0.061,5.241  c0.158,0.943,0.221,1.903,0.255,2.867c0.177,0.003,0.353,0.01,0.529,0.022c-0.019-0.574-0.05-1.147-0.109-1.715  c-0.134-1.279-0.505-3.983-0.521-4.079c-0.149-0.921,1.407-2.723,1.923-3.34c0.474-0.566,1-1.076,1.56-1.547  c0.024,0.023,0.049,0.043,0.071,0.07c0.032,0.122,0.057,0.248,0.086,0.372c-0.018,0.131-0.019,0.264,0,0.389  c0.048,0.306,0.235,0.598,0.477,0.741c0.17,0.101,0.35,0.121,0.523,0.06c0.024-0.009,0.05-0.021,0.075-0.032  c0.01,0.019,0.02,0.036,0.029,0.059c0.012,0.027,0.018,0.05,0.025,0.073c-0.031,0.044-0.06,0.087-0.082,0.13  c-0.106,0.207-0.055,0.477,0.104,0.675c-0.586,0.636-1.122,1.32-1.601,2.055c-0.178,0.273,0.259,0.526,0.436,0.255  c0.476-0.729,1.01-1.408,1.595-2.037c0.094,0.027,0.195,0.046,0.308,0.052c0.034,0.002,0.067,0.003,0.101,0.003  c0.065,0,0.129-0.005,0.193-0.012c-0.933,1.093-1.755,2.276-2.46,3.548c-0.158,0.285,0.278,0.54,0.436,0.255  c0.856-1.545,1.885-2.955,3.082-4.227c0.022-0.017,0.045-0.035,0.067-0.053c0.003-0.001,0.006-0.004,0.009-0.005  c0.198-0.028,0.386-0.075,0.576-0.101c-1.574,1.684-2.868,3.587-3.871,5.692c-0.037,0.078-0.032,0.152-0.003,0.215  c-0.133,0.347-0.116,0.644,0.057,0.839c0.116,0.131,0.292,0.2,0.501,0.2c0.045,0,0.091-0.003,0.139-0.009  c0.46-0.061,0.9-0.354,1.345-0.894c0.203-0.246,0.416-0.548,0.454-0.915c0.029-0.273-0.076-0.587-0.29-0.772  c0.908-1.398,1.982-2.664,3.218-3.782c0.91,0.6,1.807,1.23,2.654,1.923c-0.635,0.502-1.234,1.052-1.79,1.654  c-0.22,0.238,0.136,0.596,0.357,0.357c0.567-0.614,1.178-1.17,1.827-1.676c0.15,0.129,0.299,0.26,0.445,0.393  c-0.745,0.6-1.463,1.232-2.147,1.905c-0.232,0.228,0.125,0.585,0.357,0.357c0.688-0.677,1.411-1.313,2.161-1.914  c0.047,0.045,0.096,0.087,0.142,0.133c0.065,0.064,0.13,0.131,0.196,0.198c-1.395,1.222-2.63,2.606-3.694,4.149  c-0.013,0.019-0.017,0.037-0.024,0.056c-0.031,0.003-0.062,0.007-0.094,0.011c-0.017,0.196-0.028,0.392-0.047,0.587  c0.735-0.157,1.479-0.094,2.111,0.317c0.042,0.103,0.138,0.179,0.239,0.174c0.117,0.098,0.228,0.213,0.334,0.34  c0.146-0.085,0.292-0.17,0.438-0.255c-0.135-0.138-0.282-0.266-0.438-0.384c0.871-1.06,1.82-2.04,2.851-2.932  c0.357,0.538,0.69,1.124,0.968,1.759c-0.55,0.082-1.088,0.306-0.977,0.861c0.116,0.583,0.839,0.532,1.425,0.384v0.001  c-0.034,0.081-0.069,0.171-0.107,0.266c-0.134,0.056-0.26,0.118-0.372,0.197c-0.363,0.026-0.708,0.198-0.917,0.474  c-0.493,0.652-0.337,1.552-0.054,2.125c0.255,0.515,0.638,0.938,1.009,1.348c0.088,0.097,0.176,0.194,0.262,0.292  c0.542,0.618,1.015,1.289,1.419,2.003c-0.491-0.463-1.081-0.813-1.959-1.034c-1.37-0.344-3.116-0.507-4.529-0.051  c0.552-0.372,1.091-0.807,1.509-1.31c-0.138-0.122-0.276-0.244-0.414-0.366c-0.559,0.722-1.425,1.319-2.241,1.794  c-0.107,0.062,0.666-1.249,1.438-2.079c0.221-0.238-0.135-0.596-0.357-0.357c-0.834,0.897-1.6,1.848-2.307,2.847  c0.255-1.049,0.68-2.051,1.288-2.996c0.176-0.274-0.26-0.528-0.436-0.255c-1.149,1.784-1.696,3.792-1.639,5.912  c0.001,0.023,0.009,0.042,0.014,0.062c-0.073,0.11-0.154,0.213-0.25,0.304c-0.174-1.986,0.059-3.921,0.724-5.815  c0.108-0.307-0.38-0.439-0.487-0.134c-0.716,2.042-0.951,4.124-0.714,6.274c-0.11,0.054-0.226,0.098-0.348,0.134  c-0.369-1.604-0.406-3.204-0.096-4.826c0.061-0.318-0.426-0.454-0.487-0.134c-0.323,1.694-0.293,3.374,0.086,5.048  c-0.124,0.007-0.251,0.003-0.378-0.01c-0.098-0.325-0.088-0.81-0.116-1.078c-0.034-0.328-0.061-0.656-0.083-0.985  c-0.043-0.658-0.056-1.316-0.053-1.975c0.001-0.325-0.504-0.325-0.505,0c-0.004,0.879,0.025,1.756,0.104,2.632  c0.03,0.332,0.024,0.84,0.1,1.274c-0.072-0.029-0.141-0.061-0.205-0.099c0.021,0.196,0.047,0.391,0.075,0.586  c0.11,0.045,0.225,0.083,0.343,0.111c0.02,0.026,0.043,0.047,0.069,0.065c0.001,0.003,0,0.005,0.001,0.008  c0.109,0.404,0.238,0.801,0.383,1.191c-0.035,0.012-0.071,0.025-0.107,0.037c0.064,0.096,0.129,0.193,0.193,0.289  c0.036,0.054,0.071,0.107,0.107,0.161c0.083,0.124,0.165,0.248,0.248,0.372c0.009,0.013,0.01,0.026,0.016,0.039  c0.082-0.15,0.169-0.299,0.265-0.444c0.009-0.014,0.017-0.028,0.026-0.041c0.062-0.092,0.154-0.12,0.241-0.109  c0.166,0.02,0.314,0.187,0.195,0.364c-0.008,0.012-0.015,0.025-0.023,0.037c-0.065,0.099-0.127,0.198-0.186,0.3  c-0.078,0.135-0.149,0.273-0.216,0.413c-0.014,0.03-0.028,0.059-0.042,0.089c-0.096,0.211-0.178,0.426-0.247,0.646  c-0.021,0.066-0.04,0.132-0.058,0.199c0.05,0.053,0.099,0.106,0.149,0.159c0.007,0.007,0.014,0.015,0.021,0.022  c0.024,0.025,0.049,0.05,0.073,0.075c0.076,0.014,0.15,0.031,0.224,0.05c0.034-0.153,0.072-0.306,0.114-0.458  c0.027-0.098,0.057-0.196,0.088-0.294c0.055-0.177,0.114-0.353,0.18-0.529c0.032-0.086,0.068-0.172,0.103-0.257  c0.033-0.08,0.064-0.161,0.098-0.24c0.061-0.14,0.19-0.154,0.295-0.102c0.11,0.054,0.19,0.18,0.148,0.323  c-0.003,0.012-0.002,0.023-0.008,0.035c-0.038,0.088-0.073,0.176-0.108,0.265c-0.085,0.213-0.163,0.428-0.23,0.645  c-0.081,0.261-0.151,0.525-0.207,0.792c0.11,0.057,0.212,0.125,0.303,0.203c0.094,0.082,0.177,0.176,0.244,0.285  c0.026-0.188,0.055-0.375,0.087-0.562c0.033-0.198,0.066-0.397,0.105-0.595c0.063-0.319,0.55-0.183,0.487,0.134  c-0.014,0.071-0.024,0.142-0.037,0.213c-0.087,0.465-0.158,0.931-0.211,1.399c0.092,0.704,0.234,1.395,0.429,2.074  c0.13,0.107,0.257,0.217,0.391,0.32c-0.115-0.531-0.179-1.067-0.188-1.611c-0.004-0.231,0.004-0.464,0.019-0.698  c0.004-0.065,0.006-0.129,0.012-0.194c0.023-0.262,0.359-0.308,0.468-0.142c0.027,0.011,0.051,0.026,0.072,0.046  c0.042,0.041,0.07,0.098,0.068,0.175c-0.028,1.001,0.105,1.971,0.403,2.906c0.018,0.051,0.041,0.101,0.06,0.152  c0.24,0.153,0.484,0.3,0.735,0.439c-0.312-0.659-0.533-1.344-0.663-2.054c0.088-0.252,0.188-0.492,0.306-0.706  c0.353,1.217,0.824,2.389,1.413,3.522c0.131,0.061,0.258,0.131,0.383,0.206c0.113-0.062,0.189-0.199,0.111-0.346  c-0.659-1.247-1.163-2.542-1.525-3.892c0.127-0.115,0.27-0.203,0.435-0.253c0.538,1.411,1.218,2.755,2.05,4.025  c0.177,0.271,0.615,0.018,0.436-0.255c-0.789-1.206-1.44-2.471-1.959-3.803c0.152,0.022,0.306,0.064,0.462,0.122  c0.65,1.381,1.473,2.653,2.469,3.816c0.212,0.247,0.568-0.111,0.357-0.357c-0.832-0.971-1.533-2.024-2.114-3.152  c0.24,0.108,0.483,0.21,0.729,0.274c0.824,1.151,1.72,2.243,2.7,3.269c0.225,0.236,0.582-0.122,0.357-0.357  c-0.862-0.903-1.661-1.856-2.399-2.858c0.096-0.012,0.192-0.03,0.288-0.063l0.159-0.055l-0.043-0.125  c0.955,0.946,1.888,1.912,2.785,2.913c0.217,0.242,0.574-0.116,0.357-0.357c-1.072-1.196-2.187-2.352-3.341-3.469  c-0.006-0.065-0.013-0.131-0.015-0.197c0.305,0.047,0.614,0.064,0.923,0.064c0.185,0.19,0.369,0.404,0.458,0.487  c0.343,0.323,0.678,0.653,1.005,0.991c0.624,0.644,1.215,1.316,1.783,2.009c0.206,0.252,0.562-0.108,0.357-0.357  c-0.717-0.875-1.474-1.716-2.28-2.511c-0.244-0.241-0.493-0.476-0.745-0.709c0.053-0.033,0.102-0.077,0.138-0.14  c0.013-0.023,0.02-0.046,0.028-0.069c0.135,0.03,0.271,0.075,0.413,0.148c0.247,0.128,0.484,0.283,0.72,0.43  c0.006,0.004,0.012,0.008,0.017,0.011c0.193,0.427,0.529,0.789,0.839,1.122c1.477,1.581,2.499,2.999,3.215,4.465  c0.336,0.687,0.608,1.401,0.836,2.132c-0.592-0.542-1.237-1.028-1.938-1.446c-0.28-0.167-0.534,0.27-0.255,0.436  c0.922,0.55,1.747,1.215,2.47,1.984c0.072,0.281,0.14,0.564,0.202,0.849c-0.764-0.845-1.575-1.644-2.452-2.381  c-0.247-0.208-0.606,0.148-0.357,0.357c1.089,0.915,2.091,1.918,3.006,3.001c0.026,0.138,0.05,0.276,0.074,0.414  c-0.864-0.983-1.812-1.883-2.847-2.692c-0.253-0.198-0.613,0.157-0.357,0.357c1.247,0.975,2.364,2.083,3.363,3.308  c0.02,0.134,0.041,0.268,0.06,0.402c-0.859,2.582-2.329,4.838-3.875,7.208c-0.204,0.313-0.409,0.627-0.613,0.943  c0.06,0.012,0.116,0.05,0.155,0.121c0.055,0.103,0.115,0.203,0.171,0.305c0.236-0.367,0.474-0.731,0.71-1.093  c1.385-2.124,2.705-4.161,3.6-6.431c0.023,0.166,0.045,0.332,0.068,0.498c0.014,0.104,0.029,0.207,0.043,0.311  c-0.608,1.753-1.515,3.325-2.74,4.72c-0.214,0.243,0.142,0.602,0.357,0.357c1.068-1.216,1.907-2.572,2.526-4.051  c0.012,0.081,0.022,0.162,0.034,0.242c0.018,0.125,0.038,0.251,0.057,0.377c-0.007,0.016-0.017,0.028-0.022,0.048  c-0.3,1.307-1.165,2.358-1.968,3.399c-0.198,0.257,0.24,0.509,0.436,0.255c0.647-0.838,1.315-1.681,1.728-2.649  c0.019,0.103,0.037,0.207,0.057,0.311c-0.009,0.201-0.017,0.394-0.026,0.571c-0.043,0.949-0.077,1.698-0.056,2.079  c0.2,3.463,3.09,6.048,5.865,7.073c0.338,0.125,0.68,0.232,1.025,0.327c0.411,0.162,0.832,0.295,1.259,0.393  c0.372,0.086,0.804,0.153,1.248,0.153c0.185,0,0.373-0.013,0.559-0.04c1.248,0.094,2.498,0.08,3.705,0.034  c0.489,0.044,0.988,0.024,1.489-0.07c0.13-0.025,0.22-0.146,0.204-0.278c-0.014-0.118-0.107-0.207-0.224-0.218  c-0.02-0.028-0.048-0.054-0.087-0.074c-0.697-0.359-1.311-0.779-1.857-1.246c-0.269-0.009-0.537-0.023-0.805-0.042  c0.544,0.527,1.154,0.996,1.823,1.398c-0.181,0.008-0.357,0.017-0.539,0.024c-2.685-0.262-5.081-2.651-6.043-5.228  c-0.342-0.916-0.556-1.868-0.681-2.841c-0.168,0.013-0.337,0.027-0.505,0.04c0.129,1.016,0.353,2.014,0.712,2.977  c0.104,0.279,0.225,0.557,0.361,0.83c-0.29-0.349-0.565-0.694-0.776-1.041c-0.168-0.278-0.326-0.561-0.479-0.846  c-0.33-0.917-0.632-1.844-0.904-2.781c-0.016-0.179-0.036-0.357-0.063-0.533c0.042-5.488-0.641-10.94-2.045-16.255  c2.062,2.885,2.772,6.598,3.405,9.903l0.04,0.212l-0.015,0.125c-0.123,0.994-0.235,2.004-0.305,3.016  c0.171,0.05,0.334,0.119,0.492,0.2c0.069-1.057,0.186-2.114,0.314-3.154l0.058-0.465c0.355-2.861,0.721-5.807,0.249-8.653  c0.667,1.21,1.014,2.621,0.992,4.011c-0.046,0.04-0.075,0.101-0.068,0.184c0.011,0.156,0.02,0.313,0.031,0.469  c-0.022,0.212-0.051,0.424-0.091,0.633c-0.023,0.118,0.044,0.23,0.151,0.276c0.096,1.551,0.17,3.115,0.259,4.679  c0.202,0.083,0.404,0.166,0.607,0.249c-0.132-1.838-0.261-3.675-0.395-5.513c0.793-2.515,1.242-5.179,1.327-7.839  c0.212,0.138,0.416,0.286,0.606,0.448c0.066-0.111,0.136-0.219,0.213-0.323c0.024-0.033,0.052-0.063,0.077-0.095  c-0.272-0.229-0.566-0.432-0.878-0.613c0.002-0.175,0-0.35-0.002-0.525c0.424,0.227,0.832,0.479,1.215,0.768  c0.123-0.117,0.256-0.225,0.394-0.327c-0.505-0.39-1.045-0.73-1.619-1.018c-0.003-0.118-0.001-0.237-0.006-0.356  c1.701,0.582,3.224,1.697,4.32,3.169c0.078,0.105,0.223,0.133,0.334,0.065c0.111-0.068,0.153-0.209,0.095-0.327l-2.605-5.315  c1.595,0.523,3.125,1.342,4.455,2.387c0.078,0.062,0.185,0.071,0.273,0.025c0.088-0.046,0.141-0.14,0.135-0.239  c-0.189-3.036-0.794-6.051-1.765-8.938C95.165,38.604,94.405,36.707,93.462,34.909z M62.816,48.103  c-0.124-0.336-0.234-0.679-0.331-1.026c0.001,0,0.002,0,0.002,0c0.11-0.002,0.219-0.012,0.327-0.026  c0.085,0.318,0.182,0.631,0.291,0.939C63.01,48.028,62.913,48.066,62.816,48.103z M63.57,47.791  c-0.098-0.279-0.186-0.563-0.263-0.851c0.067-0.022,0.134-0.047,0.199-0.074c0.041,0.299,0.086,0.596,0.137,0.893  C63.619,47.77,63.595,47.781,63.57,47.791z M64.115,47.54c-0.052-0.308-0.099-0.617-0.138-0.928  c0.068-0.046,0.135-0.095,0.198-0.147c0.004,0.341,0.02,0.681,0.055,1.019C64.191,47.503,64.153,47.522,64.115,47.54z   M93.029,30.292l-2.618,0.307c-0.931-0.933-1.923-1.635-2.972-2.095c0.714,0.021,1.427,0.163,2.097,0.42l0.487,0.187l-0.287-0.436  c-0.796-1.211-2.074-1.947-3.203-2.596c-0.937-0.539-1.895-1.087-2.906-1.522C87.267,25.281,90.65,27.305,93.029,30.292z   M80.288,24.59c0.169,0.011,0.338,0.027,0.508,0.048c0.315,0.039,0.631,0.093,0.947,0.162c0.034,0.008,0.068,0.015,0.103,0.023  c2.095,0.483,4.164,1.583,5.774,2.571c0.277,0.17,0.023,0.606-0.255,0.436c-1.545-0.948-3.14-1.95-4.914-2.405  c-1.948-0.5-4.709-0.434-6.266,0.97c-0.241,0.217-0.599-0.139-0.357-0.357C77.135,24.861,78.687,24.49,80.288,24.59z M83.013,34.301  c-0.037-0.105-0.074-0.21-0.114-0.314c0.505,0.204,1.005,0.418,1.498,0.645c0.55,0.311,1.115,0.593,1.673,0.866  c0.37,0.182,0.747,0.366,1.119,0.561c0.602,0.343,1.192,0.709,1.774,1.087c1.399,1.03,2.591,2.398,3.432,3.945  c-0.822-0.458-1.687-0.832-2.576-1.128c-0.845-0.463-1.682-0.937-2.49-1.452C85.601,37.41,84.28,35.879,83.013,34.301z   M83.493,37.506c-0.759-0.642-1.541-1.259-2.343-1.852c0.073,0.046,0.149,0.089,0.223,0.133c0.489,0.376,0.999,0.725,1.526,1.057  c0.03,0.023,0.06,0.047,0.089,0.07C83.152,37.114,83.32,37.312,83.493,37.506z M70.419,28.761c0.146,0.112,0.287,0.231,0.429,0.349  c0.597,0.493,1.162,1.027,1.698,1.603c0.105,0.113,0.208,0.228,0.311,0.344c0.361,0.408,0.715,0.827,1.051,1.272  c2.444,3.237,4.631,7.267,8.925,8.198c0.031,0.007,0.054,0.02,0.076,0.034c0.058,0.035,0.09,0.089,0.099,0.15  c0.023,0.158-0.103,0.348-0.31,0.303c-3.143-0.681-5.319-3.049-7.15-5.548c-0.81-1.105-1.596-2.177-2.422-3.181  c-0.105-0.128-0.212-0.253-0.318-0.378c-0.132-0.156-0.266-0.31-0.401-0.462c-0.111-0.126-0.223-0.251-0.336-0.374  c-0.129-0.14-0.262-0.276-0.394-0.412c-0.115-0.118-0.232-0.235-0.349-0.35c-0.327-0.319-0.662-0.628-1.013-0.922  c-0.139-0.116-0.282-0.229-0.426-0.34c-0.964-0.751-2.035-1.398-3.263-1.912c-0.126-0.053-0.25-0.108-0.38-0.158  c-0.021-0.008-0.041-0.018-0.063-0.026c-0.301-0.115-0.17-0.603,0.134-0.487C67.839,27.042,69.194,27.816,70.419,28.761z   M67.405,25.672c0.014-0.145,0.127-0.273,0.298-0.205c0.142,0.057,0.308,0.023,0.487-0.07c0.79-0.414,1.822-2.022,2.04-2.413  c0.573-1.029,0.865-2.141,0.933-3.312c0.019-0.324,0.524-0.325,0.505,0c-0.091,1.562-0.566,3.045-1.484,4.321  c-0.233,0.324-0.73,0.995-1.279,1.473c-0.13,0.113-0.263,0.215-0.396,0.299c-0.079,0.05-0.158,0.093-0.236,0.128  c-0.246,0.112-0.486,0.149-0.704,0.061c-0.077-0.031-0.125-0.087-0.149-0.151C67.404,25.762,67.401,25.716,67.405,25.672z   M81.305,20.161l-1.821,3.586c-0.769,0.064-1.484,0.265-2.117,0.598c0.257-0.754,1.212-3.252,1.236-3.32  c0.031-0.087,0.061-0.175,0.092-0.263L81.305,20.161z M78.882,13.966c-0.094,1.531-0.276,2.997-0.599,4.449  c-0.347,0.947-0.808,1.818-1.35,2.665c-0.597,0.502-1.219,0.973-1.867,1.402c0.619-1.326,1.208-2.677,1.77-4.036  C77.67,16.996,78.463,15.535,78.882,13.966z M71.396,14.584c0.14-0.349,1.802,1.443,2.187,2.541c0.026,0.074,0.085,0.132,0.16,0.156  c0.074,0.025,0.156,0.013,0.221-0.031l4.287-2.928c-0.103,0.324-0.221,0.643-0.352,0.959l-0.245,0.234  c-1.421,1.355-2.96,2.601-4.573,3.705c-0.172,0.118-0.317,0.21-0.473,0.234c-0.413,0.065-0.785-0.384-0.968-0.856  c-0.043-0.112-0.083-0.228-0.123-0.345c-0.146-0.428-0.296-0.87-0.65-1.173l-0.097-0.083C70.987,16.148,71.256,14.933,71.396,14.584  z M67.297,19.872c0.04,0.023,0.083,0.043,0.129,0.061c0.301,0.113,0.711,0.069,1.094-0.08c-0.705,0.747-1.475,1.427-2.299,2.03  C66.727,21.276,67.098,20.592,67.297,19.872z M63.014,26.286c-0.209-0.015-0.418-0.045-0.627-0.09  c-0.109-0.023-0.218-0.052-0.326-0.083c-0.388-0.113-0.776-0.28-1.161-0.51c-0.112-0.066-0.223-0.134-0.334-0.211  c-0.088-0.061-0.115-0.15-0.108-0.234c0-0.004,0-0.007,0-0.011c0.004-0.032,0.013-0.063,0.027-0.092  c0.059-0.121,0.194-0.198,0.335-0.1c0.081,0.056,0.162,0.104,0.243,0.154c0.018,0.011,0.037,0.024,0.055,0.035  c1.252,0.751,2.529,0.798,3.717,0.389c0.022-0.008,0.045-0.017,0.067-0.025c0.226-0.081,0.449-0.178,0.668-0.29  c2.387-1.227,4.279-4.198,4.62-6.633c0.045-0.321,0.532-0.184,0.487,0.134c-0.332,2.37-2.023,5.103-4.223,6.552  c-0.165,0.109-0.333,0.213-0.504,0.307c-0.038,0.021-0.077,0.039-0.115,0.059c-0.469,0.246-0.955,0.433-1.453,0.544  c-0.041,0.009-0.083,0.016-0.124,0.024c-0.131,0.026-0.263,0.047-0.396,0.062C63.581,26.299,63.298,26.306,63.014,26.286z   M61.508,32.146c-0.156,0.059-0.308,0.129-0.452,0.215c0.917-1.617,2.023-3.099,3.316-4.435c0.018,0.007,0.036,0.01,0.054,0.018  c0.132,0.058,0.263,0.123,0.392,0.191c0.01,0.006,0.019,0.012,0.029,0.019C63.56,29.333,62.445,30.667,61.508,32.146z   M66.868,36.073C66.7,36.03,66.53,36,66.361,35.982c1.005-1.425,2.162-2.712,3.464-3.85c0.143,0.157,0.288,0.321,0.432,0.494  c-1.178,1.066-2.301,2.191-3.355,3.388C66.886,36.033,66.878,36.053,66.868,36.073z M67.883,36.487  c-0.163-0.093-0.33-0.177-0.503-0.247c1.007-1.135,2.075-2.205,3.195-3.221c0.1,0.128,0.198,0.261,0.296,0.396  C69.789,34.347,68.792,35.371,67.883,36.487z M72.092,33.067c-0.103-0.132-0.206-0.265-0.31-0.395  c-0.114-0.143-0.229-0.283-0.345-0.424c-0.107-0.13-0.214-0.258-0.323-0.386c-0.134-0.156-0.268-0.312-0.405-0.464  c-0.112-0.125-0.228-0.246-0.343-0.367c-0.098-0.103-0.195-0.207-0.295-0.308c-0.12-0.121-0.241-0.241-0.364-0.358  c-0.133-0.127-0.269-0.25-0.405-0.372c-0.131-0.117-0.263-0.232-0.397-0.344c-0.883-0.733-1.854-1.35-2.946-1.8  c-0.177-0.073-0.358-0.141-0.542-0.205c-0.159-0.055-0.317-0.114-0.482-0.162c-0.033-0.01-0.059-0.026-0.082-0.043  c-0.197-0.147-0.063-0.526,0.216-0.444c0.065,0.019,0.126,0.044,0.19,0.064c0.21,0.066,0.419,0.135,0.621,0.213  c0.178,0.069,0.35,0.145,0.522,0.222c1.077,0.486,2.032,1.137,2.906,1.899c0.132,0.115,0.264,0.231,0.393,0.351  c0.125,0.117,0.247,0.239,0.369,0.36c0.12,0.119,0.24,0.24,0.357,0.363c0.094,0.099,0.188,0.199,0.28,0.3  c0.113,0.124,0.225,0.25,0.336,0.376c0.132,0.15,0.263,0.301,0.391,0.455c0.107,0.128,0.214,0.258,0.319,0.388  c0.117,0.144,0.232,0.29,0.347,0.437c0.103,0.132,0.206,0.263,0.308,0.397c3.228,4.223,5.888,9.155,11.459,9.885  c0.318,0.042,0.321,0.547,0,0.505C78.076,42.451,75.407,37.342,72.092,33.067z M73.049,43.588c0.629,0.439,1.061,1.033,1.574,1.749  c0.023,0.125,0.022,0.247-0.042,0.336c-0.046,0.064-0.124,0.109-0.214,0.161c-0.077,0.044-0.164,0.095-0.24,0.166  c-0.439,0.408-0.2,0.991,0.01,1.505c0.088,0.216,0.18,0.44,0.221,0.642c0.002,0.011,0.002,0.022,0.004,0.034  c-0.242-0.077-0.486-0.14-0.735-0.179c0.001-0.013,0.006-0.024,0.005-0.039c-0.01-0.123-0.02-0.245-0.029-0.368  c-0.004-0.044-0.017-0.081-0.036-0.112c-0.204-1.108-0.804-2.098-1.776-2.653c0.414-0.407,0.829-0.814,1.243-1.22  C73.042,43.603,73.043,43.595,73.049,43.588z M72.097,47.33c-0.062-0.194-0.169-0.368-0.264-0.512  c-0.476-0.717-1.031-1.207-1.649-1.455c-0.46-0.184-0.976-0.219-1.492-0.134c0.578-0.297,1.214-0.445,1.921-0.303  c1.482,0.298,2.391,1.564,2.512,3.024c-0.327-0.017-0.658,0.001-0.99,0.05C72.173,47.781,72.169,47.553,72.097,47.33z   M69.198,49.707c-0.526,0.176-1.186,0.197-1.524,0.147c-0.699-0.167-1.069-0.423-1.22-0.594c-0.11-0.092-0.192-0.212-0.223-0.363  c-0.002-0.008,0.001-0.015,0-0.023c-0.169-0.949,0.069-1.165,0.114-1.245c0.019-0.016,0.036-0.033,0.055-0.048  c0.156-0.12,0.344-0.224,0.594-0.329c0.042-0.017,0.081-0.028,0.122-0.044c-0.523,0.8,0.397,1.574,1.206,1.603  c0.829,0.029,1.496-0.706,1.235-1.495c0.267,0.182,0.482,0.421,0.609,0.698c0.165,0.36,0.166,0.78,0.033,1.126  C69.97,49.407,69.236,49.701,69.198,49.707z M68.597,47.635c-0.064,0.09-0.159,0.158-0.282,0.184  c-0.56,0.138-0.681-0.405-0.617-0.624c0.002-0.006,0.005-0.01,0.008-0.016c0.038-0.102,0.128-0.161,0.236-0.17  c0.158-0.013,0.315-0.025,0.473-0.038c0.082-0.007,0.182,0.052,0.218,0.125C68.721,47.274,68.703,47.485,68.597,47.635z   M70.257,42.745c0.234,0.022,0.461,0.051,0.678,0.086c-0.392,0.444-0.695,0.947-0.902,1.508c-0.005,0.015-0.003,0.027-0.006,0.041  c-0.18,0.005-0.357,0.021-0.53,0.055c0.01-0.016,0.022-0.03,0.029-0.05c0.187-0.549,0.423-1.072,0.71-1.575  C70.249,42.788,70.252,42.766,70.257,42.745z M69.097,42.761c0.008-0.02,0.007-0.037,0.01-0.055  c0.203-0.005,0.407-0.004,0.609,0.004c-0.269,0.494-0.496,1.007-0.677,1.54c-0.044,0.128,0.017,0.223,0.108,0.271  c-0.325,0.098-0.637,0.242-0.937,0.419C68.506,44.215,68.801,43.488,69.097,42.761z M68.128,42.795  c0.143-0.023,0.288-0.043,0.437-0.057c-0.365,0.897-0.73,1.795-1.095,2.692l-0.501,0.376c-0.072,0.054-0.145,0.104-0.218,0.156  c0.268-1.089,0.709-2.111,1.338-3.068C68.111,42.86,68.123,42.827,68.128,42.795z M65.796,45.456c0.091-0.09,0.17-0.188,0.24-0.283  c0.359-0.488,0.633-1.032,0.815-1.616c0.022-0.07,0.062-0.199,0.015-0.329c-0.004-0.011-0.011-0.019-0.016-0.029  c0.185-0.101,0.392-0.183,0.612-0.251c-0.647,1.063-1.087,2.212-1.316,3.434c-0.209,0.139-0.42,0.272-0.634,0.401  C65.584,46.339,65.681,45.896,65.796,45.456z M64.689,45.853c0.037-0.066,0.072-0.134,0.102-0.205  c0.105,0.068,0.231,0.104,0.364,0.104c0.016,0,0.031-0.004,0.047-0.005c-0.105,0.451-0.189,0.904-0.251,1.361  c-0.077,0.043-0.154,0.085-0.231,0.126C64.68,46.777,64.669,46.317,64.689,45.853z M71.474,49.681  c-0.93,1.079-2.368,1.405-3.752,1.299c-0.047-0.004-0.093-0.003-0.14-0.008c-0.103-0.01-0.208-0.025-0.312-0.041  c-0.406-0.063-0.809-0.179-1.142-0.422c-0.379-0.277-0.573-0.982-0.878-1.412c-0.08-0.113-0.169-0.206-0.27-0.268  c-0.083-0.051-0.175-0.084-0.279-0.085c-0.325-0.003-0.325-0.508,0-0.505c0.053,0,0.102,0.004,0.149,0.009  c0.211,0.022,0.366,0.086,0.486,0.18c0.131,0.102,0.223,0.237,0.301,0.393c0.137,0.273,0.235,0.604,0.441,0.909  c0.154,0.229,0.357,0.399,0.588,0.529c1.205,0.679,3.26,0.112,4.215-0.706c0.087-0.075,0.168-0.151,0.235-0.229  c0.114-0.132,0.266-0.089,0.353,0.015C71.546,49.43,71.573,49.567,71.474,49.681z M73.538,51.176  c-0.354-0.199-0.653-0.318-0.983-0.387c-0.002-0.123,0.005-0.265,0.017-0.415c0.357,0.066,0.695,0.178,1.013,0.333  C73.551,50.86,73.534,51.016,73.538,51.176z M73.738,50.225c-0.355-0.164-0.731-0.284-1.125-0.353  c0.018-0.223,0.028-0.414,0.023-0.575c0.474,0.012,0.914,0.182,1.326,0.423C73.884,49.886,73.806,50.054,73.738,50.225z   M79.408,59.78c-0.719-2.574-1.967-4.879-3.714-6.838c-0.296-0.332-0.606-0.655-0.931-0.967c-0.165-0.158-0.333-0.315-0.505-0.468  c-0.136-0.121-0.082-0.282,0.032-0.366c0.09-0.067,0.218-0.086,0.325,0.009c0.202,0.179,0.397,0.364,0.589,0.55  c2.256,2.193,3.838,4.895,4.691,7.946C79.983,59.959,79.496,60.092,79.408,59.78z M80.153,63.404  c-0.06-0.07-0.121-0.138-0.181-0.207c-0.179-0.208,0.05-0.494,0.253-0.426c0.036,0.012,0.072,0.032,0.104,0.069  c1.099,1.279,2.209,2.548,3.33,3.808c0.216,0.242-0.141,0.6-0.357,0.357C82.242,65.814,81.193,64.613,80.153,63.404z M80.718,64.979  c0.727,0.923,1.454,1.846,2.181,2.769c0.199,0.253-0.156,0.612-0.357,0.357c-0.727-0.923-1.454-1.846-2.181-2.769  C80.161,65.084,80.517,64.724,80.718,64.979z M80.704,71.658c-0.009-0.161-0.007-0.413,0.002-0.719  c0.558,2.113,1.43,4.172,2.931,5.793c0.111,0.12,0.228,0.232,0.345,0.346C82.243,75.829,80.836,73.948,80.704,71.658z   M89.913,78.375c0.256,0.038,0.517,0.073,0.785,0.099c0.276,0.027,0.314,0.401,0.116,0.487c-0.033,0.014-0.07,0.022-0.116,0.018  c-2.744-0.269-4.97-1.058-6.725-3.274c-1.633-2.062-3.071-5.218-3.389-7.839c-0.039-0.322,0.466-0.319,0.505,0  c0.282,2.327,1.532,5.029,2.852,6.945c1.413,2.05,3.198,3.043,5.447,3.475C89.56,78.319,89.735,78.348,89.913,78.375z   M86.315,75.251c0.672,0.881,1.49,1.61,2.395,2.242c0.037,0.025,0.075,0.053,0.113,0.08c0.007,0.026,0.015,0.052,0.019,0.077  c0.002,0.01,0.007,0.015,0.01,0.024c-1.754-0.824-3.52-1.947-4.581-3.678c-1.118-1.823-1.3-4.237-0.519-6.228  c0.037,1.223,0.29,2.448,0.733,3.588C84.815,72.755,85.424,74.083,86.315,75.251z M84.31,65.503  c0.212,0.245-0.144,0.603-0.357,0.357c-1.108-1.282-2.264-2.517-3.463-3.712c-0.191-0.19-0.38-0.382-0.573-0.57  c-0.159-0.155-0.043-0.366,0.121-0.415c0.076-0.023,0.162-0.014,0.236,0.058C81.681,62.59,83.026,64.017,84.31,65.503z   M89.101,57.319c-0.206-1.487-0.802-2.915-1.746-4.081l-0.001-0.001c-0.148-0.49-0.316-0.969-0.503-1.438  c-0.145,0.093-0.285,0.193-0.425,0.293c0.215,0.551,0.407,1.115,0.566,1.697c0.001,0.002,0.002,0.003,0.002,0.005  c0.458,1.934,0.467,3.943,0.31,5.954c-0.148-2.219-0.699-4.555-1.653-6.984c-1.265-3.219-3.064-6.205-4.828-9.091  c0.021,0.005,0.042,0.011,0.063,0.016c0.918,1.064,1.814,2.148,2.637,3.276c0.121-0.117,0.245-0.231,0.375-0.337  c-0.68-0.929-1.406-1.829-2.155-2.711c1.018,0.304,2.008,0.729,2.932,1.261C88.273,48.009,89.966,52.689,89.101,57.319z   M93.819,51.095c-0.902-0.788-1.943-1.405-3.06-1.802c-0.018-0.028-0.043-0.055-0.076-0.077c-0.78-0.526-1.492-1.147-2.16-1.828  c0-0.001,0-0.001,0-0.002c-0.016-0.102-0.089-0.157-0.173-0.174c-1.49-1.563-2.742-3.43-3.937-5.269  c-1.147-2.415-2.828-4.554-4.438-6.518C85.768,39.484,90.475,44.854,93.819,51.095z M92.223,46.671  c-0.096-0.027-0.199,0.005-0.263,0.081c-0.042,0.051-0.06,0.115-0.056,0.178c-1.698-2.535-3.638-4.891-5.799-7.032  c0.75,0.343,1.429,0.777,2.063,1.273c0.215,0.192,0.426,0.389,0.632,0.592c0.437,0.431,0.859,0.896,1.267,1.345  c0.332,0.365,0.674,0.742,1.024,1.101c0.127,0.131,0.259,0.257,0.39,0.384c0.611,0.822,1.229,1.639,1.86,2.446  C92.972,46.902,92.599,46.778,92.223,46.671z M96.877,48.912l0.079,0.057c0,0.003,0.001,0.005,0.001,0.008  c-0.028-0.02-0.057-0.039-0.085-0.059C96.873,48.916,96.875,48.914,96.877,48.912z M95.347,47.111  c-0.269-2.995-1.405-5.836-3.191-8.172c-0.076-0.1-0.155-0.198-0.234-0.296c-1.756-2.185-4.093-3.898-6.826-4.83  c-0.306-0.104-0.174-0.592,0.134-0.487c5.948,2.028,10.064,7.571,10.622,13.785C95.881,47.435,95.376,47.432,95.347,47.111z"></path><path d="M64.381,55.081c-0.002,0.001-0.004,0.002-0.006,0.002c0.004,0.016,0.007,0.032,0.01,0.048  c0.006-0.005,0.012-0.01,0.018-0.015C64.396,55.105,64.39,55.093,64.381,55.081z"></path><path d="M84.195,47.037c-0.13,0.107-0.253,0.222-0.373,0.341c0.197,0.279,0.388,0.562,0.574,0.848  c0.142-0.092,0.291-0.17,0.447-0.233C84.633,47.67,84.418,47.351,84.195,47.037z"></path><path d="M85.125,48.428c-0.158,0.055-0.308,0.129-0.454,0.221c0.271,0.431,0.527,0.871,0.768,1.319  c0.147-0.086,0.302-0.15,0.466-0.194C85.66,49.317,85.4,48.868,85.125,48.428z"></path><path d="M86.232,51.614c0.141-0.098,0.283-0.194,0.428-0.286c-0.16-0.371-0.335-0.735-0.517-1.094  c-0.168,0.028-0.329,0.088-0.473,0.178C85.869,50.806,86.058,51.206,86.232,51.614z"></path><path d="M89.728,72.465c0.208,0.077,0.42,0.145,0.63,0.214c-0.198-0.769-0.332-1.573-0.404-2.404  c-0.194-0.079-0.387-0.157-0.581-0.236c0.074,0.635,0.156,1.267,0.255,1.895C89.657,72.112,89.691,72.289,89.728,72.465z"></path><path d="M89.909,69.714c-0.038-0.464-0.074-0.929-0.11-1.394c-0.168-0.074-0.336-0.148-0.505-0.222  c-0.028-0.012-0.072-0.035-0.121-0.062c0.041,0.48,0.088,0.958,0.139,1.435C89.512,69.553,89.711,69.633,89.909,69.714z"></path><path d="M89.754,67.753c-0.053-0.689-0.104-1.379-0.154-2.068c-0.205-0.084-0.411-0.169-0.616-0.253  c0.04,0.664,0.087,1.328,0.138,1.99c0.208,0.113,0.405,0.231,0.563,0.301C89.708,67.732,89.731,67.742,89.754,67.753z"></path><path d="M92.818,77.206c-0.371-0.379-0.703-0.784-0.997-1.214c-0.255-0.053-0.509-0.114-0.761-0.18  c0.293,0.472,0.627,0.917,0.996,1.333C92.31,77.17,92.564,77.191,92.818,77.206z"></path><path d="M91.439,75.386c-0.38-0.661-0.68-1.372-0.913-2.12c-0.222-0.069-0.441-0.149-0.661-0.226  c0.202,0.755,0.484,1.474,0.84,2.149C90.949,75.261,91.193,75.327,91.439,75.386z"></path><path d="M81.217,14.409c-0.174-0.006-0.347-0.045-0.518-0.111c0.034,0.311,0.058,0.621,0.062,0.929  c0.164,0.089,0.329,0.178,0.493,0.267C81.258,15.135,81.25,14.773,81.217,14.409z"></path><path d="M80.844,13.825c0.098,0.045,0.202,0.068,0.307,0.08c-0.018-0.127-0.029-0.254-0.052-0.381  c-0.056-0.32-0.543-0.184-0.487,0.134c0.01,0.054,0.013,0.108,0.022,0.163C80.696,13.795,80.769,13.791,80.844,13.825z"></path><path d="M80.971,17.743c0.138-0.552,0.226-1.114,0.266-1.682c-0.164-0.089-0.327-0.177-0.491-0.266  c-0.024,0.515-0.09,1.025-0.199,1.527C80.676,17.476,80.815,17.62,80.971,17.743z"></path><path d="M81.924,21.039c0.08,0.107,0.164,0.211,0.249,0.314c0.097-0.154,0.198-0.306,0.303-0.456  c-0.085-0.177-0.157-0.359-0.231-0.542c-0.147,0.198-0.286,0.4-0.419,0.605C81.863,20.977,81.896,21.001,81.924,21.039z"></path><path d="M82.764,19.7c-0.055,0.064-0.105,0.132-0.158,0.197c0.066,0.18,0.143,0.354,0.22,0.529c0.097-0.124,0.193-0.248,0.296-0.368  C83.332,19.811,82.976,19.453,82.764,19.7z"></path><path d="M82.553,21.782c0.118,0.124,0.24,0.244,0.366,0.361c0.043-0.08,0.092-0.157,0.138-0.236  c-0.103-0.158-0.202-0.318-0.295-0.482C82.688,21.542,82.621,21.662,82.553,21.782z"></path><path d="M83.788,20.885c0.212-0.245-0.144-0.604-0.357-0.357c-0.122,0.141-0.237,0.285-0.347,0.432  c0.087,0.164,0.172,0.329,0.27,0.488C83.49,21.255,83.632,21.066,83.788,20.885z"></path><path d="M93.483,53.253c-0.024,0.116,0.017,0.22,0.116,0.285c0.094,0.061,0.177,0.075,0.282,0.037  c0.111-0.04,0.178-0.125,0.185-0.243c0.012-0.196-0.099-0.345-0.219-0.49c-0.145,0.063-0.288,0.131-0.43,0.2  c0.036,0.046,0.066,0.09,0.09,0.133c-0.005,0.014-0.014,0.024-0.018,0.041C93.488,53.228,93.486,53.24,93.483,53.253z"></path><path d="M93.058,52.655c0.15-0.074,0.302-0.144,0.455-0.212c-0.238-0.28-0.487-0.552-0.757-0.802  c-0.081-0.075-0.167-0.143-0.25-0.214c-0.014,0.017-0.026,0.035-0.047,0.049c-0.12,0.085-0.231,0.179-0.338,0.277  c0.008,0.007,0.017,0.013,0.025,0.02c0.256,0.221,0.501,0.455,0.731,0.702C92.919,52.521,92.984,52.583,93.058,52.655z"></path><path d="M92.886,53.667c-0.048-0.091-0.102-0.178-0.154-0.266c-0.146,0.084-0.289,0.173-0.431,0.263  c0.051,0.085,0.102,0.17,0.149,0.258C92.602,54.21,93.038,53.955,92.886,53.667z"></path><path d="M92.458,52.976c-0.209-0.297-0.44-0.576-0.695-0.83c-0.105,0.135-0.204,0.276-0.287,0.427  c-0.001,0.001-0.001,0.003-0.002,0.004c0.2,0.206,0.385,0.427,0.553,0.663C92.169,53.15,92.312,53.06,92.458,52.976z"></path><path d="M21.862,43.44c-0.054-0.158-0.108-0.316-0.162-0.474c-0.234,0.13-0.472,0.252-0.713,0.37  c0.036,0.164,0.079,0.327,0.131,0.486C21.37,43.7,21.618,43.573,21.862,43.44z"></path><path d="M23.211,42.466c-0.008-0.146-0.027-0.289-0.054-0.431c-0.327,0.24-0.665,0.464-1.012,0.673  c0.054,0.159,0.109,0.319,0.163,0.478c0.32-0.189,0.633-0.391,0.938-0.605C23.228,42.548,23.214,42.511,23.211,42.466z"></path><path d="M20.52,43.554c-0.265,0.119-0.535,0.232-0.807,0.338c0.023,0.167,0.052,0.332,0.088,0.496  c0.289-0.112,0.575-0.23,0.858-0.355C20.605,43.876,20.559,43.716,20.52,43.554z"></path><path d="M17.183,50.723c0.27-0.243,0.539-0.486,0.809-0.728c-0.086-0.152-0.172-0.305-0.255-0.459  c-0.264,0.238-0.528,0.477-0.792,0.715C17.019,50.411,17.099,50.568,17.183,50.723z"></path><path d="M18.948,48.442c-0.275,0.248-0.55,0.497-0.825,0.745c0.083,0.155,0.168,0.308,0.253,0.461  c0.273-0.246,0.543-0.494,0.816-0.74C19.111,48.753,19.03,48.598,18.948,48.442z"></path><path d="M16.095,51.702c0.234-0.211,0.468-0.421,0.702-0.632c-0.085-0.154-0.165-0.31-0.241-0.468  c-0.229,0.206-0.458,0.414-0.687,0.62C15.943,51.383,16.018,51.543,16.095,51.702z"></path><path d="M21.487,34.011c-0.109-0.105-0.214-0.213-0.316-0.326c-0.297,0.378-0.583,0.767-0.86,1.16  c0.116,0.086,0.232,0.172,0.348,0.258C20.927,34.73,21.202,34.364,21.487,34.011z"></path><path d="M20.371,35.514c-0.115-0.085-0.231-0.171-0.346-0.256c-0.266,0.387-0.526,0.774-0.782,1.153  c0.098,0.113,0.199,0.222,0.305,0.327C19.816,36.33,20.09,35.919,20.371,35.514z"></path><path d="M17.365,39.915c-0.126-0.113-0.247-0.231-0.37-0.346c-0.281,0.373-0.568,0.741-0.86,1.103  c0.145,0.089,0.289,0.178,0.434,0.267C16.839,40.602,17.104,40.26,17.365,39.915z"></path><path d="M19.27,37.162c-0.109-0.105-0.214-0.214-0.315-0.326c-0.142,0.209-0.284,0.415-0.425,0.615  c-0.097,0.138-0.195,0.276-0.293,0.413c0.117,0.11,0.235,0.22,0.352,0.331C18.814,37.858,19.041,37.512,19.27,37.162z"></path><path d="M17.742,39.414c0.188-0.255,0.374-0.523,0.56-0.795c-0.121-0.113-0.241-0.226-0.362-0.34  c-0.212,0.296-0.426,0.59-0.641,0.882c0.124,0.116,0.246,0.234,0.372,0.348C17.694,39.477,17.718,39.446,17.742,39.414z"></path><path d="M69.224,58.364c-0.195-0.254-0.634-0.003-0.436,0.255c0.163,0.212,0.332,0.417,0.502,0.623  c-0.028,0.016-0.057,0.03-0.085,0.049c-0.289,0.195-0.372,0.443-0.338,0.701c-0.001,0.006-0.004,0.011-0.005,0.017  c-0.052,0.29,0.113,0.538,0.3,0.763c0.234,0.282,0.47,0.546,0.791,0.682c0.085,0.036,0.18,0.055,0.277,0.066  c0.415,0.164,0.871,0.183,1.001-0.227c0.157,0.145,0.311,0.292,0.473,0.432c0.245,0.212,0.603-0.144,0.357-0.357  c-0.277-0.24-0.546-0.487-0.809-0.741c-0.011-0.135-0.032-0.268-0.06-0.4c0.534,0.55,1.102,1.069,1.714,1.543  c0.254,0.197,0.614-0.158,0.357-0.357c-0.148-0.115-0.286-0.24-0.43-0.36c0.16,0.076,0.337,0.123,0.515,0.144  c0.044,0.005,0.089,0.012,0.133,0.014c0.005,0,0.01-0.001,0.016,0c0.041,0.004,0.082,0.011,0.123,0.011  c0.091,0,0.182-0.011,0.271-0.026c0.312,0.256,0.627,0.509,0.955,0.748c0.263,0.192,0.515-0.246,0.255-0.436  c-0.227-0.166-0.441-0.345-0.66-0.52c0.076-0.06,0.145-0.135,0.183-0.226c0.041-0.098,0.041-0.2,0.001-0.295  c-0.004-0.01-0.012-0.015-0.016-0.024c0.002-0.045,0.008-0.088,0.001-0.137c-0.085-0.628-0.929-0.863-1.457-0.877  c-0.003,0-0.006,0.002-0.009,0.002c-0.007-0.002-0.012-0.007-0.02-0.008c-0.148-0.029-0.288-0.012-0.414,0.034  c-0.129-0.128-0.253-0.261-0.379-0.392c0.018-0.082,0.021-0.168,0-0.257c-0.076-0.323-0.364-0.44-0.617-0.543  c-0.006-0.003-0.012-0.005-0.019-0.008c-0.053-0.032-0.111-0.056-0.169-0.078c-0.196-0.228-0.395-0.452-0.582-0.689  c-0.202-0.255-0.557,0.105-0.357,0.357c0.045,0.057,0.095,0.109,0.14,0.165c-0.005,0-0.009,0-0.014,0  c-0.182,0.018-0.385,0.106-0.516,0.265c-0.103-0.138-0.213-0.271-0.313-0.413c-0.185-0.264-0.623-0.012-0.436,0.255  c0.205,0.293,0.422,0.575,0.643,0.853c0.009,0.105,0.041,0.205,0.086,0.3c-0.102-0.061-0.209-0.106-0.32-0.127  C69.639,58.889,69.428,58.629,69.224,58.364z M72.082,59.53c0.081,0.083,0.16,0.167,0.242,0.248  c-0.084,0.145-0.124,0.32-0.096,0.508c0.022,0.146,0.074,0.272,0.147,0.382c-0.27-0.242-0.529-0.495-0.782-0.753  C71.796,59.857,71.974,59.72,72.082,59.53z"></path><path d="M39.706,57.773c-1.125,2.26-2.277,4.505-3.47,6.731c-0.154,0.286,0.282,0.542,0.436,0.255  c1.011-1.886,1.989-3.788,2.951-5.699c0,0.007-0.001,0.013,0,0.02c0.017,0.272,0.061,0.531,0.119,0.782  c-0.049,0.017-0.095,0.05-0.127,0.112c-1.133,2.218-2.195,4.469-3.188,6.753c-0.128,0.295,0.307,0.552,0.436,0.255  c0.954-2.195,1.973-4.357,3.056-6.491c0.068,0.206,0.141,0.41,0.215,0.612c-1.051,2.473-2.029,4.972-2.93,7.504  c-0.109,0.307,0.379,0.439,0.487,0.134c0.832-2.338,1.731-4.649,2.693-6.936c0.06,0.182,0.114,0.366,0.159,0.553  c-0.049,0.028-0.091,0.072-0.112,0.141c-0.716,2.334-1.317,4.694-1.804,7.086c-0.065,0.317,0.422,0.453,0.487,0.134  c0.43-2.108,0.953-4.19,1.56-6.253c-0.004,0.203-0.022,0.411-0.063,0.629c-0.369,1.98-0.927,3.936-1.376,5.899  c-0.119,0.518-0.234,1.041-0.335,1.567c0.13,0.111,0.263,0.219,0.397,0.326c0.291-1.685,0.801-3.363,1.167-4.929  c0.504-2.154,1.1-3.85,0.276-5.967c-0.411-1.053-0.547-1.933-0.401-2.785c-0.071-0.047-0.142-0.094-0.213-0.142  c-0.073-0.049-0.146-0.096-0.219-0.145C39.836,57.871,39.77,57.823,39.706,57.773z"></path><path d="M2.681,49.912c0.071,0.039,0.155,0.038,0.228,0.004c0.051,0.033,0.117,0.043,0.194,0.014  c1.138-0.433,2.286-0.836,3.442-1.211c-0.102,1.061-0.46,2.043-1.072,2.937c-0.184,0.269,0.253,0.522,0.436,0.255  c0.691-1.008,1.07-2.144,1.152-3.353C7.2,48.514,7.34,48.47,7.479,48.427c0.007,1.188-0.497,2.255-1.037,3.306  c-0.148,0.289,0.287,0.544,0.436,0.255c0.602-1.172,1.163-2.379,1.101-3.718c0.229-0.069,0.459-0.134,0.688-0.201  c1.14,1.056-1.501,6.54-2.175,8.01c-0.117,0.188-0.236,0.375-0.359,0.56c-0.064,0.096-0.055,0.222,0.022,0.308  c0.076,0.086,0.201,0.109,0.303,0.057l3.739-1.914c-0.129,1.315-0.379,2.602-0.756,3.87c-0.093,0.312,0.394,0.446,0.487,0.134  c0.415-1.395,0.679-2.812,0.803-4.262c0-0.005-0.002-0.009-0.002-0.014l0.476-0.244c-0.079,1.705-0.429,3.341-1.059,4.931  c-0.12,0.302,0.368,0.433,0.487,0.134c0.678-1.711,1.034-3.474,1.09-5.311c0-0.007-0.003-0.011-0.003-0.018l0.804-0.411  c-0.465,2.74-1.361,5.313-2.732,7.744c-0.047,0.084-0.039,0.164-0.004,0.229c-1.16,1.838-2.2,3.764-2.633,5.914  c-0.023,0.116,0.036,0.232,0.144,0.28c0.107,0.049,0.234,0.016,0.305-0.078c1.515-2.011,3.214-3.853,5.068-5.515  c-1.242,2.777-0.485,5.908,0.195,8.875c0.098,0.881,0.262,1.756,0.493,2.615c0.03,0.112,0.123,0.191,0.249,0.187  c0.116-0.003,0.216-0.084,0.241-0.198c0.137-0.615,0.306-1.221,0.49-1.821c-0.131-0.166-0.256-0.339-0.374-0.517  c-0.108,0.335-0.208,0.673-0.302,1.013c-0.089-0.429-0.188-0.863-0.29-1.302c-0.464-4.077,0.519-8.291,2.797-11.663  c0.049-0.072,0.054-0.162,0.022-0.239c1.002-1.27,1.582-2.854,1.628-4.499l0.016-0.583l-0.324,0.484  c-1.62,2.418-3.578,4.618-5.472,6.747l-2.066,2.321c-0.647,0.634-1.266,1.266-1.74,2.016c0.751-1.94,1.934-3.729,3.089-5.472  c1.605-2.423,3.26-4.928,3.776-7.843c0.201-0.181,0.403-0.362,0.604-0.544c-0.077-0.158-0.154-0.317-0.229-0.476  c-0.19,0.172-0.381,0.344-0.571,0.516c-0.045,0.008-0.09,0.026-0.13,0.068c-0.012,0.013-0.024,0.026-0.037,0.038L7.049,56.13  c0.935-1.546,1.675-3.202,2.208-4.929c2.023-2.635,5.095-4.067,7.771-5.948c0.78-0.197,1.547-0.424,2.295-0.692  c-0.037-0.163-0.07-0.326-0.095-0.491c-0.639,0.231-2.365,0.684-2.431,0.73c-0.002,0-0.004,0.001-0.005,0.001  c-0.064-0.03-1.59,0.17-2.202,0.293c4.005-1.645,7.333-4.223,10.306-7.362l2.655-1.688c-0.12,0.289-0.219,0.585-0.308,0.883  l-1.096,2.019c-0.048,0.016-0.095,0.044-0.13,0.097c-0.698,1.05-1.519,1.922-2.429,2.654c0.046,0.182,0.08,0.366,0.1,0.553  c0.446-0.343,0.873-0.716,1.276-1.124l-1.863,3.433c-0.648,0.683-1.34,1.332-2.046,1.973c-0.573,0.521-1.15,1.038-1.725,1.558  c0.081,0.155,0.163,0.31,0.244,0.465c0.749-0.677,1.499-1.352,2.242-2.034c0.15-0.138,0.298-0.278,0.446-0.417l-1.985,3.658  c-0.637,1.175-1.36,2.506-1.394,3.981l-0.009,0.388l0.289-0.258c0.735-0.656,1.392-1.39,1.979-2.182  c-0.354,1.184-0.64,2.383-0.862,3.599c-1.008,2.544-1.598,5.31-1.72,8.063c-0.001,0.001-0.001,0.001-0.002,0.002  c-0.742,0.87-1.413,1.801-2.023,2.771c-0.102,0.021-0.186,0.096-0.174,0.233c0.001,0.012,0.003,0.024,0.004,0.036  c-0.307,0.502-0.597,1.014-0.867,1.538c-0.003,0.005-0.005,0.011-0.008,0.016c-0.25,0.486-0.48,0.983-0.697,1.485  c0.109,0.163,0.224,0.321,0.34,0.479c0.181-0.433,0.374-0.859,0.58-1.28c0.513,1.068,1.223,2.006,2.14,2.777  c0.247,0.208,0.606-0.148,0.357-0.357c-0.969-0.815-1.716-1.823-2.204-2.99c0.156-0.299,0.317-0.594,0.485-0.885  c0.413,1.792,1.624,3.192,2.888,4.54c0.223,0.238,0.579-0.12,0.357-0.357c-1.315-1.402-2.627-2.874-2.851-4.852  c0.139-0.224,0.287-0.441,0.433-0.66c0.518,2.669,2.149,4.723,4.032,6.599c0.448,0.65,0.942,1.265,1.481,1.835  c0.017,0.03,0.035,0.06,0.052,0.089c0.024,0.041,0.057,0.067,0.093,0.087c0.359,0.531,0.717,1.061,1.076,1.592  c0.155,0.229,0.543,0.093,0.462-0.195c-0.227-0.802-0.35-1.486-0.406-2.337c-0.002-0.033-0.012-0.06-0.023-0.087  c0.014-0.037,0.027-0.075,0.043-0.111c0.033,0.12,0.132,0.163,0.235,0.149c1.113,1.399,2.746,2.217,4.337,3.003  c1.338,0.661,2.722,1.344,3.777,2.371c0.027,0.027,0.053,0.056,0.08,0.083c-0.01-0.177-0.01-0.354,0-0.532  c0.005-0.099,0.011-0.197,0.022-0.296c-0.234-1.178,0.474-2.35,1.72-2.491c0.037-0.004,0.068-0.016,0.096-0.031  c-0.002-0.155-0.004-0.311-0.006-0.466c0-0.028-0.001-0.056-0.001-0.084c-1.371-0.108-2.653,0.786-2.463,2.361  c-0.038-0.016-0.075-0.032-0.113-0.048c-0.004-0.023-0.006-0.046-0.017-0.07c-0.438-0.946-0.029-2.118,0.906-2.575  c0.292-0.143,0.036-0.578-0.255-0.436c-1.118,0.546-1.571,1.884-1.185,3.02c-0.113-0.071-0.227-0.142-0.342-0.21  c-0.003-0.009-0.001-0.017-0.004-0.026c-0.318-0.827-0.199-1.733,0.389-2.412c0.212-0.245-0.144-0.603-0.357-0.357  c-0.593,0.685-0.825,1.581-0.648,2.448c-0.034-0.018-0.068-0.036-0.103-0.055c0.002-0.042-0.003-0.085-0.025-0.13  c-0.329-0.656-0.34-1.402-0.021-2.064c0.14-0.291-0.295-0.548-0.436-0.255c-0.329,0.684-0.379,1.418-0.16,2.117  c-0.09-0.045-0.179-0.09-0.268-0.134c-0.005-0.014-0.006-0.028-0.014-0.042c-0.316-0.549-0.335-1.194-0.038-1.756  c0.152-0.287-0.284-0.543-0.436-0.255c-0.185,0.351-0.276,0.729-0.275,1.106c-2.588-2.85-3.721-6.642-4.103-10.435  c-0.081-0.81-0.133-1.64-0.141-2.473c-0.14-0.008-0.281-0.015-0.421-0.023c-0.031-0.002-0.057-0.011-0.083-0.021  c0.005,0.848,0.057,1.693,0.139,2.518c0.052,0.516,0.117,1.031,0.197,1.544c-0.053,0.04-0.092,0.1-0.103,0.18  c-0.257,2.013-0.251,4.003,0.003,6.004c-0.025,0.016-0.05,0.032-0.067,0.057c-0.188,0.268-0.322,0.569-0.413,0.884  c-0.654-1.857-1.003-3.791-0.955-5.78c0.054-2.258,0.867-4.444,0.794-6.705c-0.07-2.174-0.86-4.214-0.748-6.422  c0.117-2.297,0.839-4.472,2.028-6.423c-0.013,0.273,0.038,0.557,0.26,0.729c0.213,0.165,0.768,0.099,0.827,0.099  c0.078,0,0.156-0.012,0.227-0.036c0.291-0.096,0.493-0.34,0.62-0.516c0.224-0.311,0.397-0.655,0.513-1.024  c0.114-0.36,0.122-0.653,0.035-0.899c0.32-0.384,0.647-0.761,0.984-1.131c0.248,0.067,0.486,0.03,0.675-0.114  c0.124-0.094,0.208-0.215,0.29-0.332c0.048-0.069,0.095-0.138,0.152-0.198c0.067-0.071,0.168-0.118,0.248-0.116  c0.046,0.001,0.067,0.02,0.078,0.033c0.084,0.099-0.051,0.318-0.205,0.491c-0.862,0.963-1.311,2.214-1.665,3.312  c-0.137,0.425-0.256,0.842-0.207,1.272c0.024,0.211,0.104,0.442,0.238,0.635c-0.469,0.397-0.911,0.83-1.315,1.296  c-0.072,0.083-0.206,0.238-0.195,0.439c0.007,0.121,0.061,0.226,0.158,0.303c0.126,0.102,0.3,0.138,0.456,0.138  c0.053,0,0.103-0.004,0.149-0.011c0.898-0.14,1.726-0.737,2.161-1.558c0.1-0.189,0.097-0.324,0.062-0.419  c0.09-0.061,0.181-0.13,0.272-0.214c0.005-0.005,0.009-0.01,0.014-0.014c0.027,0.281,0.001,0.57-0.049,0.736  c-0.085,0.285-0.315,0.517-0.522,0.716c-0.4,0.384-0.846,0.702-1.322,0.979c-0.068-0.012-0.142,0.002-0.208,0.057  c-1.239,1.035-2.082,2.305-2.644,3.699c0.06,0.061,0.122,0.119,0.185,0.176c0.125,0.115,0.255,0.224,0.39,0.325  c0.008-0.012,0.019-0.019,0.026-0.033c0.65-1.3,1.571-2.151,2.842-2.829c0.836-0.446,1.727-0.813,2.35-1.558  c0.942-1.127,0.782-2.44-0.016-3.523c0.043-0.063,0.087-0.128,0.128-0.189c0.514-0.778,1.068-1.697,1.133-2.749  c0.063-1.015-0.493-2.214-1.53-2.465c-0.034-0.008-0.062-0.017-0.09-0.025c0.034-0.073,0.073-0.143,0.113-0.212  c0.057,0,1.651-1.261,2.445-1.598c0.006,0.027,0.014,0.054,0.033,0.082c0.609,0.926,1.176,1.876,1.706,2.848  c-0.037,0.038-0.076,0.074-0.112,0.113l-0.128,0.141c-0.155,0.173-0.302,0.337-0.479,0.454c-0.122,0.08-0.26,0.139-0.407,0.202  c-0.228,0.098-0.081,0.997,0.262,1.063c-0.468,0.279-0.84,0.721-1.037,1.242l-0.028,0.073c-0.405,0.518-0.81,1.035-1.216,1.553  c-0.198,0.253,0.157,0.613,0.357,0.357c0.448-0.573,0.896-1.145,1.345-1.718c0.069,0.013,0.138,0.031,0.206,0.053  c-0.455,0.742-0.972,1.442-1.556,2.094c-0.216,0.242,0.14,0.6,0.357,0.357c0.608-0.68,1.149-1.406,1.625-2.179  c0.042,0.062,0.07,0.13,0.068,0.212c-0.001,0.04-0.008,0.08-0.015,0.12c-0.007,0.042-0.014,0.088-0.017,0.135  c-0.413,0.605-0.827,1.21-1.24,1.815c-0.184,0.269,0.254,0.522,0.436,0.255c0.357-0.522,0.714-1.044,1.071-1.566  c0.084,0.049,0.187,0.085,0.306,0.105c-0.441,0.594-0.889,1.181-1.356,1.755c-0.203,0.25,0.152,0.61,0.357,0.357  c0.556-0.685,1.09-1.387,1.611-2.098c0.159,0.013,0.307,0.066,0.377,0.14c0.034,0.036,0.046,0.072,0.039,0.121  c-0.008,0.06-0.058,0.128-0.102,0.188l-1.906,2.611c-0.16,0.035-0.32,0.07-0.479,0.105c-0.317,0.07-0.183,0.557,0.134,0.487  c0.654-0.143,1.309-0.287,1.963-0.43h0.894c0.109,0,0.226,0.007,0.267,0.062c0.031,0.041,0.042,0.136-0.078,0.358l-0.029,0.054  c-1.211,0.392-2.442,0.685-3.705,0.868c-0.32,0.047-0.184,0.533,0.134,0.487c1.095-0.159,2.168-0.399,3.223-0.715l-0.326,0.601  c-1.116,0.374-3.698,0.88-4.008,0.93c-0.32,0.051-0.184,0.538,0.134,0.487c1.202-0.193,2.386-0.462,3.549-0.819l-0.199,0.366  c-1.445,0.897-3.36,0.91-4.892,1.698c-0.289,0.149-0.034,0.585,0.255,0.436c1.324-0.681,2.88-0.796,4.217-1.36l-0.572,1.053  c-0.876,0.444-1.92,0.667-2.943,0.924c0.027,0.132,0.058,0.262,0.089,0.392c0.133-0.037,0.266-0.072,0.403-0.103  c1.217-0.275,2.401-0.496,3.334-1.147c0.044-0.008,0.088-0.018,0.133-0.026c0.013-0.034,0.027-0.068,0.04-0.103  c0.142-0.377,0.265-0.764,0.422-1.124c0.052-0.12,0.109-0.237,0.165-0.355c0.03-0.064,0.059-0.13,0.09-0.194  c0.13-0.264,0.27-0.522,0.416-0.777c0.121-0.212,0.246-0.422,0.377-0.629c0.024-0.038,0.047-0.077,0.072-0.116  c0.176-0.273,0.612-0.019,0.436,0.255c-0.514,0.798-0.956,1.634-1.302,2.519c-0.005,0.013-0.011,0.026-0.016,0.039  c-0.046,0.119-0.09,0.238-0.134,0.355c0.404-0.108,0.798-0.249,1.184-0.412c0.06-0.148,0.121-0.296,0.177-0.445  c0.413-1.102,0.712-2.24,0.902-3.42c0.052-0.321,0.538-0.184,0.487,0.134c-0.163,1.011-0.41,1.994-0.735,2.949  c-0.054,0.158-0.109,0.314-0.168,0.47c0.291-0.15,0.577-0.31,0.852-0.49c0.079-0.189,0.155-0.379,0.227-0.57  c0.456-1.208,0.775-2.454,0.968-3.743c0.048-0.321,0.534-0.184,0.487,0.134c-0.154,1.031-0.394,2.033-0.714,3.011  c-0.068,0.207-0.14,0.413-0.215,0.619c0.247-0.196,0.484-0.405,0.712-0.624c0.135-0.293,0.264-0.588,0.384-0.888  c0.024-0.06,0.051-0.119,0.074-0.18c0.332-0.853,0.786-1.888,0.706-2.805c-0.028-0.324,0.477-0.321,0.505,0  c0.042,0.475-0.044,0.962-0.181,1.44c-0.127,0.441,0.952-0.961,1.278-2.256c0.503,0.303,0.899,0.787,1.101,1.354  c0.048,0.134,0.116,0.319,0.232,0.455c0.044,0.03,0.091,0.056,0.136,0.084c0.077,0.049,0.153,0.099,0.232,0.145  c0.009,0.005,0.017,0.01,0.026,0.015c0.108-0.11,0.169-0.252,0.138-0.413c-0.02-0.103-0.628-1.34-1.044-1.805  c-0.216-0.242,0.14-0.6,0.357-0.357c0.432,0.484,0.811,1.004,1.139,1.559c0.066,0.111,0.126,0.226,0.187,0.339  c0.173-0.256,0.296-0.557,0.36-0.882c0.235,0.868-0.045,1.814-0.84,2.401c-0.259,0.191-0.007,0.629,0.255,0.436  c1.152-0.849,1.458-2.269,0.879-3.467c1.186-1.583,2.285-3.374,2.793-5.3c0.004-0.017,0.001-0.031,0.003-0.047  c0.066-0.092,0.123-0.2,0.17-0.324c-0.118-0.207-0.883-0.165-0.928,0.012c-0.098,0.376-1.904-0.328-2.089-0.429  c-0.081-0.044-0.157-0.092-0.23-0.142c-0.064-0.066-0.126-0.134-0.185-0.203c0.004-0.016,0.011-0.028,0.013-0.046  c0.139-1.959-0.284-3.838-1.244-5.551c-0.159-0.284-0.595-0.029-0.436,0.255c0.344,0.613,0.613,1.245,0.808,1.893l-0.309-0.173  c-0.065-0.037-0.175-0.098-0.303-0.072c-0.003,0.001-0.005,0.003-0.008,0.003c-0.285-0.826-0.64-1.621-1.074-2.382  c-0.161-0.282-0.598-0.028-0.436,0.255c0.443,0.775,0.803,1.582,1.084,2.43c0.019,0.058-0.048,0.617-0.067,0.873  c-0.103-0.024-0.207-0.05-0.312-0.077c0-0.026,0-0.051-0.01-0.08c-0.427-1.248-1.048-2.386-1.864-3.422  c-0.201-0.255-0.556,0.104-0.357,0.357c0.712,0.904,1.255,1.903,1.649,2.98c-0.298-0.092-0.827-0.468-0.881-0.558  c-0.475-0.794-0.951-1.588-1.426-2.382c-0.167-0.279-0.604-0.025-0.436,0.255c0.417,0.697,0.834,1.394,1.252,2.091  c-1.126-0.572-2.019-1.387-2.176-2.514c-0.171-0.066-0.342-0.131-0.513-0.197c0.104,1.94,2.005,3.165,4.107,3.81  c0.027,0.042,0.064,0.079,0.12,0.101c0.344,0.137,0.626,0.349,0.878,0.598c-0.106,0.809-0.381,1.563-0.816,2.259  c-1.224-1.563-2.874-2.705-4.663-3.231c-0.032-0.017-0.065-0.026-0.099-0.026c-1.793-0.503-3.716-0.388-5.477,0.535  c0.245-0.32,0.426-0.681,0.484-1.101c0.052-0.381-0.11-1.406-0.676-1.158c0,0-1.915,0.833-2.663,1.577  c-0.908,0.446-1.8,0.921-2.675,1.425c0.542-1.429,0.972-2.894,1.112-4.414c0.305-0.946,0.639-1.869,1.196-2.703  c0.022-0.033,0.032-0.068,0.035-0.102l0.259-0.42c1.495-0.189,2.991-0.21,4.504-0.065c0.323,0.031,0.321-0.474,0-0.505  c-1.4-0.134-2.785-0.122-4.168,0.025l0.72-1.166c1.428,0.011,2.802,0.294,4.137,0.842c0.3,0.123,0.431-0.365,0.134-0.487  c-1.283-0.527-2.601-0.808-3.965-0.851l0.487-0.79c0.471-0.013,1.499,0.409,1.812,0.515c0.737,0.248,1.437,0.575,2.116,0.953  c0.284,0.158,0.539-0.278,0.255-0.436c-0.847-0.472-1.731-0.862-2.662-1.137c-0.316-0.093-0.826-0.302-1.282-0.366  c0.054-0.136,0.091-0.26,0.108-0.371c0.965,0.151,1.903,0.404,2.817,0.762c0.303,0.119,0.434-0.369,0.134-0.487  c-0.973-0.382-1.968-0.636-2.995-0.788c-0.035-0.086-0.081-0.158-0.132-0.216l-0.087-0.1l-0.118,0.062  c-0.409,0.215-0.911,0.225-1.334,0.038c0.754-0.617,1.537-1.213,2.331-1.774l0.185-0.131l-0.179-0.139  c-0.455-0.354-1.056-0.246-1.638-0.078c0,0,1.439-1.245,1.033-1.831c-0.645-1.31-1.098-2.597-2.306-3.506  c-1.256-0.946-2.816-1.305-4.322-1.641c-0.317-0.071-0.452,0.416-0.134,0.487c1.337,0.298,2.724,0.601,3.885,1.368  c0.453,0.299,0.804,0.654,1.097,1.044c-1.008-0.774-2.28-1.222-3.599-1.479c-1.677-0.326-3.348-0.497-4.983-1.024  c-1.308-0.422-2.592-0.925-3.877-1.42l6.678,0.389c0.086,0.003,0.163-0.032,0.214-0.098c0.051-0.066,0.066-0.153,0.041-0.232  c-0.247-0.764-0.65-1.465-1.179-2.054c2.295-0.062,4.574,0.635,6.474,1.948c0.012,0.032,0.031,0.064,0.061,0.093  c1.06,1.048,1.578,2.013,2.237,3.314c0.383,0.756,0.823,1.326,1.61,1.694c0.812,0.379,1.663,0.301,2.503,0.072  c0.052,0.044,1.711-0.525,2.483-0.729c0.019,0.043,0.051,0.083,0.11,0.11c1.231,0.552,2.182,1.486,3.119,2.432  c0.229,0.231,0.586-0.126,0.357-0.357c-0.882-0.89-1.785-1.771-2.901-2.351c0.152-0.033,0.305-0.062,0.459-0.091  c1.451,0.588,2.677,1.567,3.59,2.84c0.188,0.262,0.626,0.01,0.436-0.255c-0.835-1.164-1.892-2.081-3.142-2.726  c0.147-0.018,0.294-0.031,0.441-0.044c0.028,0.038,0.065,0.071,0.121,0.089c1.585,0.513,2.722,1.719,3.711,3.008  c0.018,0.133,0.054,0.264,0.108,0.383c0.287,0.63,1.425,1.504,2.242,1.325c0.095,0.409,0.183,0.818,0.264,1.228  c0.167-0.025,0.335-0.044,0.502-0.059c-0.094-0.477-0.196-0.954-0.308-1.429c0.56-0.598,0.113-1.445-0.49-1.988  c-0.407-0.817-0.928-1.548-1.551-2.191c-0.164-0.275-0.349-0.564-0.592-0.749c0.672-0.006,1.343,0.013,2.018,0.051  c-0.112-0.173-0.222-0.349-0.333-0.523c-1.28-0.058-2.546-0.041-3.846,0.062c-0.033-0.006-0.065-0.003-0.095,0.007  c-1.411,0.116-2.87,0.335-4.427,0.65c-0.016,0.002-0.031-0.001-0.048,0.005c-0.031,0.01-0.062,0.015-0.093,0.024  c-0.165,0.034-0.325,0.063-0.492,0.099c-0.351,0.076-0.794,0.087-1.25,0.061c-1.386-0.385-2.33-1.703-2.969-3.015  c-0.142-0.292-0.578-0.036-0.436,0.255c0.467,0.96,1.107,1.91,1.934,2.559c-1.033-0.24-1.824-1.121-2.584-1.988  c-0.01-0.012-0.02-0.027-0.031-0.036c-0.001-0.001-0.002-0.002-0.003-0.003c-0.187-0.213-0.372-0.424-0.56-0.626  c-2.374-2.548-5.824-3.901-9.224-3.618c-0.1,0.008-0.186,0.075-0.218,0.171c-0.032,0.095-0.005,0.201,0.07,0.268  c0.573,0.519,1.023,1.167,1.316,1.89l-8.237-0.48c-0.112-0.008-0.21,0.059-0.25,0.16c-0.04,0.102-0.01,0.218,0.075,0.287  l1.261,1.036c-1.478,0.657-2.845,1.496-4.109,2.518c-0.253,0.204,0.107,0.56,0.357,0.357c1.28-1.035,2.677-1.875,4.189-2.517  l0.535,0.439c-1.89,0.87-3.625,1.989-5.21,3.348c-0.247,0.212,0.112,0.568,0.357,0.357c1.603-1.375,3.365-2.487,5.285-3.35  l0.292,0.24c-2.802,1.717-5.507,3.467-7.871,5.426c0.091,0.142,0.192,0.278,0.3,0.408c2.432-2.019,5.237-3.818,8.137-5.589  c0.07-0.043,0.115-0.116,0.12-0.198c0.006-0.082-0.029-0.161-0.092-0.213l-0.417-0.342c0.005-0.01,0.012-0.019,0.015-0.029  c0.186,0.096,0.376,0.187,0.567,0.273c1.08,0.675,2.238,1.22,3.475,1.597c0.726,0.221,1.518,0.335,2.326,0.429  c-1.273,0.165-2.527,0.542-3.593,1.013c-5.474,0.166-10.764,3.267-13.657,8.08l-0.213,0.354c-1.025,0.973-2.08,1.914-3.167,2.821  c0.595-1.394,1.363-2.677,2.271-3.872c-0.131-0.107-0.262-0.213-0.393-0.32c-1.231,1.619-2.217,3.397-2.872,5.395  c-0.038,0.117,0.013,0.244,0.122,0.302s0.243,0.029,0.318-0.069c0.815-1.056,1.966-1.839,3.225-2.211  c-2.842,4.036-4.269,9.151-3.928,14.144C2.556,49.793,2.605,49.87,2.681,49.912z M13.802,61.501  c0.415-0.344,0.835-0.681,1.264-1.007c-1.389,2.448-2.166,5.24-2.288,8.07c-0.44-2.439-0.502-4.88,1.009-7.029  C13.795,61.524,13.796,61.513,13.802,61.501z M14.476,52.901c0.015,0.01,0.03,0.02,0.048,0.027c-0.497,2.271-1.71,4.315-2.992,6.281  c0.727-1.765,1.243-3.603,1.542-5.52c0.004-0.025-0.001-0.046-0.003-0.069L14.476,52.901z M17.73,65.262  c-0.001-0.004-0.003-0.007-0.004-0.011c0.256-0.359,0.522-0.711,0.798-1.055c0.116,2.165,0.696,4.307,1.654,6.248  C18.943,68.959,17.989,67.297,17.73,65.262z M20.28,64.245c-0.053-1.373,0.112-2.774,0.27-4.128  c0.092-0.789,0.185-1.591,0.237-2.397c0.266-2.051,0.573-4.094,0.917-6.133c0.016-0.053,0.034-0.105,0.051-0.158  c0.082,6.475,0.165,12.949,0.247,19.424C21.097,68.863,20.371,66.614,20.28,64.245z M28.225,75.673  c-0.28-0.141-0.553-0.286-0.822-0.434c0-0.002,0.001-0.003,0.001-0.005c-0.016-0.203-0.032-0.406-0.048-0.608  C27.626,74.987,27.914,75.337,28.225,75.673z M26.873,73.946c-0.043,0.04-0.069,0.1-0.063,0.179  c0.022,0.271,0.043,0.542,0.065,0.813c-0.147-0.088-0.291-0.179-0.432-0.273c0.017-0.035,0.028-0.075,0.021-0.126  c-0.064-0.5-0.113-1.001-0.154-1.503C26.485,73.346,26.675,73.648,26.873,73.946z M25.741,71.922  c-0.003,0.019-0.01,0.035-0.009,0.057c0.038,0.777,0.107,1.55,0.201,2.322c-0.195-0.149-0.382-0.306-0.559-0.472  c0.003-0.021,0.009-0.04,0.006-0.065c-0.111-1.04-0.168-2.079-0.173-3.122C25.368,71.076,25.546,71.503,25.741,71.922z   M43.286,46.804c-0.003-0.003-0.007-0.006-0.01-0.01c0.007-0.003,0.014-0.005,0.021-0.008  C43.293,46.793,43.289,46.798,43.286,46.804z M47.569,45.176c-0.519,1.598-1.434,3.092-2.426,4.44  c-0.01-0.013-0.02-0.026-0.03-0.039c-0.053-0.244-0.133-0.488-0.244-0.733c0.313-0.374,0.566-0.922,0.757-1.198  c0.544-0.781,1.156-1.543,1.526-2.423C47.301,45.222,47.441,45.208,47.569,45.176z M46.326,45.112  c0.103,0.025,0.203,0.045,0.301,0.062c-0.284,0.617-0.7,1.159-1.089,1.717c-0.203,0.292-0.406,0.584-0.61,0.876  c-0.041,0.059-0.193,0.326-0.337,0.562c-0.088-0.142-0.19-0.284-0.298-0.428c0.676-0.894,1.203-1.871,1.585-2.932  C46.022,45.025,46.171,45.074,46.326,45.112z M44.96,44.413c0.146,0.123,0.3,0.238,0.467,0.335  c-0.002,0.004-0.005,0.006-0.006,0.011c-0.349,0.989-0.839,1.898-1.457,2.734c-0.002-0.003-0.004-0.005-0.007-0.008  c-0.097-0.11-0.198-0.216-0.301-0.321C44.176,46.289,44.61,45.372,44.96,44.413z M44.186,43.554  c0.048,0.059,0.096,0.117,0.146,0.173c0.077,0.109,0.16,0.212,0.247,0.311c-0.014,0.02-0.03,0.039-0.039,0.065  c-0.293,0.831-0.658,1.622-1.081,2.385c-0.004-0.021-0.005-0.042-0.014-0.063c-0.086-0.194-0.18-0.383-0.278-0.569  c0.006-0.007,0.013-0.011,0.019-0.019C43.646,45.132,43.975,44.366,44.186,43.554z M43.437,42.607  c0.012,0.006,0.024,0.011,0.036,0.017c0.114,0.146,0.226,0.295,0.338,0.445c-0.018,0.025-0.033,0.055-0.042,0.092  c-0.176,0.784-0.473,1.511-0.885,2.194c-0.07-0.117-0.141-0.233-0.215-0.346c-0.001-0.063,0.001-0.126-0.001-0.189  c-0.002-0.067-0.029-0.117-0.065-0.157C43.011,44.026,43.288,43.337,43.437,42.607z M42.165,45.178  c0.004,0.252,0.008,0.504,0.003,0.756c-0.177-0.117-0.358-0.228-0.543-0.331c-0.014-0.408-0.037-0.816-0.071-1.224  C41.77,44.633,41.974,44.899,42.165,45.178z M41.32,47.24c0.318,0.068,0.183,0.555-0.134,0.487c-0.66-0.141-1.468,1.003-2.081,1.257  c-0.622,0.258-1.331,0.255-1.991,0.204c-1.452-0.112-2.221-0.417-2.772-1.795c-0.01-0.024-0.009-0.045-0.012-0.067  c-0.017-0.151,0.123-0.244,0.266-0.235c0.05,0.003,0.098,0.023,0.14,0.053c0.038,0.027,0.072,0.062,0.093,0.114  c0.216,0.54,0.623,0.923,1.119,1.168c0.755,0.372,1.719,0.419,2.559,0.174c0.466-0.136,0.894-0.361,1.224-0.669  c0.374-0.348,0.649-0.635,1.053-0.708C40.941,47.195,41.113,47.196,41.32,47.24z M35.198,46.479  c0.383-0.192,0.763-0.475,1.149-0.859l0.084-0.085c0.149-0.151,0.29-0.294,0.456-0.395c0.248-0.15,0.569-0.215,1.014-0.209  c0.513,0.009,0.923,0.103,1.253,0.286c0.308,0.171,0.558,0.425,0.798,0.711c-0.22,1.102-0.674,1.818-1.362,2.119  c-0.939,0.411-2.653,0.13-3.115-0.463c-0.462-0.592-0.313-0.674-0.273-1.063C35.204,46.505,35.199,46.493,35.198,46.479z   M41.013,43.795c-0.007,0.026-0.012,0.054-0.009,0.088c0.05,0.484,0.085,0.968,0.107,1.453c-0.138-0.066-0.278-0.127-0.419-0.185  c-0.095-0.635-0.19-1.271-0.285-1.906C40.616,43.418,40.818,43.601,41.013,43.795z M39.894,42.85  c-0.024,0.046-0.039,0.099-0.03,0.161c0.086,0.577,0.173,1.154,0.259,1.73c-0.091-0.113-0.188-0.22-0.29-0.323  c-0.158-0.685-0.364-1.355-0.618-2.012C39.448,42.543,39.674,42.691,39.894,42.85z M38.573,42.068  c-0.004,0.035-0.001,0.073,0.017,0.115c0.235,0.563,0.429,1.137,0.591,1.72c-0.117-0.07-0.238-0.133-0.364-0.188  c-0.002-0.008-0.001-0.014-0.004-0.022c-0.26-0.648-0.55-1.281-0.872-1.899C38.155,41.875,38.365,41.968,38.573,42.068z   M37.247,41.57c0.351,0.631,0.667,1.278,0.947,1.943c-0.238-0.052-0.482-0.081-0.73-0.084c-0.284-0.722-0.644-1.405-1.087-2.045  C36.669,41.429,36.96,41.491,37.247,41.57z M35.814,41.322c-0.016,0.056-0.008,0.12,0.039,0.185c0.44,0.613,0.799,1.264,1.084,1.956  c-0.086,0.012-0.172,0.023-0.257,0.041c-0.12,0.025-0.239,0.057-0.357,0.094c-0.43-0.826-0.963-1.584-1.598-2.268  C35.088,41.298,35.452,41.296,35.814,41.322z M34.138,41.41c0.012,0.025,0.025,0.051,0.048,0.074  c0.67,0.686,1.219,1.456,1.665,2.295c-0.356,0.161-0.698,0.373-1.015,0.632c-0.515-0.938-1.065-1.856-1.654-2.75  c-0.001-0.002-0.003-0.002-0.004-0.004C33.496,41.55,33.816,41.468,34.138,41.41z M29.933,49.852  c0.098-0.116,0.192-0.233,0.281-0.353c1.672,2.325-1.237,3.536-2.938,4.576c-0.458,0.28-0.856,0.609-1.209,0.978  c0.403-0.612,0.891-1.18,1.471-1.696c0.017-0.005,0.032-0.006,0.049-0.015c0.831-0.448,2.061-1.17,2.336-2.146  C30.037,50.794,30.065,50.28,29.933,49.852z M25.641,47.055c-0.003,0-0.006,0-0.009,0c0.007-0.008,0.015-0.014,0.022-0.022  C25.649,47.04,25.646,47.048,25.641,47.055z M24.136,47.838c0.326-0.836,0.686-1.665,1.043-2.477  c0.71-0.675,1.458-1.307,2.244-1.894c-0.068,0.195-0.12,0.407-0.133,0.627C26.041,45.17,25.039,46.463,24.136,47.838z   M26.814,46.113c-0.022-0.013-0.043-0.028-0.066-0.039c-0.055-0.059-0.134-0.097-0.234-0.077c-0.015,0.003-0.028,0.009-0.043,0.012  c-0.099,0-0.19,0.028-0.272,0.077c-0.087,0.031-0.17,0.071-0.253,0.112c0.439-0.535,0.91-1.041,1.424-1.508  c0.062,0.166,0.165,0.316,0.298,0.437C27.377,45.452,27.092,45.78,26.814,46.113z M28.258,41.949  c-0.13,0.182-0.253,0.369-0.366,0.562c-0.772,0.532-1.513,1.103-2.217,1.714c0.156-0.361,0.309-0.724,0.457-1.089  C26.83,42.722,27.539,42.327,28.258,41.949z M41.741,23.943c0.319-0.001,0.63,0.012,0.935,0.043c0.787,0.619,1.48,1.334,2.08,2.132  c-0.018,0.015-0.037,0.026-0.054,0.044c-0.075,0.075-0.131,0.162-0.176,0.254c-0.806-0.996-1.712-1.899-2.853-2.47  C41.695,23.945,41.718,23.943,41.741,23.943z M9.694,46.227l-0.025-0.005l0.027-0.015C9.695,46.213,9.694,46.22,9.694,46.227z   M9.96,45.518c-0.014,0.001-0.027,0.006-0.04,0.01c0.022-0.012,0.043-0.024,0.064-0.036C9.976,45.5,9.968,45.509,9.96,45.518z   M24.873,37.031c-3.341,3.606-7.129,6.499-11.858,8.118c3.91-1.815,7.222-4.58,9.748-8.091c1.17-0.999,2.43-1.881,3.769-2.618  L24.873,37.031z M28.244,24.889c-1.939-0.344-4.101,0.177-6.052,0.546l-0.019-0.026l-0.054,0.039  c-0.004,0.001-0.008,0.001-0.012,0.002l-0.343-0.196C23.751,24.516,26.286,24.129,28.244,24.889z M21.95,25.99  c2.572-0.469,5.752-1.407,8.036,0.095c0.026,0.029,0.052,0.058,0.077,0.088c-0.196-0.01-0.389,0.006-0.58,0.044  c-1.15,0.061-2.202,0.397-3.315,0.701c-1.224,0.335-2.459,0.575-3.71,0.743c-0.634-0.154-1.244-0.392-1.817-0.712L21.95,25.99z   M19.655,29.839l2.563-1.64c0.969-0.118,1.93-0.276,2.885-0.493c0.934-0.213,1.85-0.524,2.782-0.742  c-0.164,0.111-0.326,0.226-0.485,0.343c-0.556,0.407-1.136,0.833-1.703,1.293c-1.463,0.802-2.953,1.543-4.479,2.211l-0.044-0.008  c-0.506-0.097-1.014-0.219-1.51-0.364c-0.13-0.038-0.283-0.094-0.316-0.195C19.298,30.088,19.546,29.909,19.655,29.839z   M5.833,35.253c0.835-0.746,1.652-1.512,2.448-2.3l1.621-0.83c0.206-0.106,0.386-0.171,0.549-0.213  c-1.195,0.92-2.301,2.032-3.412,3.002l0,0C6.628,34.986,6.224,35.102,5.833,35.253z M3.385,44.243  c0.07-0.371,0.239-1.114,0.24-1.117c-0.153-0.087,1.985-5.553,3.562-7.677c0.005-0.004,0.011-0.004,0.016-0.009  c1.127-0.965,2.247-2.106,3.455-3.05c-1.609,1.967-3.234,4.008-4.535,6.251c-0.705,1.216-1.263,2.422-1.689,3.614  c0.148-0.078,0.295-0.157,0.443-0.235c0.796-0.422,1.591-0.844,2.387-1.266c0.287-0.152,0.542,0.284,0.255,0.436  c-0.967,0.513-1.933,1.026-2.9,1.538c-0.141,0.075-0.282,0.149-0.422,0.224c-0.094,0.302-0.182,0.603-0.258,0.903  c0.143-0.099,0.285-0.199,0.428-0.297c0.895-0.609,1.808-1.19,2.741-1.741c0.281-0.166,0.534,0.271,0.255,0.436  c-1.086,0.642-2.145,1.326-3.18,2.046c-0.136,0.095-0.272,0.189-0.407,0.284c-0.074,0.364-0.137,0.726-0.184,1.086  c0.127-0.095,0.254-0.189,0.381-0.284c1.132-0.845,2.265-1.689,3.397-2.534c0.261-0.195,0.512,0.244,0.255,0.436  c-1.246,0.929-2.492,1.858-3.738,2.788c-0.121,0.09-0.241,0.18-0.362,0.27c-0.012,0.146-0.03,0.294-0.038,0.44L3.47,47.119  l0.278-0.185c3.233-2.149,6.577-4.371,9.698-6.817c1.003-0.786,2.05-1.646,2.845-2.741c0.132-0.182,0.251-0.382,0.231-0.618  c-0.016-0.182-0.105-0.332-0.257-0.432c-0.287-0.19-0.756-0.165-1.093-0.056c-1.782,0.577-3.483,1.376-5.071,2.382  c1.793-2.116,4.332-3.904,7.564-5.324l0.344-0.15c1.024-0.444,2.075-0.904,2.878-1.683c1.129-0.481,2.241-0.998,3.336-1.55  c-0.574,0.603-1.085,1.271-1.483,2.025c-0.442,0.402-0.857,0.847-1.249,1.319c0.102,0.116,0.208,0.228,0.318,0.336  c0.563-0.659,1.167-1.257,1.829-1.754c0.599-0.309,1.234-0.552,1.884-0.712c-0.823,0.99-1.575,2.05-2.241,3.157  c-0.492,0.819-1.021,1.801-1.264,2.901c-1.311,1.743-2.831,3.294-4.529,4.618l-0.215,0.05c-0.729,0.168-1.435,0.408-2.124,0.69  c0.377-0.402,0.741-0.818,1.095-1.243c-0.144-0.089-0.289-0.178-0.433-0.267c-0.609,0.731-1.251,1.431-1.939,2.085  c-0.242,0.118-0.483,0.238-0.722,0.36c-1.689,0.551-3.227,1.411-4.77,2.319c-1.704,1.001-3.56,1.905-5.054,3.215  c-0.039,0.034-0.058,0.071-0.069,0.109L3.03,49.277C2.954,47.714,3.257,44.337,3.385,44.243z"></path><path d="M31.157,24.186c-0.257-0.497-0.539-0.983-0.879-1.429c-0.625-0.818-1.397-1.431-2.381-1.744  c-0.31-0.099-0.443,0.389-0.134,0.487c1.262,0.401,2.097,1.391,2.728,2.513c0.428,0.76,0.663,1.824,1.411,2.325  c0.271,0.181,0.524-0.256,0.255-0.436C31.642,25.558,31.432,24.719,31.157,24.186z"></path><path d="M58.981,61.185c-0.001,0.007-0.006,0.011-0.007,0.018c0.164,0.087,0.299,0.186,0.383,0.305  c0.186,0.263,0.624,0.011,0.436-0.255c-0.172-0.243-0.423-0.423-0.719-0.561C59.043,60.856,59.012,61.02,58.981,61.185z"></path><path d="M50.552,61.156c0.136-0.075,0.283-0.14,0.437-0.197c-0.125-0.128-0.231-0.268-0.321-0.417  c-0.127,0.054-0.252,0.112-0.371,0.178C50.012,60.878,50.267,61.314,50.552,61.156z"></path><path d="M52.729,60.098c0.075,0.173,0.151,0.345,0.226,0.518c0.81-0.038,1.628,0.005,2.287,0.041  c0.59,0.031,2.206,0.041,3.258,0.358c0.031-0.166,0.063-0.333,0.094-0.499c-0.901-0.261-2.022-0.262-2.758-0.323  C54.904,60.114,53.795,60.024,52.729,60.098z"></path><path d="M51.435,60.702c0.035,0.032,0.054,0.068,0.066,0.103c0.294-0.071,0.604-0.119,0.923-0.151  c-0.073-0.168-0.147-0.337-0.22-0.505c-0.364,0.047-0.718,0.117-1.053,0.219C51.233,60.487,51.325,60.601,51.435,60.702z"></path><path d="M27.009,61.1c-0.091-0.162-0.175-0.328-0.262-0.492c-0.247,0.276-0.471,0.571-0.68,0.877  c0.086,0.112,0.199,0.252,0.331,0.415C26.586,61.618,26.79,61.351,27.009,61.1z"></path><path d="M26.126,62.34c-0.09-0.116-0.216-0.261-0.336-0.421c-0.089,0.149-0.177,0.3-0.258,0.455c0.076,0.21,0.165,0.413,0.26,0.612  C25.895,62.764,26.006,62.548,26.126,62.34z"></path><path d="M27.115,60.227c0.084,0.162,0.169,0.324,0.257,0.484c0.352-0.35,0.737-0.665,1.153-0.941  c-0.075-0.167-0.146-0.335-0.216-0.504c-0.021,0.013-0.044,0.024-0.064,0.038C27.834,59.58,27.459,59.89,27.115,60.227z"></path><path d="M28.959,59.502c0.454-0.26,0.941-0.477,1.456-0.651c-0.033-0.136-0.066-0.272-0.094-0.41  c-0.552,0.152-1.086,0.329-1.572,0.574C28.817,59.178,28.888,59.34,28.959,59.502z"></path><path d="M25.017,63.532c-0.112,0.305,0.375,0.437,0.487,0.134c0.009-0.026,0.021-0.05,0.03-0.076  c-0.108-0.194-0.209-0.392-0.299-0.596C25.159,63.171,25.084,63.349,25.017,63.532z"></path><path d="M46.446,71.621c0.109,0.201,0.225,0.395,0.349,0.583c0.081-0.096,0.17-0.186,0.267-0.269  c0.021-0.018,0.044-0.027,0.066-0.037c-0.14-0.154-0.276-0.311-0.409-0.47C46.622,71.487,46.532,71.552,46.446,71.621z"></path><path d="M47.925,72.838c-0.168-0.186-0.326-0.38-0.476-0.584c-0.01,0.013-0.016,0.027-0.031,0.039  c-0.123,0.104-0.227,0.222-0.319,0.348c0.176,0.233,0.363,0.456,0.562,0.667C47.742,73.147,47.83,72.99,47.925,72.838z"></path><path d="M62.842,72.093c0.084,0.157,0.175,0.309,0.272,0.456c0.11-0.115,0.215-0.235,0.315-0.36c0.202-0.251-0.153-0.61-0.357-0.357  C62.999,71.924,62.92,72.008,62.842,72.093z"></path><path d="M61.659,73.723c0.385-0.248,0.751-0.517,1.086-0.817c-0.098-0.143-0.19-0.291-0.276-0.443  c-0.334,0.3-0.695,0.555-1.076,0.784C61.482,73.406,61.571,73.565,61.659,73.723z"></path></svg>