<svg xmlns="http://www.w3.org/2000/svg" xmlns:xlink="http://www.w3.org/1999/xlink" version="1.1" x="0px" y="0px" viewBox="0 0 100 100" enable-background="new 0 0 100 100" xml:space="preserve"><g><path fill-rule="evenodd" clip-rule="evenodd" d="M66.62,62.992c-0.81,0.178-0.842,1.346-1.812,1.416   c-0.143-0.859,0.937-1.084,0.892-1.889c-0.407-0.408-0.8,0.414-1.335-0.025c1.01-1.018,1.672-2.252,1.938-3.721   c0.482,1.322-0.453,2.725,0.351,3.98C66.651,62.836,66.641,62.914,66.62,62.992z"></path><path fill-rule="evenodd" clip-rule="evenodd" fill="none" d="M66.777,22.803c-0.318-0.375-0.587-0.783-0.826-1.211   c-0.047,0.783,0.491,1.33,1.859,2.239C67.445,23.512,67.095,23.176,66.777,22.803z"></path><path fill-rule="evenodd" clip-rule="evenodd" d="M49.783,40.613c-0.666,1.892-0.11,3.757,0.142,5.625   c0.224,1.653,0.649,3.286,0.54,5.27c-1.872-4.13-1.99-11.488-0.249-14.585c0.39,1.422-0.964,2.479-0.429,3.708L49.783,40.613z"></path><path fill-rule="evenodd" clip-rule="evenodd" d="M49.787,40.63c2.314,1.108,3.938,3.922,3.764,6.76   c-0.847-1.142-0.208-2.802-1.701-3.615c0.061,1.176,0.114,2.214,0.169,3.252c-0.577-2.226-0.99-4.45-2.235-6.412   C49.783,40.613,49.787,40.63,49.787,40.63z"></path><path fill-rule="evenodd" clip-rule="evenodd" d="M55.937,62.629c-1.333,0.826-2.042,2.412-3.739,2.867   c2.739-2.098,3.962-5.271,5.856-7.988c-0.289,1.928-2.086,3.201-2.143,5.203C55.91,62.713,55.937,62.629,55.937,62.629z"></path><path fill-rule="evenodd" clip-rule="evenodd" d="M57.028,38.743c1.438,1.104,2.097,2.557,1.949,4.373   C58.464,41.596,57.762,40.163,57.028,38.743z"></path><path fill-rule="evenodd" clip-rule="evenodd" d="M27.526,55.387c-2.815-3.641-3.882-7.885-4.247-12.361   C24.225,47.305,25.293,51.539,27.526,55.387z"></path><path d="M53.736,81.219c0.009-0.062,0.017-0.123,0.029-0.188c5.979,2.643,12.131,4.414,18.636,4.934   c1.472,0.117,1.54-0.309,1.267-1.459c-0.399-1.67-0.631-3.385-1.105-5.029c-0.371-1.295,0.046-1.459,1.244-1.523   c4.703-0.248,8.63-2.092,11.432-6.01c0.096-0.135,0.132-0.312,0.26-0.629c-2.276-0.064-4.468-0.047-6.479-1.123   c0,0-2.546-1.395-3.905-1.428c0,0-1.77-3.457-2.938-3.107c-1.17,0.35,3.359-1.906,8.38-6.811c2.585-2.527,4.812-5.711,5.627-9.366   c0,0,0.314-4.011-0.623-10.731c-0.16-1.148,0.285-2.26,0.832-3.355c0.78-1.561,0.005-3.13-0.487-4.61   c-0.299-0.896-0.637-0.285-1.111,0.118c-1.675,1.422-3.466,2.709-5.214,4.048c-0.741,0.122-1.663,0.761-1.663,0.761   c-0.076,0.307-0.299,0.555-0.675,0.429c-0.417-0.138-0.238-0.476-0.223-0.763c0.043-0.777,0.3-1.63-0.503-2.188   c-1.426-0.989-2.004-3.566-2.24-4.166c-1.258-0.197-1.568-1.139-2.253-2.321c-0.417-0.72-1.684-1.138-2.395-1.56   c-0.646-0.383-1.255-0.82-1.817-1.31c-1.368-0.909-1.906-1.456-1.859-2.239c-0.212-1.215-0.773-1.629-1.119-2.465   c-0.682-1.477-2.127-2.602-2.138-2.422c-0.593-0.07-0.805-0.358-1.021-0.673c-1.921-2.808-3.431-3.317-6.705-0.911   c-0.587,0.43-1.246,0.93-1.929,1.036c-1.699,0.263-2.945,1.077-3.814,2.646c-1.432-1.688-2.895-3.062-5.045-3.651   c-4.527-1.241-8.686-1.259-12.731,1.756c-2.185,1.628-3.896,3.233-4.468,5.949c-0.279,1.313-0.504,2.645-1.035,3.913   c-0.904,2.159-2.025,4.296-1.348,7.004c-2.418-1.094-4.846-1.49-6.589-3.312c-0.142-0.148-0.438-0.252-0.636-0.216   c-0.268,0.047-0.338,0.325-0.244,0.587c1.094,3.062,0.548,6.5,2.236,9.443c1.178,2.053,1.828,4.385,1.818,6.693   c-0.018,4.613,1.689,8.263,5.025,11.361c0.963,0.895,2.33,2.396,1.585,3.586c-1.521,2.43-2.622,5.344-5.528,6.67   c-0.324,0.146-0.781,0.268-0.684,0.73c0.086,0.416,0.547,0.434,0.895,0.518c1.817,0.441,3.583,1.123,5.572,0.998   c-0.861,2.143-1.654,4.139-2.469,6.125c-0.238,0.584-0.514,1.174-0.033,1.727c0.439,0.506,0.897-0.006,1.352-0.074   c1.146-0.176,2.293-0.32,3.441-0.479c1.132-0.156,4.315-0.867,5.277-1.297c0.215,2.027,0.415,3.855,0.594,5.678   c0.877,2.814,0.862,6.129,0.521,9.037c0.138-0.109,0.278-0.213,0.427-0.314c1.257-0.842,2.397-1.852,3.642-2.713   c1.184-0.82,2.481-1.482,3.629-2.35c1.203-0.908,2.467-1.594,3.734-2.373c0.309-0.188,0.616-0.725,0.889-0.973   c0.082-0.074,0.166-0.141,0.249-0.211 M26.916,33.18c0.006-0.025,0.014-0.047,0.019-0.072c-0.655-2.031,0.229-4.932,1.706-5.61   c0.328-0.15,0.624-0.465,0.986-0.197c0.414,0.308,0.281,0.8,0.178,1.179c-0.104,0.391-0.303,0.865-0.613,1.07   c-1.304,0.861-1.916,2.116-2.257,3.559c0.011,0.027,0.015,0.057,0.024,0.085 M26.959,33.193c0.013,0.069,0.023,0.141,0.035,0.211   c0.791,2.274,2.98,3.682,4.1,6.304c-3.188-1.324-3.688-3.795-4.1-6.304c-0.027-0.075-0.055-0.148-0.078-0.224 M59.043,37.883   c1.721,0.609,2.819,1.722,3.802,2.89c1.061,1.263,1.941,2.673,2.896,4.023c0.865,1.225,2.337,1.812,3.122,3.197   c0.57,1.009,1.126,2.017,0.854,3.073c-1.005,3.902-1.505,7.938-3.062,11.693c-0.004,0.076-0.015,0.154-0.035,0.232   c-1.312,3.012-3.903,4.602-6.713,5.873c-1.017,0.461-1.658-0.469-2.3-1.125c0.512-0.953,1.323-0.418,1.994-0.441   c0.475-0.016,1.107,0.244,1.149-0.471c0.039-0.637-0.614-0.682-1.095-0.725c-0.602-0.053-1.209-0.039-2.259-0.064   c4.557-3.357,8.079-7.09,8.861-12.725c-1.798,6.393-6.152,10.469-11.615,13.543c-0.125-0.115-0.25-0.234-0.375-0.352   c0.752-0.68,1.408-1.537,2.274-2.004c1.447-0.783,1.786-2.246,2.526-3.467c0.346-0.572-0.206-0.525-0.5-0.766   c-0.53-0.439-0.868-0.369-1.194,0.115c-0.511,0.762-0.979,1.551-1.465,2.328l0.026-0.084c-1.046,2.346-3.21,3.814-5.478,3.662   c2.094-2.121,3.955-4.344,4.704-7.645c-1.088,0.477-1.119,1.211-1.439,1.748c-1.261,2.127-2.587,4.205-5.304,4.658   c-0.879,0.145-1.596,0.104-1.145-1.213c0.271-0.787,0.344-1.701,0.271-2.541c-0.16-1.9-0.205-3.773,0.17-5.658   c0.096-0.477,0.383-1.105-0.446-1.543c-0.548,2.217-1.14,4.363-0.86,6.652c0.072,0.602,0.064,1.23-0.032,1.824   c-0.161,0.986-0.434,1.98-1.591,2.25c-1.188,0.279-1.622-0.695-2.061-1.461c-0.539-0.941-1.229-1.688-2.171-2.193   c-1.465-0.789-2.327-1.955-2.435-3.648c-0.124-1.953-0.947-3.666-1.832-5.365c-0.709-1.36-1.475-2.74-1.43-4.327   c0.051-1.79,0.768-3.299,2.211-4.437c2.299-1.812,4.238-4.049,6.516-5.855c2.719-2.16,5.818-2.896,9.428-1.919   c5.205,1.407,7.827,4.49,7.521,10.222C61.542,43.936,61.254,42.57,59.043,37.883z M72.026,41.303   c0.148,0.119,0.247,0.589,0.196,0.619c-1.465,0.868-0.39,2.168-0.553,3.245c-0.147,0.975,0.103,2.057-1.236,3.052   c0.775-2.051,0.678-3.761,0.38-5.482c-0.096-0.559,0.012-1.121,0.571-1.428C71.558,41.214,71.895,41.197,72.026,41.303z    M73.866,39.053c0.395-0.65,1.244-0.955,2.843-0.93c-0.872,0.846-1.567,1.741-2.236,2.91   C73.906,40.307,73.404,39.817,73.866,39.053z M51.721,75.926c-0.4-2.221-0.768-4.127-1.079-6.043   c-0.127-0.779,0.042-1.344,1.078-1.018c0.324,0.102,0.724-0.014,1.085-0.061c2.363-0.299,2.326-0.312,1.561,2.148   C53.83,72.672,53.014,74.217,51.721,75.926z M39.398,69.502c-0.418-0.451-0.078-0.768,0.03-1.074   c1.259-3.521,1.263-3.518,4.436-1.574C42.651,68.24,40.958,68.764,39.398,69.502z M37.216,66.537   c-1.79,0.332-3.587,0.633-5.522,0.973c1.232-2.463,3.025-3.107,5.293-2.707c0.438,0.076,1.095-0.172,1.159,0.551   C38.199,65.967,37.845,66.42,37.216,66.537z M33.326,44.799c-1.654-0.156-2.543-1.768-4.277-2.499   c1.148,1.722,2.521,2.632,3.953,3.509c-1.474-0.316-2.701-0.936-3.855-2c-1.321-1.217-1.103-2.441-0.602-3.903   C30.719,40.866,32.395,42.378,33.326,44.799z M20.453,34.265c1.534,0.585,2.691,0.968,3.799,1.464   c0.867,0.387,1.902,0.76,1.416,2.102c1.145,0.334,0.986,1.696,1.805,2.299c0.192,0.143,0.273,0.431,0.078,0.652   c-0.219,0.248-0.428,0.113-0.582-0.103c-1.438-2.035-3.344-3.534-5.477-4.772C21.057,35.653,20.811,35.245,20.453,34.265z    M29.439,58.01c0.232,0.527,0.464,1.055,0.923,2.096c-2.743-2.721-5.808-4.354-6.923-7.854c-0.473-1.484-0.709-2.986-0.863-4.491   c-0.329-3.212-1.027-6.289-2.539-9.167c-0.39-0.74-0.656-1.549-0.498-2.44c0.625-0.069,0.887,0.448,1.234,0.732   c0.426,0.348,1.764,0.476,0.572,1.482c0.58,0.341,0.037,1.894,1.508,1.343c0.42-0.156,0.389,0.488,0.518,0.792   c0.316,0.747,0.463,1.603,1.603,2.438c-0.542-1.319-0.897-2.18-1.251-3.041c1.887,2.076,2.119,5.164,4.771,7.326   c-0.805-1.703-1.957-2.662-2.391-4.597c1.662,2.136,3.035,4.111,5.352,4.521c1.865,0.328,1.956,1.438,2.009,2.861   c-1.171-0.196-1.771-1.333-2.942-1.605c0.27,0.986,1.246,1.101,1.698,1.711c0.487,0.66,2.245,0.54,1.313,2.222   c-0.139,0.248,1.208,1.318,1.914,2.061c-0.844,0.367-0.958-0.691-1.928-0.525c2.341,1.932,3.348,4.281,3.275,7.289   c-3.768-1.969-5.655-5.373-7.561-8.812c0.018,1.059,0.461,1.949,1.02,2.822c0.581,0.904,1.254,1.771,1.639,3.174   c-2.076-1.715-2.754-3.994-4.145-5.76c1.321,4.35,4.107,7.568,7.848,10.082C32.868,62,31.195,60,29.439,58.01z M28.762,63.172   c0.937-1.09,1.584,0.504,2.728,0.471c-1.838,1.93-3.816,3.135-6.097,4.693C26.254,66.076,27.527,64.605,28.762,63.172z    M25.806,69.188c2.479-0.941,4.198-2.562,6.267-4.475C29.707,68.67,28.091,70.252,25.806,69.188z M36.538,68.016   c-2.413,2.82-5.276,4.744-8.392,6.775C29.797,68.947,31.02,68.283,36.538,68.016z M28.033,76.812   c2.352-1.025,3.646-3.26,5.83-4.578C32.617,76.039,30.996,77.312,28.033,76.812z M33.455,75.922   c1.258-2.137,2.437-4.201,3.382-6.391C36.229,75.098,35.889,75.689,33.455,75.922z M41.114,69.914   c1.537-0.883,3.167-1.604,4.749-2.4c0.566-0.285,1.197-0.584,1.673-0.02c0.405,0.48-0.244,0.857-0.426,1.264   c-1.994,4.479-5.495,6.137-9.186,8.461C37.391,73.99,38.492,71.418,41.114,69.914z M48.172,68.752   c0.252-0.396,0.523-0.656,1.045-0.498c0.487,0.146,0.426,0.553,0.451,0.896c0.185,2.496,0.422,4.982,0.428,7.5   c0.009,2.602-1.971,3.586-3.427,5.029c-0.754,0.484-0.854,0.098-1.099-0.551C43.809,76.434,45.736,72.549,48.172,68.752z    M37.777,79.998c-0.086-1.119,0.871-1.703,1.652-2.268c1.385-0.996,2.822-1.916,4.647-3.148c-1.831,3.971-2.856,7.82-5.435,11.215   C37.997,83.764,37.92,81.867,37.777,79.998z M40.449,86.004c0.612-1.395,1.267-2.764,1.816-4.176   c0.523-1.344,0.756-2.805,1.654-4.209C44.578,81.293,44.957,84.65,40.449,86.004z M54.47,79.617   c-1.22-0.734-1.251-1.734-0.745-2.854c0.708-1.561,1.494-3.084,2.212-4.641c0.419-0.906,0.834-0.949,1.395-0.119   c1.573,2.32,2.015,5.109,3.165,7.609c0.35,0.76,0.558,1.584,0.956,2.748C58.794,81.582,56.539,80.859,54.47,79.617z M62.449,81.545   c-1.3-1.939-2.275-4.064-2.872-6.904c3.432,3.357,7.11,5.73,9.868,9.27C67.139,83.023,64.145,84.072,62.449,81.545z M71.579,83.236   c-2.801-2.289-5.352-4.369-8.198-6.691C70.912,77.016,70.808,77.611,71.579,83.236z M79.358,74.682   c-6.003,2.562-8.603,1.752-9.16-1.834C73.175,74.012,76.068,75.35,79.358,74.682z M80.676,73.068   c-4.418,0.754-8.357-0.213-12.491-2.561C72.878,69.994,76.827,70.922,80.676,73.068z M73.606,69.512   c-2.384-0.812-4.953,0.689-7.127-1.139C69.242,66.607,71.602,66.393,73.606,69.512z M66.208,70.811   c-1.522-0.234-2.78-0.428-4.049-0.621C63.852,68.334,64.509,68.395,66.208,70.811z M66.353,72.494   c1.686,0.59,2.6,1.641,3.011,3.344c-4.446,0.066-8.843,0.207-11.227-4.791C60.971,71.43,63.71,71.564,66.353,72.494z    M84.238,33.905c0.217,0.422-0.105,0.626-0.405,0.879c-2.454,2.073-3.428,5.055-4.796,7.802c1.644-1.364,1.781-3.763,3.696-5.318   c-0.63,2.742,0.505,4.966,1.013,7.428c0.539-0.354-0.051-1.052,0.618-1.329c0.37,1.451,0.434,2.903,0.417,4.466   c-0.806-0.786-1.24-0.63-1.43,0.399c-0.235,1.269-0.486,2.537-0.822,3.779c-0.186,0.693-0.376,1.43-0.983,1.973   c-0.541-0.354,0.404-0.859-0.208-1.236c-1.646,2.492-2.593,5.467-5.255,7.906c0.834-2.17,2.15-3.531,2.474-5.439   c-2.915,4.312-5.072,9.418-11,10.377c0.976-4.129,4.169-7.16,6.064-10.949c-0.573,0.732-1.144,1.469-1.716,2.201   c0.975-2.119,2.086-4.141,2.922-6.325c-1.748,2.143-2.662,4.913-4.883,6.711c0.738-1.533,1.795-2.885,2.455-4.631   c-1.034,0.275-1.026,1.348-1.854,1.697c1.193-1.789,0.876-4.099,2.469-5.807c1.646-1.765,2.254-4.204,3.328-6.337   c1.515-3.003,3.415-5.645,6.015-7.775c0.281-0.23,0.611-0.409,0.936-0.582C83.623,33.617,84.005,33.453,84.238,33.905z    M57.008,18.382c0.028-0.47,0.047-0.478,0.839-0.628c0.335-0.062,0.331-0.291,0.325-0.543c-0.046-2.049,0.913-1.283,1.779-0.612   c0.82,0.633,1.492,1.488,2.587,1.688c0.717,0.132,0.707,0.587,0.49,1.097c-0.26,0.613-0.567,1.207-0.727,1.916   c1.472-0.891,2.188-0.823,2.018,1.01c-0.064,0.693,0.28,1.406,0.801,1.808c2.477,1.917,2.617,4.858,3.42,7.511   c0.064,0.218,0.08,0.451,0.196,1.14c0.504-2.739-0.996-4.659-1.116-7.093c2.219,1.294,0.767,4.579,3.371,5.602   c0.041-1.463-0.275-2.602-1.157-3.516c-0.347-0.361-0.603-0.745-0.246-1.075c0.363-0.332,0.767,0.125,1.137,0.292   c0.655,0.295,0.493,0.91,0.566,1.433c0.127,0.903,0.252,1.808,0.381,2.729c0.778-0.198,0.194-0.823,0.473-1.158   c1.368,1.054,1.39,2.952,2.689,4.129c0.888,0.802,0.206,2.455-0.965,2.973c-1.805,0.797-2.856,2.527-4.491,3.576   c-1.224,0.785-0.792,2.258-0.492,3.646c-2.039-0.646-3.031-2.131-3.977-3.598c-1.424-2.212-3.582-3.562-5.65-5.016   c-0.651-0.459-0.524-2.176,0.455-3.003c0.611-0.515,1.326-0.898,0.631-1.716c-0.651-0.766-1.501-0.422-2.162,0.055   c-0.871,0.627-1.417,1.412-1.285,2.646c0.139,1.306-0.408,1.645-1.788,1.146c-1.785-0.643-2.556-1.571-1.972-3.449   c0.215-0.692,0.194-1.484,1.341-1.284c0.445,0.078,1.302-0.061,0.892-0.907c-0.479-0.99-0.646-2.428-2.248-2.276   c-0.834,0.079-1.166,0.745-0.894,1.487c0.592,1.603-0.721,2.773-0.85,4.207c-0.035,0.387-0.367,0.438-0.699,0.314   c-0.334-0.127-0.461-0.371-0.389-0.725c0.189-0.964,0.272-1.965,0.585-2.888c0.812-2.405,0.896-4.802,0.163-7.226   c-0.385-1.275-0.209-2.372,1.047-3.197c-0.408,1.284,1.115,1.986,0.955,3.18c0.219-0.968,0.307-1.932,1.36-2.518   c1.163,1.562,0.181,3.549,1.037,5.551c0.122-3.074-0.466-5.921,1.062-8.453c-0.043,1.422-0.384,2.834,0.389,4.719   C56.941,20.019,56.96,19.201,57.008,18.382z M40.455,16.833c1.342,2.078,2.287,4.297,2.863,6.697   c0.356-2.753-1.176-4.939-2.211-7.318c1.471,0.847,1.993,2.421,3.014,3.924c0.314-1.802-1.158-2.63-1.548-3.915   c0.812,0.036,1.293,0.381,1.718,1.001c0.869,1.262,1.217,2.707,2.723,3.787c1.2,0.861,1.314,3.28,0.811,5.163   c0.004-0.001,0.008-0.003,0.01-0.003c0.001,0.018,0.004,0.033,0.006,0.051c0.942,0.094,0.836-0.575,0.85-1.182   c0.053-2.111-0.719-4.029-1.645-6.289c2.998,3.382,3.634,9.395,1.646,14.639c-0.862-2.02-1.761-3.768-0.555-5.729   c0.402-0.651-0.232-0.963-0.297-1.439c-0.008-0.002-0.016-0.002-0.026-0.002c0.005-0.016,0.008-0.031,0.011-0.046   c-0.942,0.376-2.041,0.368-2.847,1.079c-0.597,0.527-1.27,1.193-0.894,2.006c0.387,0.841,1.17,0.147,1.852-0.045   c0.003,1.674,0.66,3.163,0.391,4.775c-1.057-0.29-0.568-1.357-1.213-1.877c-0.645,2.295-2.152,3.844-3.953,5.182   c-0.775,0.576-1.06,0.125-1.357-0.494c-0.572-1.178-1.16-2.348-1.98-3.404c0.129,1.549,0.96,2.799,1.58,4.129   c0.233,0.502,0.621,1.064-0.021,1.459c-0.683,0.416-1.017-0.265-1.266-0.698c-0.549-0.956-1-1.971-1.608-3.202   c-0.608,1.082-0.146,1.79,0.259,2.469c0.409,0.686,0.879,1.336,1.339,1.99c0.184,0.264,0.108,0.475-0.125,0.596   c-0.13,0.068-0.434,0.059-0.485-0.025c-0.426-0.679-0.84-1.146-1.665-0.455c-0.87,0.727,0.161,1.269,0.114,2.069   c-0.896-0.522-2.043-0.218-2.511-1.649c-0.327-1-0.026-2.104-0.834-2.947c1.041-0.307,1.503,0.994,2.831,0.524   c-1.186-0.704-2.039-1.38-3.01-1.742c-1.107-0.413-1.844-1.172-2.578-2.001c-0.554-0.623-0.701-1.201-0.117-1.953   c0.734-0.945,1.098,0.191,1.654,0.238c0.498-0.738-0.483-1.058-0.398-1.672c0.605-0.498,0.918,0.391,1.482,0.326   c-1.527-1.219,0.635-3.115-1.012-4.355c0.652,0.043,0.471,0.842,1.137,0.776c-0.495-1.021-0.763-1.88,0.271-2.874   c0.938-0.899,0.235-2.062-0.32-3.041c-0.262-0.459-0.783-0.94-0.221-1.449c0.52-0.47,1.221-0.593,1.914-0.434   c0.847,0.197,0.382,0.766,0.234,1.15c-0.624,1.627-0.379,3.115,0.763,4.586c-0.569-2.852,0.728-5.095,2.155-7.287   c0.33-0.509,0.681-1.036,1.133-1.426C39.236,15.876,39.855,15.901,40.455,16.833z M28.43,25.402   c0.286-1.688,0.479-3.243,1.354-4.897C31.215,23.151,30.895,24.336,28.43,25.402z M47.518,26.946   c0.912,0.082-0.465,0.941-1.155,1.225c-0.691,0.283-1.36,1.088-1.716,0.85c-0.355-0.239,0.932-1.47,0.932-1.47   C46.363,27.22,46.604,26.864,47.518,26.946z M54.491,29.463c-0.218,0.166-1.25,0.258-1.699-1.135   c-0.45-1.395,1.298-0.644,1.298-0.644C54.774,28.477,54.707,29.295,54.491,29.463z M58.779,31.232   c0.625-0.429,1.565-0.259,1.141,0.612c-0.426,0.869-0.449,0.541-1.284,0.912c-0.835,0.369-0.629-0.545-0.629-0.545   S58.152,31.661,58.779,31.232z"></path><path d="M49.219,82.686c0,0,1.429-1.098,1.981-2.67c0,0,1.27,0.93,2.565,1.016"></path></g></svg>