<svg xmlns="http://www.w3.org/2000/svg" xmlns:xlink="http://www.w3.org/1999/xlink" version="1.1" x="0px" y="0px" viewBox="0 0 100 100" enable-background="new 0 0 100 100" xml:space="preserve"><g><path d="M57.036,85.435c0.373-0.578,0.448-1.311,0.206-2.009l-1.052-3.037c-0.099-0.283,0.064-0.649,0.338-0.768l2.957-1.268   c0.678-0.291,1.168-0.839,1.344-1.503c0.177-0.665,0.022-1.385-0.423-1.975l-1.938-2.563c-0.184-0.243-0.145-0.633,0.084-0.833   l2.418-2.119c0.556-0.487,0.854-1.16,0.815-1.848c-0.038-0.687-0.407-1.323-1.013-1.746l-2.639-1.841   c-0.245-0.17-0.329-0.559-0.176-0.815l1.646-2.764c0.378-0.635,0.452-1.366,0.204-2.008c-0.249-0.642-0.797-1.133-1.504-1.349   l-3.075-0.933c-0.286-0.088-0.487-0.433-0.422-0.725l0.714-3.137c0.161-0.712,0.01-1.425-0.415-1.956   c-0.423-0.529-1.08-0.833-1.855-0.833c0,0-0.001,0-0.002,0l-3.227,0.062c-0.299,0-0.586-0.262-0.613-0.559l-0.292-3.202   c-0.111-1.212-1.041-2.092-2.211-2.092c-0.27,0-0.543,0.047-0.813,0.14l-3.037,1.053c-0.277,0.095-0.652-0.071-0.766-0.338   l-1.268-2.956c-0.375-0.874-1.163-1.416-2.056-1.416c-0.502,0-0.993,0.171-1.422,0.495l-2.564,1.939   c-0.097,0.074-0.226,0.114-0.361,0.114c-0.187,0-0.364-0.075-0.473-0.2l-2.118-2.417c-0.98-1.12-2.742-1.023-3.593,0.198   l-1.84,2.638c-0.108,0.156-0.308,0.253-0.52,0.253c-0.076,0-0.189-0.013-0.297-0.077l-2.762-1.646   c-0.383-0.229-0.807-0.349-1.226-0.349c-0.99,0-1.827,0.647-2.13,1.648l-0.935,3.077c-0.084,0.279-0.432,0.489-0.724,0.42   l-3.135-0.711c-0.807-0.182-1.612,0.04-2.15,0.588c-0.426,0.434-0.653,1.032-0.641,1.684l0.062,3.216   c0.006,0.299-0.26,0.596-0.557,0.623l-3.203,0.291c-0.734,0.067-1.37,0.437-1.743,1.015c-0.374,0.578-0.45,1.311-0.209,2.01   l1.052,3.037c0.098,0.283-0.062,0.647-0.338,0.766l-2.955,1.269c-0.678,0.291-1.168,0.839-1.345,1.503   c-0.177,0.665-0.023,1.385,0.422,1.976L5.2,66.02c0.184,0.243,0.144,0.633-0.084,0.833l-2.42,2.12   c-0.555,0.487-0.851,1.16-0.813,1.848c0.038,0.687,0.407,1.321,1.012,1.743l2.637,1.839c0.246,0.172,0.33,0.563,0.177,0.819   l-1.647,2.765c-0.377,0.635-0.451,1.367-0.202,2.008c0.248,0.642,0.796,1.132,1.502,1.348l3.076,0.933   c0.287,0.088,0.487,0.433,0.42,0.725l-0.711,3.136c-0.162,0.712-0.011,1.425,0.413,1.957c0.423,0.53,1.082,0.834,1.856,0.834   c0,0,0.001,0,0.002,0l3.227-0.063c0.299,0,0.584,0.262,0.611,0.56l0.292,3.201c0.111,1.212,1.041,2.091,2.211,2.091   c0.271,0,0.544-0.047,0.812-0.14l3.04-1.052c0.281-0.093,0.651,0.071,0.765,0.337l1.268,2.958c0.375,0.873,1.164,1.415,2.057,1.415   c0.501,0,0.993-0.172,1.42-0.495l2.563-1.938c0.231-0.176,0.645-0.131,0.834,0.084l2.12,2.422c0.462,0.525,1.076,0.815,1.728,0.814   c0.734,0,1.414-0.37,1.864-1.016l1.84-2.637c0.109-0.156,0.308-0.253,0.52-0.253c0.076,0,0.189,0.013,0.297,0.077l2.763,1.645   c0.384,0.229,0.808,0.35,1.227,0.349c0.989,0,1.825-0.646,2.129-1.646l0.933-3.076c0.086-0.28,0.419-0.494,0.725-0.42l3.137,0.711   c0.805,0.181,1.61-0.041,2.148-0.589c0.426-0.434,0.653-1.031,0.642-1.684l-0.063-3.216c-0.005-0.3,0.26-0.597,0.558-0.623   l3.203-0.293C56.027,86.382,56.663,86.012,57.036,85.435z M55.25,84.281c-0.009,0.013-0.057,0.042-0.151,0.051l-3.201,0.293   c-1.399,0.125-2.517,1.371-2.492,2.78l0.063,3.216c0.002,0.094-0.021,0.142-0.033,0.154l-0.162,0.004l-3.135-0.71   c-1.363-0.31-2.823,0.541-3.23,1.874l-0.933,3.077c-0.002,0.006-0.043,0.139-0.096,0.139c-0.017,0-0.063-0.004-0.138-0.049   l-2.762-1.645c-1.181-0.705-2.868-0.336-3.649,0.785l-1.84,2.637c-0.107,0.155-0.113,0.173-0.251,0.016l-2.119-2.42   c-0.514-0.587-1.269-0.924-2.07-0.924c-0.595,0-1.179,0.192-1.644,0.544l-2.565,1.939c-0.12,0.089-0.167,0.111-0.241-0.063   l-1.268-2.957c-0.541-1.261-2.116-1.959-3.414-1.508l-3.04,1.052c-0.055,0.019-0.094,0.022-0.117,0.022h0   c-0.03,0-0.079-0.001-0.093-0.158l-0.292-3.2c-0.127-1.397-1.325-2.492-2.78-2.492c0,0-0.001,0-0.001,0l-3.224,0.063   c-0.097,0-0.14-0.026-0.146-0.035c-0.008-0.01-0.025-0.06-0.002-0.159l0.711-3.136c0.312-1.371-0.529-2.82-1.875-3.23L5.98,79.308   c-0.099-0.03-0.134-0.07-0.139-0.082c-0.004-0.011-0.005-0.064,0.047-0.152l1.646-2.764c0.719-1.206,0.367-2.844-0.786-3.65   l-2.638-1.84c-0.083-0.059-0.104-0.105-0.105-0.118c-0.001-0.012,0.015-0.063,0.091-0.13l2.42-2.12   c1.056-0.926,1.226-2.592,0.379-3.714l-1.939-2.563c-0.063-0.083-0.067-0.136-0.064-0.147c0.003-0.013,0.033-0.055,0.128-0.096   l2.953-1.269c1.294-0.551,1.972-2.083,1.511-3.415l-1.052-3.036c-0.034-0.099-0.022-0.15-0.015-0.161s0.049-0.042,0.151-0.052   l3.203-0.291c1.4-0.128,2.517-1.376,2.49-2.781L14.2,47.711c-0.002-0.094,0.021-0.142,0.033-0.154l0.162-0.003l3.135,0.711   c1.365,0.307,2.825-0.545,3.228-1.875l0.935-3.077c0.002-0.005,0.043-0.14,0.096-0.14c0.016,0,0.063,0.005,0.138,0.049l2.763,1.646   c1.18,0.703,2.867,0.334,3.649-0.787l1.839-2.637c0.104-0.147,0.105-0.18,0.25-0.014l2.12,2.419   c0.516,0.586,1.271,0.923,2.071,0.923c0,0,0,0,0,0c0.595,0,1.179-0.193,1.643-0.544l2.564-1.939c0.082-0.062,0.13-0.065,0.14-0.065   c0.023,0,0.068,0.048,0.103,0.128l1.268,2.956c0.542,1.261,2.111,1.96,3.416,1.508l3.036-1.052   c0.125-0.043,0.186-0.147,0.212,0.136l0.292,3.204c0.129,1.396,1.328,2.489,2.78,2.489c0,0,0.001,0,0.001,0l3.229-0.061   c0.095,0,0.137,0.025,0.144,0.034c0.008,0.01,0.024,0.06,0.003,0.158l-0.714,3.137c-0.311,1.371,0.531,2.819,1.877,3.229   l3.075,0.933c0.1,0.03,0.135,0.07,0.14,0.082c0.004,0.011,0.005,0.063-0.048,0.152l-1.646,2.763   c-0.721,1.209-0.367,2.847,0.787,3.649l2.637,1.84c0.078,0.055,0.105,0.104,0.106,0.119s-0.021,0.067-0.093,0.131l-2.418,2.119   c-1.057,0.926-1.228,2.592-0.38,3.715l1.938,2.563c0.063,0.082,0.067,0.135,0.064,0.146c-0.003,0.013-0.033,0.055-0.127,0.096   l-2.959,1.269c-1.29,0.557-1.967,2.089-1.507,3.415l1.052,3.037C55.266,84.212,55.258,84.269,55.25,84.281z"></path><path d="M31.833,61.187c-4.4,0-7.98,3.58-7.98,7.98c0,4.399,3.58,7.979,7.98,7.979s7.98-3.579,7.98-7.979   C39.813,64.767,36.234,61.187,31.833,61.187z M31.833,75.02c-3.228,0-5.854-2.626-5.854-5.853c0-3.228,2.626-5.854,5.854-5.854   s5.854,2.627,5.854,5.854C37.688,72.394,35.062,75.02,31.833,75.02z"></path><path d="M31.833,65.27c-2.148,0-3.896,1.748-3.896,3.896s1.748,3.896,3.896,3.896s3.896-1.748,3.896-3.896   S33.982,65.27,31.833,65.27z M31.833,70.937c-0.976,0-1.77-0.794-1.77-1.771c0-0.976,0.794-1.771,1.77-1.771s1.77,0.795,1.77,1.771   C33.604,70.143,32.81,70.937,31.833,70.937z"></path><path d="M74.837,53.894l1.385-2.492c0.095-0.171,0.371-0.262,0.55-0.178l2.582,1.2c0.313,0.146,0.637,0.22,0.963,0.22   c1.021,0,1.845-0.704,2.049-1.752l0.547-2.796c0.036-0.187,0.242-0.362,0.468-0.341l2.829,0.345   c0.762,0.094,1.428-0.162,1.885-0.679c0.404-0.457,0.584-1.064,0.506-1.71l-0.345-2.831c-0.025-0.201,0.14-0.428,0.337-0.467   l2.799-0.546c0.681-0.133,1.238-0.541,1.532-1.119c0.293-0.577,0.293-1.268,0.001-1.892l-1.201-2.585   c-0.085-0.184,0.003-0.452,0.179-0.55l2.49-1.384c0.605-0.335,1.011-0.895,1.112-1.535c0.101-0.64-0.111-1.297-0.583-1.803   l-1.941-2.086c-0.138-0.148-0.139-0.43-0.001-0.577l1.941-2.086c0.472-0.506,0.685-1.163,0.584-1.802   c-0.102-0.64-0.506-1.2-1.111-1.537L91.9,21.526c-0.177-0.098-0.263-0.365-0.178-0.548l1.201-2.582   c0.292-0.628,0.292-1.319-0.002-1.896s-0.852-0.985-1.532-1.118l-2.796-0.545c-0.199-0.039-0.364-0.266-0.339-0.467l0.345-2.83   c0.078-0.647-0.102-1.254-0.506-1.711c-0.457-0.516-1.124-0.77-1.885-0.678l-2.871,0.346c-0.194,0-0.389-0.157-0.426-0.342   l-0.547-2.796c-0.204-1.049-1.027-1.754-2.049-1.754c-0.326,0-0.65,0.074-0.962,0.219l-2.582,1.202   c-0.182,0.084-0.457-0.008-0.551-0.178l-1.384-2.491c-0.396-0.711-1.087-1.136-1.852-1.136c-0.538,0-1.065,0.215-1.487,0.607   l-2.085,1.94c-0.143,0.134-0.44,0.131-0.579,0.001l-2.085-1.94c-0.421-0.392-0.948-0.608-1.487-0.608   c-0.763,0-1.455,0.424-1.853,1.136l-1.383,2.491c-0.093,0.169-0.371,0.262-0.549,0.178l-2.584-1.202   c-0.312-0.146-0.636-0.219-0.962-0.219c-1.021,0-1.845,0.704-2.05,1.753l-0.547,2.798c-0.035,0.182-0.245,0.321-0.467,0.338   L52.04,9.151c-0.752-0.093-1.428,0.161-1.885,0.679c-0.404,0.457-0.583,1.065-0.504,1.711l0.344,2.831   c0.025,0.2-0.14,0.427-0.338,0.465l-2.799,0.546c-0.678,0.133-1.235,0.54-1.529,1.116c-0.294,0.577-0.296,1.268-0.004,1.897   l1.202,2.582c0.085,0.185,0,0.451-0.178,0.549l-2.492,1.385c-0.604,0.336-1.009,0.896-1.11,1.534   c-0.102,0.639,0.11,1.295,0.582,1.804l1.941,2.084c0.139,0.149,0.139,0.431,0.001,0.579L43.326,31   c-0.47,0.507-0.682,1.164-0.58,1.804c0.102,0.639,0.506,1.198,1.11,1.533l2.49,1.383c0.178,0.099,0.266,0.367,0.18,0.55   l-1.202,2.585c-0.292,0.627-0.29,1.317,0.003,1.894c0.294,0.577,0.852,0.984,1.531,1.117l2.798,0.546   c0.198,0.039,0.363,0.265,0.338,0.467l-0.344,2.829c-0.08,0.646,0.099,1.254,0.503,1.711c0.457,0.518,1.119,0.772,1.887,0.679   l2.87-0.347c0.19,0,0.389,0.159,0.425,0.342l0.547,2.799c0.206,1.048,1.029,1.751,2.05,1.751c0.327,0,0.651-0.073,0.961-0.219   l2.585-1.201c0.177-0.085,0.455,0.007,0.549,0.177l1.385,2.495c0.396,0.71,1.089,1.134,1.852,1.133   c0.538,0,1.065-0.215,1.485-0.606l2.083-1.94c0.145-0.134,0.44-0.132,0.581-0.003l2.087,1.945c0.421,0.39,0.948,0.605,1.485,0.604   C73.75,55.028,74.442,54.604,74.837,53.894z M72.959,52.878l-2.098-1.956c-0.468-0.433-1.084-0.672-1.736-0.672   s-1.269,0.238-1.739,0.674l-2.116,1.938l-1.384-2.493c-0.623-1.121-2.133-1.614-3.304-1.072l-2.613,1.188l-0.547-2.797   c-0.248-1.272-1.498-2.202-2.81-2.042l-2.851,0.323l0.343-2.829c0.16-1.3-0.756-2.561-2.041-2.812l-2.812-0.574l1.202-2.585   c0.55-1.184,0.069-2.666-1.074-3.304l-2.497-1.415l1.944-2.087c0.889-0.958,0.889-2.515-0.001-3.474L44.89,24.77l2.489-1.384   c1.145-0.634,1.627-2.115,1.075-3.305l-1.188-2.612l2.799-0.546c1.285-0.252,2.2-1.513,2.041-2.81l-0.321-2.852l2.827,0.344   c1.314,0.163,2.563-0.77,2.811-2.042l0.575-2.812l2.586,1.203c1.171,0.543,2.681,0.046,3.304-1.074L65.3,4.385l2.089,1.943   c0.936,0.865,2.536,0.866,3.474-0.002l2.117-1.937l1.384,2.491c0.623,1.121,2.131,1.62,3.305,1.074l2.611-1.188l0.547,2.799   c0.25,1.271,1.513,2.202,2.811,2.04l2.852-0.321l-0.345,2.829c-0.157,1.298,0.758,2.559,2.042,2.811l2.811,0.576l-1.201,2.584   c-0.551,1.187-0.069,2.669,1.073,3.302l2.496,1.416l-1.943,2.087c-0.89,0.958-0.888,2.517,0.003,3.474l1.936,2.117l-2.493,1.385   c-1.141,0.637-1.621,2.119-1.071,3.302l1.188,2.613l-2.798,0.546c-1.284,0.25-2.199,1.511-2.042,2.811l0.322,2.853l-2.829-0.345   c-1.313-0.165-2.561,0.77-2.811,2.042l-0.575,2.812l-2.583-1.201c-1.171-0.544-2.681-0.049-3.304,1.073L72.959,52.878z"></path><path d="M77.104,28.626c0-4.4-3.579-7.98-7.979-7.98s-7.979,3.58-7.979,7.98c0,4.399,3.579,7.978,7.979,7.978   S77.104,33.025,77.104,28.626z M69.125,34.478c-3.228,0-5.854-2.625-5.854-5.852c0-3.228,2.626-5.854,5.854-5.854   s5.854,2.626,5.854,5.854C74.979,31.853,72.353,34.478,69.125,34.478z"></path><path d="M69.125,24.729c-2.148,0-3.896,1.748-3.896,3.896c0,2.149,1.748,3.897,3.896,3.897s3.896-1.749,3.896-3.897   C73.021,26.476,71.273,24.729,69.125,24.729z M69.125,30.396c-0.976,0-1.771-0.795-1.771-1.771c0-0.976,0.795-1.77,1.771-1.77   s1.771,0.794,1.771,1.77C70.896,29.601,70.101,30.396,69.125,30.396z"></path><path d="M45.728,6.849C45.151,7.3,44.5,7.71,43.966,8.274c-0.583,0.513-1.075,1.129-1.591,1.723   c-0.44,0.653-0.909,1.287-1.254,1.982c-0.405,0.662-0.635,1.396-0.922,2.07c-0.2,0.708-0.435,1.378-0.518,2.047   c-0.054,0.33-0.107,0.651-0.158,0.961c-0.015,0.314-0.03,0.617-0.045,0.908c-0.053,0.576-0.003,1.116,0.036,1.586   c0.018,0.474,0.082,0.87,0.159,1.193c0.141,0.649,0.222,1.02,0.222,1.02s0.021-0.379,0.057-1.042   c-0.001-0.333,0.037-0.735,0.101-1.179c0.052-0.447,0.104-0.943,0.229-1.485c0.055-0.269,0.112-0.549,0.17-0.839   c0.082-0.284,0.167-0.577,0.253-0.878c0.14-0.61,0.443-1.204,0.654-1.845c0.302-0.607,0.576-1.25,0.954-1.851   c0.328-0.629,0.773-1.197,1.184-1.785c0.464-0.547,0.896-1.125,1.42-1.603c0.485-0.518,1.033-0.95,1.543-1.398   c0.565-0.369,1.061-0.814,1.614-1.106c0.269-0.162,0.53-0.319,0.783-0.471c0.265-0.131,0.521-0.259,0.767-0.381   c0.488-0.261,0.961-0.44,1.383-0.607c0.418-0.177,0.791-0.316,1.107-0.4c0.629-0.207,0.99-0.324,0.99-0.324   s-0.377,0.008-1.046,0.048c-0.337,0.009-0.743,0.051-1.199,0.154c-0.461,0.083-0.988,0.172-1.534,0.372   C49.049,5.232,48.76,5.325,48.46,5.42c-0.287,0.129-0.583,0.263-0.887,0.4C46.947,6.072,46.36,6.474,45.728,6.849z"></path><path d="M34.506,18.078c0.141,0.649,0.222,1.02,0.222,1.02s0.021-0.379,0.057-1.042c-0.001-0.333,0.037-0.735,0.101-1.179   c0.052-0.447,0.104-0.943,0.229-1.485c0.055-0.269,0.112-0.549,0.17-0.839c0.082-0.284,0.167-0.577,0.253-0.878   c0.14-0.61,0.443-1.204,0.654-1.845c0.302-0.607,0.576-1.25,0.954-1.851c0.328-0.629,0.773-1.197,1.184-1.785   c0.464-0.547,0.896-1.125,1.42-1.603c0.485-0.518,1.033-0.95,1.543-1.398c0.565-0.369,1.061-0.814,1.614-1.106   c0.269-0.162,0.53-0.319,0.783-0.471c0.265-0.131,0.521-0.259,0.767-0.381c0.488-0.261,0.961-0.44,1.383-0.607   c0.418-0.177,0.791-0.316,1.107-0.4c0.629-0.207,0.99-0.324,0.99-0.324S47.562,1.91,46.893,1.95   c-0.337,0.009-0.743,0.051-1.199,0.154c-0.461,0.083-0.988,0.172-1.534,0.372c-0.278,0.089-0.567,0.182-0.867,0.277   c-0.287,0.129-0.583,0.263-0.887,0.4c-0.626,0.251-1.212,0.653-1.845,1.028c-0.576,0.451-1.228,0.861-1.762,1.425   c-0.583,0.513-1.075,1.129-1.591,1.723c-0.44,0.653-0.909,1.287-1.254,1.982c-0.405,0.662-0.635,1.396-0.922,2.07   c-0.2,0.708-0.435,1.378-0.518,2.047c-0.054,0.33-0.107,0.651-0.158,0.961c-0.015,0.314-0.03,0.617-0.045,0.908   c-0.053,0.576-0.003,1.116,0.036,1.586C34.365,17.358,34.429,17.755,34.506,18.078z"></path><path d="M79.509,59.597c0.675,0,1.368-0.155,2.096-0.268c0.702-0.204,1.46-0.342,2.166-0.667c0.731-0.259,1.417-0.647,2.118-1.007   c0.65-0.442,1.322-0.855,1.901-1.372c0.622-0.464,1.108-1.061,1.626-1.578c0.449-0.583,0.917-1.118,1.242-1.708   c0.174-0.286,0.342-0.563,0.505-0.833c0.131-0.285,0.258-0.562,0.38-0.826c0.264-0.515,0.418-1.034,0.558-1.484   c0.159-0.447,0.248-0.839,0.296-1.167c0.11-0.655,0.174-1.029,0.174-1.029s-0.16,0.344-0.441,0.946   c-0.122,0.31-0.308,0.668-0.532,1.057c-0.216,0.396-0.448,0.837-0.767,1.293c-0.15,0.229-0.308,0.468-0.471,0.715   c-0.181,0.232-0.369,0.474-0.562,0.721c-0.356,0.515-0.859,0.952-1.294,1.469c-0.506,0.452-1,0.945-1.574,1.362   c-0.538,0.463-1.163,0.824-1.763,1.217c-0.634,0.335-1.25,0.711-1.915,0.959c-0.644,0.3-1.313,0.497-1.952,0.724   c-0.662,0.132-1.288,0.36-1.91,0.426c-0.31,0.05-0.61,0.099-0.902,0.146c-0.294,0.023-0.579,0.046-0.853,0.068   c-0.551,0.061-1.057,0.051-1.51,0.049c-0.455,0.009-0.853-0.001-1.177-0.041c-0.662-0.044-1.04-0.068-1.04-0.068   s0.352,0.133,0.988,0.345c0.316,0.117,0.708,0.229,1.17,0.304c0.459,0.095,0.981,0.208,1.563,0.226   c0.291,0.021,0.594,0.043,0.907,0.065C78.851,59.624,79.175,59.61,79.509,59.597z"></path><path d="M95.931,53.002c-0.122,0.31-0.308,0.668-0.532,1.057c-0.215,0.396-0.447,0.837-0.766,1.293   c-0.151,0.229-0.309,0.468-0.471,0.716c-0.182,0.232-0.369,0.473-0.563,0.72c-0.355,0.515-0.859,0.953-1.293,1.47   c-0.507,0.451-1,0.945-1.574,1.362c-0.538,0.463-1.163,0.823-1.764,1.216c-0.634,0.336-1.25,0.711-1.915,0.96   c-0.643,0.3-1.313,0.496-1.952,0.723c-0.661,0.132-1.288,0.36-1.91,0.426c-0.31,0.05-0.61,0.099-0.901,0.146   c-0.295,0.023-0.58,0.046-0.854,0.068c-0.551,0.061-1.057,0.051-1.51,0.049c-0.454,0.009-0.853-0.001-1.177-0.041   c-0.662-0.044-1.04-0.068-1.04-0.068s0.353,0.133,0.988,0.345c0.316,0.117,0.708,0.229,1.17,0.304   c0.459,0.095,0.981,0.208,1.563,0.226c0.291,0.021,0.594,0.043,0.907,0.065c0.314-0.014,0.639-0.027,0.973-0.041   c0.675,0,1.369-0.155,2.096-0.268c0.703-0.204,1.461-0.342,2.166-0.666c0.731-0.26,1.418-0.647,2.118-1.007   c0.651-0.442,1.322-0.856,1.901-1.373c0.623-0.464,1.109-1.06,1.627-1.578c0.448-0.582,0.917-1.117,1.242-1.708   c0.173-0.285,0.342-0.563,0.504-0.832c0.132-0.286,0.259-0.562,0.381-0.827c0.263-0.515,0.418-1.034,0.557-1.484   c0.159-0.446,0.248-0.838,0.297-1.167c0.109-0.655,0.173-1.029,0.173-1.029S96.212,52.399,95.931,53.002z"></path><path d="M62.361,89.941c0.51-0.585,0.917-1.26,1.352-1.917c0.351-0.705,0.732-1.395,0.983-2.129   c0.315-0.709,0.446-1.468,0.643-2.173c0.105-0.728,0.251-1.424,0.245-2.098c0.011-0.334,0.021-0.659,0.03-0.973   c-0.025-0.313-0.05-0.616-0.074-0.907c-0.022-0.577-0.143-1.106-0.242-1.567c-0.08-0.467-0.195-0.852-0.314-1.161   c-0.225-0.625-0.354-0.982-0.354-0.982s0.029,0.379,0.08,1.041c0.045,0.33,0.06,0.733,0.054,1.182   c0.007,0.451,0.021,0.949-0.033,1.503c-0.019,0.273-0.039,0.559-0.059,0.854c-0.044,0.291-0.09,0.593-0.137,0.903   c-0.059,0.623-0.282,1.251-0.406,1.914c-0.22,0.643-0.407,1.314-0.703,1.96c-0.242,0.667-0.609,1.288-0.939,1.925   c-0.388,0.604-0.741,1.232-1.198,1.775c-0.413,0.577-0.899,1.077-1.347,1.588c-0.512,0.439-0.945,0.945-1.455,1.309   c-0.245,0.195-0.483,0.385-0.715,0.569c-0.245,0.165-0.482,0.324-0.71,0.478c-0.45,0.322-0.896,0.563-1.291,0.783   c-0.392,0.23-0.743,0.417-1.046,0.541c-0.598,0.287-0.939,0.451-0.939,0.451s0.372-0.057,1.03-0.184   c0.333-0.054,0.729-0.148,1.169-0.311c0.446-0.143,0.957-0.3,1.472-0.569c0.264-0.124,0.538-0.254,0.822-0.388   c0.268-0.166,0.544-0.338,0.828-0.514c0.587-0.331,1.116-0.806,1.694-1.261C61.313,91.062,61.906,90.57,62.361,89.941z"></path><path d="M70.197,80.825c-0.072-0.422-0.176-0.771-0.283-1.051c-0.203-0.565-0.319-0.889-0.319-0.889s0.026,0.343,0.071,0.941   c0.041,0.299,0.055,0.663,0.049,1.069c0.006,0.408,0.02,0.858-0.029,1.359c-0.018,0.248-0.035,0.506-0.053,0.773   c-0.04,0.264-0.081,0.536-0.123,0.817c-0.053,0.563-0.253,1.133-0.365,1.732c-0.198,0.581-0.366,1.19-0.633,1.774   c-0.219,0.604-0.548,1.167-0.847,1.743c-0.349,0.547-0.666,1.117-1.078,1.609c-0.373,0.522-0.811,0.978-1.215,1.439   c-0.461,0.399-0.852,0.858-1.313,1.188c-0.222,0.178-0.437,0.35-0.646,0.517c-0.221,0.149-0.436,0.295-0.641,0.434   c-0.406,0.293-0.809,0.512-1.167,0.711c-0.354,0.209-0.671,0.379-0.944,0.491c-0.541,0.261-0.85,0.409-0.85,0.409   s0.339-0.061,0.932-0.168c0.302-0.048,0.659-0.136,1.057-0.282c0.404-0.129,0.865-0.273,1.33-0.519   c0.238-0.113,0.486-0.23,0.743-0.353c0.242-0.151,0.491-0.307,0.748-0.467c0.53-0.3,1.008-0.731,1.529-1.145   c0.463-0.474,0.996-0.921,1.407-1.49c0.46-0.53,0.827-1.143,1.217-1.737c0.317-0.639,0.659-1.264,0.886-1.928   c0.284-0.643,0.4-1.328,0.577-1.967c0.096-0.658,0.225-1.287,0.219-1.896c0.01-0.303,0.02-0.597,0.028-0.881   c-0.023-0.283-0.046-0.557-0.068-0.819C70.396,81.721,70.287,81.242,70.197,80.825z"></path><path d="M20.096,36.568c-0.674-0.012-1.371,0.13-2.1,0.23c-0.707,0.192-1.466,0.316-2.177,0.629   c-0.736,0.246-1.429,0.623-2.136,0.97c-0.659,0.431-1.337,0.833-1.925,1.339c-0.63,0.453-1.127,1.041-1.653,1.549   c-0.459,0.575-0.937,1.102-1.272,1.686c-0.178,0.283-0.352,0.558-0.519,0.824c-0.136,0.283-0.268,0.557-0.394,0.819   c-0.272,0.51-0.437,1.027-0.583,1.475c-0.167,0.443-0.262,0.833-0.316,1.161c-0.122,0.653-0.191,1.026-0.191,1.026   s0.167-0.341,0.458-0.938c0.128-0.308,0.319-0.663,0.551-1.047c0.222-0.392,0.462-0.829,0.789-1.279   c0.155-0.227,0.316-0.463,0.483-0.707c0.186-0.229,0.377-0.467,0.575-0.71c0.365-0.508,0.876-0.938,1.319-1.446   c0.514-0.443,1.016-0.928,1.598-1.335c0.546-0.453,1.177-0.803,1.784-1.186c0.64-0.324,1.263-0.688,1.932-0.926   c0.648-0.289,1.321-0.474,1.964-0.689c0.664-0.12,1.294-0.338,1.917-0.393c0.311-0.045,0.613-0.088,0.905-0.13   c0.295-0.019,0.581-0.037,0.854-0.054c0.551-0.051,1.057-0.032,1.51-0.022c0.455-0.001,0.852,0.016,1.176,0.062   c0.661,0.055,1.039,0.086,1.039,0.086s-0.35-0.139-0.982-0.362c-0.314-0.123-0.704-0.241-1.165-0.323   c-0.458-0.103-0.978-0.225-1.558-0.253c-0.291-0.026-0.593-0.053-0.906-0.081C20.755,36.552,20.43,36.56,20.096,36.568z"></path><path d="M4.112,41.828c0.222-0.392,0.462-0.829,0.789-1.279c0.155-0.227,0.316-0.462,0.483-0.707   c0.186-0.229,0.377-0.467,0.575-0.71c0.365-0.508,0.876-0.937,1.319-1.446c0.514-0.442,1.017-0.928,1.598-1.335   c0.546-0.453,1.177-0.803,1.784-1.185c0.64-0.324,1.263-0.689,1.932-0.926c0.648-0.289,1.321-0.474,1.964-0.689   c0.664-0.12,1.294-0.338,1.917-0.393c0.31-0.044,0.612-0.087,0.904-0.129c0.295-0.019,0.581-0.037,0.854-0.054   c0.551-0.051,1.057-0.032,1.51-0.022c0.455-0.001,0.852,0.016,1.176,0.062c0.661,0.055,1.039,0.086,1.039,0.086   s-0.35-0.139-0.982-0.362c-0.314-0.123-0.704-0.241-1.165-0.323c-0.458-0.103-0.978-0.225-1.558-0.253   c-0.291-0.026-0.593-0.053-0.906-0.081c-0.314,0.008-0.64,0.016-0.974,0.025c-0.674-0.012-1.371,0.13-2.1,0.23   c-0.706,0.192-1.466,0.316-2.177,0.629c-0.736,0.246-1.429,0.623-2.136,0.97c-0.659,0.431-1.337,0.833-1.925,1.339   c-0.63,0.453-1.127,1.041-1.653,1.55c-0.459,0.574-0.937,1.101-1.272,1.686c-0.178,0.283-0.351,0.558-0.519,0.824   c-0.136,0.283-0.268,0.557-0.394,0.819c-0.272,0.51-0.437,1.027-0.583,1.475c-0.167,0.444-0.262,0.833-0.316,1.161   c-0.122,0.653-0.191,1.026-0.191,1.026s0.167-0.341,0.458-0.938C3.689,42.568,3.88,42.213,4.112,41.828z"></path></g></svg>