<svg xmlns="http://www.w3.org/2000/svg" xmlns:xlink="http://www.w3.org/1999/xlink" version="1.1" x="0px" y="0px" viewBox="0 0 100 100" enable-background="new 0 0 100 100" xml:space="preserve"><g><g><path d="M48.395,22.551c-12.196,0.782-21.993,10.567-22.79,22.762c-0.423,6.484,1.676,12.747,5.908,17.633    c0.588,0.68,1.779,2.593,3.143,7.775c0.697,2.648,2.212,4.906,4.22,6.548v5.898c0,3.332,2.175,6.154,5.182,7.131    C44.303,92.559,45.409,95,46.738,95h6.963c1.329,0,2.435-2.441,2.681-4.703c3.007-0.977,5.182-3.798,5.182-7.131v-6.351    c1.767-1.617,3.087-3.747,3.718-6.203c1.273-4.959,2.439-6.801,3.021-7.457c3.962-4.471,6.145-10.227,6.145-16.207    C74.448,32.936,62.607,21.643,48.395,22.551z M64.562,59.839c-1.587,1.791-2.936,4.908-4.122,9.529    c-0.869,3.38-3.882,5.741-7.326,5.741h-6.318c-3.423,0-6.426-2.328-7.304-5.661c-1.254-4.764-2.627-7.961-4.199-9.776    c-3.366-3.886-5.034-8.87-4.697-14.033c0.633-9.696,8.423-17.477,18.119-18.098c0.432-0.027,0.859-0.041,1.284-0.041    c10.725,0,19.45,8.725,19.45,19.448C69.448,51.705,67.713,56.283,64.562,59.839z"></path><path d="M81.466,38.914c0.194,0,0.386-0.031,0.565-0.092l6.622-2.149c0.471-0.154,0.854-0.48,1.078-0.919    c0.227-0.442,0.266-0.947,0.11-1.421c-0.253-0.761-0.961-1.272-1.762-1.272c-0.183,0-0.355,0.025-0.572,0.087l-6.616,2.158    c-0.479,0.154-0.862,0.478-1.076,0.908c-0.23,0.44-0.272,0.947-0.119,1.426C79.938,38.39,80.665,38.914,81.466,38.914z"></path><path d="M88.512,57.848l-6.654-2.161c-0.129-0.035-0.326-0.076-0.537-0.076c-0.803,0-1.528,0.526-1.764,1.277    c-0.315,0.966,0.214,2.013,1.182,2.336l6.625,2.148c0.183,0.061,0.373,0.091,0.564,0.091c0.802,0,1.531-0.525,1.774-1.276    c0.156-0.469,0.116-0.972-0.111-1.413C89.37,58.334,88.977,57.996,88.512,57.848z"></path><path d="M74.774,13.347c-0.3-0.222-0.67-0.339-1.069-0.339c-0.619,0-1.203,0.29-1.521,0.751l-4.103,5.635    c-0.595,0.829-0.409,1.987,0.411,2.578c0.308,0.229,0.682,0.351,1.081,0.351c0.607,0,1.174-0.281,1.514-0.753l4.088-5.637    c0.292-0.397,0.411-0.886,0.335-1.375S75.172,13.639,74.774,13.347z"></path><path d="M50.23,15.89c1.02,0,1.85-0.83,1.85-1.85V7.08c0-1.025-0.83-1.86-1.85-1.86c-1.021,0-1.851,0.835-1.851,1.86v6.96    C48.38,15.06,49.21,15.89,50.23,15.89z"></path><path d="M30.805,22.048c0.396,0,0.769-0.118,1.079-0.344c0.398-0.291,0.659-0.721,0.736-1.209    c0.076-0.491-0.042-0.979-0.334-1.375l-4.097-5.651c-0.336-0.446-0.926-0.724-1.54-0.724c-0.398,0-0.769,0.117-1.033,0.323    c-0.408,0.289-0.68,0.73-0.744,1.202c-0.085,0.485,0.028,0.978,0.321,1.391l4.099,5.638    C29.631,21.768,30.196,22.048,30.805,22.048z"></path><path d="M19.263,34.867l-6.668-2.172c-1.003-0.27-1.983,0.256-2.3,1.206c-0.151,0.477-0.11,0.987,0.108,1.393    c0.217,0.45,0.603,0.784,1.085,0.938l6.615,2.149c0.183,0.061,0.373,0.091,0.565,0.091c0.799,0,1.529-0.522,1.774-1.271    c0.155-0.474,0.114-0.98-0.114-1.427C20.103,35.336,19.724,35.014,19.263,34.867z"></path><path d="M18.54,55.17c-0.179,0-0.352,0.025-0.571,0.087l-6.617,2.148c-0.468,0.151-0.861,0.487-1.076,0.918    c-0.233,0.446-0.275,0.949-0.12,1.412c0.238,0.759,0.967,1.288,1.771,1.288c0.196,0,0.388-0.03,0.565-0.091l6.622-2.15    c0.471-0.154,0.854-0.481,1.078-0.919c0.227-0.442,0.267-0.945,0.111-1.414C20.055,55.684,19.347,55.17,18.54,55.17z"></path><path d="M49.535,30.872c-1.104,0-2,0.896-2,2s0.896,2,2,2c6.408,0,11.621,5.213,11.621,11.621c0,1.104,0.896,2,2,2s2-0.896,2-2    C65.156,37.88,58.148,30.872,49.535,30.872z"></path></g></g></svg>