<svg xmlns="http://www.w3.org/2000/svg" xmlns:xlink="http://www.w3.org/1999/xlink" version="1.1" x="0px" y="0px" viewBox="0 0 100 100" enable-background="new 0 0 100 100" xml:space="preserve"><path d="M86.583,58.538c0.017-0.174,0.006-0.351-0.069-0.523c-0.182-0.419-18.255-42.075-20.481-47.27  c-2.957-6.905-7.303-5.973-9.029-5.25c-3.046,1.272-7.137,3.021-11.55,4.918c-1.961-1.383-3.717-1.84-4.84-2.128  c-0.444-0.114-0.904-0.232-0.994-0.34c-0.067-0.079-0.196-0.413-0.31-0.708c-0.326-0.841-0.731-1.888-1.37-2.147  c-0.31-0.125-0.735,0.126-1.26,0.751c-0.053,0.064-1.305,1.564-0.899,2.218c0.433,0.697,1.475,0.849,2.393,0.983  c0.383,0.056,0.744,0.109,1.002,0.194c0.082,0.027,0.213,0.062,0.387,0.106c0.801,0.207,2.48,0.655,4.328,1.743  c-2.085,0.898-4.221,1.819-6.336,2.731c-7.023,3.029-13.657,5.89-17.207,7.36c-7.008,2.899-6.955,8.896-6.949,9.126V58.7  c0,4.355,2.033,5.908,4.042,6.864l3.379,1.517v0.003l0.142,0.06l0.489,0.219c0.019,0.008,0.038,0.005,0.057,0.012L86.604,95v-4.883  V62.883v-4.336L86.583,58.538z M84.467,72.424l-0.025-0.029l-2.065,1.422l2.09-2.013V72.424z M84.467,75.428v1.237l-2.938,1.838  L84.467,75.428z M79.935,71.96l4.532-4.355v1.135L79.935,71.96z M84.467,64.264v0.382l-4.876,3.49l4.457-4.06  C84.201,64.145,84.345,64.21,84.467,64.264z M80.32,64.069l1.231-1.098c0.057,0.025,0.113,0.05,0.169,0.074L80.32,64.069z   M79.152,61.92l-7.36,5.002l6.189-5.511C78.387,61.587,78.776,61.756,79.152,61.92z M69.723,64.407l4.992-4.404  c0.294,0.126,0.582,0.25,0.867,0.372L69.723,64.407z M67.505,62.51l4.214-3.783c0.233,0.099,0.462,0.196,0.692,0.293L67.505,62.51z   M64.581,60.928l4.07-3.49c0.214,0.089,0.426,0.178,0.637,0.267L64.581,60.928z M59.162,61.161l5.985-5.175  c0.355,0.146,0.709,0.292,1.059,0.436L59.162,61.161z M57.344,58.508l4.592-3.832c0.246,0.099,0.491,0.199,0.735,0.298  L57.344,58.508z M53.548,57.641l5.107-4.279c0.289,0.115,0.576,0.229,0.864,0.344L53.548,57.641z M49.319,56.601l5.773-4.637  c0.334,0.13,0.669,0.259,1.003,0.39L49.319,56.601z M46.066,54.831l5.543-4.244c0.301,0.127,0.594,0.246,0.886,0.364L46.066,54.831z   M41.886,53.66l6.24-4.626c0.328,0.153,0.655,0.305,0.977,0.452L41.886,53.66z M41.362,50.261l3.713-2.681  c0.198,0.096,0.397,0.194,0.594,0.29L41.362,50.261z M37.878,48.817l3.869-2.875c0.285,0.141,0.569,0.282,0.854,0.423L37.878,48.817  z M33.938,47.215l3.918-3.2c0.455,0.223,0.903,0.445,1.346,0.664L33.938,47.215z M26.964,62.061  c0.035-0.451,0.095-0.957,0.161-1.451l7.161-3.975L26.964,62.061z M30,47.672l-2.852,2.329c-0.024-0.305-0.04-0.613-0.059-0.92  L30,47.672z M26.975,45.925c-0.003-0.408-0.005-0.814,0-1.216l2.079-0.86L26.975,45.925z M27.557,53.825  c-0.017-0.162-0.015-0.33-0.038-0.49c-0.03-0.2-0.052-0.413-0.08-0.617l4.571-2.202L27.557,53.825z M27.598,56.562l4.94-2.565  l-5.041,3.64C27.534,57.279,27.574,56.922,27.598,56.562z M31.216,44.711l2.625-2.621c0.464,0.215,0.938,0.439,1.415,0.666  L31.216,44.711z M29.728,41.257l0.615-0.695c0.174,0.069,0.354,0.143,0.537,0.219L29.728,41.257z M27.171,40.924  c0.04-0.424,0.083-0.845,0.136-1.239c0.008,0,0.017,0,0.025,0c0.21,0,0.491,0.048,0.82,0.13L27.171,40.924z M37.695,58.552  l-7.816,5.985c-0.569-0.201-1.101-0.394-1.552-0.569L37.695,58.552z M41.779,59.916l-7.591,6.097  c-0.547-0.187-1.085-0.371-1.604-0.546L41.779,59.916z M45.888,61.273l-7.478,6.267c-0.517-0.201-1.042-0.4-1.572-0.594  L45.888,61.273z M46.095,65.112L41.556,68.9c-0.23-0.112-0.455-0.225-0.699-0.336L46.095,65.112z M51.56,64.911l-6.643,5.743  c-0.443-0.199-0.836-0.387-1.167-0.562L51.56,64.911z M53.879,67.29l-5.547,4.757c-0.332-0.127-0.653-0.252-0.967-0.375  L53.879,67.29z M58.697,67.545l-6.572,5.901c-0.45-0.162-0.896-0.324-1.338-0.485L58.697,67.545z M58.029,71.874l-2.968,2.619  c-0.158-0.056-0.317-0.112-0.476-0.169L58.029,71.874z M64.292,70.738l-5.648,5.028c-0.361-0.129-0.722-0.258-1.092-0.39  L64.292,70.738z M68.508,71.736l-6.075,5.416l0.002,0.003c-0.394-0.149-0.807-0.303-1.228-0.459L68.508,71.736z M68.458,75.387  l-3.192,2.908c-0.163-0.071-0.317-0.14-0.493-0.214L68.458,75.387z M73.728,74.959l-5.153,4.951  c-0.38-0.182-0.736-0.356-1.048-0.513L73.728,74.959z M74.492,78.446l-2.949,2.843c-0.22-0.1-0.428-0.195-0.64-0.292L74.492,78.446z   M77.094,80.052l-2.486,2.603c-0.264-0.116-0.526-0.232-0.787-0.348L77.094,80.052z M79.076,82.56l-1.367,1.451  c-0.187-0.081-0.374-0.162-0.562-0.244L79.076,82.56z M81.584,84.565l-0.582,0.864c-0.19-0.081-0.375-0.161-0.572-0.245  L81.584,84.565z M84.467,80.752l-0.097-0.107l-1.125,0.603l1.222-1.297V80.752z M84.467,85.892v1.01  c-0.288-0.122-0.622-0.263-0.976-0.413L84.467,85.892z M83.923,57.409L23.498,31.769L50.45,19.993  c0.106,0.332,0.207,0.676,0.305,1.025c-2.773,0.16-4.967,1.145-6.356,2.879c-1.497,1.871-2.023,4.594-1.442,7.471  c0.475,2.354,1.957,4.353,4.172,5.628c1.556,0.895,3.344,1.356,5.188,1.356c0.742,0,1.493-0.075,2.241-0.225  c2.609-0.527,4.886-1.92,6.41-3.922c1.548-2.034,2.139-4.45,1.664-6.805c-0.577-2.859-2.105-5.154-4.193-6.297  c-1.813-0.993-4.029-1.124-6.454-0.4c-0.104-0.394-0.221-0.804-0.353-1.225l13.327-5.823C68.734,22.396,81.008,50.691,83.923,57.409  z M39.344,8.73c-0.302-0.1-0.686-0.156-1.092-0.215c-0.802-0.117-1.71-0.25-2.015-0.733c-0.025-0.075,0.041-0.409,0.402-0.981  c0.487-0.77,0.997-1.195,1.101-1.214c0.425,0.172,0.83,1.218,1.073,1.844c0.176,0.455,0.282,0.72,0.401,0.86  c0.201,0.238,0.603,0.341,1.269,0.512c1.663,0.426,4.756,1.22,7.807,5.065c2.392,3.016,3.573,8.043,3.744,9.874  c0.005,0.057-0.008,0.078-0.034,0.08c-0.021-0.013-0.035-0.037-0.043-0.071l-0.034-0.172c-0.95-4.798-2.551-8.372-4.756-10.621  c-2.888-2.946-6.216-3.807-7.469-4.132C39.538,8.785,39.418,8.755,39.344,8.73z M51.397,23.683l0.034,0.173  c0.067,0.331,0.341,0.507,0.595,0.507c0.026,0,0.052-0.002,0.078-0.006c0.248-0.037,0.499-0.261,0.46-0.666  c-0.035-0.374-0.107-0.862-0.218-1.428c0.912-0.284,1.773-0.431,2.574-0.431c1.009,0,1.928,0.225,2.749,0.675  c1.672,0.916,2.909,2.814,3.392,5.209c0.383,1.896-0.103,3.856-1.368,5.517c-1.288,1.693-3.225,2.873-5.452,3.322  c-2.227,0.449-4.47,0.112-6.313-0.948c-1.81-1.041-3.018-2.659-3.4-4.556c-0.487-2.411-0.078-4.653,1.122-6.152  c1.161-1.45,3.015-2.221,5.506-2.3C51.238,22.957,51.323,23.31,51.397,23.683z M57.827,7.467c3.134-1.308,5.129,1.516,6.243,4.12  c0.012,0.029,0.032,0.074,0.045,0.104l-13.206,5.77c-0.573-1.401-1.301-2.788-2.202-3.924c-0.475-0.599-0.951-1.119-1.422-1.584  C51.311,10.222,55.018,8.64,57.827,7.467z M18.336,63.625c-1.73-0.822-2.802-1.933-2.802-4.924l-0.001-28.421  c-0.001-0.047-0.041-4.783,5.63-7.128c3.565-1.475,10.206-4.339,17.237-7.372c2.518-1.086,5.065-2.184,7.52-3.241  c0.29,0.249,0.579,0.504,0.863,0.792c1.149,1.172,2.123,2.736,2.929,4.653L20.814,30.609l0.011,0.025l-0.007-0.003v34.107  L18.336,63.625z M22.954,65.669v-31.81l61.513,26.102v1.963c-4.344-1.932-17.427-7.68-30.333-12.62  c-3.564-1.364-8.099-3.617-12.485-5.796c-9.633-4.786-13.732-6.638-15.529-5.701c-0.489,0.257-0.803,0.703-0.884,1.256  c-0.593,4.067-0.525,9.93,0.168,14.587c0.27,1.813-0.031,3.999-0.297,5.928c-0.327,2.368-0.563,4.079,0.204,5.067  c0.593,0.764,2.177,1.35,6.555,2.834c3.495,1.183,7.844,2.656,10.24,4.138c2.101,1.299,7.59,3.243,12.898,5.122  c4.399,1.558,8.946,3.169,10.752,4.146c3.604,1.952,15.725,7.081,18.71,8.337v2.55L22.954,65.669z"></path><path d="M51.435,25.695c0.257,0,0.539-0.03,0.849-0.1c2.008-0.452,2.151-1.808,2.155-1.865c0.02-0.218-0.139-0.406-0.356-0.429  c-0.212-0.023-0.413,0.134-0.441,0.351c-0.004,0.034-0.125,0.845-1.534,1.162c-1.43,0.323-2.008-0.44-2.039-0.482  c-0.126-0.179-0.372-0.225-0.555-0.101c-0.183,0.125-0.229,0.375-0.104,0.557C49.441,24.832,50.051,25.695,51.435,25.695z"></path></svg>