<svg xmlns="http://www.w3.org/2000/svg" viewBox="0 0 1000 1000" version="1.1" x="0px" y="0px"><path fill="#000000" opacity="1.00" d=" M 627.45 13.59 C 636.04 11.17 645.71 17.96 646.01 26.93 C 647.04 35.38 639.45 43.53 630.95 43.05 C 622.99 43.31 615.81 35.98 616.21 28.04 C 615.97 21.37 621.03 15.12 627.45 13.59 Z"></path><path fill="#000000" opacity="1.00" d=" M 606.77 61.73 C 613.71 56.05 625.28 58.63 629.19 66.70 C 632.94 73.85 628.99 81.74 627.34 88.90 C 630.22 90.09 633.15 91.51 635.13 94.03 C 640.24 99.86 639.58 109.70 633.66 114.73 C 629.81 118.60 623.98 118.36 619.26 120.43 C 616.57 126.96 615.67 134.06 613.48 140.75 C 621.06 138.52 628.75 136.70 636.33 134.50 C 641.62 132.96 647.70 134.56 651.37 138.71 C 658.82 146.09 655.13 160.32 645.01 163.13 C 639.13 165.13 632.99 166.19 627.08 168.06 C 619.57 169.78 612.30 172.48 604.68 173.72 C 603.60 177.90 602.37 182.04 601.25 186.20 C 610.15 183.69 619.07 181.21 628.06 179.03 C 633.30 177.54 639.36 178.86 643.11 182.94 C 648.78 188.43 648.71 198.53 642.97 203.95 C 639.30 207.92 633.63 208.35 628.72 209.70 C 616.61 213.04 604.47 216.28 592.33 219.50 C 590.76 226.31 588.58 232.97 586.93 239.76 C 598.94 236.54 610.98 233.41 622.96 230.07 C 629.66 227.93 638.12 226.13 644.00 231.15 C 650.09 235.77 651.13 245.46 646.26 251.32 C 642.41 256.27 635.89 257.44 630.23 259.16 C 612.83 263.86 595.40 268.47 578.00 273.19 C 576.02 280.28 574.37 287.46 572.23 294.52 C 586.00 291.03 599.65 287.09 613.42 283.60 C 619.62 281.96 626.28 278.90 632.68 281.43 C 639.47 284.05 643.53 291.88 641.68 298.95 C 640.46 304.13 636.22 308.54 631.03 309.80 C 614.36 314.27 597.72 318.84 581.00 323.14 C 575.39 324.71 569.73 326.81 563.80 326.19 C 563.41 327.58 563.01 328.96 562.63 330.35 C 594.14 361.83 625.53 393.43 657.09 424.86 C 660.40 427.75 663.25 431.16 665.14 435.15 C 666.70 431.69 665.64 427.62 667.29 424.12 C 675.60 394.02 683.44 363.78 691.61 333.64 C 693.62 326.45 701.58 321.84 708.84 323.44 C 715.57 324.66 721.02 331.10 720.79 337.99 C 720.65 342.93 718.84 347.61 717.55 352.32 C 711.08 376.85 704.49 401.35 697.89 425.84 C 706.50 423.37 715.20 421.19 723.85 418.86 C 719.99 415.01 718.51 409.22 719.97 403.98 C 725.78 382.75 731.41 361.47 737.12 340.22 C 738.26 335.28 739.20 329.73 743.47 326.42 C 750.24 320.31 762.21 322.54 766.30 330.71 C 769.86 336.76 767.01 343.73 765.54 349.94 C 759.81 370.62 754.65 391.45 748.78 412.09 C 753.80 410.99 758.73 409.55 763.65 408.04 C 763.67 400.83 766.77 394.19 768.25 387.24 C 772.46 371.98 776.48 356.66 780.55 341.36 C 782.28 336.13 782.57 329.88 787.20 326.17 C 793.64 320.06 805.22 321.70 809.77 329.32 C 814.11 335.63 811.15 343.42 809.21 350.02 C 804.93 366.50 800.34 382.90 796.13 399.39 C 804.92 397.44 813.45 394.56 822.25 392.64 C 820.78 389.33 819.88 385.64 820.78 382.05 C 824.30 369.37 827.35 356.56 831.11 343.94 C 833.57 336.41 842.61 332.27 850.00 334.94 C 856.92 337.20 861.38 344.87 859.80 352.01 C 856.95 362.99 853.81 373.91 851.05 384.92 C 857.23 382.79 863.71 381.75 869.90 379.63 C 871.30 377.27 872.97 375.08 874.85 373.07 C 871.44 365.76 875.37 358.19 876.98 350.99 C 878.15 345.21 883.04 340.36 888.88 339.40 C 896.96 337.66 905.57 343.84 906.44 352.06 C 907.00 358.55 904.00 364.61 902.63 370.83 C 907.74 369.58 912.85 368.33 917.88 366.74 C 923.04 365.12 929.12 365.91 933.13 369.73 C 937.93 373.84 939.36 381.10 936.89 386.85 C 935.23 390.61 931.98 393.72 928.03 394.98 C 922.94 396.64 917.77 398.04 912.53 399.16 C 911.86 406.56 905.63 413.31 897.97 413.30 C 892.67 413.78 888.03 410.70 884.70 406.88 C 877.81 408.35 871.14 410.69 864.26 412.18 C 868.66 416.27 872.55 420.88 877.00 424.92 C 880.53 428.16 881.85 433.23 881.14 437.88 C 880.06 445.36 872.55 451.21 865.01 450.25 C 858.42 449.95 854.07 444.39 849.82 440.07 C 843.72 433.67 837.21 427.67 831.10 421.29 C 826.93 422.26 822.80 423.34 818.64 424.32 C 824.02 429.59 829.31 434.96 834.66 440.27 C 837.82 443.29 839.44 447.74 839.01 452.10 C 838.69 459.67 831.57 466.18 823.99 465.79 C 820.04 465.91 816.18 464.19 813.46 461.35 C 804.14 452.01 794.84 442.65 785.46 433.37 C 778.76 435.34 771.89 436.68 765.24 438.82 C 772.85 446.51 780.50 454.18 788.25 461.74 C 792.57 466.16 797.64 471.31 797.04 478.04 C 797.08 486.91 787.32 494.10 778.87 491.40 C 772.19 489.39 767.99 483.49 763.10 478.94 C 752.69 468.57 742.28 458.18 731.92 447.75 C 724.62 449.43 717.49 451.73 710.18 453.40 C 719.09 461.99 727.67 470.89 736.51 479.54 C 740.58 484.44 747.34 487.92 747.93 494.94 C 749.44 503.28 742.52 511.88 734.04 512.03 C 729.15 512.53 724.60 510.08 721.32 506.65 C 706.59 491.93 691.85 477.22 677.12 462.50 C 674.37 463.22 671.51 463.62 668.89 464.73 C 658.23 504.46 647.60 544.21 636.94 583.94 C 635.60 589.62 634.24 595.46 630.75 600.27 C 633.79 600.17 636.08 597.70 639.05 597.19 C 669.79 588.87 700.59 580.78 731.31 572.42 C 736.62 571.06 742.66 572.49 746.34 576.69 C 751.91 582.32 751.58 592.49 745.66 597.76 C 742.56 601.03 737.90 601.54 733.82 602.81 C 707.53 609.67 681.39 617.06 655.06 623.75 C 661.49 630.28 668.19 636.57 674.37 643.33 C 675.82 637.75 680.32 633.23 685.94 631.88 C 708.83 625.68 731.78 619.66 754.70 613.55 C 761.85 611.26 770.19 615.08 772.96 622.08 C 776.35 629.74 772.01 639.63 763.93 642.04 C 740.13 648.51 716.21 654.58 692.48 661.29 C 696.00 664.91 699.54 668.53 703.28 671.93 C 709.97 667.96 718.02 667.73 725.23 665.10 C 742.59 660.59 759.82 655.66 777.21 651.29 C 782.36 649.84 788.31 650.99 792.09 654.92 C 798.02 660.37 798.06 670.76 792.16 676.25 C 788.48 680.20 782.83 680.60 777.93 681.96 C 760.95 686.59 743.94 691.07 726.96 695.70 C 733.27 702.28 739.91 708.52 746.21 715.12 C 748.62 711.76 751.88 708.89 756.02 707.98 C 767.59 704.79 779.25 701.93 790.78 698.57 C 795.99 697.07 802.03 698.19 805.86 702.19 C 810.20 706.20 811.40 712.88 809.35 718.34 C 807.61 722.71 803.77 726.25 799.16 727.34 C 788.51 730.35 777.82 733.19 767.11 735.95 C 771.75 740.52 776.52 744.95 780.91 749.77 C 783.79 749.64 786.67 749.84 789.49 750.50 C 791.84 747.78 794.62 745.18 798.27 744.43 C 802.92 743.44 807.46 742.00 812.08 740.88 C 820.53 739.18 829.28 746.37 829.29 754.97 C 829.78 761.29 825.58 767.51 819.64 769.64 C 814.89 771.38 809.92 772.40 805.01 773.55 C 810.32 779.73 816.69 784.88 822.07 790.99 C 825.57 794.93 826.42 800.79 824.73 805.72 C 822.31 812.78 814.24 817.10 807.01 815.16 C 802.23 814.29 799.29 810.19 795.98 807.06 C 792.42 803.59 788.95 800.03 785.40 796.56 C 782.67 797.44 779.81 798.08 776.94 797.71 C 770.12 797.00 764.25 790.91 763.98 784.03 C 763.78 781.27 764.48 778.58 765.11 775.93 C 759.91 771.33 755.36 766.08 750.37 761.28 C 748.73 767.07 747.27 772.91 745.69 778.71 C 743.75 785.72 736.18 790.47 729.01 789.15 C 720.72 788.13 714.66 779.17 716.82 771.08 C 719.66 759.67 722.86 748.34 725.85 736.97 C 722.91 734.13 720.10 731.17 717.32 728.19 C 714.63 735.58 713.24 743.38 710.80 750.85 C 708.74 756.42 702.98 760.44 697.02 760.30 C 689.62 760.67 682.70 754.52 682.02 747.18 C 681.57 743.01 683.08 739.03 684.17 735.08 C 687.20 724.74 689.46 714.19 692.64 703.90 C 687.95 698.63 682.82 693.78 677.74 688.89 C 675.47 697.85 672.92 706.74 670.64 715.70 C 668.55 721.89 667.94 729.15 662.87 733.83 C 657.09 739.46 646.60 738.63 641.79 732.13 C 637.47 727.13 638.52 719.97 639.93 714.06 C 644.64 697.66 648.69 681.08 653.38 664.68 C 648.49 658.91 642.58 654.10 637.62 648.39 C 633.83 663.56 629.56 678.60 625.58 693.72 C 623.89 700.91 616.26 705.92 608.97 704.68 C 601.89 703.86 595.97 697.18 596.21 690.02 C 596.32 684.84 598.40 680.00 599.66 675.04 C 603.93 658.07 608.89 641.28 613.09 624.30 C 611.13 622.16 609.16 620.03 607.08 618.01 C 581.13 625.34 554.96 631.90 528.97 639.10 C 511.33 643.63 493.82 648.66 476.16 653.15 C 475.96 653.93 475.56 655.47 475.37 656.25 C 489.34 670.42 503.49 684.41 517.59 698.47 C 526.67 708.07 536.36 717.06 545.60 726.50 C 551.07 732.00 550.84 741.90 545.20 747.21 C 540.05 752.67 530.53 753.08 524.97 748.02 C 505.25 728.80 486.09 709.02 466.43 689.74 C 464.35 696.89 462.73 704.16 460.52 711.28 C 465.20 711.67 469.33 714.13 472.33 717.68 C 488.58 734.09 504.88 750.43 521.25 766.72 C 527.41 772.26 527.77 782.91 521.60 788.58 C 516.61 793.70 507.74 794.28 502.14 789.84 C 485.58 773.52 469.32 756.88 452.71 740.60 C 451.65 745.27 450.17 749.83 449.00 754.48 C 459.76 764.51 469.64 775.44 480.34 785.55 C 487.01 792.61 494.07 799.29 500.83 806.26 C 506.15 811.86 505.73 821.72 500.01 826.90 C 495.76 831.26 488.72 832.23 483.27 829.71 C 480.63 828.51 478.68 826.31 476.67 824.32 C 464.52 812.08 452.29 799.91 440.11 787.70 C 438.25 795.52 435.80 803.19 434.01 811.02 C 438.00 812.72 440.91 815.97 443.87 819.01 C 451.59 826.29 458.79 834.09 466.37 841.51 C 472.03 846.93 471.93 856.93 466.32 862.35 C 461.16 867.94 451.45 868.39 445.87 863.19 C 438.88 856.46 432.25 849.37 425.29 842.61 C 423.73 850.32 420.81 857.69 419.66 865.48 C 427.81 865.89 432.42 873.17 437.72 878.30 C 441.00 881.28 443.12 885.59 442.79 890.09 C 442.89 898.22 435.12 905.31 427.03 904.54 C 420.12 904.57 415.72 898.66 411.56 894.03 C 409.70 901.87 407.44 909.61 405.45 917.42 C 403.57 924.44 396.03 929.17 388.88 927.92 C 380.99 927.00 374.89 918.83 376.36 910.98 C 377.93 902.86 380.67 895.03 382.48 886.97 C 379.53 885.69 376.60 884.07 374.68 881.41 C 370.08 875.61 370.84 866.35 376.41 861.43 C 380.23 857.59 385.94 857.44 390.83 855.91 C 392.57 849.07 394.62 842.32 396.29 835.47 C 388.53 837.62 380.73 839.63 372.97 841.79 C 364.47 843.80 355.38 836.78 355.22 828.06 C 354.60 821.58 358.90 815.17 365.01 813.05 C 370.90 810.96 377.10 809.88 383.07 808.03 C 390.53 806.29 397.78 803.73 405.31 802.30 C 406.37 798.22 407.33 794.12 408.51 790.09 C 399.30 792.43 390.22 795.26 380.94 797.29 C 374.73 798.63 368.06 795.45 365.02 789.93 C 361.78 784.16 362.84 776.22 367.82 771.77 C 371.55 767.96 377.12 767.62 381.97 766.25 C 393.80 762.85 405.77 759.97 417.60 756.55 C 419.47 749.83 420.81 742.98 423.02 736.36 C 411.72 739.49 400.38 742.45 389.05 745.45 C 383.87 747.22 378.39 748.54 372.88 747.85 C 365.30 746.59 359.65 738.42 361.34 730.89 C 362.29 726.12 365.72 721.99 370.23 720.16 C 376.90 717.35 384.02 715.84 391.01 714.04 C 404.57 710.21 418.25 706.87 431.79 702.96 C 433.90 695.90 435.59 688.72 437.57 681.63 C 424.08 685.27 410.58 688.89 397.06 692.42 C 391.51 693.85 385.85 696.40 380.01 695.22 C 373.19 693.79 367.93 687.02 368.45 680.02 C 368.50 674.03 372.73 668.40 378.38 666.53 C 393.39 662.31 408.52 658.51 423.55 654.40 C 431.07 652.75 438.34 649.32 446.19 649.73 C 446.54 648.19 446.90 646.65 447.26 645.12 C 428.08 625.82 408.82 606.60 389.54 587.39 C 377.92 575.36 365.72 563.90 354.18 551.79 C 351.33 548.05 346.63 551.49 342.96 551.92 C 336.11 578.34 328.89 604.66 321.90 631.04 C 319.64 637.00 319.95 644.36 314.79 648.86 C 308.44 655.18 296.62 653.70 292.02 645.99 C 287.53 639.41 290.78 631.34 292.62 624.45 C 298.37 603.32 303.99 582.16 309.58 560.99 C 303.41 562.54 297.23 564.09 291.08 565.74 C 291.38 570.70 289.36 575.30 288.27 580.03 C 283.43 598.83 278.04 617.48 273.21 636.28 C 271.87 640.59 271.21 645.50 267.71 648.72 C 262.36 654.36 252.45 654.55 246.91 649.08 C 242.67 645.32 241.25 639.15 242.76 633.77 C 248.26 614.05 253.31 594.19 258.85 574.48 C 254.17 575.52 249.63 577.08 244.98 578.23 C 240.11 596.53 235.21 614.83 230.26 633.11 C 228.42 638.50 228.43 644.94 224.05 649.12 C 218.60 655.01 208.25 655.05 202.77 649.18 C 198.70 645.34 197.55 639.20 199.11 633.94 C 203.09 618.31 207.59 602.83 211.55 587.19 C 204.25 588.96 197.09 591.22 189.77 592.90 C 187.62 602.80 184.58 612.47 182.12 622.29 C 180.30 627.53 180.15 633.82 175.68 637.73 C 169.39 644.17 157.49 642.77 152.83 635.06 C 149.02 629.72 150.60 622.88 152.44 617.12 C 154.06 612.14 154.92 606.96 156.56 602.00 C 150.00 603.46 143.55 605.33 137.07 607.11 C 137.16 610.43 136.72 613.74 135.61 616.88 C 133.86 622.34 133.73 628.86 129.05 632.86 C 123.18 638.65 112.53 637.98 107.41 631.52 C 103.50 627.23 103.31 620.93 104.96 615.63 C 98.67 617.36 92.44 619.39 86.03 620.64 C 77.81 622.19 69.28 615.41 68.99 607.06 C 68.24 600.27 72.88 593.45 79.43 591.60 C 86.40 589.63 93.43 587.85 100.38 585.82 C 97.08 580.04 97.39 572.08 102.29 567.29 C 107.56 561.43 117.70 561.08 123.29 566.67 C 126.73 570.09 129.96 573.72 133.56 576.99 C 140.31 574.98 147.25 573.67 153.95 571.47 C 146.96 564.66 140.10 557.72 133.21 550.81 C 127.77 545.42 127.85 535.66 133.28 530.30 C 137.59 525.53 145.09 524.38 150.79 527.18 C 153.79 528.71 155.95 531.38 158.32 533.70 C 165.57 541.09 173.06 548.25 180.31 555.64 C 182.53 557.70 184.04 560.35 185.07 563.18 C 189.94 562.14 194.67 560.60 199.50 559.44 C 191.58 551.45 183.64 543.48 175.67 535.54 C 171.62 531.67 170.48 525.46 172.20 520.24 C 174.45 513.40 181.97 508.96 189.06 510.39 C 195.04 511.18 198.60 516.50 202.69 520.31 C 212.87 530.23 222.53 540.69 232.93 550.39 C 239.74 548.82 246.36 546.52 253.20 545.08 C 242.98 535.19 233.11 524.96 222.96 514.99 C 218.76 510.41 213.01 505.82 213.20 498.98 C 212.57 490.53 220.88 483.04 229.18 484.14 C 234.80 484.99 239.46 488.75 243.19 492.84 C 257.48 507.36 272.02 521.62 286.41 536.05 C 293.58 534.11 300.81 532.41 307.93 530.27 C 294.94 517.54 282.10 504.65 269.28 491.74 C 265.42 488.63 262.19 484.20 262.45 479.01 C 262.01 470.73 269.79 463.23 278.05 463.96 C 283.88 463.84 288.17 468.23 291.95 472.07 C 305.24 485.75 318.95 499.01 332.39 512.55 C 335.10 515.21 336.19 518.98 336.40 522.69 C 337.69 522.38 338.97 522.08 340.27 521.79 C 340.26 519.56 340.14 517.33 340.52 515.13 C 352.02 472.08 363.69 429.06 375.09 385.97 C 373.01 383.89 370.93 381.80 368.89 379.68 C 342.22 386.50 315.69 393.87 289.06 400.86 C 283.06 402.37 276.85 405.29 270.59 403.43 C 263.45 401.30 258.82 393.42 260.44 386.14 C 261.47 380.61 265.97 375.90 271.45 374.63 C 295.67 368.11 319.88 361.58 344.15 355.26 C 339.74 350.54 334.86 346.29 330.54 341.48 C 325.88 344.15 320.59 345.28 315.43 346.52 C 295.30 352.11 275.02 357.16 254.93 362.86 C 249.78 364.22 243.96 362.56 240.40 358.56 C 235.16 353.21 235.09 343.76 240.27 338.34 C 244.78 333.37 251.87 332.70 257.98 330.99 C 274.28 326.45 290.68 322.29 306.98 317.76 C 303.28 314.75 300.25 311.04 296.71 307.85 C 276.11 313.27 255.60 318.95 234.98 324.31 C 229.72 325.97 223.44 325.70 219.21 321.81 C 212.66 316.63 212.10 305.76 218.12 299.97 C 221.63 295.99 227.14 295.46 231.96 294.19 C 245.49 290.55 259.01 286.92 272.54 283.31 C 267.02 278.11 261.61 272.81 256.35 267.37 C 244.35 270.96 232.14 273.80 220.11 277.30 C 214.92 278.84 208.84 278.10 204.83 274.24 C 199.86 269.95 198.54 262.27 201.43 256.45 C 203.20 253.00 206.29 250.15 210.03 248.99 C 217.25 246.83 224.61 245.19 231.82 243.00 C 227.39 238.03 222.37 233.64 217.74 228.87 C 214.95 230.64 211.85 231.83 208.60 232.45 C 203.41 233.42 198.35 236.25 192.95 235.01 C 185.36 233.58 179.89 225.57 181.36 217.96 C 182.18 211.35 187.98 206.59 194.21 205.20 C 189.16 199.88 181.72 195.05 181.46 186.95 C 180.82 179.84 186.18 172.89 193.13 171.49 C 197.89 170.54 203.23 171.70 206.63 175.30 C 210.34 179.10 214.20 182.75 217.92 186.55 C 220.84 181.62 226.07 177.73 232.04 178.20 C 240.93 178.03 248.34 187.26 246.29 195.93 C 244.90 200.99 243.53 206.05 242.31 211.16 C 247.49 215.79 251.95 221.16 257.12 225.80 C 259.48 216.95 262.06 208.15 264.25 199.25 C 265.16 194.33 268.45 189.91 273.07 187.90 C 280.26 184.62 289.54 188.03 292.72 195.30 C 295.81 201.67 292.64 208.57 291.11 214.90 C 288.80 223.62 286.34 232.29 284.12 241.04 C 283.49 244.00 281.64 246.43 279.70 248.68 C 283.35 252.08 286.83 255.67 290.51 259.05 C 293.54 247.92 296.21 236.67 299.54 225.62 C 301.90 218.23 310.54 213.94 317.91 216.25 C 325.27 218.29 330.13 226.51 328.19 233.95 C 323.73 250.51 319.24 267.06 314.89 283.64 C 319.81 288.62 324.74 293.60 329.82 298.42 C 333.71 282.87 337.85 267.38 342.23 251.95 C 343.81 245.38 348.74 238.79 356.02 238.49 C 364.21 237.38 372.32 244.74 371.77 253.02 C 371.99 259.75 368.96 265.92 367.62 272.39 C 363.00 289.20 358.80 306.11 354.00 322.86 C 359.31 328.12 364.74 333.25 369.81 338.74 C 374.71 319.83 379.82 300.96 384.98 282.11 C 386.94 274.00 396.36 269.10 404.18 271.91 C 411.12 274.13 415.64 281.84 414.04 289.00 C 408.62 309.64 402.88 330.21 397.56 350.87 C 396.57 354.56 393.61 357.17 390.73 359.45 C 391.64 360.33 392.55 361.21 393.48 362.10 C 397.89 358.40 403.76 357.86 409.11 356.39 C 450.62 345.06 492.26 334.19 533.78 322.89 C 534.06 321.67 534.35 320.46 534.64 319.25 C 511.49 296.08 488.29 272.98 465.17 249.80 C 459.51 244.40 459.51 234.39 465.12 228.97 C 469.33 224.37 476.52 223.20 482.12 225.74 C 485.22 227.17 487.44 229.84 489.82 232.19 C 507.69 250.15 525.66 268.01 543.56 285.94 C 545.67 278.91 547.24 271.73 549.33 264.70 C 546.12 264.00 542.82 263.04 540.49 260.59 C 523.74 243.95 507.20 227.12 490.41 210.52 C 487.02 207.24 484.12 202.96 484.45 198.02 C 484.10 189.01 493.32 181.48 502.09 183.40 C 507.63 184.01 510.89 188.85 514.60 192.38 C 528.81 206.62 543.08 220.79 557.25 235.08 C 558.45 230.38 559.64 225.69 560.92 221.01 C 552.27 213.00 544.38 204.22 535.78 196.16 C 530.02 190.26 524.05 184.57 518.42 178.55 C 513.71 173.67 507.07 169.37 506.09 162.13 C 504.94 155.52 508.85 148.57 515.04 146.06 C 520.52 143.79 527.48 144.91 531.51 149.42 C 535.12 153.51 539.37 156.95 543.03 160.98 C 551.68 170.26 561.25 178.64 569.78 188.03 C 571.85 180.33 573.97 172.64 576.04 164.93 C 570.73 162.53 567.46 157.56 563.28 153.75 C 556.48 147.19 549.85 140.46 543.34 133.62 C 538.36 127.97 538.90 118.45 544.45 113.37 C 549.79 107.91 559.51 107.72 564.96 113.11 C 571.40 119.75 578.00 126.24 584.45 132.86 C 586.89 125.54 588.38 117.94 590.58 110.54 C 586.26 109.95 582.25 107.95 579.43 104.59 C 574.72 99.40 567.67 94.73 567.70 86.94 C 566.99 78.24 575.33 70.35 583.98 71.49 C 590.45 71.61 594.36 77.18 598.42 81.37 C 600.70 74.69 600.53 66.28 606.77 61.73 M 486.86 366.53 C 463.44 372.71 440.07 379.03 416.68 385.34 C 424.86 393.51 432.78 401.93 441.21 409.83 C 452.18 420.86 463.02 432.01 474.08 442.95 C 481.20 450.26 488.87 457.06 495.61 464.73 C 505.46 428.58 515.02 392.35 524.76 356.17 C 512.23 360.00 499.46 362.98 486.86 366.53 M 553.76 363.66 C 547.94 385.54 542.02 407.40 536.19 429.28 C 532.18 443.58 528.79 458.05 524.49 472.27 C 560.72 462.67 596.85 452.71 633.13 443.30 C 606.74 416.68 580.09 390.33 553.76 363.66 M 399.54 410.55 C 390.47 444.74 381.21 478.88 372.07 513.06 C 406.33 504.11 440.45 494.57 474.74 485.75 C 449.56 460.79 424.63 435.58 399.54 410.55 M 532.46 501.08 C 537.64 506.34 542.66 511.78 548.11 516.80 C 562.79 531.16 576.95 546.04 591.64 560.38 C 596.90 565.98 602.69 571.07 607.87 576.76 C 617.13 542.32 626.27 507.85 635.59 473.42 C 601.24 482.76 566.86 491.96 532.46 501.08 M 385.23 540.61 C 408.79 564.55 432.77 588.07 456.35 611.99 C 463.79 583.27 471.64 554.66 479.25 525.99 C 480.20 522.01 481.39 518.10 482.78 514.26 C 450.37 523.40 417.72 531.74 385.23 540.61 M 511.32 521.96 C 502.63 554.59 493.79 587.19 485.19 619.85 C 517.65 611.02 550.17 602.40 582.66 593.69 C 565.32 576.57 548.25 559.19 531.06 541.91 C 524.38 535.37 517.47 529.02 511.32 521.96 Z"></path><path fill="#000000" opacity="1.00" d=" M 535.37 64.60 C 543.99 62.13 553.73 68.94 554.01 77.96 C 555.03 86.40 547.43 94.54 538.94 94.05 C 530.98 94.30 523.81 86.97 524.21 79.03 C 523.98 72.39 528.99 66.18 535.37 64.60 Z"></path><path fill="#000000" opacity="1.00" d=" M 653.32 98.35 C 662.11 94.71 673.04 101.43 673.50 110.97 C 674.60 119.27 667.40 127.44 659.03 127.30 C 651.12 127.83 643.70 120.88 643.70 112.97 C 643.24 106.66 647.45 100.52 653.32 98.35 Z"></path><path fill="#000000" opacity="1.00" d=" M 506.45 102.71 C 514.74 100.22 525.08 105.96 525.45 115.09 C 526.91 123.56 519.65 132.22 511.02 132.05 C 502.87 132.61 495.29 125.21 495.70 117.04 C 495.49 110.55 500.26 104.44 506.45 102.71 Z"></path><path fill="#000000" opacity="1.00" d=" M 165.46 134.54 C 174.30 131.52 184.66 138.59 184.78 147.97 C 185.63 156.21 178.27 164.11 169.99 163.80 C 161.61 164.24 154.08 156.28 154.97 147.93 C 155.14 141.83 159.67 136.28 165.46 134.54 Z"></path><path fill="#000000" opacity="1.00" d=" M 480.31 140.26 C 489.07 136.82 499.81 143.53 500.25 152.99 C 501.40 161.58 493.61 169.92 484.96 169.30 C 477.35 169.40 470.49 162.61 470.45 155.01 C 469.97 148.59 474.30 142.37 480.31 140.26 Z"></path><path fill="#000000" opacity="1.00" d=" M 251.30 153.36 C 260.12 149.69 271.10 156.46 271.51 166.04 C 272.56 174.32 265.37 182.45 257.01 182.30 C 249.13 182.82 241.73 175.90 241.71 168.02 C 241.22 161.70 245.42 155.54 251.30 153.36 Z"></path><path fill="#000000" opacity="1.00" d=" M 451.24 183.28 C 459.85 180.39 469.92 186.96 470.49 196.06 C 471.68 204.40 464.47 212.68 456.03 212.55 C 448.04 213.09 440.56 206.00 440.70 198.00 C 440.30 191.43 445.00 185.13 451.24 183.28 Z"></path><path fill="#000000" opacity="1.00" d=" M 659.24 191.28 C 668.04 187.78 678.89 194.56 679.26 204.09 C 680.35 212.64 672.59 220.91 663.98 220.30 C 656.37 220.41 649.50 213.63 649.45 206.03 C 648.96 199.64 653.26 193.42 659.24 191.28 Z"></path><path fill="#000000" opacity="1.00" d=" M 336.30 194.37 C 345.02 191.81 354.88 198.80 355.03 207.94 C 355.91 216.29 348.37 224.25 339.99 223.79 C 332.13 224.07 324.95 216.92 325.21 209.05 C 324.86 202.35 329.85 195.98 336.30 194.37 Z"></path><path fill="#000000" opacity="1.00" d=" M 392.29 235.26 C 401.05 231.81 411.82 238.52 412.25 247.99 C 413.33 256.21 406.25 264.32 397.96 264.30 C 390.00 264.93 382.48 257.98 382.45 250.01 C 381.97 243.61 386.29 237.38 392.29 235.26 Z"></path><path fill="#000000" opacity="1.00" d=" M 164.41 239.53 C 172.96 237.27 182.43 244.02 182.76 252.90 C 183.79 261.24 176.41 269.37 168.00 269.05 C 159.94 269.47 152.55 262.09 152.95 254.03 C 152.72 247.28 157.90 241.00 164.41 239.53 Z"></path><path fill="#000000" opacity="1.00" d=" M 653.21 261.20 C 661.93 257.89 672.52 264.56 673.00 273.92 C 674.17 282.42 666.59 290.76 658.01 290.30 C 650.33 290.55 643.25 283.77 643.21 276.09 C 642.67 269.59 647.11 263.28 653.21 261.20 Z"></path><path fill="#000000" opacity="1.00" d=" M 182.25 283.39 C 191.05 280.28 201.58 287.54 201.77 296.87 C 202.67 305.14 195.32 313.11 187.00 312.80 C 179.04 313.21 171.68 306.01 171.95 298.04 C 171.60 291.51 176.32 285.64 182.25 283.39 Z"></path><path fill="#000000" opacity="1.00" d=" M 727.36 285.57 C 736.21 282.48 746.63 289.52 746.78 298.93 C 747.65 307.18 740.29 315.11 731.99 314.80 C 724.00 315.21 716.64 307.96 716.95 299.96 C 716.67 293.53 721.27 287.43 727.36 285.57 Z"></path><path fill="#000000" opacity="1.00" d=" M 780.50 289.57 C 789.10 287.18 798.75 294.00 799.02 302.98 C 800.01 311.41 792.44 319.52 783.96 319.05 C 776.00 319.32 768.81 311.98 769.21 304.04 C 768.97 297.35 774.05 291.09 780.50 289.57 Z"></path><path fill="#000000" opacity="1.00" d=" M 485.30 292.36 C 494.11 288.69 505.09 295.45 505.51 305.03 C 506.57 313.33 499.35 321.47 490.97 321.30 C 483.10 321.80 475.71 314.87 475.71 306.99 C 475.23 300.68 479.43 294.53 485.30 292.36 Z"></path><path fill="#000000" opacity="1.00" d=" M 823.39 293.41 C 832.30 289.62 843.17 296.42 843.89 306.01 C 845.82 315.09 836.61 323.00 827.99 322.28 C 820.18 322.14 813.42 314.76 813.95 306.97 C 813.86 301.05 817.97 295.56 823.39 293.41 Z"></path><path fill="#000000" opacity="1.00" d=" M 872.34 298.42 C 881.12 295.71 891.16 302.74 891.28 311.98 C 892.13 320.40 884.47 328.38 876.02 327.80 C 868.21 327.94 861.20 320.80 861.45 313.01 C 861.13 306.39 866.02 300.13 872.34 298.42 Z"></path><path fill="#000000" opacity="1.00" d=" M 430.47 307.65 C 439.17 305.02 449.04 311.94 449.27 321.06 C 450.18 329.17 443.15 337.04 435.00 337.04 C 426.77 337.75 419.03 330.26 419.45 322.01 C 419.26 315.44 424.16 309.27 430.47 307.65 Z"></path><path fill="#000000" opacity="1.00" d=" M 201.32 324.35 C 207.39 322.05 214.80 324.08 218.61 329.39 C 223.42 335.50 222.23 345.31 216.02 350.04 C 209.60 355.54 198.75 353.91 194.21 346.77 C 188.75 339.23 192.49 327.35 201.32 324.35 Z"></path><path fill="#000000" opacity="1.00" d=" M 609.25 329.28 C 617.83 326.41 627.87 332.93 628.49 342.00 C 629.71 350.37 622.47 358.71 613.99 358.55 C 606.00 359.07 598.53 351.96 598.70 343.95 C 598.32 337.39 603.02 331.13 609.25 329.28 Z"></path><path fill="#000000" opacity="1.00" d=" M 962.45 352.65 C 971.13 350.02 981.01 356.91 981.27 366.02 C 982.27 374.51 974.53 382.64 966.00 382.05 C 958.11 382.20 951.05 374.87 951.45 366.99 C 951.27 360.43 956.16 354.29 962.45 352.65 Z"></path><path fill="#000000" opacity="1.00" d=" M 650.38 370.39 C 658.98 367.26 669.26 373.70 669.98 382.85 C 671.33 391.43 663.73 400.00 655.04 399.55 C 647.24 399.82 640.09 392.84 640.20 385.04 C 639.77 378.57 644.29 372.38 650.38 370.39 Z"></path><path fill="#000000" opacity="1.00" d=" M 223.43 371.64 C 232.11 367.98 243.03 374.41 243.73 383.86 C 245.05 392.37 237.62 400.85 229.00 400.55 C 221.13 400.95 213.82 393.91 213.95 386.03 C 213.56 379.83 217.70 373.85 223.43 371.64 Z"></path><path fill="#000000" opacity="1.00" d=" M 336.38 395.49 C 345.23 392.58 355.47 399.71 355.54 409.06 C 356.30 417.18 349.14 424.96 340.98 424.80 C 332.92 425.34 325.43 418.07 325.70 410.01 C 325.39 403.46 330.15 397.27 336.38 395.49 Z"></path><path fill="#000000" opacity="1.00" d=" M 903.32 418.36 C 912.03 415.83 921.85 422.79 922.03 431.90 C 922.93 440.26 915.39 448.24 907.01 447.80 C 899.13 448.08 891.95 440.93 892.21 433.06 C 891.85 426.35 896.86 419.97 903.32 418.36 Z"></path><path fill="#000000" opacity="1.00" d=" M 240.40 447.48 C 249.23 444.59 259.44 451.70 259.54 461.03 C 260.31 469.11 253.23 476.89 245.10 476.79 C 237.00 477.41 229.43 470.12 229.70 462.02 C 229.38 455.46 234.15 449.26 240.40 447.48 Z"></path><path fill="#000000" opacity="1.00" d=" M 321.23 452.19 C 329.97 448.89 340.55 455.60 341.00 464.97 C 342.14 473.45 334.58 481.76 326.01 481.30 C 318.33 481.55 311.25 474.77 311.21 467.08 C 310.68 460.57 315.13 454.26 321.23 452.19 Z"></path><path fill="#000000" opacity="1.00" d=" M 824.28 470.27 C 833.08 466.80 843.88 473.57 844.26 483.07 C 845.36 491.64 837.57 499.93 828.95 499.30 C 821.34 499.39 814.48 492.60 814.45 485.00 C 813.98 478.60 818.29 472.38 824.28 470.27 Z"></path><path fill="#000000" opacity="1.00" d=" M 175.39 477.65 C 184.07 473.97 194.99 480.37 195.72 489.81 C 197.08 498.35 189.61 506.88 180.96 506.55 C 173.11 506.92 165.83 499.90 165.95 492.05 C 165.55 485.85 169.68 479.88 175.39 477.65 Z"></path><path fill="#000000" opacity="1.00" d=" M 679.38 495.47 C 688.06 492.15 698.60 498.68 699.24 507.98 C 700.45 516.27 693.39 524.54 685.01 524.55 C 676.92 525.21 669.28 518.05 669.45 509.93 C 669.10 503.60 673.45 497.53 679.38 495.47 Z"></path><path fill="#000000" opacity="1.00" d=" M 762.41 499.53 C 770.93 497.27 780.40 503.99 780.76 512.85 C 781.81 521.19 774.45 529.35 766.03 529.05 C 757.95 529.48 750.53 522.09 750.95 514.00 C 750.73 507.26 755.90 501.00 762.41 499.53 Z"></path><path fill="#000000" opacity="1.00" d=" M 99.52 528.63 C 108.17 526.06 117.97 532.91 118.26 541.97 C 119.23 550.10 112.21 558.02 104.03 558.04 C 95.77 558.77 88.00 551.25 88.45 542.97 C 88.28 536.40 93.20 530.24 99.52 528.63 Z"></path><path fill="#000000" opacity="1.00" d=" M 666.40 551.53 C 674.95 549.26 684.45 556.03 684.76 564.92 C 685.77 573.24 678.41 581.36 670.01 581.05 C 661.93 581.47 654.52 574.07 654.95 565.98 C 654.74 559.25 659.91 553.00 666.40 551.53 Z"></path><path fill="#000000" opacity="1.00" d=" M 776.31 576.26 C 785.05 572.83 795.78 579.50 796.25 588.94 C 797.42 597.54 789.64 605.91 780.98 605.30 C 773.35 605.40 766.47 598.60 766.45 590.99 C 765.98 584.58 770.31 578.37 776.31 576.26 Z"></path><path fill="#000000" opacity="1.00" d=" M 350.30 577.50 C 358.97 574.12 369.55 580.62 370.23 589.93 C 371.48 598.24 364.40 606.55 355.98 606.55 C 347.92 607.19 340.30 600.06 340.45 591.96 C 340.09 585.64 344.40 579.59 350.30 577.50 Z"></path><path fill="#000000" opacity="1.00" d=" M 39.41 594.56 C 48.24 591.50 58.60 598.52 58.78 607.89 C 59.66 616.14 52.34 624.08 44.05 623.79 C 36.05 624.23 28.65 616.99 28.95 608.99 C 28.66 602.53 33.28 596.40 39.41 594.56 Z"></path><path fill="#000000" opacity="1.00" d=" M 391.35 618.42 C 400.12 614.64 411.21 621.28 411.74 630.86 C 412.95 639.30 405.51 647.61 396.99 647.30 C 389.20 647.69 381.99 640.82 381.96 633.04 C 381.45 626.77 385.58 620.70 391.35 618.42 Z"></path><path fill="#000000" opacity="1.00" d=" M 798.38 623.66 C 807.08 619.96 818.04 626.41 818.73 635.88 C 820.04 644.39 812.59 652.87 803.98 652.55 C 796.12 652.93 788.83 645.91 788.95 638.04 C 788.55 631.85 792.68 625.88 798.38 623.66 Z"></path><path fill="#000000" opacity="1.00" d=" M 571.36 639.57 C 580.22 636.47 590.65 643.53 590.78 652.95 C 591.63 661.19 584.29 669.10 576.01 668.80 C 568.03 669.21 560.66 661.99 560.95 654.00 C 560.66 647.55 565.25 641.43 571.36 639.57 Z"></path><path fill="#000000" opacity="1.00" d=" M 130.45 648.59 C 139.03 646.17 148.68 652.93 149.01 661.88 C 150.07 670.33 142.49 678.51 133.98 678.05 C 125.99 678.33 118.77 670.95 119.21 662.97 C 119.00 656.32 124.05 650.11 130.45 648.59 Z"></path><path fill="#000000" opacity="1.00" d=" M 177.33 654.43 C 186.14 651.69 196.22 658.78 196.28 668.05 C 197.10 676.48 189.38 684.44 180.92 683.79 C 172.75 683.90 165.71 676.10 166.44 667.99 C 165.96 661.43 171.35 656.05 177.33 654.43 Z"></path><path fill="#000000" opacity="1.00" d=" M 514.48 655.62 C 523.16 652.00 534.03 658.44 534.72 667.86 C 536.05 676.37 528.61 684.86 519.99 684.55 C 512.14 684.94 504.84 677.93 504.95 670.07 C 504.54 663.83 508.72 657.82 514.48 655.62 Z"></path><path fill="#000000" opacity="1.00" d=" M 222.34 657.43 C 231.14 654.70 241.21 661.77 241.28 671.04 C 242.11 679.45 234.41 687.42 225.96 686.79 C 218.16 686.91 211.17 679.75 211.45 671.95 C 211.16 665.35 216.04 659.12 222.34 657.43 Z"></path><path fill="#000000" opacity="1.00" d=" M 274.43 661.66 C 283.13 659.01 293.03 665.92 293.27 675.05 C 294.25 683.52 286.54 691.61 278.04 691.05 C 270.12 691.22 263.02 683.86 263.45 675.95 C 263.29 669.41 268.17 663.29 274.43 661.66 Z"></path><path fill="#000000" opacity="1.00" d=" M 819.48 663.71 C 828.20 660.94 838.23 667.81 838.52 677.00 C 839.56 685.89 830.93 694.49 822.04 693.21 C 815.05 692.29 808.83 686.20 808.72 678.99 C 808.09 672.17 812.93 665.49 819.48 663.71 Z"></path><path fill="#000000" opacity="1.00" d=" M 347.31 686.50 C 355.99 683.12 366.59 689.64 367.24 698.97 C 368.45 707.25 361.43 715.51 353.05 715.55 C 344.97 716.23 337.31 709.10 337.45 701.00 C 337.07 694.66 341.40 688.59 347.31 686.50 Z"></path><path fill="#000000" opacity="1.00" d=" M 838.31 707.43 C 847.09 704.70 857.15 711.72 857.28 720.96 C 858.15 729.39 850.46 737.40 842.00 736.80 C 834.21 736.93 827.22 729.82 827.45 722.04 C 827.12 715.42 831.99 709.15 838.31 707.43 Z"></path><path fill="#000000" opacity="1.00" d=" M 607.40 712.65 C 616.09 708.96 627.02 715.40 627.72 724.85 C 629.05 733.35 621.63 741.85 613.01 741.55 C 605.15 741.95 597.84 734.93 597.96 727.06 C 597.54 720.86 601.68 714.88 607.40 712.65 Z"></path><path fill="#000000" opacity="1.00" d=" M 666.51 752.64 C 675.16 750.06 684.96 756.90 685.26 765.95 C 686.24 774.08 679.23 782.01 671.05 782.04 C 662.79 782.77 655.00 775.26 655.45 766.98 C 655.27 760.40 660.20 754.24 666.51 752.64 Z"></path><path fill="#000000" opacity="1.00" d=" M 341.36 756.40 C 350.33 753.08 361.05 760.31 361.04 769.92 C 361.79 778.17 354.31 785.96 346.04 785.55 C 338.25 785.82 331.11 778.85 331.21 771.07 C 330.76 764.60 335.28 758.39 341.36 756.40 Z"></path><path fill="#000000" opacity="1.00" d=" M 549.31 764.35 C 558.14 760.69 569.12 767.48 569.51 777.08 C 570.54 785.34 563.36 793.44 555.03 793.30 C 547.13 793.83 539.71 786.88 539.70 778.97 C 539.24 772.66 543.44 766.52 549.31 764.35 Z"></path><path fill="#000000" opacity="1.00" d=" M 748.48 794.62 C 757.14 791.01 767.99 797.41 768.72 806.81 C 770.08 815.35 762.61 823.89 753.95 823.55 C 746.09 823.92 738.80 816.87 738.95 809.00 C 738.57 802.79 742.74 796.81 748.48 794.62 Z"></path><path fill="#000000" opacity="1.00" d=" M 519.46 807.63 C 528.15 803.98 539.05 810.44 539.73 819.89 C 541.04 828.39 533.59 836.86 524.98 836.55 C 517.12 836.94 509.83 829.90 509.95 822.03 C 509.56 815.82 513.71 809.83 519.46 807.63 Z"></path><path fill="#000000" opacity="1.00" d=" M 836.51 812.70 C 845.24 809.94 855.28 816.86 855.52 826.06 C 856.44 834.23 849.27 842.18 841.05 842.05 C 833.23 842.58 825.84 835.81 825.72 827.98 C 825.09 821.16 829.95 814.47 836.51 812.70 Z"></path><path fill="#000000" opacity="1.00" d=" M 495.38 844.57 C 504.23 841.47 514.66 848.55 514.78 857.97 C 515.57 865.80 508.98 873.42 501.12 873.76 C 495.25 874.17 488.70 871.37 486.12 865.84 C 482.50 857.82 486.63 847.02 495.38 844.57 Z"></path><path fill="#000000" opacity="1.00" d=" M 346.43 849.64 C 355.12 845.98 366.03 852.42 366.73 861.86 C 368.05 870.36 360.62 878.85 352.01 878.55 C 344.14 878.95 336.83 871.91 336.95 864.04 C 336.56 857.83 340.70 851.84 346.43 849.64 Z"></path><path fill="#000000" opacity="1.00" d=" M 467.34 882.42 C 476.13 879.70 486.19 886.76 486.28 896.01 C 487.12 904.43 479.42 912.41 470.97 911.79 C 463.18 911.91 456.20 904.78 456.45 897.00 C 456.14 890.38 461.02 884.13 467.34 882.42 Z"></path><path fill="#000000" opacity="1.00" d=" M 375.32 933.43 C 384.10 930.70 394.16 937.73 394.28 946.98 C 395.08 955.01 388.13 962.77 380.06 962.79 C 371.89 963.51 364.17 956.19 364.45 948.00 C 364.14 941.39 369.01 935.13 375.32 933.43 Z"></path></svg>